<svg width="568" height="66" viewBox="0 0 568 66" fill="none" xmlns="http://www.w3.org/2000/svg">
<path d="M329.134 64.8702H342.508V38.7405H368.236V27.7141H342.508V12.6417H371.016V1.6153H329.134V64.8702Z" fill="#2C3585"/>
<path d="M393.385 1.6153H380.011V64.8702H393.385V1.6153Z" fill="#2C3585"/>
<path d="M404.388 64.8702H417.762V42.4468H427.522L439.506 64.8702H454.269L440.834 40.2848C448.03 37.1962 452.015 30.9263 452.015 22.2782C452.015 9.70748 443.706 1.6153 429.344 1.6153H404.388V64.8702ZM417.762 31.6984V12.549H426.781C434.502 12.549 438.24 15.9774 438.24 22.2782C438.24 28.5481 434.502 31.6984 426.842 31.6984H417.762Z" fill="#2C3585"/>
<path d="M495.78 19.8073H508.598C508.413 8.53381 499.147 0.750488 485.063 0.750488C471.195 0.750488 461.034 8.41026 461.095 19.8999C461.064 29.2276 467.643 34.5709 478.33 37.1344L485.217 38.864C492.105 40.5319 495.935 42.5086 495.966 46.7709C495.935 51.4038 491.549 54.5542 484.754 54.5542C477.805 54.5542 472.801 51.3421 472.369 45.0104H459.427C459.767 58.693 469.558 65.7659 484.909 65.7659C500.352 65.7659 509.432 58.3841 509.463 46.8018C509.432 36.2696 501.494 30.6792 490.499 28.2083L484.816 26.8493C479.318 25.583 474.716 23.5445 474.809 19.0042C474.809 14.9272 478.422 11.9313 484.97 11.9313C491.364 11.9313 495.286 14.8346 495.78 19.8073Z" fill="#2C3585"/>
<path d="M516.05 12.6417H535.415V64.8702H548.634V12.6417H568V1.6153H516.05V12.6417Z" fill="#2C3585"/>
<path d="M56.9232 23.2705C55.1627 8.6613 44.1055 0.260254 29.4654 0.260254C12.756 0.260254 0 12.0588 0 32.7525C0 53.3845 12.5398 65.2448 29.4654 65.2448C45.6807 65.2448 55.4716 54.4655 56.9232 42.8214L43.3951 42.7596C42.1288 49.5237 36.8163 53.4154 29.6816 53.4154C20.076 53.4154 13.559 46.2807 13.559 32.7525C13.559 19.595 19.9834 12.0897 29.7743 12.0897C37.0943 12.0897 42.3758 16.3211 43.3951 23.2705H56.9232Z" fill="#2C3585"/>
<path d="M66.5134 64.38H79.8871V38.2503H107.036V64.38H120.379V1.12507H107.036V27.2239H79.8871V1.12507H66.5134V64.38Z" fill="#2C3585"/>
<path d="M131.405 64.38H174.152V53.3536H144.779V38.2503H171.835V27.2239H144.779V12.1514H174.028V1.12507H131.405V64.38Z" fill="#2C3585"/>
<path d="M240.472 23.2705C238.712 8.6613 227.654 0.260254 213.014 0.260254C196.305 0.260254 183.549 12.0588 183.549 32.7525C183.549 53.3845 196.089 65.2448 213.014 65.2448C229.23 65.2448 239.02 54.4655 240.472 42.8214L226.944 42.7596C225.678 49.5237 220.365 53.4154 213.23 53.4154C203.625 53.4154 197.108 46.2807 197.108 32.7525C197.108 19.595 203.532 12.0897 213.323 12.0897C220.643 12.0897 225.925 16.3211 226.944 23.2705H240.472Z" fill="#2C3585"/>
<path d="M283.529 41.8167L297.697 65.9997H313.696L290.088 28.8379L283.529 41.8167Z" fill="#2C3585"/>
<path d="M250.062 65.9999H263.436L317.424 2.74512H301.394L264.27 48.6109H263.436V24.8905H250.062V65.9999Z" fill="#46DBC9"/>
</svg>
