<svg width="448" height="520" viewBox="0 0 448 520" fill="none" xmlns="http://www.w3.org/2000/svg">
<path d="M299.931 31.1921H61.5952C55.7503 31.1972 51.0146 35.937 51.0146 41.7821V185.606C51.0146 191.451 55.7503 196.191 61.5952 196.196H201.361L222.677 217.921C223.592 218.856 224.982 219.144 226.193 218.649C227.405 218.154 228.196 216.975 228.194 215.667V196.196H299.931C305.78 196.196 310.521 191.454 310.521 185.606V41.7821C310.521 35.9334 305.78 31.1921 299.931 31.1921V31.1921Z" fill="#F4F6F9"/>
<path fill-rule="evenodd" clip-rule="evenodd" d="M299.931 31.1921H61.5952C55.7503 31.1972 51.0146 35.937 51.0146 41.7821V185.606C51.0146 191.451 55.7503 196.191 61.5952 196.196H201.361L222.677 217.921C223.592 218.856 224.982 219.144 226.193 218.649C227.405 218.154 228.196 216.975 228.194 215.667V196.196H299.931C305.78 196.196 310.521 191.454 310.521 185.606V41.7821C310.521 35.9334 305.78 31.1921 299.931 31.1921V31.1921Z" stroke="#09101D"/>
<path d="M160.856 66.8517C161.765 73.8692 162.256 81.1686 160.701 88.1316C160.211 90.7 159.213 93.1447 157.765 95.3219C156.138 97.6462 153.565 99.1307 150.739 99.3761C147.319 99.6089 143.958 98.3952 141.476 96.0309C141.049 95.631 140.403 96.2764 140.831 96.6763C145.267 100.803 152.711 101.839 157.256 97.2854C159.126 95.2527 160.458 92.7838 161.128 90.1042C162.017 86.8429 162.499 83.4845 162.565 80.1051C162.657 75.6699 162.39 71.2345 161.765 66.8426C161.692 66.2699 160.783 66.2699 160.856 66.8426V66.8517Z" fill="#09101D"/>
<path d="M145.758 77.8512C145.557 77.9576 145.399 78.1313 145.313 78.3421C145.24 78.5696 145.24 78.8144 145.313 79.042C145.346 79.1516 145.388 79.2581 145.44 79.3601C145.507 79.4877 145.607 79.5946 145.731 79.6692C145.947 79.7845 146.212 79.7517 146.394 79.5874C146.505 79.4699 146.564 79.3126 146.558 79.1511C146.513 78.9238 146.446 78.7015 146.358 78.4875C146.318 78.377 146.245 78.2817 146.149 78.2148C146.039 78.1596 145.914 78.1435 145.794 78.1693C145.677 78.2011 145.577 78.2787 145.517 78.3846C145.458 78.4905 145.443 78.616 145.476 78.7329L145.576 79.0238C145.615 79.1013 145.643 79.184 145.658 79.2692V79.1965V79.0784V78.9693L145.731 78.8784L145.822 78.8056H145.931H146.058H146.176H146.285L146.376 78.8693L146.322 78.8147L146.394 78.9147L146.303 78.7602L146.349 78.8693C146.322 78.799 146.304 78.7257 146.294 78.6511V78.7784C146.285 78.7181 146.285 78.6568 146.294 78.5966V78.7147C146.29 78.6694 146.29 78.6238 146.294 78.5784L146.249 78.6784C146.27 78.64 146.294 78.6035 146.322 78.5693L146.249 78.6602C146.274 78.6227 146.305 78.589 146.34 78.5602L146.249 78.6329L146.34 78.5784C146.442 78.5184 146.517 78.4204 146.549 78.3057C146.582 78.1887 146.567 78.0633 146.508 77.9574C146.448 77.8514 146.348 77.7739 146.231 77.7421C146.114 77.7153 145.991 77.7315 145.885 77.7876L145.758 77.8512Z" fill="#09101D"/>
<path d="M156.611 79.3871C156.411 79.4884 156.255 79.66 156.174 79.8689C156.087 80.0918 156.071 80.3364 156.129 80.5688C156.156 80.6832 156.199 80.7933 156.256 80.896C156.321 81.023 156.422 81.1275 156.547 81.196C156.759 81.3156 157.025 81.2824 157.201 81.1142C157.323 81.0037 157.384 80.8412 157.365 80.6779C157.33 80.4512 157.263 80.2307 157.165 80.0234C157.134 79.9086 157.059 79.8107 156.956 79.7507C156.845 79.7052 156.721 79.7052 156.611 79.7507C156.496 79.782 156.398 79.8571 156.338 79.9598C156.288 80.0695 156.288 80.1954 156.338 80.3052L156.438 80.5961C156.475 80.6776 156.502 80.763 156.52 80.8506V80.7233C156.524 80.7413 156.524 80.7599 156.52 80.7779V80.5779L156.565 80.4688L156.638 80.3688L156.729 80.2961L156.838 80.2506H156.956H157.083L157.192 80.2961L157.292 80.3688L157.229 80.3143L157.301 80.4052C157.269 80.3567 157.241 80.3049 157.22 80.2506V80.3597C157.192 80.2929 157.174 80.2225 157.165 80.1507V80.2688C157.161 80.2113 157.161 80.1536 157.165 80.0961V80.2143C157.156 80.1663 157.156 80.1169 157.165 80.0688V80.1779C157.181 80.1358 157.202 80.096 157.229 80.0598L157.156 80.1507L157.256 80.0598L157.165 80.1234L157.256 80.0688C157.359 80.0088 157.434 79.9109 157.465 79.7961C157.511 79.6855 157.511 79.5614 157.465 79.4507C157.405 79.348 157.307 79.273 157.192 79.2416C157.073 79.2158 156.947 79.2319 156.838 79.2871L156.611 79.3871Z" fill="#09101D"/>
<path d="M135.386 80.9868C134.198 80.5604 133.144 79.8265 132.332 78.8597C131.423 77.8697 130.932 76.5672 130.959 75.2237C130.991 74.5814 131.302 73.9852 131.811 73.5918C132.32 73.1985 132.975 73.0474 133.605 73.1784C134.897 73.4591 135.91 74.4617 136.204 75.7509C136.27 76.0019 136.526 76.1525 136.777 76.0872C137.028 76.022 137.179 75.7656 137.113 75.5146C136.815 74.2907 136.013 73.2503 134.904 72.6512C133.794 72.0516 132.446 72.0967 131.378 72.7693C129.06 74.4237 130.241 77.7507 131.759 79.5142C132.68 80.5665 133.857 81.3621 135.177 81.8231C135.732 82.0231 135.968 81.1413 135.423 80.9141L135.386 80.9868Z" fill="#09101D"/>
<path d="M132.786 75.4331C133.058 75.2388 133.423 75.2388 133.695 75.4331C133.972 75.6655 134.193 75.9576 134.341 76.2876C134.715 77.0124 134.946 77.8024 135.022 78.6147C135.022 78.7601 135.259 78.7601 135.25 78.6147C135.166 77.6543 134.875 76.7237 134.395 75.8876C134.221 75.5415 133.936 75.2632 133.586 75.0968C133.265 74.9456 132.885 74.9953 132.613 75.224C132.504 75.3149 132.659 75.4786 132.768 75.3786L132.786 75.4331Z" fill="#09101D"/>
<path d="M133.859 76.8516H133.905C133.985 76.8291 134.07 76.8291 134.15 76.8516C134.343 76.9264 134.499 77.073 134.586 77.2607C134.659 77.3879 134.859 77.2607 134.786 77.1516C134.665 76.8956 134.44 76.7037 134.168 76.6244C133.917 76.5632 133.657 76.6839 133.541 76.9153C133.541 76.9698 133.541 77.0425 133.623 77.0516C133.651 77.0601 133.681 77.0572 133.706 77.0436C133.732 77.0299 133.751 77.0066 133.759 76.9789L133.859 76.8516Z" fill="#09101D"/>
<path d="M133.114 80.8148C133.812 89.4773 133.479 98.192 132.123 106.776C132.032 107.349 132.914 107.594 133.032 107.022C134.408 98.357 134.746 89.5594 134.041 80.8148C133.986 80.2421 133.077 80.233 133.132 80.8148H133.114Z" fill="#09101D"/>
<path d="M151.458 100.131C150.972 103.54 150.735 106.979 150.749 110.421C150.749 111.003 151.658 111.012 151.658 110.421C151.644 106.979 151.881 103.54 152.367 100.131C152.439 99.5496 151.53 99.5587 151.458 100.131V100.131Z" fill="#09101D"/>
<path d="M151.429 78.5057C151.589 80.4345 151.552 82.3746 151.32 84.2961C151.32 84.5471 151.524 84.7506 151.775 84.7506C152.026 84.7506 152.229 84.5471 152.229 84.2961C152.461 82.3746 152.498 80.4345 152.338 78.5057C152.338 77.9239 151.429 77.9239 151.429 78.5057V78.5057Z" fill="#09101D"/>
<path d="M145.666 74.1058H145.739H145.857L146.13 74.0149L146.403 73.9512H146.503V73.9512H146.584C146.775 73.9376 146.967 73.9376 147.157 73.9512H147.284H147.366C147.465 73.9606 147.562 73.9788 147.657 74.0058C147.898 74.0696 148.145 73.9277 148.212 73.6876C148.271 73.4452 148.132 73.1985 147.893 73.124C146.979 72.9088 146.018 73.0081 145.166 73.4058C144.952 73.5322 144.879 73.8079 145.003 74.0239C145.133 74.2399 145.411 74.3125 145.63 74.1876L145.666 74.1058Z" fill="#09101D"/>
<path d="M155.921 75.6694H155.993V75.6694L156.102 75.624L156.375 75.5422L156.657 75.4785H156.739C156.739 75.4785 156.793 75.4785 156.739 75.4785H156.839C157.032 75.4649 157.227 75.4649 157.42 75.4785H157.63L157.911 75.5331C158.162 75.6008 158.421 75.4523 158.489 75.2013C158.556 74.9503 158.408 74.6918 158.157 74.6241C157.243 74.4053 156.282 74.5014 155.43 74.8968C155.214 75.0266 155.141 75.3052 155.266 75.524C155.396 75.7346 155.668 75.8066 155.884 75.6876L155.921 75.6694Z" fill="#09101D"/>
<path d="M128.178 109.057C121.479 111.112 114.634 112.839 108.235 115.748C105.286 116.996 102.557 118.712 100.154 120.829C97.7868 123.001 96.0315 125.756 95.0636 128.819C94.1698 132.093 93.7113 135.47 93.7002 138.864C93.5366 142.618 93.3366 146.372 93.2184 150.136C92.9986 157.573 93.1837 165.016 93.7729 172.434C94.2424 179.668 95.5199 186.827 97.5815 193.777C97.8451 194.632 98.136 195.477 98.436 196.313C98.6269 196.859 99.5086 196.622 99.345 196.077C97.0506 189.335 95.5854 182.339 94.9818 175.242C94.2654 168.045 93.9619 160.813 94.0729 153.581C94.1274 149.79 94.291 146 94.4728 142.218C94.5178 138.824 94.7728 135.436 95.2364 132.074C95.7295 128.829 97.0752 125.774 99.1359 123.22C101.215 120.861 103.743 118.939 106.571 117.566C112.698 114.421 119.406 112.63 125.978 110.675L128.433 109.939C128.684 109.874 128.834 109.617 128.769 109.366C128.704 109.115 128.447 108.965 128.196 109.03L128.178 109.057Z" fill="#09101D"/>
<path d="M128.733 109.667C129.451 107.712 130.74 106.017 132.432 104.804C132.651 104.678 132.726 104.399 132.601 104.181C132.475 103.963 132.196 103.887 131.978 104.013C130.092 105.36 128.657 107.245 127.86 109.421C127.827 109.538 127.842 109.664 127.901 109.77C127.961 109.876 128.061 109.953 128.178 109.985C128.419 110.044 128.662 109.904 128.733 109.667V109.667Z" fill="#09101D"/>
<path d="M151.066 104.504C152.216 104.968 153.318 105.544 154.357 106.222C155.389 106.785 156.222 107.655 156.738 108.712C156.938 109.258 157.82 109.021 157.647 108.467C157.094 107.236 156.169 106.209 155.002 105.531C153.86 104.772 152.641 104.135 151.366 103.631C151.249 103.597 151.124 103.612 151.018 103.672C150.912 103.732 150.834 103.832 150.802 103.949C150.744 104.189 150.884 104.433 151.121 104.504H151.066Z" fill="#09101D"/>
<path d="M157.575 108.857C166.386 109.984 175.036 112.141 183.344 115.284C186.98 116.657 190.616 118.284 193.489 120.856C196.688 123.683 198.397 127.583 200.233 131.337L207.178 145.554C207.432 146.081 208.214 145.618 207.96 145.1L201.597 132.101C199.733 128.292 198.07 124.165 195.052 121.102C192.189 118.423 188.812 116.355 185.126 115.02C181.008 113.372 176.791 111.981 172.5 110.857C167.588 109.562 162.596 108.591 157.556 107.948C156.975 107.876 156.975 108.785 157.556 108.857H157.575Z" fill="#09101D"/>
<path d="M208.06 146.318C208.31 143.218 208.955 140.164 209.978 137.228C211.114 133.591 212.468 130.074 213.877 126.556C215.286 123.038 216.695 119.656 218.059 116.193C219.349 113.068 220.421 109.858 221.267 106.585C222.367 102.04 223.603 96.2221 228.539 94.3859C229.085 94.1859 228.848 93.3132 228.303 93.4769C224.121 95.0222 222.176 99.3309 221.113 103.349C220.549 105.476 220.104 107.639 219.431 109.712C218.958 111.203 218.422 112.675 217.859 114.139C215.132 121.311 211.923 128.319 209.514 135.619C208.247 139.04 207.449 142.618 207.142 146.254C207.142 146.836 208.051 146.836 208.051 146.254L208.06 146.318Z" fill="#09101D"/>
<path d="M227.094 91.9859C228.073 89.6431 229.531 87.5313 231.375 85.7865C231.803 85.3865 231.157 84.7411 230.739 85.1411C228.777 86.9967 227.228 89.2455 226.194 91.7405C226.13 91.9835 226.271 92.2336 226.512 92.3041C226.754 92.3588 226.998 92.2212 227.076 91.9859H227.094Z" fill="#09101D"/>
<path d="M232.112 91.114L232.203 91.1776C232.157 91.1776 232.203 91.1776 232.203 91.1776C232.252 91.2184 232.298 91.264 232.339 91.3139L232.403 91.3776C232.448 91.423 232.348 91.2958 232.403 91.3776L232.493 91.523C232.527 91.5787 232.558 91.6363 232.584 91.6957C232.579 91.7289 232.579 91.7626 232.584 91.7957C232.589 91.8562 232.589 91.917 232.584 91.9775V92.0775C232.584 92.0775 232.584 92.1957 232.584 92.123C232.584 92.0502 232.584 92.123 232.584 92.1775V92.2684C232.593 92.3317 232.593 92.396 232.584 92.4593C232.584 92.4593 232.584 92.5229 232.584 92.5502C232.584 92.5775 232.584 92.4684 232.584 92.5502C232.589 92.6137 232.589 92.6775 232.584 92.7411C232.569 92.8035 232.547 92.8643 232.521 92.9229L232.466 93.0229L232.375 93.1774C232.375 93.1774 232.293 93.2774 232.375 93.1774L232.303 93.2592C232.187 93.3745 232.142 93.5425 232.184 93.7C232.227 93.8575 232.35 93.9805 232.507 94.0227C232.665 94.0649 232.833 94.0199 232.948 93.9046C233.407 93.3753 233.618 92.6752 233.527 91.9806C233.437 91.2859 233.054 90.663 232.475 90.2686C232.335 90.1824 232.16 90.1783 232.016 90.2579C231.873 90.3375 231.783 90.4885 231.782 90.6528C231.781 90.817 231.869 90.969 232.012 91.0503L232.112 91.114Z" fill="#09101D"/>
<path d="M234.557 92.8407C234.96 93.8314 234.793 94.9632 234.12 95.795C233.951 95.9766 233.951 96.2587 234.12 96.4404C234.206 96.5264 234.322 96.5748 234.443 96.5748C234.564 96.5748 234.68 96.5264 234.766 96.4404C235.666 95.3728 235.919 93.9027 235.429 92.5953C235.386 92.4329 235.258 92.3062 235.096 92.263C234.933 92.2198 234.76 92.2666 234.641 92.3857C234.523 92.5049 234.477 92.6783 234.52 92.8407H234.557Z" fill="#09101D"/>
<path d="M230.793 95.2768L229.193 96.6676C228.958 96.8362 228.755 97.0455 228.593 97.2857C228.431 97.5669 228.431 97.9135 228.593 98.1947C229.171 99.3168 229.447 100.57 229.393 101.831C229.393 102.413 230.302 102.413 230.302 101.831C230.355 100.67 230.15 99.5122 229.702 98.4401C229.639 98.3038 229.584 98.1765 229.521 98.0493C229.457 97.922 229.348 97.7947 229.357 97.7038C229.357 97.7766 229.357 97.7766 229.412 97.7038L229.566 97.5766L229.93 97.2584L231.393 95.9858C231.829 95.5949 231.184 94.9586 230.748 95.3404L230.793 95.2768Z" fill="#09101D"/>
<path d="M236.166 99.022C236.093 101.058 236.002 103.185 235.002 105.021C234.471 105.965 233.793 106.818 232.994 107.548C232.594 107.892 232.232 108.276 231.912 108.694C231.57 109.225 231.373 109.836 231.339 110.466C231.057 113.366 231.021 116.302 230.939 119.211C230.857 122.12 230.803 125.092 230.721 128.038C230.485 137.046 230.139 146.263 227.403 154.917C225.476 161.007 222.804 167.18 218.832 172.234C217.162 174.534 214.984 176.419 212.469 177.742C210.091 178.868 207.346 178.924 204.924 177.897C202.288 176.788 200.07 174.688 198.007 172.761C195.143 170.034 192.498 167.17 189.917 164.225C189.008 163.18 188.099 162.116 187.19 161.053C186.808 160.607 186.163 161.253 186.544 161.689C189.562 165.216 192.625 168.725 195.925 171.988C197.965 174.151 200.24 176.081 202.706 177.742C205.082 179.324 207.994 179.884 210.787 179.297C213.477 178.537 215.893 177.023 217.75 174.933C219.975 172.548 221.868 169.872 223.376 166.98C224.938 164.04 226.275 160.986 227.376 157.844C228.331 155.263 229.103 152.617 229.685 149.927C230.716 144.422 231.309 138.844 231.457 133.246C231.721 127.183 231.73 121.111 231.994 115.066C232.057 113.612 232.112 112.148 232.23 110.694C232.246 110.022 232.5 109.377 232.948 108.876C233.384 108.412 233.857 107.967 234.312 107.53C235.669 106.071 236.547 104.231 236.829 102.258C236.97 101.194 237.052 100.123 237.075 99.0492C237.075 98.4584 236.166 98.4584 236.166 99.0492V99.022Z" fill="#09101D"/>
<path d="M142.895 97.7673C142.895 97.7673 145.322 104.958 151.075 106.33L151.812 101.094C151.812 101.094 152.775 99.2763 150.903 100.131C149.03 100.985 142.895 97.7673 142.895 97.7673Z" fill="#09101D"/>
<path d="M136.25 74.6782C136.25 74.6782 147.058 72.4784 153.13 62.8611C153.13 62.8611 154.039 67.9334 152.085 71.5331C151.963 71.76 151.991 72.0376 152.154 72.2365C152.317 72.4354 152.584 72.5166 152.83 72.4421C154.784 71.8603 157.784 70.0968 156.73 64.7791C156.73 64.7791 158.893 71.0695 162.883 72.9057C163.478 73.206 164.19 73.157 164.737 72.7778C165.285 72.3986 165.582 71.7501 165.51 71.0877C165.138 67.7607 163.383 61.6794 155.702 58.4524C154.739 58.0524 153.794 57.6434 152.866 57.1889C151.139 56.3435 147.103 55.0163 139.977 56.0799C132.851 57.1434 124.179 61.6794 126.106 81.4595C128.033 101.24 121.461 111.748 121.461 111.748C121.461 111.748 133.732 109.175 133.605 108.63C133.478 108.084 134.214 99.6942 134.323 94.2765C134.362 90.632 134.171 86.9888 133.75 83.3684C133.75 83.3684 133.75 80.9686 132.323 79.9778C130.896 78.987 129.96 75.5873 130.842 74.1601C131.723 72.733 134.987 71.8967 136.25 74.6782V74.6782Z" fill="#09101D"/>
<path d="M122.96 108.594C122.96 108.594 115.961 123.193 118.415 129.119C120.87 135.046 132.405 133.119 133.259 123.265C133.777 116.989 133.962 110.69 133.814 104.394" fill="#09101D"/>
<path d="M146.03 86.5598C146.612 87.661 147.716 88.3882 148.957 88.4869C149.206 88.4821 149.407 88.2814 149.412 88.0324C149.407 87.7835 149.206 87.5828 148.957 87.5779H148.866C148.803 87.5779 148.939 87.5779 148.866 87.5779H148.685L148.321 87.4779L148.212 87.4325C148.166 87.4325 148.212 87.4325 148.212 87.4325L148.039 87.3507L147.703 87.1507L147.63 87.0962C147.63 87.0962 147.53 87.0234 147.63 87.0962L147.557 87.0325C147.465 86.9492 147.377 86.8612 147.294 86.7689L147.167 86.6326C147.167 86.5871 147.167 86.6871 147.167 86.6326L147.112 86.5598C147.039 86.4508 146.976 86.3417 146.912 86.2235C146.853 86.1185 146.754 86.0418 146.638 86.0109C146.521 85.9801 146.397 85.9978 146.294 86.0599C146.079 86.1863 146.006 86.462 146.13 86.678L146.03 86.5598Z" fill="#09101D"/>
<path d="M182.271 136.583C185.001 143.752 186.379 151.364 186.335 159.035C186.296 166.8 185.436 174.539 183.771 182.124C182.862 186.56 181.526 190.987 181.535 195.55C181.535 195.801 181.739 196.005 181.99 196.005C182.241 196.005 182.444 195.801 182.444 195.55C182.444 191.405 183.571 187.369 184.435 183.369C185.244 179.579 185.917 175.752 186.416 171.916C187.485 164.254 187.485 156.48 186.416 148.818C185.791 144.544 184.678 140.357 183.099 136.337C182.89 135.801 182.008 136.037 182.19 136.583H182.271Z" fill="#09101D"/>
<path d="M105.372 182.615C109.003 176.312 113.501 170.55 118.734 165.498C121.366 162.953 124.179 160.602 127.151 158.463C128.695 157.495 130.143 156.385 131.478 155.145C132.478 154.022 133.219 152.694 133.65 151.254C134.669 148.227 134.859 144.509 137.459 142.309C137.905 141.937 137.259 141.291 136.814 141.664C134.523 143.609 133.978 146.691 133.241 149.445C132.919 150.885 132.366 152.263 131.605 153.527C130.569 155.108 128.878 156.117 127.388 157.163C118.062 163.732 110.282 172.257 104.59 182.142C104.494 182.355 104.574 182.605 104.776 182.722C104.977 182.84 105.235 182.785 105.372 182.597V182.615Z" fill="#09101D"/>
<path d="M139.022 146.163C141.413 144.443 144.032 143.063 146.803 142.064C147.348 141.864 147.121 140.991 146.566 141.155C143.716 142.179 141.021 143.592 138.558 145.354C138.086 145.691 138.558 146.482 139.022 146.136V146.163Z" fill="#09101D"/>
<path d="M145.413 145.499C144.644 145.899 143.916 146.374 143.24 146.917C143.067 147.094 143.067 147.377 143.24 147.554C143.42 147.728 143.706 147.728 143.886 147.554L144.004 147.463L144.067 147.417C144.146 147.353 144.228 147.292 144.313 147.236L144.849 146.936C145.188 146.712 145.54 146.508 145.904 146.327C146.12 146.197 146.192 145.918 146.067 145.699C145.935 145.493 145.666 145.422 145.449 145.536L145.413 145.499Z" fill="#09101D"/>
<path d="M146.958 148.754C146.84 148.896 146.712 149.03 146.576 149.154C146.514 149.219 146.447 149.28 146.376 149.336L146.276 149.418C146.276 149.418 146.194 149.49 146.276 149.418C146.358 149.345 146.276 149.418 146.276 149.418C145.993 149.633 145.688 149.819 145.367 149.972C145.265 150.028 145.19 150.123 145.158 150.236C145.109 150.349 145.109 150.477 145.158 150.59C145.214 150.692 145.309 150.768 145.421 150.799C145.541 150.825 145.666 150.809 145.776 150.754C146.496 150.431 147.135 149.953 147.649 149.354C147.827 149.176 147.827 148.887 147.649 148.708C147.47 148.53 147.181 148.53 147.003 148.708L146.958 148.754Z" fill="#09101D"/>
<path d="M149.33 152.036C148.176 154.699 145.53 156.172 143.467 158.044C141.04 160.226 139.613 163.162 138.222 166.062C136.574 169.485 134.941 172.925 133.323 176.379C131.841 179.533 130.405 182.742 128.778 185.796C127.054 189.266 124.96 192.539 122.533 195.559C122.16 196.004 122.797 196.65 123.169 196.195C127.56 190.923 130.441 184.651 133.314 178.479C134.938 175 136.583 171.525 138.249 168.052C139.704 164.998 141.049 161.689 143.467 159.262C145.694 157.026 148.785 155.517 150.093 152.499C150.321 151.963 149.539 151.508 149.303 152.036H149.33Z" fill="#09101D"/>
<path d="M141.267 144.563L140.249 136.5L139.995 134.482C139.871 133.84 139.792 133.19 139.758 132.537C139.758 131.81 140.431 131.701 141.013 131.483C141.595 131.264 142.204 131.064 142.831 130.874C145.267 130.099 147.768 129.542 150.303 129.21C151.557 129.046 152.821 128.937 154.084 128.892C154.775 128.892 155.22 128.992 155.448 129.701C155.616 130.298 155.747 130.905 155.838 131.519C156.899 136.737 157.79 141.991 158.511 147.281C158.874 149.954 159.177 152.632 159.42 155.317C159.556 156.644 159.674 157.971 159.792 159.298C159.792 159.898 159.992 160.553 159.365 160.889C158.777 161.176 158.169 161.422 157.547 161.625C154.885 162.592 152.149 163.343 149.366 163.871C148.676 163.998 147.976 164.116 147.276 164.216L146.13 164.371C145.667 164.425 145.412 164.452 145.349 163.889C145.176 162.398 145.058 160.898 144.921 159.407C144.858 158.835 143.949 158.826 144.013 159.407C144.158 160.935 144.276 162.471 144.449 163.998C144.443 164.435 144.633 164.852 144.967 165.134C145.476 165.48 146.203 165.271 146.785 165.198C149.629 164.82 152.438 164.212 155.184 163.38C156.538 162.962 157.911 162.471 159.183 161.971C159.685 161.83 160.138 161.553 160.492 161.171C160.787 160.673 160.884 160.083 160.765 159.517C160.52 156.49 160.202 153.472 159.856 150.426C159.138 144.509 158.202 138.609 157.047 132.764L156.611 130.583C156.533 129.967 156.355 129.368 156.084 128.81C155.402 127.692 153.957 127.965 152.848 128.047C150.034 128.238 147.246 128.7 144.522 129.428C143.007 129.813 141.519 130.295 140.068 130.874C139.505 131.037 139.067 131.481 138.913 132.046C138.85 132.784 138.905 133.526 139.077 134.246L140.386 144.554C140.458 145.127 141.367 145.136 141.295 144.554L141.267 144.563Z" fill="#09101D"/>
<path d="M142.84 135.118C143.091 135.118 143.295 134.915 143.295 134.664C143.295 134.413 143.091 134.209 142.84 134.209C142.589 134.209 142.386 134.413 142.386 134.664C142.386 134.915 142.589 135.118 142.84 135.118Z" fill="#09101D"/>
<path d="M145.113 136.028C145.364 136.028 145.567 135.824 145.567 135.573C145.567 135.322 145.364 135.119 145.113 135.119C144.862 135.119 144.658 135.322 144.658 135.573C144.658 135.824 144.862 136.028 145.113 136.028Z" fill="#09101D"/>
<path d="M143.822 137.737C144.073 137.737 144.276 137.534 144.276 137.283C144.276 137.032 144.073 136.828 143.822 136.828C143.571 136.828 143.367 137.032 143.367 137.283C143.367 137.534 143.571 137.737 143.822 137.737Z" fill="#09101D"/>
<path d="M133.114 110.067C140.086 111.058 147.412 112.139 154.375 110.603C154.948 110.476 154.702 109.594 154.139 109.694C150.743 110.381 147.267 110.589 143.813 110.312C140.313 110.094 136.823 109.658 133.359 109.167C132.787 109.085 132.541 109.958 133.114 110.076V110.067Z" fill="#09101D"/>
<path d="M157.947 113.048V112.312C157.946 112.191 157.901 112.074 157.82 111.985C157.731 111.902 157.614 111.856 157.493 111.857C157.374 111.858 157.261 111.904 157.174 111.985C157.089 112.072 157.04 112.189 157.038 112.312V113.048C157.04 113.171 157.089 113.288 157.174 113.375C157.261 113.456 157.374 113.501 157.493 113.503C157.615 113.508 157.733 113.462 157.82 113.375C157.906 113.289 157.952 113.17 157.947 113.048V113.048Z" fill="#09101D"/>
<path d="M126.669 158.107C128.265 160.186 130.194 161.986 132.378 163.434C133.487 164.216 134.586 164.998 135.741 165.716C136.323 166.079 136.922 166.425 137.559 166.743C137.968 166.961 138.386 167.161 138.768 166.743C138.915 166.6 138.945 166.374 138.84 166.198V166.143C138.495 165.67 137.704 166.143 138.05 166.598V166.652L138.122 166.107C138.259 165.961 137.777 165.807 137.641 165.725L136.822 165.27C136.35 164.989 135.914 164.689 135.414 164.361C134.432 163.707 133.468 163.025 132.505 162.334C130.577 161.039 128.876 159.436 127.469 157.589C127.124 157.117 126.333 157.589 126.678 158.044L126.669 158.107Z" fill="#09101D"/>
<path d="M219.622 112.085C221.277 113.109 223.075 113.881 224.958 114.375C226.894 115.003 228.903 115.83 230.975 115.684L230.857 114.775H230.666C230.103 114.912 230.339 115.784 230.912 115.684H231.093C231.256 115.663 231.394 115.557 231.457 115.406C231.52 115.255 231.498 115.081 231.398 114.951C231.299 114.821 231.138 114.754 230.975 114.775C228.984 114.912 227.057 114.103 225.194 113.503C223.392 113.026 221.67 112.284 220.086 111.303C219.604 110.967 219.177 111.748 219.622 112.085V112.085Z" fill="#09101D"/>
<path d="M114.852 148.854C115.889 153.925 117.194 158.938 118.761 163.871C118.933 164.435 119.815 164.189 119.67 163.635C118.108 158.7 116.804 153.687 115.761 148.618C115.652 148.045 114.77 148.281 114.852 148.854Z" fill="#09101D"/>
<path d="M125.097 192.486C125.128 193.071 125.128 193.656 125.097 194.241V195.095C125.093 195.359 125.059 195.621 124.997 195.877L125.115 195.677L125.433 195.54L125.66 195.604L125.824 195.768V196.177C125.938 195.959 125.867 195.691 125.66 195.559C125.441 195.434 125.163 195.506 125.033 195.722C124.955 195.885 124.97 196.076 125.071 196.225C125.173 196.374 125.346 196.457 125.526 196.443C125.705 196.429 125.864 196.321 125.942 196.159C126.015 195.958 126.052 195.745 126.051 195.531L126.106 194.913C126.16 194.102 126.16 193.288 126.106 192.477C126.101 192.228 125.9 192.027 125.651 192.023C125.402 192.027 125.201 192.228 125.197 192.477L125.097 192.486Z" fill="#09101D"/>
<path d="M157.902 161.943C157.902 161.943 159.129 168.507 158.611 169.388C158.093 170.27 145.176 173.388 143.567 172.943C143.567 172.943 136.541 193.895 134.841 196.195H123.933C123.933 196.195 123.206 195.495 124.406 193.995C125.606 192.495 129.033 186.423 129.033 186.423L135.223 173.515C135.759 172.379 140.431 162.698 140.913 161.943C141.395 161.189 144.985 157.398 144.985 157.398L145.249 164.734C147.444 164.592 149.624 164.269 151.766 163.771C154.848 162.989 157.902 161.943 157.902 161.943V161.943Z" fill="#09101D"/>
<path d="M116.261 153.099C116.261 153.099 113.534 170.171 111.916 172.27C111.916 172.27 116.979 166.58 117.615 165.953C118.252 165.326 119.242 165.544 118.715 162.189" fill="#09101D"/>
<path d="M186.789 151.208C187.071 151.508 190.662 161.207 190.598 165.752L188.135 163.298C188.135 163.298 186.217 159.662 186.789 158.498" fill="#09101D"/>
<path d="M373.797 233.847L374.725 218.542L384.928 209.731L393.739 215.296L402.087 224.572L396.522 231.065V250.543C404.487 251.453 420.911 256.85 426.203 264.457C430.833 271.112 429.781 307.895 421.101 314.545C419.019 316.141 412.29 317.328 409.044 317.328C423.33 338.05 423.081 349.49 413.217 369.735L368.696 468.984L371.478 508.869C363.44 511.807 347.084 517.588 345.971 517.217C344.58 516.754 348.29 510.724 348.754 507.942C349.125 505.716 347.053 498.666 345.971 495.42C343.062 501.891 341.272 515.392 340.406 517.217C339.249 519.656 325.565 518.609 317.681 518.609C315.826 518.609 312.661 519.043 312.116 517.681C311.256 515.53 317.836 511.034 320.928 508.869C318.893 484.152 318.819 470.335 320 445.795C311.652 428.635 301.903 393.501 304.232 383.185C307.478 368.807 314.107 359.854 327.884 346.546C339.206 335.61 352.464 329.85 359.884 323.821C365.82 318.997 366.686 312.845 366.377 310.371C354.937 310.835 332.615 309.351 334.841 299.704C337.067 290.057 345.044 291.665 348.754 293.675C349.681 284.09 352.371 263.9 355.71 259.819C359.049 255.738 374.415 251.007 381.681 249.152V242.659C377.978 241.733 376.077 240.511 373.797 233.847Z" fill="white"/>
<path d="M401.181 366.989C413.293 366.989 424.909 371.8 433.473 380.365C442.037 388.929 446.849 400.545 446.849 412.657V517.893H355.505V412.666C355.502 400.551 360.314 388.931 368.881 380.365C377.447 371.798 389.066 366.986 401.181 366.989Z" fill="#EBEFFE"/>
<path d="M403.936 398.25C408.358 388.85 411.656 378.961 413.762 368.789C412.935 368.552 412.099 368.343 411.262 368.152L363.086 387.451C358.108 394.928 355.458 403.712 355.469 412.694V517.894H374.167C378.203 517.901 382.077 516.303 384.934 513.452C387.792 510.602 389.399 506.732 389.401 502.695V463.008C389.465 440.62 394.426 418.517 403.936 398.25Z" fill="#D6DEFF"/>
<path d="M404.281 378.633L359.132 394.822C356.731 400.465 355.495 406.534 355.496 412.666V517.893H363.05C365.925 517.886 368.651 516.613 370.502 514.413C372.353 512.214 373.142 509.31 372.658 506.476C369.331 486.905 366.904 455.499 376.757 424.665C384.638 399.94 404.281 378.633 404.281 378.633Z" fill="#09101D"/>
<path d="M401.181 367.489H401.181C413.161 367.489 424.649 372.247 433.12 380.718C441.59 389.189 446.349 400.678 446.349 412.657V517.393H356.005V412.666V412.666C356.002 400.684 360.761 389.191 369.234 380.718C377.707 372.245 389.199 367.486 401.181 367.489Z" stroke="#09101D"/>
<rect x="298.03" y="302.904" width="60.6021" height="4.40869" rx="0.75" fill="#D6DEFF"/>
<rect x="298.03" y="302.904" width="60.6021" height="4.40872" rx="0.75" stroke="#09101D"/>
<rect x="255.555" y="227.756" width="84.063" height="58.9494" rx="1.97" fill="#EBEFFE"/>
<path d="M255.555 283.796V284.914C255.555 285.918 256.369 286.732 257.373 286.732H337.863C338.867 286.732 339.681 285.918 339.681 284.914V283.796H255.555Z" fill="#D6DEFF"/>
<rect x="255.555" y="227.756" width="84.063" height="58.9494" rx="1.97" stroke="#09101D"/>
<path d="M292.65 286.705H302.522V302.068H292.65V286.705Z" fill="#09101D" stroke="#09101D"/>
<path d="M260.69 278.315H262.808V280.433H260.69V278.315Z" fill="#D6DEFF"/>
<path d="M266.108 278.315H268.226V280.433H266.108V278.315Z" fill="#D6DEFF"/>
<path d="M271.534 278.315H273.652V280.433H271.534V278.315Z" fill="#D6DEFF"/>
<path d="M287.442 302.068H307.73C308.478 302.068 309.085 302.674 309.085 303.422V307.304H286.078V303.422C286.078 303.061 286.222 302.715 286.478 302.461C286.734 302.207 287.081 302.065 287.442 302.068V302.068Z" fill="#09101D" stroke="#09101D"/>
<path d="M310.947 302.031H314.647V302.822H310.947V302.031Z" fill="#09101D" stroke="#09101D"/>
<path d="M317.119 302.031H320.819V302.822H317.119V302.031Z" fill="#09101D" stroke="#09101D"/>
<path d="M323.291 302.031H326.991V302.822H323.291V302.031Z" fill="#09101D" stroke="#09101D"/>
<path d="M329.454 302.031H333.154V302.822H329.454V302.031Z" fill="#09101D" stroke="#09101D"/>
<rect x="212.906" y="307.161" width="162.246" height="7.34808" rx="2.59" fill="#09101D" stroke="#09101D"/>
<path d="M230.575 314.803V518.821H216.295" stroke="#09101D"/>
<path d="M230.483 314.803V518.821H244.763" stroke="#09101D"/>
<path d="M414.081 366.989C414.081 366.989 407.491 380.069 387.338 390.423C387.338 390.423 369.577 401.704 368.95 402.158C368.323 402.613 359.733 409.258 359.733 409.258C357.723 409.977 356.35 411.843 356.26 413.975C356.078 417.675 358.487 435.719 358.805 438.073C359.124 440.428 364.568 478.924 364.905 481.56C365.241 484.196 367.95 495.032 368.441 496.75C368.932 498.468 370.604 503.458 370.804 504.467C371.004 505.476 371.113 508.84 368.077 509.794L359.169 512.621L352.533 514.03L350.588 498.432C350.588 498.432 340.808 410.912 342.407 400.604C344.007 390.296 352.452 375.215 372.277 365.434C392.102 355.653 407.182 353.008 407.182 353.008" fill="white"/>
<path d="M374.84 214.13C374.094 217.375 373.695 220.69 373.649 224.02C373.586 225.747 373.577 227.474 373.549 229.201C373.467 230.626 373.513 232.056 373.686 233.473C374.597 238.502 378.845 242.246 383.948 242.518C386.903 242.529 389.72 241.271 391.684 239.064C392.084 238.636 391.447 237.991 391.047 238.418C389.465 240.265 387.209 241.4 384.784 241.571C382.358 241.742 379.965 240.934 378.14 239.327C376.283 237.83 375.022 235.718 374.586 233.373C374.416 232.053 374.373 230.72 374.458 229.392C374.458 227.846 374.458 226.292 374.531 224.747C374.549 221.247 374.948 217.76 375.722 214.348C375.787 214.097 375.636 213.84 375.385 213.775C375.134 213.71 374.878 213.86 374.813 214.111L374.84 214.13Z" fill="#09101D"/>
<path d="M386.584 225.601V225.538L386.648 225.611L386.584 225.538C386.612 225.57 386.634 225.607 386.648 225.647V225.538V225.656V225.538C386.657 225.58 386.657 225.623 386.648 225.665V225.547C386.653 225.595 386.653 225.644 386.648 225.692V225.583C386.624 225.648 386.59 225.71 386.548 225.765L386.621 225.665C386.607 225.688 386.589 225.706 386.566 225.72L386.657 225.656L386.757 225.611H386.875H386.993L387.102 225.656L387.193 225.72L387.257 225.81L387.302 225.92V226.038V226.156C387.297 226.135 387.297 226.113 387.302 226.092V226.192C387.357 226.065 387.43 225.938 387.493 225.81C387.553 225.703 387.57 225.576 387.539 225.456C387.507 225.344 387.432 225.249 387.33 225.192C387.224 225.125 387.096 225.106 386.975 225.138C386.864 225.172 386.77 225.247 386.711 225.347C386.63 225.511 386.539 225.674 386.466 225.847V225.974C386.45 226.09 386.472 226.208 386.53 226.31C386.574 226.393 386.64 226.463 386.721 226.51C386.825 226.571 386.947 226.594 387.066 226.574C387.147 226.565 387.225 226.537 387.293 226.492C387.349 226.463 387.399 226.423 387.439 226.374C387.504 226.295 387.562 226.21 387.611 226.12C387.658 226.012 387.692 225.899 387.711 225.783C387.729 225.669 387.729 225.552 387.711 225.438V225.347C387.69 225.282 387.66 225.221 387.62 225.165C387.55 225.048 387.453 224.949 387.339 224.874C387.231 224.814 387.104 224.798 386.984 224.829C386.869 224.86 386.771 224.935 386.711 225.038C386.651 225.146 386.635 225.273 386.666 225.392C386.705 225.503 386.778 225.599 386.875 225.665L386.584 225.601Z" fill="#09101D"/>
<path d="M377.494 225.774L377.394 225.702C377.423 225.721 377.447 225.746 377.467 225.774L377.403 225.683C377.428 225.716 377.447 225.753 377.458 225.793L377.412 225.683C377.417 225.723 377.417 225.762 377.412 225.802V225.683C377.417 225.726 377.417 225.768 377.412 225.811V225.693C377.402 225.743 377.387 225.791 377.367 225.838L377.412 225.729C377.384 225.792 377.351 225.853 377.312 225.911L377.385 225.811C377.372 225.833 377.353 225.852 377.33 225.865L377.421 225.802H377.53H377.648H377.776H377.885L377.976 225.865L378.048 225.956V226.065V226.256C378.043 226.235 378.043 226.213 378.048 226.192V226.292C378.103 226.165 378.176 226.038 378.239 225.911C378.364 225.692 378.292 225.413 378.076 225.283C377.857 225.158 377.578 225.231 377.448 225.447C377.367 225.611 377.285 225.774 377.212 225.947C377.208 225.989 377.208 226.032 377.212 226.074C377.196 226.19 377.218 226.308 377.276 226.411C377.378 226.602 377.589 226.707 377.803 226.674C377.887 226.666 377.968 226.638 378.039 226.592C378.095 226.563 378.145 226.523 378.185 226.474C378.251 226.397 378.306 226.312 378.348 226.22C378.402 226.114 378.439 226.001 378.457 225.883C378.475 225.769 378.475 225.652 378.457 225.538V225.447C378.433 225.384 378.402 225.323 378.367 225.265C378.296 225.145 378.196 225.045 378.076 224.974C377.965 224.929 377.841 224.929 377.73 224.974C377.615 225.006 377.518 225.081 377.458 225.183C377.412 225.297 377.412 225.424 377.458 225.538C377.495 225.647 377.569 225.741 377.667 225.802L377.494 225.774Z" fill="#09101D"/>
<path d="M395.51 229.328C397.574 228.878 399.292 227.455 400.118 225.511C400.597 224.463 400.461 223.237 399.764 222.32C399.019 221.532 397.896 221.226 396.855 221.529C395.71 221.876 394.794 222.741 394.383 223.865C394.318 224.108 394.46 224.358 394.701 224.429C394.943 224.488 395.19 224.349 395.264 224.111C395.629 223.121 396.532 222.431 397.582 222.338C398.099 222.294 398.61 222.479 398.978 222.845C399.345 223.211 399.533 223.721 399.491 224.238C399.362 225.313 398.837 226.301 398.019 227.01C397.253 227.723 396.312 228.218 395.292 228.447C394.719 228.583 394.964 229.456 395.528 229.356L395.51 229.328Z" fill="#09101D"/>
<path d="M396.328 228.737C396.128 235.609 396.283 242.491 396.083 249.372C396.083 249.954 396.992 249.954 396.992 249.372C397.192 242.491 396.992 235.609 397.237 228.737C397.237 228.486 397.034 228.283 396.783 228.283C396.532 228.283 396.328 228.486 396.328 228.737Z" fill="#09101D"/>
<path d="M381.185 241.773C381.43 244.453 381.485 247.148 381.348 249.836C381.348 250.417 382.257 250.417 382.257 249.836C382.394 247.148 382.339 244.453 382.094 241.773C382.03 241.191 381.121 241.182 381.185 241.773V241.773Z" fill="#09101D"/>
<path d="M389.201 240.645C387.474 241.554 387.729 242.991 382.102 246.099C381.611 246.372 382.311 245.49 381.884 245.818C381.793 244.909 381.884 243.009 381.884 242.082C387.247 242.6 384.938 242.454 384.938 242.454C384.638 242.036 383.748 243.054 385.847 242.082" fill="#09101D"/>
<path d="M388.974 240.255C388.222 240.727 387.553 241.32 386.993 242.009C385.794 243.216 384.432 244.25 382.948 245.082L382.439 245.382C382.261 245.451 382.093 245.542 381.939 245.654C381.83 245.782 381.684 245.5 382.13 245.927C382.575 246.354 382.302 246.227 382.393 246.1C382.42 246.051 382.441 245.999 382.457 245.945C382.547 245.729 382.472 245.479 382.277 245.349C382.083 245.218 381.823 245.243 381.657 245.409L382.348 245.8C382.239 244.564 382.348 243.309 382.348 242.064L381.893 242.518L384.62 242.8L385.202 242.864C385.002 242.864 385.202 242.864 385.202 242.864H385.248C385.393 242.909 385.248 242.809 384.939 242.555L385.057 242.109C385.142 242.043 385.242 242 385.348 241.982H384.884L385.211 242.118C384.875 241.709 383.993 241.855 383.984 242.455C383.984 243.482 385.684 242.618 386.038 242.455C386.575 242.218 386.111 241.437 385.584 241.673C385.338 241.782 385.093 241.891 384.848 241.973L384.62 242.027C384.59 242.023 384.56 242.023 384.529 242.027C384.666 241.973 384.529 242.027 384.529 242.027C384.529 242.027 384.802 242.527 384.72 242.337C384.884 242.755 384.893 242.546 384.793 242.709C384.693 242.873 384.748 242.709 384.693 242.773C384.639 242.836 384.584 242.773 384.539 242.709C384.657 242.9 384.939 242.891 385.148 242.9C385.357 242.909 385.848 242.9 385.848 242.446C385.848 241.991 385.284 241.964 384.939 241.918C383.902 241.8 382.866 241.7 381.839 241.6C381.588 241.6 381.384 241.804 381.384 242.055C381.384 243.3 381.275 244.555 381.384 245.791C381.384 246.1 381.757 246.409 382.066 246.182C382.375 245.954 382.012 246.291 381.748 246.118L381.539 245.845C381.539 245.618 381.539 245.645 381.539 245.773C381.434 245.989 381.462 246.247 381.612 246.436C382.003 246.836 382.657 246.291 383.002 246.091C383.967 245.544 384.896 244.936 385.784 244.273C386.714 243.524 387.586 242.707 388.393 241.827C388.689 241.496 389.043 241.222 389.438 241.018C389.956 240.746 389.493 239.964 388.974 240.237V240.255Z" fill="#09101D"/>
<path d="M381.484 224.701C381.154 226.323 380.987 227.973 380.984 229.628C380.984 229.879 381.188 230.083 381.439 230.083C381.69 230.083 381.893 229.879 381.893 229.628C381.891 228.056 382.05 226.487 382.366 224.947C382.41 224.784 382.364 224.611 382.245 224.492C382.126 224.373 381.953 224.326 381.791 224.369C381.628 224.412 381.501 224.539 381.457 224.701H381.484Z" fill="#09101D"/>
<path d="M388.974 220.766C388.326 220.371 387.566 220.199 386.811 220.275C386.689 220.281 386.574 220.329 386.484 220.411C386.403 220.497 386.358 220.611 386.356 220.729C386.356 220.957 386.556 221.22 386.811 221.184C386.977 221.17 387.145 221.17 387.311 221.184C387.386 221.175 387.463 221.175 387.538 221.184C387.411 221.184 387.538 221.184 387.584 221.184H387.693C387.85 221.223 388.005 221.271 388.156 221.329H388.22H388.302L388.529 221.456C388.745 221.583 389.023 221.515 389.156 221.302C389.276 221.082 389.204 220.808 388.993 220.675L388.974 220.766Z" fill="#09101D"/>
<path d="M379.312 221.384C378.666 220.984 377.904 220.811 377.149 220.893C377.03 220.901 376.918 220.949 376.831 221.029C376.746 221.114 376.697 221.228 376.694 221.347C376.694 221.598 376.898 221.802 377.149 221.802C377.315 221.788 377.482 221.788 377.649 221.802C377.727 221.797 377.806 221.797 377.885 221.802H377.994C378.151 221.839 378.306 221.884 378.458 221.938H378.512H378.603C378.682 221.975 378.758 222.018 378.83 222.065C378.934 222.128 379.058 222.145 379.174 222.114C379.291 222.084 379.39 222.007 379.449 221.902C379.573 221.686 379.5 221.41 379.285 221.284L379.312 221.384Z" fill="#09101D"/>
<path d="M382.184 232.401C383.271 232.398 384.313 231.967 385.084 231.201C385.172 231.119 385.222 231.004 385.222 230.883C385.222 230.763 385.172 230.647 385.084 230.565C384.907 230.392 384.624 230.392 384.448 230.565L384.302 230.674C384.302 230.674 384.248 230.72 384.302 230.674L384.23 230.729L383.966 230.92C383.775 231.038 383.584 231.156 383.384 231.256H383.302L383.13 231.319L382.821 231.41H382.639H382.575C382.451 231.424 382.326 231.424 382.203 231.41C381.954 231.415 381.753 231.616 381.748 231.865C381.753 232.114 381.954 232.315 382.203 232.319L382.184 232.401Z" fill="#09101D"/>
<path d="M373.858 218.502C378.149 217.838 385.757 216.093 388.702 211.766C387.702 213.717 386.482 215.547 385.066 217.22C384.895 217.402 384.859 217.672 384.976 217.892C385.093 218.112 385.338 218.233 385.584 218.193C387.466 217.866 389.811 216.729 390.129 212.739C390.129 212.739 390.829 222.002 395.337 222.974C395.337 222.974 396.501 221.156 397.792 221.774C399.082 222.392 400.164 223.447 399.819 224.556C399.464 225.683 398.84 226.706 398.001 227.537C397.392 227.992 396.346 228.21 396.665 230.41L396.574 234.955C396.574 234.955 408.7 225.983 402.937 215.638C397.174 205.294 391.647 207.357 391.647 207.357C391.647 207.357 379.457 199.367 371.986 215.984C371.733 216.578 371.815 217.262 372.2 217.78C372.585 218.298 373.216 218.573 373.858 218.502V218.502Z" fill="#09101D"/>
<path d="M404.027 217.747C404.027 217.747 407.317 231.619 407.454 236.836C407.59 242.054 396.546 240.627 396.546 240.627L396.791 232.155" fill="#09101D"/>
<path d="M396.582 249.372C396.582 249.372 423.625 254.381 426.797 264.962C429.969 275.542 429.442 306.203 421.779 313.085C414.589 319.53 388.956 316.057 376.33 306.667C374.989 305.683 373.357 305.177 371.694 305.231C370.473 305.245 369.255 305.129 368.058 304.885C363.295 303.976 360.659 305.058 360.659 305.058" stroke="#09101D"/>
<path d="M359.842 302.285L359.96 302.231L360.096 302.176L360.423 302.058C360.629 301.983 360.838 301.92 361.051 301.867C361.479 301.741 361.917 301.647 362.359 301.585C362.601 301.515 362.742 301.265 362.678 301.022C362.6 300.786 362.356 300.649 362.114 300.703C361.176 300.853 360.26 301.118 359.387 301.494C359.169 301.62 359.093 301.899 359.219 302.117C359.344 302.335 359.623 302.411 359.842 302.285V302.285Z" fill="#09101D"/>
<path d="M358.951 299.659V299.659H359.005L359.114 299.586L359.351 299.441L359.56 299.331L359.678 299.268H359.742C359.687 299.268 359.678 299.268 359.742 299.268C359.898 299.203 360.059 299.151 360.223 299.113L360.487 299.05H360.623H360.669C360.918 299.045 361.118 298.844 361.123 298.595C361.123 298.344 360.92 298.141 360.669 298.141C359.819 298.212 359.007 298.527 358.333 299.05C358.247 299.135 358.198 299.251 358.198 299.372C358.198 299.494 358.247 299.61 358.333 299.695C358.511 299.864 358.79 299.864 358.969 299.695L358.951 299.659Z" fill="#09101D"/>
<path d="M356.697 296.776C358.162 295.853 359.782 295.201 361.478 294.849C363.19 294.548 364.934 294.46 366.668 294.586C367.259 294.586 367.25 293.677 366.668 293.677C364.845 293.548 363.012 293.649 361.214 293.977C359.445 294.346 357.755 295.026 356.224 295.986C355.724 296.295 356.224 297.086 356.678 296.776H356.697Z" fill="#09101D"/>
<path d="M366.277 290.987C367.697 290.769 369.147 290.84 370.54 291.196C371.628 291.531 372.649 292.054 373.558 292.741C374.12 293.208 374.708 293.642 375.321 294.041C376.085 294.399 376.891 294.658 377.721 294.814C379.43 295.25 381.129 295.677 382.847 296.05C389.51 297.495 396.3 297.495 403.054 298.195C406.81 298.517 410.507 299.326 414.053 300.604C414.607 300.813 414.844 299.94 414.298 299.695C407.935 297.268 401.109 297.068 394.41 296.604C390.971 296.417 387.549 296.001 384.165 295.359C382.348 294.995 380.593 294.568 378.821 294.114C378.003 293.914 377.166 293.75 376.375 293.477C375.645 293.156 374.97 292.72 374.376 292.187C372.12 290.32 369.16 289.536 366.277 290.041C365.704 290.114 365.695 291.023 366.277 290.95V290.987Z" fill="#09101D"/>
<path d="M380.511 248.599C380.511 248.599 356.432 253.772 353.324 262.753C348.942 275.406 348.942 292.859 348.942 292.859" stroke="#09101D"/>
<path d="M353.378 296.386C353.378 296.386 348.097 290.741 343.07 291.141C338.043 291.541 334.607 294.277 334.607 300.176" stroke="#09101D"/>
<path d="M336.98 298.686C336.771 299.846 336.771 301.035 336.98 302.195C337.024 302.357 337.151 302.484 337.314 302.527C337.476 302.57 337.649 302.524 337.768 302.404C337.887 302.285 337.933 302.112 337.889 301.949C337.707 300.952 337.707 299.929 337.889 298.932C337.948 298.689 337.809 298.442 337.571 298.368C337.33 298.304 337.083 298.446 337.016 298.686H336.98Z" fill="#09101D"/>
<path d="M339.944 298.713C339.859 299.815 339.911 300.923 340.099 302.013C340.128 302.129 340.204 302.229 340.308 302.289C340.413 302.349 340.537 302.364 340.653 302.331C340.893 302.264 341.035 302.017 340.971 301.776C340.809 300.764 340.769 299.735 340.853 298.713C340.848 298.464 340.647 298.263 340.398 298.258C340.15 298.263 339.949 298.464 339.944 298.713V298.713Z" fill="#09101D"/>
<path d="M344.889 301.286C344.807 300.377 344.734 299.468 344.725 298.559C344.725 298.022 344.725 297.259 345.198 296.895C345.414 296.765 345.486 296.487 345.361 296.268C345.301 296.165 345.201 296.09 345.085 296.061C344.969 296.032 344.845 296.051 344.743 296.114C344.114 296.654 343.778 297.459 343.834 298.286C343.83 299.282 343.885 300.278 343.998 301.268C344.003 301.517 344.203 301.717 344.452 301.722C344.703 301.722 344.907 301.519 344.907 301.268L344.889 301.286Z" fill="#09101D"/>
<path d="M348.27 300.859C349.286 300.261 350.014 299.277 350.288 298.132C350.348 297.889 350.208 297.642 349.97 297.568C349.73 297.509 349.486 297.649 349.416 297.886C349.416 298.013 349.352 298.132 349.307 298.25C349.29 298.309 349.268 298.366 349.243 298.422C349.243 298.541 349.289 298.341 349.243 298.422V298.495C349.134 298.725 349.003 298.944 348.852 299.15C348.852 299.15 348.789 299.231 348.852 299.15L348.798 299.222L348.67 299.359C348.59 299.451 348.505 299.539 348.416 299.622L348.27 299.75L348.198 299.804L347.87 300.013C347.652 300.139 347.577 300.417 347.702 300.636C347.828 300.854 348.107 300.93 348.325 300.804L348.27 300.859Z" fill="#09101D"/>
<path d="M408.154 287.978C411.582 287.974 415.005 288.245 418.389 288.787C420.053 289.05 421.698 289.387 423.334 289.778C424.143 289.978 424.952 290.196 425.761 290.423L426.997 290.778L427.515 290.932L427.825 291.032C428.025 291.141 428.079 291.141 427.988 291.032L428.034 290.687V290.741L428.297 290.532L428.579 290.596L428.643 291.15C428.952 290.65 428.17 290.241 427.861 290.687C427.758 290.867 427.788 291.093 427.934 291.241C428.111 291.431 428.398 291.469 428.619 291.332C428.84 291.195 428.933 290.921 428.843 290.678C428.715 290.35 428.388 290.259 428.088 290.159C427.606 290.005 427.125 289.869 426.643 289.732C424.655 289.126 422.64 288.635 420.598 288.26C416.502 287.476 412.342 287.08 408.172 287.078C407.921 287.078 407.718 287.281 407.718 287.532C407.718 287.783 407.921 287.987 408.172 287.987L408.154 287.978Z" fill="#09101D"/>
<path d="M408.191 287.878C407.984 291.239 407.532 294.581 406.836 297.877C406.718 298.449 407.591 298.695 407.745 298.122C408.455 294.742 408.917 291.315 409.127 287.868C409.127 287.287 408.218 287.287 408.218 287.868L408.191 287.878Z" fill="#09101D"/>
<path d="M364.459 272.424C363.794 275.012 363.488 277.68 363.55 280.351C363.506 283.404 363.64 286.458 363.95 289.496C364.096 290.895 364.268 292.295 364.505 293.686C364.605 294.259 365.486 294.013 365.414 293.441C364.979 290.833 364.703 288.201 364.586 285.56C364.397 282.601 364.43 279.632 364.686 276.679C364.792 275.318 365.036 273.972 365.414 272.661C365.456 272.498 365.408 272.326 365.289 272.208C365.169 272.09 364.996 272.045 364.834 272.09C364.673 272.134 364.547 272.262 364.505 272.424H364.459Z" fill="#09101D"/>
<path d="M349.488 287.414C354.148 286.701 358.855 286.345 363.568 286.35C363.819 286.35 364.023 286.147 364.023 285.896C364.023 285.645 363.819 285.441 363.568 285.441C358.775 285.443 353.989 285.811 349.252 286.541C348.67 286.623 348.916 287.505 349.488 287.45V287.414Z" fill="#09101D"/>
<path d="M377.103 256.726C378.276 259.318 379.87 261.699 381.82 263.771C381.921 263.869 382.061 263.915 382.201 263.898C382.341 263.88 382.465 263.8 382.538 263.68C384.079 261.391 385.816 259.241 387.729 257.253L387.011 257.162C388.586 259.459 390.047 261.829 391.392 264.271C391.525 264.483 391.8 264.554 392.019 264.434C394.042 263.17 395.811 261.539 397.237 259.626C398.946 257.499 400.564 255.299 402.218 253.126C402.572 252.663 401.782 252.217 401.436 252.672C399.827 254.772 398.255 256.917 396.6 258.98C395.226 260.838 393.515 262.42 391.556 263.643L392.183 263.807C390.825 261.383 389.365 259.017 387.801 256.708C387.728 256.588 387.604 256.507 387.464 256.49C387.325 256.472 387.184 256.519 387.083 256.617C385.12 258.664 383.335 260.874 381.748 263.225L382.466 263.134C380.582 261.11 379.046 258.788 377.921 256.262C377.675 255.735 376.894 256.199 377.13 256.726H377.103Z" fill="#09101D"/>
<path d="M407.954 316.703C415.633 324.236 419.902 334.58 419.771 345.337C419.526 356.384 415.144 366.937 407.49 374.907C400.218 382.615 390.756 387.805 381.748 393.241C376.775 396.241 371.903 399.404 367.204 402.85C364.95 404.504 362.723 406.222 360.55 407.986C358.568 409.585 356.387 411.194 355.796 413.821C355.57 415.093 355.503 416.387 355.596 417.676C355.596 419.212 355.678 420.748 355.687 422.284C355.723 425.357 355.696 428.429 355.605 431.502C355.432 437.51 355.023 443.528 354.387 449.509C353.093 461.699 350.844 473.768 347.661 485.606C346.061 491.56 344.025 497.378 342.416 503.322C341.61 506.187 341.05 509.116 340.743 512.076C340.634 513.313 340.743 514.64 340.071 515.712C339.389 516.765 338.225 517.407 336.971 517.421C332.426 517.576 327.881 517.421 323.418 517.421H315.683C315.119 517.421 314.555 517.421 313.992 517.421C312.328 517.339 312.074 515.603 313.228 514.631C315.274 512.994 317.364 511.413 319.437 509.804C320.182 509.213 321.009 508.695 321.255 507.695C321.321 507.089 321.3 506.477 321.191 505.877C320.409 497.132 319.973 488.351 319.782 479.579C319.395 465.144 319.914 450.699 321.336 436.328C322.873 421.63 325.491 406.695 331.199 392.996C333.566 387.004 336.85 381.416 340.934 376.434C344.397 372.37 348.07 368.471 351.633 364.498L359.977 355.208L369.313 344.782C370.222 343.773 371.131 342.791 372.04 341.737C372.04 341.682 372.14 341.628 372.185 341.564C372.576 341.128 371.931 340.482 371.549 340.928C369.228 343.528 366.898 346.121 364.559 348.709L349.515 365.462C343.997 371.607 338.189 377.452 334.135 384.715C327.018 397.441 323.691 412.212 321.6 426.529C319.533 441.513 318.576 456.628 318.737 471.753C318.737 482.206 319.161 492.654 320.009 503.095C320.1 504.286 320.218 505.477 320.318 506.668C320.384 507.592 319.9 508.468 319.082 508.904L315.61 511.631C314.637 512.385 313.646 513.14 312.683 513.912C311.701 514.557 311.318 515.811 311.774 516.894C312.556 518.712 314.71 518.339 316.319 518.339H333.68C335.253 518.339 337.244 518.612 338.744 518.012C340.524 517.27 341.671 515.514 341.634 513.585C341.848 510.449 342.366 507.341 343.179 504.304C344.752 498.214 346.888 492.278 348.524 486.206C350.136 480.273 351.506 474.283 352.633 468.235C354.907 456.112 356.229 443.83 356.587 431.502C356.678 428.362 356.705 425.226 356.669 422.093C356.669 420.621 356.669 419.148 356.578 417.676C356.397 416.061 356.583 414.426 357.123 412.894C357.723 411.762 358.564 410.775 359.587 410.004C360.805 408.967 362.068 407.967 363.322 406.977C365.746 405.068 368.237 403.219 370.794 401.432C379.884 395.068 389.883 390.042 398.873 383.542C403.21 380.479 407.133 376.867 410.544 372.798C413.898 368.696 416.513 364.043 418.271 359.044C421.828 349.02 421.432 338.017 417.162 328.274C415.126 323.675 412.218 319.514 408.599 316.021C408.172 315.612 407.536 316.257 407.954 316.666V316.703Z" fill="#09101D"/>
<path d="M366.668 313.876C364.174 318.642 360.436 322.644 355.851 325.457C341.171 334.428 326.482 344.655 315.856 358.372C310.693 365.017 306.411 372.689 304.793 381.015C302.63 392.096 305.53 403.013 308.611 413.603C311.688 424.532 315.571 435.218 320.228 445.573" stroke="#09101D"/>
<path d="M346.089 492.833L348.407 505.513C348.654 506.854 348.532 508.237 348.052 509.513C347.543 510.886 346.825 512.813 346.08 514.722C345.902 515.179 346.005 515.697 346.344 516.052C346.683 516.406 347.197 516.533 347.661 516.376C353.115 514.558 362.632 511.522 368.114 509.795C369.19 509.462 370.086 508.709 370.599 507.706C371.112 506.703 371.199 505.536 370.84 504.468C368.759 498.35 364.941 485.379 362.551 466.49C360.414 449.664 356.115 417.676 356.115 417.676" stroke="#09101D"/>
<path d="M385.765 267.889C385.86 267.757 386.026 267.696 386.183 267.734C386.358 267.766 386.509 267.877 386.592 268.034C386.789 268.421 386.853 268.862 386.774 269.289C386.737 269.725 386.427 270.091 386.002 270.198C385.631 270.227 385.293 269.985 385.202 269.625C385.092 269.106 385.169 268.565 385.42 268.098C385.474 267.961 385.247 267.907 385.202 268.043C384.93 268.557 384.856 269.151 384.993 269.716C385.123 270.158 385.541 270.452 386.002 270.425C386.514 270.332 386.909 269.922 386.983 269.407C387.029 269.136 387.029 268.859 386.983 268.589C386.956 268.341 386.875 268.102 386.747 267.889C386.616 267.684 386.398 267.55 386.156 267.525C385.922 267.487 385.688 267.595 385.565 267.798C385.483 267.916 385.683 268.034 385.756 267.907L385.765 267.889Z" fill="#09101D"/>
<path d="M384.82 275.842C384.914 275.708 385.08 275.647 385.238 275.687C385.413 275.72 385.564 275.83 385.647 275.987C385.843 276.371 385.907 276.809 385.829 277.233C385.793 277.667 385.487 278.031 385.066 278.142C384.693 278.172 384.352 277.931 384.257 277.569C384.147 277.05 384.224 276.509 384.475 276.042C384.529 275.906 384.311 275.842 384.257 275.978C383.986 276.495 383.912 277.092 384.048 277.66C384.181 278.1 384.597 278.393 385.056 278.369C385.569 278.276 385.964 277.866 386.038 277.351C386.084 277.08 386.084 276.804 386.038 276.533C386.015 276.287 385.934 276.05 385.802 275.842C385.673 275.633 385.455 275.495 385.211 275.469C384.979 275.443 384.751 275.548 384.62 275.742C384.588 275.795 384.604 275.864 384.657 275.896C384.709 275.929 384.778 275.913 384.811 275.86L384.82 275.842Z" fill="#09101D"/>
<path d="M384.821 283.796C384.916 283.665 385.08 283.601 385.239 283.632C385.414 283.665 385.565 283.775 385.648 283.932C385.843 284.32 385.907 284.76 385.83 285.187C385.789 285.619 385.485 285.981 385.066 286.096C384.693 286.118 384.355 285.875 384.257 285.514C384.147 284.998 384.224 284.46 384.475 283.996C384.53 283.86 384.312 283.796 384.257 283.932C383.986 284.449 383.912 285.047 384.048 285.614C384.181 286.054 384.598 286.347 385.057 286.323C385.571 286.227 385.966 285.813 386.039 285.296C386.084 285.025 386.084 284.749 386.039 284.478C386.016 284.229 385.935 283.989 385.802 283.778C385.67 283.574 385.453 283.441 385.212 283.414C384.978 283.379 384.745 283.486 384.621 283.687C384.539 283.814 384.739 283.923 384.812 283.805L384.821 283.796Z" fill="#09101D"/>
<path d="M373.858 305.531L384.375 311.112C384.375 311.112 392.374 314.994 397.773 315.312C400.62 315.444 403.452 315.793 406.245 316.357C407.492 316.339 408.692 316.828 409.572 317.712C410.872 319.157 415.853 325.802 417.189 329.529C417.189 329.529 410.653 330.811 387.483 320.311C380.791 317.197 373.628 315.218 366.286 314.457C366.286 314.457 362.268 304.895 363.459 304.604" fill="#09101D"/>
<path d="M311.511 388.114H313.583C313.634 388.1 313.669 388.053 313.669 388.001C313.669 387.948 313.634 387.902 313.583 387.887H311.511C311.46 387.902 311.425 387.948 311.425 388.001C311.425 388.053 311.46 388.1 311.511 388.114Z" fill="#09101D"/>
<path d="M313.256 384.551L315.074 384.851C315.22 384.851 315.274 384.651 315.138 384.633L313.32 384.333C313.174 384.333 313.12 384.533 313.256 384.551Z" fill="#09101D"/>
<path d="M346.415 397.85L348.233 398.759C348.36 398.822 348.479 398.623 348.342 398.559L346.524 397.65C346.397 397.586 346.279 397.777 346.415 397.85Z" fill="#09101D"/>
<path d="M319.374 492.223C327.936 493.083 336.553 493.262 345.143 492.759C345.289 492.759 345.289 492.523 345.143 492.532C336.553 493.035 327.936 492.856 319.374 491.996C319.228 491.996 319.228 492.214 319.374 492.223V492.223Z" fill="#09101D"/>
<path d="M347.807 487.578L356.624 485.114L360.978 483.905L363.159 483.296C363.514 483.196 364.068 483.169 364.232 482.751C364.252 482.717 364.252 482.676 364.232 482.642L364.168 482.578C364.126 482.535 364.057 482.535 364.014 482.578C363.971 482.621 363.971 482.69 364.014 482.733C363.652 482.887 363.282 483.02 362.905 483.133L361.923 483.405L359.86 483.987L355.833 485.114L347.752 487.332C347.692 487.347 347.655 487.408 347.67 487.469C347.685 487.529 347.746 487.565 347.807 487.55V487.578Z" fill="#09101D"/>
<path d="M362.741 351.408C362.741 351.408 338.907 370.607 330.926 378.633C322.945 386.66 321.445 430.974 321.445 430.974C321.445 430.974 326.127 400.65 332.608 390.069C341.274 376.165 351.373 363.207 362.741 351.408V351.408Z" fill="#09101D"/>
<path d="M410.054 287.524C410.054 287.524 424.079 296.614 426.915 301.086C426.915 301.086 427.906 294.914 428.024 293.668C428.142 292.423 429.524 291.014 426.934 290.087C423.625 288.896 410.054 287.524 410.054 287.524L410.054 287.524Z" fill="#09101D"/>
<path d="M351.079 286.732C351.079 286.732 361.832 288.932 364.896 292.859C364.896 292.859 364.05 288.423 364.214 287.868C364.378 287.314 364.45 285.878 362.969 285.896" fill="#09101D"/>
<path d="M324.046 497.632L326.909 497.777C327.063 497.777 327.054 497.559 326.909 497.55L324.046 497.404C323.9 497.404 323.9 497.623 324.046 497.632Z" fill="#09101D"/>
<path d="M324.073 499.887C325.058 500.319 326.143 500.473 327.209 500.332C327.346 500.332 327.355 500.087 327.209 500.105C326.184 500.246 325.14 500.101 324.191 499.687C324.055 499.632 323.937 499.832 324.073 499.887V499.887Z" fill="#09101D"/>
<path d="M324.4 502.677C325.177 503.071 326.053 503.229 326.918 503.132C327.055 503.132 327.064 502.886 326.918 502.904C326.094 503.006 325.257 502.857 324.519 502.477C324.391 502.413 324.273 502.604 324.4 502.677Z" fill="#09101D"/>
<path d="M349.652 493.541L352.016 492.632C352.152 492.577 352.097 492.359 351.961 492.414L349.589 493.323C349.452 493.323 349.516 493.586 349.652 493.541V493.541Z" fill="#09101D"/>
<path d="M350.225 496.586C351.219 496.464 352.181 496.155 353.061 495.677C353.188 495.613 353.061 495.413 352.942 495.486C352.094 495.933 351.169 496.216 350.216 496.322C350.07 496.322 350.07 496.568 350.216 496.55L350.225 496.586Z" fill="#09101D"/>
<path d="M351.133 499.013C352.071 499.078 353.004 498.832 353.788 498.313C353.915 498.232 353.788 498.041 353.679 498.113C352.928 498.613 352.033 498.849 351.133 498.786C350.988 498.786 350.988 499.004 351.133 499.013V499.013Z" fill="#09101D"/>
<ellipse cx="252.118" cy="47.5354" rx="27.7422" ry="27.743" fill="#46DBC9"/>
<path d="M289.095 126.348L291.203 113.3C291.361 112.356 291.006 111.399 290.271 110.786L280.007 102.433C279.26 101.83 278.25 101.667 277.351 102.004L264.979 106.699C264.088 107.049 263.45 107.845 263.302 108.791L261.193 121.838C261.036 122.782 261.391 123.739 262.126 124.352L272.39 132.705C273.137 133.308 274.147 133.472 275.045 133.134L287.418 128.44C288.309 128.089 288.947 127.293 289.095 126.348V126.348Z" fill="#1B3C87"/>
<path d="M350.17 222.138L352.516 220.139C352.625 220.048 352.47 219.884 352.352 219.984L350.007 221.975C349.898 222.075 350.052 222.229 350.17 222.138Z" fill="#09101D"/>
<path d="M352.025 229.974L353.998 229.184C354.134 229.129 354.079 228.911 353.943 228.965L351.971 229.756C351.834 229.811 351.889 230.029 352.025 229.974Z" fill="#09101D"/>
<path d="M352.088 239.846L352.479 239.455C352.523 239.409 352.523 239.337 352.479 239.291C352.459 239.271 352.431 239.259 352.402 239.259C352.373 239.259 352.345 239.271 352.325 239.291L351.925 239.682C351.885 239.73 351.885 239.799 351.925 239.846C351.97 239.89 352.043 239.89 352.088 239.846V239.846Z" fill="#09101D"/>
<path d="M126.145 306.661H225.391V315.009H126.145L126.145 306.661Z" fill="#09101D"/>
<path d="M108.294 300.622L106.667 306.766H149.953L151.862 300.622H108.294Z" fill="#D6DEFF"/>
<path d="M225.235 254.717H166.078L151.861 300.622H211.018L225.235 254.717Z" fill="#EBEFFE"/>
<path d="M151.862 300.622L149.953 306.766H207.065C208.284 306.765 209.36 305.969 209.719 304.803L211.019 300.622H151.862Z" fill="#F4F6F9"/>
<path fill-rule="evenodd" clip-rule="evenodd" d="M108.294 300.622L106.667 306.767H149.953L151.862 300.622H108.294Z" stroke="#09101D"/>
<path fill-rule="evenodd" clip-rule="evenodd" d="M225.235 254.717H166.078L151.861 300.622H211.018L225.235 254.717Z" stroke="#09101D"/>
<path fill-rule="evenodd" clip-rule="evenodd" d="M151.862 300.622L149.953 306.767H207.065C208.284 306.765 209.36 305.969 209.719 304.804L211.019 300.622H151.862Z" stroke="#09101D"/>
<path d="M72.3476 218.079L76.5215 234.775L75.1302 237.094C75.1302 240.649 74.4809 248.039 71.8838 249.152C69.2867 250.265 67.4007 250.543 66.7824 250.543L64.9273 258.428C68.4829 259.046 76.0577 261.21 81.623 264.457C87.1882 267.703 91.0039 279.207 91.3621 284.863L96.9273 271.877C95.9905 264.561 97.2705 263.196 101.101 263.065C100.792 262.292 100.73 260.561 102.956 259.819C105.182 259.077 116.869 259.51 122.435 259.819V280.689L108.058 281.153L103.42 302.023C104.743 301.838 105.533 301.883 107.13 302.487L125.681 315.009C119.691 318.633 116.228 320.498 109.449 322.893C98.7078 328.331 92.3755 329.95 80.2317 328.922L78.3766 332.632C80.1281 339.305 81.9341 339.831 85.3331 340.053C107.911 346.145 120.508 349.625 140.058 359.068C159.685 369.142 164.749 378.439 164.637 400.345L204.985 496.347C207.922 495.883 214.122 496.444 214.261 498.666C214.446 501.634 193.035 518.254 191.072 517.217C189.605 516.442 167.575 480.115 156.753 462.027C152.889 477.332 145.252 508.313 145.623 509.797C146.087 511.652 155.599 515.217 152.579 517.217C150.412 518.653 119.918 517.888 117.436 518.09C117.399 518.133 117.365 518.152 117.333 518.145C117.228 518.121 117.268 518.103 117.436 518.09C119.307 515.832 126.464 446.576 128.464 411.939L121.971 402.663L58.4346 387.359L56.5795 352.111V290.791C56.5795 288.029 54.3409 285.791 51.5795 285.791H21.7969C23.9181 261.188 32.1075 259.496 47.3041 257.5L50.0867 246.369L63.536 218.079H72.3476Z" fill="white"/>
<path d="M135.048 292.696C133.639 292.641 133.567 295.05 132.685 296.241C131.803 297.432 127.331 298.577 126.995 298.668C126.658 298.759 116.314 301.622 114.633 301.231L107.115 302.577L110.842 306.376C110.842 306.376 124.477 315.466 124.686 315.221C124.895 314.976 133.776 308.74 135.121 308.131C136.466 307.522 142.338 304.349 143.647 303.413C144.956 302.477 146.502 298.704 147.138 296.914C147.774 295.123 148.329 294.732 148.601 293.705C148.874 292.678 136.457 292.75 135.048 292.696Z" fill="white"/>
<path d="M57.4576 352.499C57.4576 352.499 52.8218 396.041 117.005 397.041L67.5928 404.204L47.7314 398.868" fill="#09101D"/>
<path d="M66.4564 250.417C66.032 251.53 65.6887 252.673 65.4293 253.835C65.1293 255.281 64.9839 256.753 64.8294 258.226C64.7657 258.808 65.6747 258.799 65.7383 258.226C65.8575 256.804 66.0547 255.39 66.3292 253.99C66.5849 252.859 66.919 251.747 67.3291 250.663C67.529 250.108 66.6564 249.872 66.4201 250.417H66.4564Z" fill="#09101D"/>
<path d="M64.4831 249.627C64.4831 249.627 63.2287 250.872 65.7647 254.108C65.7647 254.108 66.6737 251.472 66.6737 251.254C66.6737 251.036 67.4191 250.09 65.7647 250.072C64.1104 250.054 64.4831 249.627 64.4831 249.627Z" fill="#09101D"/>
<path d="M61.5566 248.89C75.3005 253.863 74.9096 243.273 75.0823 237.982C75.0823 237.637 75.0823 237.291 75.0823 236.946C76.0889 236.486 76.581 235.337 76.2186 234.292C75.9506 233.659 75.717 233.013 75.5187 232.355C75.0777 230.97 74.7405 229.554 74.5097 228.119C73.8461 223.92 72.7553 219.275 71.7009 215.293" stroke="#09101D"/>
<path d="M64.2835 231.637C64.5471 231.51 64.8289 231.737 65.0107 231.919C65.2047 232.111 65.3727 232.328 65.5106 232.564C65.8013 233.033 65.9815 233.561 66.0379 234.109C66.0379 234.255 66.2833 234.255 66.2651 234.109C66.2064 233.459 65.9844 232.833 65.6197 232.291C65.3288 231.855 64.7653 231.146 64.1653 231.382C64.029 231.446 64.1653 231.637 64.2835 231.582V231.637Z" fill="#09101D"/>
<path d="M65.0379 233.191C65.2746 233.013 65.6011 233.013 65.8378 233.191C65.8583 233.212 65.8861 233.223 65.9151 233.223C65.9441 233.223 65.9719 233.212 65.9923 233.191C66.0307 233.147 66.0307 233.081 65.9923 233.037C65.6828 232.825 65.2747 232.825 64.9652 233.037C64.9118 233.068 64.892 233.136 64.9197 233.191C64.9332 233.219 64.9576 233.24 64.987 233.248C65.0164 233.257 65.048 233.253 65.0743 233.237L65.0379 233.191Z" fill="#09101D"/>
<path d="M50.1667 243.218C49.1668 248.036 48.4669 252.999 46.7398 257.626C46.5307 258.171 47.4124 258.407 47.6488 257.862C49.3759 253.235 50.0849 248.272 51.0757 243.463C51.1938 242.891 50.3212 242.645 50.1667 243.218Z" fill="#09101D"/>
<path d="M71.7737 230.137C71.725 230.227 71.6855 230.321 71.6555 230.419C71.6555 230.519 71.6555 230.628 71.601 230.728C71.5783 230.9 71.5783 231.074 71.601 231.246C71.634 231.36 71.7086 231.457 71.8101 231.519C71.9248 231.559 72.0498 231.559 72.1646 231.519C72.2766 231.482 72.3728 231.408 72.4373 231.309L72.4827 231.2C72.5007 231.12 72.5007 231.036 72.4827 230.955V231.046C72.4736 230.928 72.4736 230.809 72.4827 230.691V230.819C72.4948 230.702 72.5255 230.589 72.5736 230.482V230.591C72.6037 230.542 72.6224 230.486 72.6281 230.428C72.6421 230.368 72.6421 230.306 72.6281 230.246C72.5968 230.131 72.5218 230.033 72.4191 229.973C72.3052 229.928 72.1784 229.928 72.0646 229.973C71.9523 230.005 71.8574 230.08 71.801 230.182L71.7737 230.137Z" fill="#09101D"/>
<path d="M70.7466 237.928C71.0319 238.573 71.5379 239.095 72.1737 239.401C72.2859 239.437 72.407 239.437 72.5192 239.401C72.6327 239.367 72.7297 239.292 72.7918 239.191C72.9168 238.973 72.8442 238.694 72.6282 238.564C72.4637 238.488 72.3082 238.393 72.1646 238.282L72.2555 238.355C72.0782 238.219 71.9193 238.06 71.7829 237.882L71.8556 237.982C71.7289 237.81 71.6221 237.624 71.5374 237.428C71.4076 237.212 71.129 237.139 70.9102 237.264C70.8081 237.321 70.7328 237.416 70.7012 237.528V237.655C70.7039 237.735 70.7258 237.813 70.7648 237.882L70.7466 237.928Z" fill="#09101D"/>
<path d="M72.1371 227.028L72.2916 226.965H72.1826C72.3403 226.894 72.5048 226.839 72.6734 226.801C72.7851 226.764 72.8811 226.69 72.9461 226.592C72.9569 226.563 72.963 226.532 72.9643 226.501C72.9825 226.442 72.9825 226.379 72.9643 226.319C72.933 226.205 72.8579 226.107 72.7552 226.047C72.649 225.991 72.5267 225.975 72.4098 226.001C72.1498 226.071 71.8971 226.165 71.6554 226.283C71.6008 226.307 71.556 226.349 71.5281 226.401C71.4834 226.441 71.4545 226.496 71.4463 226.556C71.4281 226.615 71.4281 226.678 71.4463 226.738C71.4449 226.797 71.4642 226.855 71.5008 226.901C71.5576 227.007 71.6569 227.083 71.7735 227.11H71.8917C71.972 227.112 72.0511 227.09 72.1189 227.047L72.1371 227.028Z" fill="#09101D"/>
<path d="M59.375 257.744C59.375 257.744 82.436 259.253 87.5536 270.706C92.6711 282.16 92.4075 304.458 92.4075 304.458" stroke="#09101D"/>
<path d="M92.4259 303.23C92.4259 303.23 100.289 302.167 102.052 302.076C104.624 301.949 107.66 300.367 109.86 309.857C112.987 323.301 108.533 324.819 102.534 326.147C98.4434 327.056 71.3738 340.291 65.5381 302.167" stroke="#09101D"/>
<path d="M106.597 302.667L115.487 301.176C122.595 299.994 131.503 298.067 132.885 296.295C133.419 295.47 133.77 294.54 133.912 293.568C134.06 292.297 134.771 291.159 135.848 290.468" stroke="#09101D"/>
<path d="M109.388 322.856C109.47 322.611 117.514 321.211 132.676 310.275C141.229 304.112 144.738 305.176 146.656 298.749C148.574 292.322 151.401 293.213 151.401 293.213" stroke="#09101D"/>
<path d="M137.784 292.986C138.804 291.254 140.195 289.77 141.857 288.641C142.339 288.314 141.857 287.532 141.402 287.859C139.604 289.066 138.098 290.659 136.994 292.522C136.866 292.741 136.939 293.022 137.157 293.15C137.376 293.278 137.656 293.204 137.784 292.986Z" fill="#09101D"/>
<path d="M142.901 291.041C143.074 290.869 143.247 290.687 143.438 290.523L143.71 290.278L143.865 290.132L143.929 290.078C144.327 289.782 144.747 289.515 145.183 289.278C145.287 289.217 145.361 289.118 145.39 289.001C145.42 288.885 145.4 288.762 145.338 288.66C145.211 288.445 144.936 288.372 144.719 288.496C143.796 288.989 142.961 289.631 142.247 290.396C142.071 290.572 142.071 290.857 142.247 291.032C142.423 291.208 142.708 291.208 142.883 291.032L142.901 291.041Z" fill="#09101D"/>
<path d="M146.301 291.95C146.356 291.886 146.301 291.95 146.301 291.95L146.365 291.868L146.483 291.732L146.747 291.45L147.029 291.186L147.174 291.068C147.194 291.042 147.218 291.021 147.247 291.004C147.247 291.004 147.338 290.932 147.247 291.004C147.449 290.855 147.658 290.715 147.874 290.586L148.21 290.404L148.392 290.323H148.474C148.383 290.323 148.474 290.323 148.474 290.323C148.712 290.248 148.851 290.001 148.792 289.759C148.722 289.522 148.478 289.382 148.237 289.441C147.124 289.879 146.154 290.619 145.438 291.577C145.376 291.68 145.358 291.804 145.389 291.921C145.42 292.037 145.496 292.136 145.601 292.195C145.817 292.319 146.093 292.246 146.22 292.032L146.301 291.95Z" fill="#09101D"/>
<path d="M32.2323 332.246C40.5495 332.846 48.8849 333.046 57.2294 332.937C64.7013 332.837 72.1731 332.537 79.645 332.228C80.2755 332.208 80.904 332.148 81.5266 332.046C82.01 332.013 82.4723 331.836 82.8537 331.537C83.2628 331.128 83.1446 330.383 83.081 329.874C83.0109 329.343 82.9046 328.817 82.7628 328.301C82.719 328.139 82.5919 328.012 82.4293 327.969C82.2668 327.926 82.0935 327.972 81.9748 328.092C81.8561 328.211 81.81 328.384 81.8538 328.547C81.9538 328.937 82.0447 329.328 82.1084 329.719C82.161 330.019 82.1883 330.323 82.1902 330.628C82.1902 330.71 82.1356 330.946 82.1902 330.892C82.2447 330.837 82.1174 330.892 82.072 330.892C81.1634 331.127 80.2291 331.249 79.2905 331.255C75.9818 331.346 72.664 331.519 69.3553 331.637C61.5835 331.919 53.7935 332.083 46.0125 331.91C41.4131 331.81 36.8045 331.592 32.2141 331.264C31.6233 331.264 31.6324 332.173 32.2141 332.173L32.2323 332.246Z" fill="#09101D"/>
<path d="M78.5822 331.792L79.2458 335.264C79.6003 337.129 80.9139 338.667 82.6999 339.309C95.4893 343.918 147.311 353.708 160.264 375.979C174.253 400.04 148.629 497.232 145.547 508.694C145.381 509.313 145.599 509.971 146.102 510.367L152.274 515.158C152.81 515.576 153.021 516.288 152.799 516.931C152.577 517.573 151.972 518.004 151.292 518.003H118.923C118.462 518.003 118.025 517.802 117.724 517.452C117.424 517.103 117.291 516.64 117.36 516.185C118.996 507.049 124.513 471.643 125.459 443.873C126.468 414.276 130.912 401.686 130.912 401.686C116.987 400.259 103.425 400.24 89.0173 399.977C74.9463 399.722 60.4934 399.268 46.695 396.341C39.8867 394.886 33.0602 392.214 28.997 386.214C24.5339 379.597 23.7976 370.288 24.7066 362.58C25.3661 357.444 26.686 352.415 28.6334 347.618C30.4969 342.909 33.5147 338.464 34.7509 333.537C34.8906 333.002 34.9938 332.459 35.06 331.91" stroke="#09101D"/>
<path d="M128.694 401.404C128.694 401.404 134.648 401.595 137.421 403.304" stroke="#09101D"/>
<path d="M66.7286 308.185C66.7286 308.185 64.4107 327.275 74.0005 331.82L82.6449 331.111C82.6449 331.111 84.072 328.384 81.0087 327.665C77.9455 326.947 67.5103 317.866 66.7286 308.185V308.185Z" fill="#09101D"/>
<path d="M78.5815 331.792C78.5815 331.792 75.9636 337.819 56.6113 343.845L57.4476 335.237C57.4476 335.237 55.2206 331.955 60.2564 332.51C65.2921 333.064 78.5815 331.792 78.5815 331.792Z" fill="#09101D"/>
<path d="M135.121 402.35C134.156 404.885 131.832 406.648 129.131 406.895C129.131 406.895 129.949 401.232 132.53 401.795L135.121 402.35Z" fill="#09101D"/>
<path d="M150.392 385.36C151.468 385.377 152.509 384.98 153.3 384.251C153.41 384.151 153.246 383.997 153.137 384.097C152.393 384.776 151.418 385.147 150.41 385.133C150.359 385.147 150.324 385.194 150.324 385.246C150.324 385.299 150.359 385.346 150.41 385.36H150.392Z" fill="#09101D"/>
<path d="M152.846 389.378L154.809 388.178C154.843 388.157 154.864 388.119 154.862 388.079C154.861 388.039 154.839 388.002 154.803 387.983C154.768 387.964 154.725 387.966 154.691 387.987L152.728 389.214C152.609 389.287 152.728 389.487 152.846 389.405V389.378Z" fill="#09101D"/>
<path d="M66.8927 229.947C66.8894 230.056 66.8196 230.151 66.7169 230.187C66.6143 230.224 66.5 230.193 66.4291 230.11C65.7292 229.201 64.4475 227.774 63.3295 229.256C62.0387 230.983 61.5751 233.247 62.7295 234.837C63.0938 235.299 63.2427 235.895 63.1386 236.473C62.6023 239.11 59.2572 248.372 56.3576 249.572C53.7942 250.627 49.022 250.381 48.3312 248.663C47.6404 246.945 28.9153 222.147 50.1492 214.803C50.1492 214.803 52.158 208.331 62.7204 210.012C73.0102 211.639 82.7727 217.384 68.1744 221.302C67.4505 221.502 66.9487 222.16 66.9472 222.911L66.8927 229.947Z" fill="#09101D"/>
<path d="M54.3844 257.671C54.3844 257.671 38.9316 256.699 31.2598 261.78C22.1699 267.798 22.1699 284.978 22.1699 284.978" stroke="#09101D"/>
<path d="M119.477 406.895C119.477 406.895 123.331 407.313 125.44 409.622C126.408 410.671 127.151 411.909 127.621 413.258L128.594 408.84L130.348 403.068C130.348 403.068 130.984 401.504 130.048 401.441C129.112 401.377 122.067 400.668 122.122 401.441C122.176 402.213 122.94 402.931 121.34 405.422C120.789 405.996 120.162 406.491 119.477 406.895H119.477Z" fill="#09101D" stroke="#09101D"/>
<path d="M164.408 399.586C164.408 399.586 197.713 475.107 204.822 496.132C204.822 496.132 214.593 495.223 214.302 498.796C214.066 501.668 198.85 512.367 192.923 516.394C192.339 516.795 191.614 516.934 190.924 516.777C190.233 516.62 189.64 516.181 189.287 515.567C183.488 505.568 160.972 466.808 156.618 461.299" stroke="#09101D"/>
<path d="M75.2368 344.809C73.5669 350.938 71.1233 356.831 67.9649 362.343C67.8922 362.471 68.0921 362.58 68.1649 362.452C71.3436 356.924 73.8055 351.013 75.4913 344.863C75.5064 344.803 75.4697 344.742 75.4095 344.727C75.3492 344.712 75.2882 344.748 75.2731 344.809H75.2368Z" fill="#09101D"/>
<path d="M70.4739 357.345L69.9104 355.381L69.6195 354.381L69.4832 353.899C69.3916 353.707 69.3569 353.493 69.3832 353.281C69.4741 352.981 69.8831 352.9 70.1558 352.809L71.0648 352.5C71.7132 352.3 72.3586 352.118 73.0009 351.954C73.0612 351.939 73.0978 351.878 73.0827 351.818C73.0677 351.758 73.0066 351.721 72.9464 351.736C72.1919 351.927 71.4466 352.136 70.7012 352.372C70.3649 352.481 70.0195 352.581 69.6831 352.709C69.4609 352.776 69.2705 352.921 69.1468 353.118C69.0605 353.378 69.0801 353.662 69.2014 353.909L69.5377 355.072L70.2376 357.399C70.2376 357.536 70.4921 357.472 70.4558 357.336L70.4739 357.345Z" fill="#09101D"/>
<path d="M118.741 509.831C127.746 508.783 136.781 508.019 145.847 507.541C145.992 507.541 145.992 507.304 145.847 507.313C136.793 507.798 127.758 508.562 118.741 509.604C118.595 509.604 118.595 509.849 118.741 509.831Z" fill="#09101D"/>
<path d="M184.36 506.585C187.944 505.195 191.396 503.488 194.677 501.486C197.84 499.668 201.258 497.85 203.867 495.214C203.967 495.114 203.803 494.95 203.703 495.059C201.113 497.677 197.704 499.44 194.559 501.295C191.296 503.283 187.865 504.98 184.306 506.367C184.169 506.422 184.224 506.64 184.36 506.585V506.585Z" fill="#09101D"/>
<path d="M52.1756 258.626C52.127 259.972 52.8266 261.235 53.9936 261.908C54.2503 262.055 54.5254 262.168 54.8117 262.244C55.1935 262.344 55.5934 262.244 55.9752 262.38C56.3433 262.539 56.6791 262.764 56.966 263.044C57.2705 263.26 57.6127 263.417 57.975 263.507C58.5337 263.671 59.1374 263.537 59.5748 263.153C59.9724 262.599 60.2793 261.985 60.4838 261.335C61.1291 260.171 63.2107 259.326 62.5744 257.699C62.5199 257.563 62.3017 257.617 62.3472 257.763C62.8926 259.226 61.0019 260.053 60.3565 261.089C60.0565 261.58 59.9384 262.162 59.6202 262.644C59.1054 263.322 58.1568 263.492 57.4387 263.035C56.9296 262.78 56.5297 262.244 55.9843 262.126C55.7025 262.053 55.3934 262.126 55.0753 262.044C54.7577 261.995 54.4505 261.894 54.1663 261.744C53.0026 261.131 52.2951 259.904 52.3483 258.59C52.3483 258.444 52.1302 258.444 52.1211 258.59L52.1756 258.626Z" fill="#09101D"/>
<path d="M39.4135 275.169C38.3897 274.059 38.109 272.453 38.6954 271.061C38.9699 270.437 39.4022 269.895 39.9498 269.488C40.477 269.106 41.1406 268.988 41.6587 268.579C42.5677 267.916 42.6313 266.634 43.4767 265.852C44.5127 264.899 46.0243 264.672 47.2944 265.279C48.5306 265.952 48.367 267.361 48.4488 268.561C48.4605 268.976 48.5467 269.386 48.7033 269.77C48.9547 270.223 49.3299 270.595 49.785 270.843C50.3461 271.386 50.6473 272.144 50.6122 272.924C50.7413 273.707 50.7103 274.508 50.5213 275.279C50.3408 275.938 49.919 276.506 49.3396 276.869C49.0432 277.046 48.7027 277.134 48.3579 277.124C47.956 277.047 47.5488 277.001 47.1399 276.988C46.529 277.147 45.9689 277.46 45.5128 277.897C44.8761 278.457 44.0252 278.71 43.1858 278.587C42.7789 278.498 42.4269 278.245 42.2132 277.887C42.0859 277.66 42.0677 277.369 41.8859 277.178C41.5314 276.797 40.068 277.051 40.2043 276.378C40.2043 276.233 40.0134 276.169 39.9862 276.315C39.8862 276.76 40.2589 277.033 40.6588 277.106C41.0588 277.178 41.5678 277.106 41.8405 277.569C41.9461 277.833 42.0835 278.084 42.2495 278.315C43.204 279.315 44.6765 278.778 45.631 278.097C45.9376 277.837 46.2627 277.6 46.6036 277.387C47.1351 277.195 47.7132 277.173 48.2579 277.324C48.847 277.359 49.4249 277.152 49.8577 276.751C51.0394 275.706 50.9849 274.024 50.8122 272.597C50.7979 271.978 50.5879 271.38 50.2122 270.888C49.9486 270.615 49.585 270.47 49.3033 270.224C49.0247 269.952 48.8374 269.599 48.767 269.215C48.5124 268.061 48.8851 266.67 48.1216 265.661C47.1879 264.67 45.7289 264.378 44.4856 264.934C43.9159 265.152 43.4053 265.501 42.9949 265.952C42.5979 266.522 42.2598 267.132 41.9859 267.77C41.4769 268.625 40.4316 268.679 39.6862 269.315C38.7875 270.011 38.2253 271.054 38.1387 272.187C38.052 273.32 38.4492 274.437 39.2317 275.26C39.3317 275.369 39.4862 275.206 39.3862 275.097L39.4135 275.169Z" fill="#09101D"/>
<path d="M24.7336 272.07C25.6124 272.562 26.6807 272.573 27.5701 272.101C28.4594 271.629 29.0481 270.737 29.1331 269.734C29.1058 269.456 29.1058 269.176 29.1331 268.897C29.2694 268.407 29.7421 268.552 30.1148 268.543C30.4853 268.533 30.8264 268.339 31.0238 268.025C31.3295 267.536 31.5479 266.998 31.6692 266.434C31.8305 265.882 31.8585 265.299 31.751 264.734C31.5534 263.719 30.5796 263.048 29.5603 263.225C29.5009 263.245 29.4676 263.309 29.4845 263.369C29.5014 263.429 29.5627 263.466 29.6239 263.452C30.281 263.316 30.9509 263.621 31.2783 264.207C31.6265 264.848 31.6956 265.604 31.4692 266.298C31.3676 266.941 31.105 267.547 30.7056 268.061C30.2602 268.507 29.7148 268.134 29.2149 268.352C28.7149 268.57 28.8513 268.979 28.8695 269.352C28.9012 269.969 28.7287 270.579 28.3786 271.088C27.5684 272.225 26.0305 272.566 24.8154 271.879C24.6881 271.806 24.57 272.006 24.6972 272.07H24.7336Z" fill="#09101D"/>
<path d="M27.9511 284.378C27.8832 283.712 28.187 283.063 28.7419 282.688C29.16 282.424 29.6509 282.451 29.969 282.042C30.2871 281.633 30.3871 281.06 30.778 280.651C31.2082 280.194 31.7892 279.906 32.4142 279.842C32.7189 279.804 33.0284 279.829 33.3232 279.915C33.709 280.032 33.9969 280.355 34.0685 280.751C34.1193 281.092 34.3193 281.392 34.6139 281.57C34.8153 281.606 35.0215 281.606 35.2229 281.57C35.6129 281.603 35.9762 281.781 36.241 282.069C36.7254 282.679 37.0167 283.42 37.0773 284.197C37.0773 284.342 37.3227 284.278 37.2954 284.142C37.05 282.815 36.6137 281.415 35.0866 281.351C34.7775 281.351 34.5866 281.351 34.423 281.024C34.3506 280.866 34.2928 280.702 34.2503 280.533C34.1966 280.338 34.1038 280.155 33.9776 279.997C33.5346 279.623 32.9481 279.467 32.3778 279.57C31.8129 279.634 31.279 279.861 30.8416 280.224C30.4264 280.661 30.0938 281.169 29.8599 281.724C29.6236 282.124 29.2873 282.142 28.9509 282.297C28.6853 282.408 28.4489 282.579 28.2601 282.797C27.8878 283.217 27.7068 283.774 27.7602 284.333C27.7602 284.478 28.0056 284.478 27.9874 284.333L27.9511 284.378Z" fill="#09101D"/>
<path d="M61.3017 288.314C60.7563 286.987 60.32 285.315 61.1108 283.987C61.9016 282.66 63.4015 282.351 64.7468 282.033L67.0556 281.488C67.8671 281.155 68.7432 281.009 69.6189 281.06C70.2517 281.332 70.7381 281.861 70.9551 282.515C71.3653 283.262 71.6334 284.079 71.7459 284.924C71.7721 285.673 71.5194 286.405 71.0369 286.978C70.7476 287.36 70.6917 287.87 70.8915 288.305C71.1733 288.878 71.7187 289.296 72.055 289.842C72.4377 290.453 72.7 291.132 72.8276 291.841C72.9748 292.591 72.953 293.364 72.764 294.105C72.4822 295.077 71.6914 295.414 70.8188 295.732C70.1839 295.986 69.5171 296.151 68.8372 296.223C68.0484 296.301 67.2631 296.044 66.6738 295.514C66.2891 295.171 65.7451 295.073 65.2649 295.259C64.3747 295.705 63.2981 295.525 62.6015 294.814C61.9889 294.194 61.4904 293.471 61.129 292.678C60.7018 291.887 60.3473 290.632 61.3835 290.132C61.5199 290.078 61.3835 289.878 61.2744 289.942C59.8201 290.632 60.6927 292.405 61.2744 293.378C61.9653 294.559 63.0924 295.986 64.6195 295.696C65.1104 295.605 65.5285 295.305 66.0648 295.432C66.6011 295.559 66.8102 295.977 67.2192 296.186C67.8384 296.461 68.5264 296.54 69.1917 296.414C69.9747 296.282 70.7382 296.053 71.4642 295.732C72.0892 295.537 72.6036 295.088 72.8822 294.496C73.3834 293.018 73.2279 291.397 72.455 290.042C72.2917 289.738 72.1032 289.449 71.8914 289.178C71.5642 288.769 70.9824 288.351 70.9824 287.778C70.9824 287.205 71.3824 286.915 71.6096 286.533C71.8065 286.222 71.9308 285.871 71.9732 285.506C72.0104 284.689 71.8416 283.876 71.4823 283.142C71.2658 282.504 70.9364 281.91 70.5097 281.388C70.105 280.914 69.4746 280.698 68.8645 280.824C67.8828 280.997 66.9101 281.288 65.9375 281.515C64.3195 281.906 62.247 282.16 61.1563 283.569C60.0655 284.978 60.4927 286.878 61.1108 288.378C61.1654 288.514 61.3835 288.451 61.329 288.314H61.3017Z" fill="#09101D"/>
<path d="M72.4828 261.225C71.8623 261.939 71.4062 262.78 71.1466 263.689C70.9739 264.325 70.6557 265.561 71.1466 266.116C71.4829 266.507 72.0101 266.461 72.0556 267.125C72.0223 267.621 71.9339 268.112 71.792 268.588C71.6637 269.366 71.8466 270.163 72.301 270.806C73.2961 272.15 75.137 272.54 76.5914 271.715C77.2798 271.251 77.8955 270.688 78.4185 270.043C78.8176 269.558 79.5062 269.428 80.0546 269.734C80.3735 269.941 80.7043 270.129 81.0454 270.297C81.8817 270.634 82.4089 269.897 82.818 269.261C83.3914 268.337 83.7054 267.276 83.7269 266.189C83.7124 266.138 83.6661 266.103 83.6133 266.103C83.5606 266.103 83.5142 266.138 83.4997 266.189C83.4862 267.145 83.233 268.083 82.7634 268.916C82.5524 269.365 82.2415 269.76 81.8544 270.07C81.409 270.343 80.9454 270.016 80.5637 269.779C80.13 269.402 79.5384 269.263 78.982 269.407C78.4137 269.702 77.9267 270.133 77.564 270.661C76.3369 272.034 74.119 272.479 72.7373 271.061C72.0872 270.386 71.8088 269.435 71.9919 268.516C72.2277 267.94 72.2847 267.306 72.1556 266.698C72.0374 266.425 71.8374 266.334 71.6102 266.17C71.2711 265.962 71.0833 265.575 71.1284 265.18C71.1301 264.874 71.1605 264.57 71.2193 264.271C71.4156 263.195 71.8993 262.193 72.6191 261.371C72.71 261.262 72.5555 261.098 72.4555 261.207L72.4828 261.225Z" fill="#09101D"/>
<path d="M89.1445 287.605C88.0933 287.406 87.0088 287.695 86.1947 288.389C85.3807 289.083 84.9245 290.108 84.9541 291.177C85.054 291.7 85.054 292.236 84.9541 292.759C84.7632 293.286 84.1996 293.532 83.8633 293.95C83.6219 294.247 83.4314 294.581 83.2997 294.941C82.8816 296.013 82.5453 298.113 83.7542 298.84C84.3292 299.107 85.0044 299.033 85.5086 298.649C85.8666 298.391 86.262 298.188 86.6812 298.049C87.4174 297.858 87.4356 298.513 87.781 298.958C88.2995 299.553 89.129 299.769 89.8717 299.504C90.308 299.358 91.517 298.813 91.0261 298.186C90.9443 298.068 90.7443 298.186 90.8352 298.295C91.2624 298.849 89.6717 299.358 89.3627 299.386C88.7799 299.44 88.2122 299.18 87.8719 298.704C87.6992 298.422 87.6447 298.04 87.3356 297.868C87.0832 297.759 86.7972 297.759 86.5448 297.868C85.8267 298.077 85.2268 298.777 84.4541 298.777C83.3725 298.777 83.127 297.495 83.1634 296.668C83.1668 295.623 83.5552 294.617 84.2542 293.841C84.5291 293.634 84.7819 293.399 85.0086 293.141C85.2033 292.822 85.2894 292.449 85.2541 292.077C85.195 291.542 85.195 291.003 85.2541 290.468C85.358 289.896 85.6085 289.36 85.9812 288.914C86.7517 288.014 87.9427 287.591 89.1081 287.805C89.2445 287.805 89.3081 287.605 89.1627 287.587L89.1445 287.605Z" fill="#09101D"/>
<path d="M91.0529 286.869C91.1011 286.883 91.1528 286.864 91.1818 286.823C91.2108 286.783 91.2108 286.728 91.1818 286.687C91.1528 286.646 91.1011 286.628 91.0529 286.642C91.0022 286.656 90.9672 286.702 90.9672 286.755C90.9672 286.808 91.0022 286.854 91.0529 286.869V286.869Z" fill="#09101D"/>
<path d="M68.738 308.704C69.4024 307.9 70.5336 307.663 71.465 308.131C72.3049 308.652 72.8909 309.498 73.083 310.467C73.2029 311.048 73.6214 311.522 74.1829 311.712C74.5621 311.771 74.9446 311.808 75.3282 311.822C75.8055 311.873 76.2752 311.98 76.728 312.14C77.6146 312.412 78.3935 312.956 78.955 313.694C79.3833 314.494 79.7129 315.342 79.9367 316.221C80.3276 317.13 81.1548 318.121 81.0275 319.194C80.9003 320.266 79.9731 320.693 79.2641 321.257C77.7522 322.475 76.732 324.199 76.3917 326.111C76.3917 326.248 76.5826 326.311 76.6098 326.166C76.7958 325.139 77.1785 324.157 77.737 323.275C78.3699 322.363 79.1574 321.57 80.064 320.93C80.716 320.532 81.1586 319.867 81.2729 319.112C81.3275 318.13 80.6821 317.294 80.2912 316.43C79.9004 315.567 79.764 314.421 79.155 313.567C78.6679 312.916 78.0149 312.407 77.2643 312.094C76.4971 311.769 75.6786 311.581 74.8464 311.54C74.2093 311.602 73.6097 311.229 73.3829 310.631C73.2193 310.24 73.1375 309.831 72.9739 309.449C72.2104 307.74 69.847 306.931 68.5471 308.54C68.4562 308.649 68.6199 308.813 68.7108 308.695L68.738 308.704Z" fill="#09101D"/>
<path d="M90.4806 327.674C89.3674 325.622 90.0161 323.06 91.9713 321.784C92.6258 321.366 93.5984 321.284 93.9438 320.493C94.2893 319.702 94.062 318.775 94.5801 317.966C95.1488 317.067 96.1526 316.537 97.2162 316.575C97.8252 316.63 97.6889 317.175 97.907 317.566C98.0201 317.76 98.1794 317.922 98.3706 318.039C98.8978 318.375 99.5432 318.457 100.079 318.775C101.088 319.384 100.143 320.257 100.37 321.102C100.598 321.948 101.461 322.011 102.116 322.011C102.77 322.011 103.543 322.302 103.77 323.129C103.866 323.646 103.866 324.176 103.77 324.693L103.979 324.629L103.734 324.111C103.67 323.984 103.47 324.111 103.534 324.229L103.788 324.747C103.843 324.866 103.988 324.747 103.997 324.693C104.205 323.884 104.06 323.025 103.597 322.33C102.843 321.52 101.47 322.13 100.752 321.321C100.034 320.511 101.279 319.502 100.489 318.757C100.007 318.284 99.2432 318.212 98.6706 317.903C98.3027 317.734 98.0434 317.393 97.9797 316.994C97.8888 316.639 97.7525 316.43 97.3798 316.357C96.5506 316.262 95.7193 316.519 95.0892 317.066C94.4022 317.623 93.9748 318.439 93.9075 319.321C93.8348 320.102 93.7711 320.721 92.9985 321.057C92.5106 321.239 92.0466 321.481 91.6168 321.775C89.7552 323.18 89.2058 325.738 90.3261 327.784C90.3897 327.911 90.5897 327.784 90.517 327.665L90.4806 327.674Z" fill="#09101D"/>
<path d="M94.9528 303.358C94.9528 304.831 95.18 306.849 96.9343 307.212C97.2713 307.271 97.6178 307.233 97.9342 307.103C98.2887 306.976 98.5523 306.803 98.9432 306.985C99.15 307.104 99.332 307.261 99.4795 307.449C99.9721 307.997 100.623 308.379 101.343 308.54C102.86 308.916 104.465 308.667 105.797 307.849C106.002 307.683 106.178 307.483 106.315 307.258C106.378 307.078 106.463 306.907 106.57 306.749C107.051 306.258 106.97 306.676 107.279 306.676C107.512 306.708 107.744 306.61 107.884 306.42C108.024 306.231 108.049 305.981 107.951 305.767C107.906 305.631 107.688 305.685 107.733 305.822C108.024 306.594 107.188 306.249 106.824 306.267C106.671 306.28 106.529 306.356 106.433 306.476C106.281 306.715 106.144 306.964 106.024 307.222C105.8 307.524 105.503 307.765 105.161 307.922C103.766 308.539 102.187 308.595 100.752 308.076C100.098 307.803 99.7704 307.258 99.2159 306.867C98.6614 306.476 98.3524 306.658 97.8342 306.867C96.9743 307.158 96.0314 306.77 95.6254 305.958C95.2272 305.143 95.0665 304.233 95.1618 303.331C95.1618 303.176 94.9437 303.176 94.9346 303.331L94.9528 303.358Z" fill="#09101D"/>
<path d="M57.13 314.502C58.2376 314.681 59.1876 315.39 59.6734 316.402C60.1591 317.413 60.119 318.598 59.566 319.575C59.5455 319.595 59.534 319.623 59.534 319.652C59.534 319.681 59.5455 319.709 59.566 319.729C60.7713 320.352 61.7811 321.296 62.4839 322.456C63.1838 323.574 63.8564 325.256 63.3292 326.556C63.0788 327.005 62.8864 327.485 62.7566 327.983C62.7252 328.429 62.9115 328.862 63.2565 329.146C64.2138 330.204 64.194 331.821 63.2111 332.855C63.1111 332.964 63.2656 333.128 63.3747 333.019C64.1596 332.198 64.4068 331.002 64.011 329.937C63.9203 329.683 63.7915 329.444 63.6292 329.228C63.3565 328.883 62.9656 328.619 62.9747 328.128C62.9747 327.383 63.611 326.765 63.7201 326.029C63.7878 324.689 63.4071 323.365 62.6384 322.265C61.916 321.108 60.8956 320.166 59.6842 319.538V319.693C60.2785 318.657 60.3268 317.396 59.8133 316.319C59.2999 315.241 58.2902 314.484 57.1118 314.293C56.9663 314.293 56.9118 314.493 57.0572 314.511L57.13 314.502Z" fill="#09101D"/>
<path d="M66.1836 306.703C65.4124 306.747 64.7425 307.248 64.4838 307.976C64.1212 308.821 63.9267 309.729 63.9111 310.648C63.918 311.493 64.2931 312.293 64.9383 312.839C65.7473 313.666 66.5745 314.475 67.3925 315.293C67.4394 315.324 67.5013 315.318 67.5409 315.278C67.5805 315.239 67.5869 315.177 67.5562 315.13L65.6927 313.248C64.9776 312.722 64.4515 311.979 64.1929 311.13C64.1262 310.296 64.2346 309.457 64.5111 308.667C64.7292 307.84 65.2383 306.931 66.2109 306.931C66.2616 306.916 66.2966 306.87 66.2966 306.817C66.2966 306.764 66.2616 306.718 66.2109 306.703L66.1836 306.703Z" fill="#09101D"/>
<path d="M103.952 263.28C103.952 263.28 97.8253 262.134 96.88 264.889C95.9347 267.643 97.08 271.125 96.88 272.061C96.68 272.997 93.2441 282.351 91.1807 285.032" stroke="#09101D"/>
<path d="M100.58 267.543C100.866 267.683 101.202 267.683 101.489 267.543C101.734 267.441 101.974 267.325 102.207 267.197C102.668 266.932 103.106 266.628 103.516 266.288C103.69 266.108 103.69 265.823 103.516 265.643C103.334 265.473 103.052 265.473 102.87 265.643L102.743 265.752C102.807 265.697 102.67 265.797 102.661 265.807L102.416 265.988L101.852 266.334C101.67 266.443 101.479 266.543 101.289 266.634L101.152 266.697H101.079H101.007C100.961 266.697 100.961 266.697 101.007 266.697C101.052 266.697 100.961 266.697 101.007 266.697C100.787 266.577 100.512 266.649 100.38 266.861C100.261 267.078 100.333 267.35 100.543 267.479L100.58 267.543Z" fill="#09101D"/>
<path d="M101.197 263.043V261.852C101.197 260.597 102.215 259.58 103.47 259.58H121.768C122.305 259.58 122.74 260.015 122.74 260.552V279.224C122.74 280.264 121.899 281.109 120.859 281.114H106.733C105.689 281.114 104.842 280.268 104.842 279.224V269.352H103.47C102.868 269.354 102.29 269.117 101.863 268.692C101.437 268.267 101.197 267.69 101.197 267.088" stroke="#09101D"/>
<path d="M107.697 281.042L105.424 291.568C105.052 293.304 104.679 295.05 104.297 296.777C103.996 298.418 103.482 300.013 102.77 301.522C102.498 302.04 103.288 302.494 103.552 301.976C104.268 300.498 104.791 298.934 105.106 297.322C105.506 295.559 105.87 293.795 106.252 292.032L108.57 281.278C108.697 280.715 107.824 280.469 107.661 281.042H107.697Z" fill="#09101D"/>
<path d="M103.415 262.661C103.161 262.252 104.17 262.262 104.324 262.316C104.479 262.371 104.524 262.543 104.524 262.743C104.524 262.943 104.524 263.098 104.524 263.28V265.398V266.425C104.524 266.597 104.588 266.879 104.461 267.007C104.355 267.096 104.216 267.136 104.079 267.116C103.488 267.116 103.17 266.661 103.125 266.125C103.125 265.979 102.879 266.043 102.906 266.188C102.942 266.714 103.307 267.159 103.815 267.297C104.034 267.386 104.278 267.386 104.497 267.297C104.788 267.161 104.797 266.943 104.797 266.652L104.743 264.043V262.771C104.743 262.507 104.743 262.234 104.452 262.143C104.112 262.03 103.746 262.03 103.406 262.143C103.285 262.19 103.19 262.287 103.147 262.409C103.103 262.532 103.115 262.667 103.179 262.78C103.212 262.832 103.281 262.849 103.334 262.816C103.386 262.783 103.403 262.714 103.37 262.661H103.415Z" fill="#09101D"/>
<path d="M164.372 402.75C164.372 402.75 168.062 451.918 162.09 469.634C162.09 469.634 155.782 461.19 156.636 459.117C157.491 457.045 162.254 431.765 162.454 428.902C162.654 426.038 164.372 402.75 164.372 402.75Z" fill="#09101D"/>
<path d="M56.9576 391.941V290.214C56.9576 287.352 54.6379 285.032 51.7764 285.032H6.10895C3.24744 285.032 0.927734 287.352 0.927734 290.214V400.204C0.927734 404.22 4.18347 407.476 8.19962 407.476H117.005C119.868 407.471 122.186 405.149 122.186 402.286C122.186 399.424 119.867 397.104 117.005 397.104H62.1388C59.2844 397.104 56.9676 394.796 56.9576 391.941V391.941Z" fill="#F4F6F9"/>
<path d="M109.915 407.449C112.451 407.449 112.751 403.622 110.224 403.367C110.049 403.358 109.873 403.358 109.697 403.367H54.8306C51.9691 403.367 49.6494 401.047 49.6494 398.186V293.922C49.6494 293.224 49.3713 292.554 48.8767 292.062C48.3821 291.569 47.7116 291.293 47.0133 291.295H4.94545C2.72653 291.295 0.927734 293.094 0.927734 295.313V400.186C0.927734 404.202 4.18347 407.458 8.19962 407.458H109.915V407.449Z" fill="#EBEFFE"/>
<path d="M56.9576 391.941L56.4576 391.943C56.4686 395.073 59.0089 397.604 62.1388 397.604H117.005C119.591 397.604 121.686 399.7 121.686 402.286C121.686 404.873 119.591 406.972 117.004 406.976H8.19962C4.45962 406.976 1.42773 403.944 1.42773 400.204V290.214C1.42773 287.628 3.5236 285.532 6.10895 285.532H51.7764C54.3617 285.532 56.4576 287.628 56.4576 290.214V391.941H56.9576Z" stroke="#09101D"/>
<path d="M56.9575 407.449V517.985H16.9258" stroke="#09101D"/>
<path d="M56.958 517.984H94.4082" stroke="#09101D"/>
<path d="M41.041 407.449H72.8555V412.73H41.041V407.449Z" fill="#09101D"/>
<path d="M334.071 43.9229L352.64 15.4779C353.019 14.9033 353.064 14.1726 352.759 13.5573C352.454 12.9421 351.844 12.5343 351.157 12.4854L318.422 10.0991C317.735 10.0478 317.072 10.3624 316.678 10.9263C316.284 11.4901 316.219 12.219 316.507 12.8422L330.691 43.6779C330.988 44.3116 331.606 44.7354 332.307 44.7862C333.008 44.837 333.682 44.5069 334.071 43.9229Z" fill="#ECC953"/>
<path d="M198.219 10.4853C199.322 9.1049 201.336 8.88046 202.716 9.98403L216.118 20.6978C217.498 21.8014 217.722 23.8151 216.619 25.1955L205.905 38.5973C204.802 39.9777 202.788 40.2021 201.408 39.0986L188.006 28.3848C186.626 27.2812 186.402 25.2675 187.505 23.8871L198.219 10.4853Z" fill="#FB5D64"/>
<path d="M233.275 43.7575L248.355 59.0018L285.217 20.0442" stroke="white" stroke-linecap="round" stroke-linejoin="round"/>
<path d="M257.392 85.4373L302.841 58.0742M257.392 96.568L286.145 94.2491M286.145 83.1184L300.058 80.3357" stroke="#09101D" stroke-width="0.2" stroke-linecap="round"/>
<path d="M223.073 72.4514L203.131 20.9717" stroke="#09101D" stroke-width="0.2" stroke-linecap="round"/>
<path d="M211.942 76.6254L199.42 65.4946" stroke="#09101D" stroke-width="0.2" stroke-linecap="round"/>
<path d="M190.608 56.2191L185.971 52.045" stroke="#09101D" stroke-width="0.2" stroke-linecap="round"/>
</svg>
