<svg width="448" height="320" viewBox="0 0 448 320" fill="none" xmlns="http://www.w3.org/2000/svg">
<rect x="123.229" y="87.0298" width="303.376" height="213.572" rx="11.9296" fill="#F4F6F9"/>
<path d="M415.31 87H135.31C128.855 87.0033 123.622 92.2356 123.619 98.691V105.99H427.001V98.691C426.998 92.2356 421.765 87.0033 415.31 87V87Z" fill="black"/>
<circle cx="139.462" cy="96.7694" r="1.86508" fill="white"/>
<circle cx="150.98" cy="96.7694" r="1.86508" fill="white"/>
<circle cx="162.498" cy="96.7694" r="1.86508" fill="white"/>
<path d="M123.618 105.991H426.994V110.71H123.618L123.618 105.991Z" fill="#D6DEFF"/>
<path fill-rule="evenodd" clip-rule="evenodd" d="M225.299 301.005H135.31C132.209 301.005 129.236 299.771 127.043 297.574C124.851 295.377 123.619 292.398 123.619 289.291V98.7138C123.622 92.2465 128.856 87.0054 135.31 87.0054H415.31C421.765 87.0054 426.998 92.2465 427.001 98.7138V289.291C427.001 295.761 421.767 301.005 415.31 301.005H225.299Z" stroke="black" stroke-width="0.5"/>
<rect x="93" y="262" width="38.7884" height="38.7884" rx="19.3942" fill="#FB5D64"/>
<path d="M157.75 232.631L157.75 249.369C157.75 250.684 156.684 251.75 155.369 251.75L138.631 251.75C137.316 251.75 136.25 250.684 136.25 249.369L136.25 232.631C136.25 231.316 137.316 230.25 138.631 230.25L155.369 230.25C156.684 230.25 157.75 231.316 157.75 232.631Z" fill="white" stroke="black" stroke-width="0.5"/>
<path d="M147.501 240.667C147.501 238.136 146.016 236.558 143.97 236.558C141.923 236.558 140.438 238.136 140.438 240.667C140.438 243.198 141.923 244.776 143.97 244.776C144.493 244.776 144.977 244.675 145.411 244.479L146.11 245.417H147.173L146.13 244.03C146.981 243.331 147.501 242.167 147.501 240.667ZM143.657 242.167L144.845 243.722C144.571 243.819 144.278 243.87 143.97 243.87C142.516 243.87 141.376 242.745 141.376 240.667C141.376 238.589 142.516 237.464 143.97 237.464C145.423 237.464 146.563 238.589 146.563 240.667C146.563 241.874 146.181 242.757 145.571 243.288L144.72 242.167H143.657ZM151.755 244.776C153.306 244.776 154.458 243.804 154.458 242.495C154.458 241.479 153.856 240.741 152.848 240.573V240.511C153.657 240.265 154.161 239.601 154.161 238.698C154.161 237.565 153.266 236.558 151.786 236.558C150.403 236.558 149.255 237.409 149.208 238.667H150.145C150.181 237.87 150.938 237.401 151.77 237.401C152.653 237.401 153.223 237.937 153.223 238.745C153.223 239.589 152.563 240.136 151.614 240.136H150.973V240.995H151.614C152.829 240.995 153.505 241.612 153.505 242.495C153.505 243.343 152.766 243.917 151.739 243.917C150.813 243.917 150.079 243.44 150.02 242.667H149.036C149.095 243.925 150.204 244.776 151.755 244.776Z" fill="#09101D"/>
<path d="M136 257.5C141.089 246.864 130.762 220.699 123.276 209L92.5 265C104.745 269.983 110.732 270.229 121 269.5C123.378 268.811 131.504 266.897 136 257.5Z" fill="white"/>
<path d="M58.9824 192.724C60.3877 194.49 62.0423 196.042 63.8943 197.333C63.8943 197.333 64.4438 195.157 64.511 194.933C64.5783 194.709 65.0605 194.058 63.2999 194.036C61.7946 193.856 60.3329 193.412 58.9824 192.724L58.9824 192.724Z" fill="black"/>
<path d="M58.9824 192.723C76.6449 198.431 74.8057 185.254 73.9534 179.726C73.9534 179.356 73.8189 178.997 73.7516 178.604C74.7435 177.938 75.0394 176.612 74.4244 175.588C74.0149 174.978 73.6405 174.345 73.303 173.692C72.5692 172.327 71.9358 170.911 71.4078 169.453C69.8827 165.17 67.8192 160.482 65.9353 156.535" stroke="black" stroke-width="0.5"/>
<path d="M61.3366 175.161C61.931 174.847 62.6599 175.689 62.9739 176.081C63.2816 176.478 63.517 176.926 63.6692 177.404C63.7039 177.459 63.7709 177.485 63.8334 177.467C63.8959 177.448 63.9387 177.391 63.9383 177.326C63.7325 176.615 63.3462 175.97 62.8169 175.453C62.3908 175.061 61.8189 174.612 61.2245 174.926C61.0675 175.004 61.2245 175.251 61.3703 175.161H61.3366Z" fill="black"/>
<path d="M62.4703 176.619C62.6951 176.421 63.0155 176.372 63.2889 176.496C63.4571 176.552 63.5356 176.283 63.3674 176.215C62.9851 176.051 62.5414 176.136 62.246 176.429C62.1002 176.541 62.302 176.743 62.4366 176.619H62.4703Z" fill="black"/>
<path d="M62.5365 153.485C62.9066 153.564 71.2276 155.38 72.7639 160.438C74.1096 164.924 69.7136 166.606 65.2279 164.654C65.0232 164.564 64.7837 164.61 64.6266 164.769C64.4696 164.929 64.4277 165.169 64.5214 165.372C64.98 166.279 65.0129 167.343 64.6111 168.277C64.0356 169.826 63.7505 171.468 63.7701 173.121C63.7722 173.319 63.6615 173.5 63.485 173.588C63.3084 173.677 63.0969 173.656 62.9402 173.536C62.1009 172.818 60.8638 172.818 60.0245 173.536C58.9031 174.433 59.5984 178.235 62.4804 179.491C62.9484 179.687 63.1945 180.204 63.0524 180.691C62.1552 183.539 59.3517 192.051 57.4452 192.712C55.0903 193.52 55.4267 192.275 47.4758 193.475C44.5825 193.912 31.63 178.313 36.2055 167.873C37.6569 164.525 40.2922 161.83 43.6069 160.303C46.2709 159.023 48.771 157.427 51.0531 155.548C53.1838 153.799 56.8285 152.251 62.5365 153.485V153.485Z" fill="black"/>
<circle cx="36.6428" cy="167.502" r="16.7541" fill="black"/>
<path d="M20.0539 249.644C16.264 242.275 10.3266 225.515 16.8957 217.43C23.4648 209.345 32.2657 209.429 35.8451 210.482L36.4767 204.166C38.8147 203.803 41.6528 203.56 44.6881 203.428M116.064 239.538C114.329 239.951 111.536 239.693 108.484 238.616M44.6881 203.428C46.0022 199.698 46.5096 196.967 47.2147 191.533M44.6881 203.428C50.8206 203.161 57.7586 203.343 63.0059 203.887M63.0059 203.887C67.5646 204.359 70.8473 205.103 71.2173 206.061C71.8736 207.761 72.4806 210.483 72.4806 211.746C73.7439 211.325 75.0071 210.482 78.797 211.746C81.5181 212.653 91.0598 221.368 97.1148 230.064C100.192 234.483 104.553 237.229 108.484 238.616M63.0059 203.887C63.3321 200.387 63.7159 198.269 64.9008 194.06M108.484 238.616C103.122 225.405 89.0339 197.78 88.2717 195.955C87.9598 195.208 89.8571 193.893 92.6932 192.49M82.5869 259.751C83.6897 260.56 84.9644 261.377 86.3768 262.179M86.3768 262.179C97.7753 268.652 118.134 274.123 129.329 266.067C143.574 255.817 135.013 234.485 132.487 228.169C129.96 221.852 113.538 188.375 111.643 187.112C111.01 186.439 108.18 186.893 104.694 187.894M86.3768 262.179C83.2185 269.857 87.6401 293.228 87.6401 300.176M23.2122 231.327C22.8807 241.853 14.6196 271.552 9.31597 281.227C5.422 288.33 10.4893 298.06 12.9999 300.5M92.6932 192.49C87.6333 184.032 86.8535 178.888 87.0084 169.425M92.6932 192.49C96.0765 190.815 100.796 189.012 104.694 187.894M104.694 187.894C104.063 186.791 102.926 184.206 103.431 182.69C104.063 180.795 106.589 178.268 105.326 174.479M102.168 169.425C102.371 171.647 102.323 172.803 101.536 174.479M99.6413 166.267C99.4558 168.194 99.2189 169.075 98.378 170.057M95.8514 161.846C96.0116 164.008 95.228 165.953 92.0616 170.689M78.797 197.85C80.8743 195.378 82.5855 194.006 87.0084 191.533M76.2704 202.903C79.6392 200.469 86.9251 196.476 86.3768 199.744C86.0482 201.703 82.8978 202.661 81.6156 203.887M85.7451 197.218C86.6768 196.577 87.226 196.435 88.2717 196.586M87.6401 203.534C88.4902 204.994 88.5964 205.867 88.2717 207.324M90.7983 208.587C90.3856 210.23 90.0514 211.017 88.9033 211.746" stroke="black" stroke-width="0.5" stroke-linecap="round" stroke-linejoin="round"/>
<path d="M127.4 253.717L128.129 253.224C128.275 253.123 128.129 252.876 127.995 252.977L127.266 253.471C127.12 253.572 127.266 253.818 127.4 253.717Z" fill="black"/>
<path d="M128.847 255.467C129.311 255.396 129.705 255.091 129.89 254.659C129.968 254.491 129.721 254.345 129.654 254.513C129.504 254.88 129.171 255.14 128.779 255.197C128.6 255.197 128.667 255.489 128.847 255.467V255.467Z" fill="black"/>
<path d="M22.5468 235.966C22.5468 235.966 21.3581 240.587 18.9807 240.104C16.6033 239.622 15.0781 236.852 15.0781 236.852L18.1172 246.059C18.1172 246.059 19.7096 250.545 20.2255 248.302C20.7413 246.059 22.5468 235.966 22.5468 235.966V235.966Z" fill="black"/>
<path d="M83.6201 260.479C83.6201 260.479 84.3378 264.774 85.5041 266.478L85.8405 263.473C85.8405 263.473 86.233 261.869 85.2686 261.544" fill="black"/>
<path d="M15.8965 301.233C15.8965 301.233 44.3919 299.091 60.2713 301.94C76.1506 304.788 80.0196 306.605 79.8962 306.526C79.7728 306.448 68.6819 300.415 62.402 298.295C56.122 296.176 37.6297 291.028 22.6475 293.563L20.4046 293.944C20.4046 293.944 19.2832 294.179 18.3188 296.276" fill="black"/>
<path d="M45.7272 228.542C45.1122 239.735 43.212 250.821 40.064 261.579C40.008 261.748 40.2883 261.826 40.3332 261.647C43.4903 250.867 45.3943 239.758 46.0076 228.542C46.0076 228.363 45.7384 228.363 45.7272 228.542Z" fill="black"/>
<path d="M60.1257 130.172L61.1798 136.979C61.1798 137.158 61.4826 137.091 61.4489 136.911L60.3948 130.104C60.3948 129.925 60.092 130.003 60.1257 130.172Z" fill="black"/>
<path d="M71.3295 129.094L68.5595 136.944C68.4923 137.112 68.7614 137.19 68.8287 137.022L71.5986 129.172C71.6547 129.004 71.3855 128.925 71.3295 129.094Z" fill="black"/>
<path d="M82.6555 134.958L78.2596 142.259C78.1698 142.416 78.4166 142.561 78.5063 142.404L82.9023 135.104C82.992 134.947 82.7453 134.801 82.6555 134.958Z" fill="black"/>
<rect x="166" y="176" width="218" height="44.3863" rx="2.6267" fill="white"/>
<path d="M182.441 200.903L192.165 210.658L215.933 185.729" stroke="black" stroke-width="0.5" stroke-linecap="round" stroke-linejoin="round"/>
<rect x="166" y="176" width="218" height="44.3863" rx="2.6267" stroke="black" stroke-width="0.5"/>
<path d="M368.777 186.026H231.766" stroke="black" stroke-width="0.5"/>
<path d="M327.687 195.65H231.766" stroke="#D6DEFF" stroke-width="0.5"/>
<path d="M327.687 203.158H231.766" stroke="#D6DEFF" stroke-width="0.5"/>
<path d="M301.329 210.666H231.766" stroke="#D6DEFF" stroke-width="0.5"/>
<rect x="166" y="121" width="218" height="44.3863" rx="2.6267" fill="#EBEFFE"/>
<rect x="166" y="230" width="218" height="44.3863" rx="2.6267" fill="white"/>
<path d="M182.441 254.902L192.165 264.657L215.933 239.728" stroke="black" stroke-width="0.5" stroke-linecap="round" stroke-linejoin="round"/>
<rect x="166" y="230" width="218" height="44.3863" rx="2.6267" stroke="black" stroke-width="0.5"/>
<path d="M368.777 240.025H231.766" stroke="black" stroke-width="0.5"/>
<path d="M327.687 249.65H231.766" stroke="#D6DEFF" stroke-width="0.5"/>
<path d="M327.687 257.158H231.766" stroke="#D6DEFF" stroke-width="0.5"/>
<path d="M301.329 264.666H231.766" stroke="#D6DEFF" stroke-width="0.5"/>
<path d="M272 81.6005V19.498H136.849L80.5 213" stroke="black" stroke-width="0.5"/>
<rect x="131" y="15" width="10" height="10" rx="5" fill="#1B3C87"/>
<rect x="266" y="13" width="12" height="12" rx="6" fill="#FB5D64"/>
<rect x="164.351" y="74.3818" width="217.675" height="44.3863" rx="2.6267" transform="rotate(-8.03392 164.351 74.3818)" fill="white"/>
<rect x="164.351" y="74.3818" width="217.675" height="44.3863" rx="2.6267" transform="rotate(-8.03392 164.351 74.3818)" stroke="black" stroke-width="0.5"/>
<path d="M184.087 96.7457L195.064 105.048L215.079 77.0464" stroke="black" stroke-width="0.5" stroke-linecap="round" stroke-linejoin="round"/>
<path d="M366.241 56.0118L230.776 75.1319" stroke="black" stroke-width="0.5"/>
<path d="M326.958 71.2753L232.12 84.6612" stroke="#D6DEFF" stroke-width="0.5"/>
<path d="M328.007 78.7089L233.169 92.0948" stroke="#D6DEFF" stroke-width="0.5"/>
<path d="M302.997 89.8211L234.219 99.5288" stroke="#D6DEFF" stroke-width="0.5"/>
<path d="M69.1387 15.6079L77.0272 29.3339L16.8882 63.8965L8.99975 50.1705L69.1387 15.6079Z" fill="#D6DEFF"/>
<path d="M35.3369 5H51.1139V74.1252H35.3369V5Z" fill="#D6DEFF"/>
<path d="M9.3457 29.1113L17.2342 15.4481L77.0984 50.0107L69.2099 63.6739L9.3457 29.1113Z" fill="#D6DEFF"/>
<circle cx="43.2251" cy="39.562" r="27.8237" fill="#D6DEFF"/>
<circle cx="43.2257" cy="39.5626" r="8.03525" fill="#F4F6F9"/>
<path fill-rule="evenodd" clip-rule="evenodd" d="M70.273 33.0561L77.0974 29.1119L69.215 15.4507L62.3845 19.3889C59.1934 16.363 55.3314 14.1355 51.1143 12.8885V5H35.3496V12.8824C31.1304 14.1317 27.2664 16.3612 24.0733 19.3889L17.2488 15.4507L9.36035 29.1119L16.1909 33.0561C15.1605 37.3326 15.1605 41.7926 16.1909 46.0691L9.36647 50.0133L17.255 63.6745L24.0794 59.7363C27.2669 62.7738 31.1293 65.0121 35.3496 66.2673V74.1558H51.1265V66.2673C53.2281 65.6422 55.2496 64.7741 57.1499 63.6806C59.0474 62.5831 60.8085 61.2654 62.3967 59.7547L69.2273 63.6989L77.1097 50.0378L70.2668 46.0874C71.3023 41.8056 71.3044 37.3389 70.273 33.0561V33.0561Z" stroke="black" stroke-width="0.5"/>
<path d="M101.623 84.1704L101.625 97.2499L44.3183 97.2565L44.3168 84.1771L101.623 84.1704Z" fill="#D6DEFF"/>
<path d="M81.7754 62.6582L93.0773 69.1518L64.6263 118.67L53.3244 112.176L81.7754 62.6582Z" fill="#D6DEFF"/>
<path d="M53.2324 69.2334L64.507 62.6925L93.1654 112.091L81.8908 118.632L53.2324 69.2334Z" fill="#D6DEFF"/>
<circle cx="73.2014" cy="90.6633" r="22.9873" transform="rotate(29.8799 73.2014 90.6633)" fill="#D6DEFF"/>
<circle cx="73.2008" cy="90.6639" r="6.63853" transform="rotate(29.8799 73.2008 90.6639)" fill="#F4F6F9"/>
<path fill-rule="evenodd" clip-rule="evenodd" d="M95.2554 97.1367L101.768 97.1201L101.744 84.0896L95.2297 84.0993C94.1892 80.6183 92.3395 77.4331 89.8318 74.8041L93.0786 69.1532L81.7854 62.6646L78.5412 68.3112C75.0045 67.4696 71.3189 67.4764 67.7854 68.3309L64.5175 62.701L53.2438 69.2404L56.5135 74.8773C54.0152 77.5166 52.1795 80.7116 51.1576 84.1991L44.6455 84.2157L44.6737 97.2488L51.1833 97.2365C52.2164 100.724 54.062 103.917 56.5686 106.554L53.3218 112.205L64.6237 118.698L67.8705 113.047C69.6332 113.464 71.4386 113.675 73.25 113.673C75.061 113.668 76.8649 113.449 78.6244 113.021L81.8941 118.657L93.1635 112.115L89.8875 106.469C92.3916 103.828 94.2315 100.629 95.2554 97.1367V97.1367Z" stroke="black" stroke-width="0.5"/>
<rect x="12" y="300.5" width="84" height="12" fill="white"/>
<path d="M441 301L13 301" stroke="black" stroke-width="0.5" stroke-linecap="round"/>
<path d="M392 261.969H430.788V300.757H392V261.969Z" fill="#46DBC9"/>
<path d="M416.117 227.658L397.852 259.133C397.474 259.782 397.472 260.584 397.847 261.235C398.222 261.886 398.917 262.287 399.668 262.285L436.039 262.387C436.789 262.386 437.481 261.986 437.857 261.338C438.233 260.69 438.237 259.891 437.867 259.24L419.795 227.686C419.428 227.017 418.728 226.599 417.964 226.593C417.201 226.587 416.494 226.995 416.117 227.658V227.658Z" fill="#ECC953"/>
<rect x="392" y="121" width="22" height="22" rx="2.6267" fill="white"/>
<rect x="392.25" y="121.25" width="21.5" height="21.5" rx="2.3767" stroke="black" stroke-width="0.5"/>
<path d="M398 132H408" stroke="black" stroke-linecap="round" stroke-linejoin="round"/>
<path d="M403 137V127" stroke="black" stroke-linecap="round" stroke-linejoin="round"/>
<path d="M157.75 123.631L157.75 140.369C157.75 141.684 156.684 142.75 155.369 142.75L138.631 142.75C137.316 142.75 136.25 141.684 136.25 140.369L136.25 123.631C136.25 122.316 137.316 121.25 138.631 121.25L155.369 121.25C156.684 121.25 157.75 122.316 157.75 123.631Z" fill="white" stroke="black" stroke-width="0.5"/>
<path d="M147.501 131.667C147.501 129.136 146.016 127.558 143.97 127.558C141.923 127.558 140.438 129.136 140.438 131.667C140.438 134.198 141.923 135.776 143.97 135.776C144.493 135.776 144.977 135.675 145.411 135.479L146.11 136.417H147.173L146.13 135.03C146.981 134.331 147.501 133.167 147.501 131.667ZM143.657 133.167L144.845 134.722C144.571 134.819 144.278 134.87 143.97 134.87C142.516 134.87 141.376 133.745 141.376 131.667C141.376 129.589 142.516 128.464 143.97 128.464C145.423 128.464 146.563 129.589 146.563 131.667C146.563 132.874 146.181 133.757 145.571 134.288L144.72 133.167H143.657ZM152.802 127.667H151.833L149.833 128.995V129.979L151.786 128.683H151.833V135.667H152.802V127.667Z" fill="#09101D"/>
<path d="M157.75 178.631L157.75 195.369C157.75 196.684 156.684 197.75 155.369 197.75L138.631 197.75C137.316 197.75 136.25 196.684 136.25 195.369L136.25 178.631C136.25 177.316 137.316 176.25 138.631 176.25L155.369 176.25C156.684 176.25 157.75 177.316 157.75 178.631Z" fill="white" stroke="black" stroke-width="0.5"/>
<path d="M147.501 186.667C147.501 184.136 146.016 182.558 143.97 182.558C141.923 182.558 140.438 184.136 140.438 186.667C140.438 189.198 141.923 190.776 143.97 190.776C144.493 190.776 144.977 190.675 145.411 190.479L146.11 191.417H147.173L146.13 190.03C146.981 189.331 147.501 188.167 147.501 186.667ZM143.657 188.167L144.845 189.722C144.571 189.819 144.278 189.87 143.97 189.87C142.516 189.87 141.376 188.745 141.376 186.667C141.376 184.589 142.516 183.464 143.97 183.464C145.423 183.464 146.563 184.589 146.563 186.667C146.563 187.874 146.181 188.757 145.571 189.288L144.72 188.167H143.657ZM149.223 190.667H154.27V189.808H150.552V189.745L152.348 187.823C153.723 186.351 154.13 185.663 154.13 184.776C154.13 183.542 153.13 182.558 151.723 182.558C150.321 182.558 149.255 183.511 149.255 184.917H150.177C150.177 184.007 150.766 183.401 151.692 183.401C152.559 183.401 153.223 183.933 153.223 184.776C153.223 185.515 152.79 186.062 151.864 187.073L149.223 189.964V190.667Z" fill="#09101D"/>
</svg>
