<svg width="565" height="564" viewBox="0 0 565 564" fill="none" xmlns="http://www.w3.org/2000/svg">
<path d="M179.439 179.424L189.625 169.238C190.364 168.5 190.652 167.422 190.38 166.413L186.649 152.504C186.39 151.49 185.599 150.697 184.586 150.434L170.669 146.703C169.66 146.434 168.584 146.721 167.844 147.458L157.658 157.643C156.919 158.382 156.631 159.46 156.904 160.468L160.634 174.385C160.903 175.394 161.69 176.183 162.697 176.455L176.629 180.179C177.633 180.446 178.703 180.158 179.439 179.424V179.424Z" fill="#1B3C87"/>
<path d="M222.57 211.334C222.56 211.488 222.531 211.64 222.483 211.787" stroke="black" stroke-width="0.5"/>
<path d="M227.906 102.869C228.765 102.01 230.158 102.01 231.018 102.869L244.771 116.623C245.631 117.482 245.631 118.875 244.771 119.734L231.018 133.488C230.158 134.347 228.765 134.347 227.906 133.488L214.152 119.734C213.293 118.875 213.293 117.482 214.152 116.623L227.906 102.869Z" fill="#FB5D64"/>
<path d="M119.438 185.593L102.905 204.542C102.554 204.93 102.442 205.478 102.613 205.973C102.783 206.468 103.209 206.831 103.724 206.921L128.395 211.759C128.906 211.869 129.437 211.692 129.781 211.298C130.125 210.903 130.227 210.353 130.048 209.861L121.903 186.075C121.742 185.579 121.324 185.209 120.812 185.109C120.3 185.009 119.774 185.194 119.438 185.593V185.593Z" fill="#ECC953"/>
<ellipse cx="130.86" cy="115.42" rx="15.5916" ry="15.5916" fill="#46DBC9"/>
<path d="M127.804 181.179L155.782 189.022L163.689 191.243C163.797 191.279 163.847 191.106 163.732 191.07L135.769 183.228L127.862 181.007C127.828 180.985 127.785 180.988 127.754 181.012C127.723 181.037 127.711 181.079 127.724 181.116C127.737 181.154 127.772 181.179 127.812 181.179H127.804Z" fill="black"/>
<path d="M135.712 148.896C140.902 151.627 146.02 154.503 151.066 157.522C152.504 158.384 153.942 159.261 155.379 160.145C155.473 160.203 155.566 160.045 155.465 159.987C150.467 156.901 145.392 153.954 140.241 151.146C138.769 150.341 137.284 149.547 135.784 148.766C135.683 148.709 135.59 148.867 135.697 148.917L135.712 148.896Z" fill="black"/>
<path d="M192.392 137.588C196.317 142.711 200.403 147.714 204.649 152.597C205.871 153.997 207.107 155.391 208.358 156.781C208.437 156.867 208.559 156.738 208.48 156.652C204.167 151.888 200.014 146.99 196.022 141.959C194.853 140.478 193.693 138.99 192.543 137.495C192.479 137.408 192.32 137.495 192.392 137.588V137.588Z" fill="black"/>
<path d="M219.485 151.211L222.26 156.387C222.317 156.487 222.468 156.387 222.418 156.293L219.643 151.125C219.614 151.094 219.568 151.087 219.531 151.108C219.494 151.128 219.475 151.17 219.485 151.211V151.211Z" fill="black"/>
<path d="M228.851 118.424L236.615 135.569L244.385 152.72L248.749 162.352C248.792 162.46 248.95 162.352 248.9 162.259L241.136 145.115L233.373 127.971L229.01 118.331C228.959 118.23 228.808 118.331 228.851 118.424V118.424Z" fill="black"/>
<path d="M150.7 210.363L158.226 212.095C158.268 212.096 158.305 212.068 158.316 212.028C158.328 211.988 158.312 211.945 158.276 211.923L150.75 210.19C150.635 210.19 150.585 210.341 150.7 210.363V210.363Z" fill="black"/>
<rect x="190.335" y="165.144" width="255.616" height="398.401" rx="12.12" fill="#D6DEFF"/>
<rect x="182.05" y="165.144" width="255.616" height="398.401" rx="12.12" fill="#EBEFFE"/>
<rect x="190.335" y="165.144" width="255.616" height="398.401" rx="12.12" stroke="black" stroke-width="0.5"/>
<rect x="176.788" y="165.144" width="255.616" height="398.401" rx="12.12" fill="white"/>
<rect x="176.788" y="165.144" width="255.616" height="398.401" rx="12.12" stroke="black" stroke-width="0.5"/>
<path d="M211.373 180.48C202.962 180.48 196.145 173.662 196.145 165.252C196.145 156.842 203.477 150.024 211.373 150.024C219.269 150.024 225.191 157.582 225.191 165.252" stroke="#09101D" stroke-width="0.5" stroke-linecap="round" stroke-linejoin="round"/>
<path d="M229.138 180.48C220.728 180.48 213.91 173.662 213.91 165.252C213.91 156.842 221.242 150.024 229.138 150.024C237.034 150.024 242.956 157.582 242.956 165.252" stroke="#09101D" stroke-width="0.5" stroke-linecap="round" stroke-linejoin="round"/>
<path d="M246.905 180.48C238.495 180.48 231.677 173.662 231.677 165.252C231.677 156.842 239.009 150.024 246.905 150.024C254.801 150.024 260.723 157.582 260.723 165.252" stroke="#09101D" stroke-width="0.5" stroke-linecap="round" stroke-linejoin="round"/>
<path d="M264.67 180.48C256.26 180.48 249.442 173.662 249.442 165.252C249.442 156.842 256.774 150.024 264.67 150.024C272.566 150.024 278.488 157.582 278.488 165.252" stroke="#09101D" stroke-width="0.5" stroke-linecap="round" stroke-linejoin="round"/>
<path d="M282.437 180.48C274.027 180.48 267.209 173.662 267.209 165.252C267.209 156.842 274.541 150.024 282.437 150.024C290.333 150.024 296.255 157.582 296.255 165.252" stroke="#09101D" stroke-width="0.5" stroke-linecap="round" stroke-linejoin="round"/>
<path d="M300.203 180.48C291.792 180.48 284.975 173.662 284.975 165.252C284.975 156.842 292.307 150.024 300.203 150.024C308.099 150.024 314.021 157.582 314.021 165.252" stroke="#09101D" stroke-width="0.5" stroke-linecap="round" stroke-linejoin="round"/>
<path d="M317.968 180.48C309.558 180.48 302.74 173.662 302.74 165.252C302.74 156.842 310.072 150.024 317.968 150.024C325.864 150.024 331.786 157.582 331.786 165.252" stroke="#09101D" stroke-width="0.5" stroke-linecap="round" stroke-linejoin="round"/>
<path d="M335.735 180.48C327.325 180.48 320.507 173.662 320.507 165.252C320.507 156.842 327.839 150.024 335.735 150.024C343.631 150.024 349.553 157.582 349.553 165.252" stroke="#09101D" stroke-width="0.5" stroke-linecap="round" stroke-linejoin="round"/>
<path d="M353.5 180.48C345.09 180.48 338.272 173.662 338.272 165.252C338.272 156.842 345.604 150.024 353.5 150.024C361.396 150.024 367.318 157.582 367.318 165.252" stroke="#09101D" stroke-width="0.5" stroke-linecap="round" stroke-linejoin="round"/>
<path d="M371.266 180.48C362.856 180.48 356.038 173.662 356.038 165.252C356.038 156.842 363.37 150.024 371.266 150.024C379.162 150.024 385.084 157.582 385.084 165.252" stroke="#09101D" stroke-width="0.5" stroke-linecap="round" stroke-linejoin="round"/>
<path d="M389.033 180.48C380.622 180.48 373.805 173.662 373.805 165.252C373.805 156.842 381.137 150.024 389.033 150.024C396.929 150.024 402.851 157.582 402.851 165.252" stroke="#09101D" stroke-width="0.5" stroke-linecap="round" stroke-linejoin="round"/>
<path d="M406.798 180.48C398.388 180.48 391.57 173.662 391.57 165.252C391.57 156.842 398.902 150.024 406.798 150.024C414.694 150.024 420.616 157.582 420.616 165.252" stroke="#09101D" stroke-width="0.5" stroke-linecap="round" stroke-linejoin="round"/>
<line x1="0.25" y1="-0.25" x2="4.26199" y2="-0.25" transform="matrix(7.75026e-08 1 1 -2.46532e-08 407.362 178.224)" stroke="black" stroke-width="0.5" stroke-linecap="round"/>
<line x1="0.25" y1="-0.25" x2="4.26199" y2="-0.25" transform="matrix(7.75026e-08 1 1 -2.46532e-08 389.879 178.224)" stroke="black" stroke-width="0.5" stroke-linecap="round"/>
<line x1="0.25" y1="-0.25" x2="4.26199" y2="-0.25" transform="matrix(7.75026e-08 1 1 -2.46532e-08 371.83 178.224)" stroke="black" stroke-width="0.5" stroke-linecap="round"/>
<line x1="0.25" y1="-0.25" x2="4.26199" y2="-0.25" transform="matrix(7.75026e-08 1 1 -2.46532e-08 354.347 178.224)" stroke="black" stroke-width="0.5" stroke-linecap="round"/>
<line x1="0.25" y1="-0.25" x2="4.26199" y2="-0.25" transform="matrix(7.75026e-08 1 1 -2.46532e-08 336.299 178.224)" stroke="black" stroke-width="0.5" stroke-linecap="round"/>
<line x1="0.25" y1="-0.25" x2="4.26199" y2="-0.25" transform="matrix(7.75026e-08 1 1 -2.46532e-08 318.814 178.224)" stroke="black" stroke-width="0.5" stroke-linecap="round"/>
<line x1="0.25" y1="-0.25" x2="4.26199" y2="-0.25" transform="matrix(7.75026e-08 1 1 -2.46532e-08 300.767 178.224)" stroke="black" stroke-width="0.5" stroke-linecap="round"/>
<line x1="0.25" y1="-0.25" x2="4.26199" y2="-0.25" transform="matrix(7.75026e-08 1 1 -2.46532e-08 282.719 178.224)" stroke="black" stroke-width="0.5" stroke-linecap="round"/>
<line x1="0.25" y1="-0.25" x2="4.26199" y2="-0.25" transform="matrix(7.75026e-08 1 1 -2.46532e-08 265.234 178.224)" stroke="black" stroke-width="0.5" stroke-linecap="round"/>
<line x1="0.25" y1="-0.25" x2="4.26199" y2="-0.25" transform="matrix(7.75026e-08 1 1 -2.46532e-08 247.187 178.224)" stroke="black" stroke-width="0.5" stroke-linecap="round"/>
<line x1="0.25" y1="-0.25" x2="4.26199" y2="-0.25" transform="matrix(7.75026e-08 1 1 -2.46532e-08 229.702 178.224)" stroke="black" stroke-width="0.5" stroke-linecap="round"/>
<path d="M211.654 178.506L211.654 182.454" stroke="black" stroke-width="0.5" stroke-linecap="round"/>
<rect x="0.25" y="-0.25" width="215.512" height="75.64" rx="4.75" transform="matrix(1 0 0 -1 197.836 543.76)" fill="#D6DEFF" stroke="#09101D" stroke-width="0.5"/>
<rect x="0.25" y="-0.25" width="50.824" height="55.9" rx="4.75" transform="matrix(1 0 0 -1 197.836 442.804)" fill="#EBEFFE" stroke="#09101D" stroke-width="0.5"/>
<rect x="0.25" y="-0.25" width="50.824" height="55.9" rx="4.75" transform="matrix(1 0 0 -1 197.836 355.384)" fill="#EBEFFE" stroke="#09101D" stroke-width="0.5"/>
<rect x="0.25" y="-0.25" width="50.824" height="55.9" rx="4.75" transform="matrix(1 0 0 -1 197.836 267.964)" fill="#EBEFFE" stroke="#09101D" stroke-width="0.5"/>
<path d="M208.552 238.915L223.78 254.364L261.004 214.884" stroke="black" stroke-width="0.5" stroke-linecap="round" stroke-linejoin="round"/>
<path d="M208.552 326.335L223.78 341.784L261.004 302.304" stroke="black" stroke-width="0.5" stroke-linecap="round" stroke-linejoin="round"/>
<path d="M208.552 413.755L223.78 429.204L261.004 389.724" stroke="black" stroke-width="0.5" stroke-linecap="round" stroke-linejoin="round"/>
<ellipse cx="305.842" cy="506.19" rx="20.022" ry="20.022" fill="white" stroke="#46DBC9" stroke-width="0.5"/>
<path d="M294.845 507.968L301.067 514.368L316.277 498.012" stroke="#46DBC9" stroke-width="1.5" stroke-linecap="round" stroke-linejoin="round"/>
<path d="M405.388 228.132H278.488" stroke="black" stroke-width="0.5"/>
<path d="M405.388 317.808H278.488" stroke="black" stroke-width="0.5"/>
<path d="M405.388 407.484H278.488" stroke="black" stroke-width="0.5"/>
<path d="M367.331 237.058H278.488" stroke="#D6DEFF" stroke-width="0.5"/>
<path d="M367.331 244.022H278.488" stroke="#D6DEFF" stroke-width="0.5"/>
<path d="M342.918 250.987H278.488" stroke="#D6DEFF" stroke-width="0.5"/>
<path d="M367.331 326.734H278.488" stroke="#D6DEFF" stroke-width="0.5"/>
<path d="M367.331 333.699H278.488" stroke="#D6DEFF" stroke-width="0.5"/>
<path d="M342.918 340.663H278.488" stroke="#D6DEFF" stroke-width="0.5"/>
<path d="M367.331 416.41H278.488" stroke="#D6DEFF" stroke-width="0.5"/>
<path d="M367.331 423.375H278.488" stroke="#D6DEFF" stroke-width="0.5"/>
<path d="M342.918 430.339H278.488" stroke="#D6DEFF" stroke-width="0.5"/>
<path d="M539.057 308.227H513.113L512.267 309.072L506.627 341.784H533.981C534.169 341.878 534.658 341.953 535.109 341.502C535.56 341.051 535.673 340.562 535.673 340.374L541.313 310.482C541.219 310.294 540.975 309.693 540.749 308.791C540.523 307.888 539.527 308.039 539.057 308.227Z" fill="#EBEFFE"/>
<path d="M528.059 302.868C524.9 302.643 523.735 306.158 523.547 307.944L533.135 308.226L532.571 305.688C532.383 304.842 531.217 303.094 528.059 302.868Z" fill="white"/>
<path d="M482.375 297.51V289.05L478.427 278.334L490.835 270.438L499.859 275.232L500.423 282.564C500.329 284.914 499.633 289.783 498.731 291.588C497.828 293.393 495.347 294.502 494.219 294.69L493.937 298.074L497.603 299.484L497.885 303.15C498.449 302.868 500.084 302.248 502.115 302.022C504.653 301.74 505.217 301.176 508.601 302.304C511.308 303.206 512.737 306.628 513.113 308.226L512.267 309.072L509.729 322.326H512.549C517.625 321.198 512.549 329.094 508.601 330.504L506.345 340.938L507.473 342.066H524.675L522.701 345.168C521.855 346.39 519.542 349.229 517.061 350.808C513.959 352.782 512.267 353.064 509.729 353.064C507.698 353.064 506.063 351.936 505.499 351.372L503.807 353.628L502.397 353.346V356.73C502.397 358.704 506.627 370.83 508.319 374.778C510.011 378.726 522.983 421.872 525.239 430.896C527.495 439.92 535.391 476.58 538.211 485.04C541.031 493.5 542.723 505.626 541.877 510.702C541.2 514.763 534.451 517.47 531.161 518.316L535.391 554.412L542.159 560.616C542.441 560.992 542.948 561.913 542.723 562.59C542.497 563.267 541.877 563.624 541.595 563.718H523.265L512.549 520.29C507.097 520.478 494.783 520.91 489.143 521.136C483.503 521.362 469.309 519.35 462.917 518.316L452.483 555.258L456.995 562.026L456.149 563.718H444.023C442.989 563.53 440.695 563.041 439.793 562.59C438.89 562.139 438.853 560.898 438.947 560.334L443.459 513.24L438.947 511.83C438.383 511.36 436.804 509.912 434.999 507.882C433.194 505.852 434.059 502.148 434.717 500.55C440.357 478.648 451.862 433.208 452.765 426.666C453.893 418.488 452.201 404.106 452.765 393.672C453.329 383.238 455.021 376.47 455.867 371.958C456.544 368.348 458.405 363.686 459.251 361.806L462.635 354.756L459.815 336.426C459.345 334.734 458.179 330.053 457.277 324.864C456.149 318.378 456.431 312.738 457.277 310.482C458.123 308.226 458.687 306.252 463.763 303.15C467.824 300.668 474.667 301.928 477.581 302.868C478.051 301.082 478.258 297.679 478.709 297.228C479.16 296.777 481.623 297.134 482.375 297.51Z" fill="white"/>
<path d="M490.163 282.072L490.234 282.015L490.17 282.079L490.227 282.007L490.184 282.086V282C490.181 282.031 490.181 282.062 490.184 282.093V282C490.177 282.041 490.177 282.082 490.184 282.122L490.141 282.036C490.163 282.084 490.19 282.129 490.22 282.172L490.163 282.101H490.199L490.127 282.043L490.041 282.007H489.905L489.819 282.043L489.747 282.093L489.69 282.165L489.654 282.251V282.251V282.344V282.437V282.387V282.473L489.518 282.165C489.49 282.128 489.475 282.083 489.475 282.036C489.464 281.989 489.464 281.94 489.475 281.893C489.5 281.802 489.559 281.725 489.64 281.678C489.722 281.631 489.82 281.618 489.912 281.642C490.003 281.665 490.081 281.724 490.127 281.807C490.191 281.936 490.256 282.072 490.313 282.208C490.32 282.256 490.32 282.304 490.313 282.351C490.313 282.351 490.313 282.402 490.313 282.423C490.307 282.476 490.29 282.528 490.263 282.574C490.17 282.736 489.98 282.818 489.797 282.774C489.685 282.744 489.586 282.675 489.518 282.581C489.468 282.518 489.43 282.448 489.403 282.373C489.33 282.214 489.312 282.035 489.353 281.864C489.368 281.815 489.387 281.767 489.41 281.721C489.407 281.697 489.407 281.673 489.41 281.649C489.472 281.561 489.55 281.486 489.64 281.427C489.726 281.384 489.825 281.371 489.919 281.391C490.01 281.416 490.087 281.475 490.134 281.556C490.181 281.641 490.194 281.741 490.17 281.836C490.141 281.924 490.083 282 490.005 282.05L490.163 282.072Z" fill="black"/>
<path d="M497.457 282.451L497.529 282.394L497.464 282.458L497.522 282.386L497.479 282.465L497.514 282.379C497.511 282.41 497.511 282.441 497.514 282.472V282.379C497.51 282.42 497.51 282.461 497.514 282.501L497.479 282.415C497.501 282.463 497.527 282.508 497.557 282.551L497.5 282.48V282.515L497.428 282.458H497.464L497.378 282.422H497.285H497.185L497.099 282.458L497.027 282.515L496.97 282.587V282.587V282.673V282.766V282.73V282.831V282.773V282.859C496.927 282.759 496.877 282.659 496.834 282.551C496.805 282.515 496.79 282.469 496.791 282.422C496.776 282.376 496.776 282.326 496.791 282.279C496.815 282.189 496.875 282.111 496.955 282.064C497.038 282.016 497.136 282.004 497.228 282.028C497.319 282.051 497.397 282.11 497.443 282.193C497.507 282.329 497.572 282.458 497.622 282.594C497.631 282.642 497.631 282.69 497.622 282.738C497.622 282.738 497.622 282.788 497.622 282.816C497.616 282.867 497.599 282.916 497.572 282.96C497.478 283.123 497.289 283.204 497.106 283.16C496.993 283.13 496.895 283.061 496.827 282.967C496.777 282.904 496.738 282.834 496.712 282.759C496.639 282.6 496.621 282.421 496.662 282.25C496.676 282.201 496.696 282.153 496.719 282.107C496.728 282.084 496.74 282.062 496.755 282.043C496.814 281.951 496.892 281.873 496.984 281.813C497.157 281.715 497.376 281.772 497.479 281.942C497.514 282.032 497.514 282.132 497.479 282.222C497.45 282.31 497.392 282.386 497.314 282.437L497.457 282.451Z" fill="black"/>
<path d="M482.539 283.813C480.974 283.195 479.803 281.862 479.394 280.23C479.138 279.353 479.373 278.406 480.01 277.751C480.675 277.191 481.604 277.062 482.396 277.422C483.276 277.821 483.909 278.622 484.094 279.571C484.187 280.022 483.499 280.216 483.377 279.764C483.243 278.937 482.652 278.257 481.851 278.009C481.45 277.888 481.016 277.948 480.664 278.174C480.311 278.4 480.075 278.769 480.017 279.184C479.959 280.053 480.23 280.913 480.777 281.591C481.274 282.255 481.939 282.775 482.704 283.096C482.894 283.152 483.005 283.349 482.955 283.54C482.902 283.729 482.707 283.841 482.518 283.791L482.539 283.813Z" fill="black"/>
<path d="M481.078 279.285C481.27 279.14 481.528 279.115 481.744 279.221C481.98 279.351 482.166 279.555 482.275 279.801C482.561 280.364 482.72 280.983 482.74 281.614C482.74 281.729 482.568 281.729 482.561 281.614C482.545 281.073 482.418 280.542 482.189 280.052C482.107 279.835 481.98 279.637 481.816 279.472C481.652 279.305 481.396 279.27 481.193 279.386C481.107 279.465 480.978 279.336 481.064 279.264L481.078 279.285Z" fill="black"/>
<path d="M481.709 280.308C481.801 280.162 481.98 280.094 482.146 280.143C482.325 280.204 482.469 280.34 482.54 280.516C482.556 280.532 482.565 280.554 482.565 280.577C482.565 280.6 482.556 280.622 482.54 280.638C482.505 280.668 482.453 280.668 482.418 280.638C482.388 280.576 482.349 280.518 482.304 280.466C482.261 280.415 482.207 280.376 482.146 280.351H481.96C481.96 280.394 481.881 280.401 481.838 280.351C481.808 280.316 481.808 280.264 481.838 280.229L481.709 280.308Z" fill="black"/>
<path d="M486.605 292.152C486.605 292.152 489.54 298.184 493.917 300.398L493.96 297.977L494.096 294.76C494.096 294.76 494.491 294.588 493.416 294.817C490.93 295.34 487.508 293.098 486.605 292.152Z" fill="black"/>
<path d="M501.626 276.927L496.045 276.533C494.97 276.455 494.004 275.845 493.473 274.907L492.298 272.836V275.702C492.303 276.113 491.991 276.46 491.581 276.497C490.077 276.648 486.638 277.042 485.377 277.629C484.481 277.954 483.847 278.76 483.743 279.707C483.743 279.707 482.31 277.35 480.963 277.686C479.616 278.023 479.466 279.564 479.788 280.388C480.166 281.148 480.619 281.868 481.142 282.537C481.848 283.011 482.228 283.842 482.124 284.686C482.009 286.205 482.124 289.437 482.124 289.437C482.124 289.437 474.809 283.705 476.679 274.613C476.679 274.613 475.16 277.88 470.496 276.712C465.831 275.544 467.809 270.407 465.71 268.895C463.61 267.384 458.939 263.995 462.793 260.842C466.648 257.69 469.127 264.51 472.946 263.601C478.678 262.239 481.787 267.262 479.666 270.178C482.024 266.723 485.902 264.616 490.084 264.518C495.565 264.382 502.013 267.169 502.343 276.268C502.339 276.452 502.261 276.626 502.125 276.751C501.99 276.875 501.81 276.939 501.626 276.927V276.927Z" fill="black"/>
<path d="M475.977 302.706C475.977 302.706 462.521 298.199 457.692 309.556C452.863 320.912 463.295 353.26 472.165 355.31C480.763 357.258 499.656 344.792 505.18 335.248C505.543 334.637 506.031 334.109 506.613 333.701C507.466 333.085 508.483 331.967 507.394 330.606" stroke="black" stroke-width="0.5" stroke-linecap="round" stroke-linejoin="round"/>
<path d="M502.357 324.028C501.828 323.635 501.156 323.488 500.511 323.625C499.866 323.762 499.312 324.17 498.989 324.745C498.646 325.272 498.144 325.676 497.556 325.898C494.225 327.248 483.641 331.722 477.298 336.524M472.917 341.087C473.712 339.592 475.293 338.042 477.298 336.524M477.298 336.524L474.478 328.248M508.318 319.224C507.452 319.614 506.151 320.338 504.934 321.293M501.832 325.428C502.197 323.846 503.508 322.412 504.934 321.293M504.934 321.293C504.37 320.509 503.411 318.321 504.088 315.84M501.55 325.146C502.862 327.425 503.699 328.746 505.677 330.695M506.062 331.068C505.929 330.941 505.801 330.817 505.677 330.695M505.677 330.695C506.934 330.725 509.897 330.504 511.702 329.376M510.292 327.402C511.389 327.47 512.005 327.453 513.112 327.12M511.984 325.146C512.955 325.17 513.51 325.098 514.522 324.745M508.036 322.326C511.298 322.769 513.152 322.662 516.496 321.762" stroke="black" stroke-width="0.5" stroke-linecap="round" stroke-linejoin="round"/>
<path d="M509.673 322.623L511.958 309.877C512.138 308.883 513.004 308.159 514.014 308.158H523.265M508.49 330.433L506.649 339.418C506.522 340.033 506.679 340.673 507.076 341.16C507.474 341.646 508.07 341.927 508.698 341.925H533.639C534.645 341.924 535.508 341.204 535.688 340.213L541.147 310.623C541.258 310.013 541.092 309.386 540.695 308.91C540.298 308.434 539.711 308.159 539.091 308.158H533.135M523.265 308.158C523.265 305.124 525.239 302.868 526.931 302.868M523.265 308.158H533.135M529.469 302.868C530.785 303.199 533.36 304.719 533.135 308.158" stroke="black" stroke-width="0.5" stroke-linecap="round" stroke-linejoin="round"/>
<path d="M537.063 309.611C537.381 309.467 537.636 309.213 537.78 308.895C537.96 308.554 538.018 308.162 537.944 307.784C537.859 307.498 537.568 307.326 537.277 307.388C536.985 307.45 536.789 307.725 536.827 308.02C536.827 308.218 536.666 308.379 536.468 308.379C536.271 308.379 536.11 308.218 536.11 308.02C536.083 307.557 536.3 307.114 536.683 306.853C537.074 306.596 537.573 306.572 537.987 306.788C538.933 307.254 538.79 308.529 538.367 309.317C538.127 309.765 537.736 310.112 537.264 310.299C537.136 310.332 537 310.295 536.907 310.2C536.814 310.106 536.779 309.97 536.814 309.842C536.849 309.715 536.949 309.616 537.077 309.582L537.063 309.611Z" fill="black"/>
<path d="M533.674 309.611C533.992 309.467 534.247 309.213 534.39 308.895C534.571 308.554 534.629 308.162 534.555 307.784C534.47 307.498 534.179 307.326 533.888 307.388C533.596 307.45 533.4 307.725 533.438 308.02C533.438 308.218 533.277 308.379 533.079 308.379C532.881 308.379 532.721 308.218 532.721 308.02C532.693 307.557 532.911 307.114 533.294 306.853C533.685 306.596 534.184 306.572 534.598 306.788C535.537 307.254 535.401 308.529 534.978 309.317C534.738 309.765 534.347 310.112 533.875 310.299C533.747 310.332 533.611 310.295 533.518 310.2C533.425 310.106 533.389 309.97 533.425 309.842C533.46 309.715 533.56 309.616 533.688 309.582L533.674 309.611Z" fill="black"/>
<path d="M530.286 309.611C530.604 309.468 530.859 309.213 531.002 308.895C531.183 308.554 531.241 308.162 531.167 307.784C531.082 307.499 530.791 307.326 530.5 307.388C530.208 307.45 530.012 307.725 530.05 308.021C530.05 308.218 529.889 308.379 529.691 308.379C529.493 308.379 529.333 308.218 529.333 308.021C529.305 307.558 529.523 307.114 529.906 306.853C530.294 306.596 530.791 306.572 531.203 306.788C532.149 307.254 532.013 308.529 531.59 309.317C531.35 309.765 530.959 310.112 530.487 310.299C530.359 310.332 530.223 310.295 530.13 310.201C530.037 310.106 530.001 309.97 530.037 309.842C530.072 309.715 530.172 309.616 530.3 309.583L530.286 309.611Z" fill="black"/>
<path d="M526.889 309.611C527.21 309.472 527.466 309.216 527.606 308.895C527.786 308.554 527.844 308.162 527.771 307.784C527.688 307.498 527.406 307.317 527.112 307.362C526.809 307.426 526.608 307.714 526.653 308.021C526.653 308.219 526.493 308.379 526.295 308.379C526.097 308.379 525.937 308.219 525.937 308.021C525.909 307.558 526.127 307.114 526.51 306.853C526.898 306.596 527.395 306.572 527.807 306.788C528.752 307.254 528.616 308.529 528.193 309.317C527.953 309.765 527.562 310.112 527.09 310.299C526.892 310.352 526.689 310.235 526.635 310.038C526.582 309.84 526.699 309.636 526.897 309.583L526.889 309.611Z" fill="black"/>
<path d="M523.501 309.611C523.819 309.468 524.074 309.213 524.217 308.895C524.398 308.554 524.456 308.162 524.382 307.784C524.34 307.583 524.194 307.42 523.998 307.356C523.803 307.292 523.589 307.337 523.436 307.474C523.283 307.612 523.215 307.82 523.257 308.021C523.257 308.219 523.097 308.379 522.899 308.379C522.704 308.372 522.548 308.215 522.541 308.021C522.519 307.557 522.738 307.115 523.121 306.853C523.509 306.596 524.006 306.572 524.418 306.788C525.364 307.254 525.228 308.529 524.805 309.318C524.564 309.765 524.174 310.112 523.701 310.299C523.573 310.334 523.437 310.297 523.343 310.204C523.249 310.11 523.212 309.974 523.246 309.845C523.28 309.717 523.38 309.617 523.508 309.583L523.501 309.611Z" fill="black"/>
<path d="M520.111 309.611C520.429 309.467 520.684 309.213 520.828 308.895C521.008 308.554 521.066 308.162 520.992 307.784C520.95 307.583 520.804 307.42 520.609 307.356C520.414 307.292 520.199 307.337 520.046 307.474C519.893 307.611 519.825 307.82 519.868 308.02C519.868 308.218 519.707 308.379 519.509 308.379C519.313 308.375 519.155 308.217 519.151 308.02C519.129 307.559 519.345 307.118 519.724 306.853C520.115 306.596 520.614 306.572 521.028 306.788C521.974 307.254 521.831 308.529 521.415 309.317C521.175 309.765 520.784 310.112 520.312 310.299C520.184 310.333 520.047 310.297 519.953 310.204C519.859 310.11 519.822 309.973 519.856 309.845C519.89 309.717 519.99 309.617 520.118 309.582L520.111 309.611Z" fill="black"/>
<path d="M516.722 309.611C517.041 309.467 517.295 309.213 517.439 308.895C517.619 308.554 517.677 308.162 517.604 307.784C517.562 307.583 517.415 307.42 517.22 307.356C517.025 307.292 516.811 307.337 516.658 307.474C516.505 307.611 516.437 307.82 516.479 308.02C516.479 308.218 516.318 308.379 516.121 308.379C515.924 308.375 515.766 308.217 515.762 308.02C515.74 307.559 515.957 307.118 516.336 306.853C516.726 306.596 517.225 306.572 517.64 306.788C518.585 307.254 518.442 308.529 518.026 309.317C517.786 309.765 517.395 310.112 516.923 310.299C516.795 310.333 516.658 310.297 516.564 310.204C516.471 310.11 516.434 309.973 516.468 309.845C516.502 309.717 516.602 309.617 516.73 309.582L516.722 309.611Z" fill="black"/>
<path d="M498.002 303.294C498.002 303.294 510.182 297.089 512.947 308.159" stroke="black" stroke-width="0.5" stroke-linecap="round" stroke-linejoin="round"/>
<path d="M529.82 307.377L528.351 299.575L528.516 299.79C528.455 299.747 528.39 299.711 528.322 299.682C528.365 299.525 528.387 299.517 528.394 299.682C528.46 299.876 528.496 300.079 528.501 300.284L528.681 301.294L529.089 303.566L529.891 307.993C529.97 308.445 529.282 308.638 529.175 308.187L528.265 303.128L527.842 300.764C527.756 300.306 527.355 299.331 527.935 299.016C528.14 298.923 528.375 298.923 528.58 299.016C528.946 299.159 529.003 299.346 529.075 299.732L529.519 302.104L530.479 307.191C530.565 307.642 529.877 307.836 529.762 307.384L529.82 307.377Z" fill="black"/>
<path d="M502.065 353.985C496.534 353.787 491.031 354.64 485.507 354.631C484.764 354.631 484.02 354.631 483.276 354.545C482.451 354.414 481.614 354.478 480.807 354.735C480.402 354.898 480.223 354.071 480.634 353.873C481.962 353.33 483.409 353.709 484.777 353.735C486.144 353.761 487.432 353.735 488.76 353.649C491.668 353.511 494.563 353.27 497.464 353.141C499.004 353.072 500.538 353.037 502.078 353.089C502.503 353.089 502.503 353.951 502.078 353.951L502.065 353.985Z" fill="black"/>
<path d="M482.092 283.41C482.401 289.08 482.674 292.629 482.142 297.51M481.81 300.048C481.945 299.155 482.054 298.314 482.142 297.51M480.4 298.92C482.133 301.148 489.955 302.942 493.936 302.01M495.346 301.458C494.968 301.698 494.489 301.88 493.936 302.01M493.936 302.01L494.077 298.209M494.218 294.779L494.077 298.209M486.322 291.588C488.014 293.468 491.668 296.277 496.192 294.126C501.53 291.588 500.764 279.325 499.576 273.258M488.296 278.616C489.103 278.164 489.542 278.044 490.27 278.334M496.192 279.18C496.764 278.84 497.127 278.769 497.884 278.898M493.936 281.436C494.242 283.086 494.359 284.012 494.218 285.666M491.398 287.076C492.135 287.716 492.562 287.904 493.372 287.64M494.077 298.209C495.252 298.352 497.658 298.863 497.884 299.766C498.11 300.668 497.978 303.15 497.884 304.278M482.142 297.51C481.561 297.04 480.118 296.269 478.99 296.946C477.862 297.623 477.58 301.176 477.58 302.868" stroke="black" stroke-width="0.5" stroke-linecap="round" stroke-linejoin="round"/>
<path d="M459.978 336.545C459.978 336.545 459.47 352.436 462.271 353.21C464.769 353.771 467.305 354.147 469.858 354.335C467.762 352.748 466.036 350.724 464.8 348.403C462.878 344.585 461.266 340.62 459.978 336.545V336.545Z" fill="black" stroke="black" stroke-width="0.5" stroke-linecap="round" stroke-linejoin="round"/>
<path d="M462.442 351.268V351.49C462.422 354.18 461.751 356.826 460.486 359.2C451.623 376.202 452.053 403.506 452.992 417.513C453.422 423.808 452.841 430.131 451.272 436.242L434.442 501.484C433.274 505.992 435.729 510.649 440.109 512.231C462.456 520.349 486.343 522.326 509.937 520.671C519.208 520.019 531.725 520.134 539.405 514.101C546.549 508.498 539.456 490.716 537.908 483.594C535.923 474.487 533.566 465.467 531.553 456.368C523.299 419.025 508.21 374.461 503.682 361.406C502.807 358.888 502.359 356.241 502.357 353.575C504.086 354.105 504.987 352.939 505.419 351.372M506.062 344.886C506.286 346.7 505.923 349.547 505.419 351.372M505.419 351.372C509.812 356.116 521.854 349.962 524.674 342.066" stroke="black" stroke-width="0.5" stroke-linecap="round" stroke-linejoin="round"/>
<path d="M522.275 346.038C522.275 346.038 507.193 346.654 506.118 345.078C506.118 345.078 498.237 352.895 493.723 353.862C489.21 354.829 481.443 354.406 482.21 353.561C482.976 352.716 490.972 349.262 494.676 346.217C498.381 343.172 503.768 336.796 505.18 335.219C506.591 333.643 508.347 332.138 507.845 334.016C507.344 335.893 505.954 340.184 507.315 341.044C508.676 341.904 513.62 341.897 513.62 341.897H521.96C521.96 341.897 525.009 341.082 524.392 342.63" fill="black"/>
<path d="M502.558 356.714C502.558 356.714 496.288 362.166 480.103 364.502C463.918 366.837 459.189 361.915 459.189 361.915L460.809 358.555C461.378 357.039 461.856 355.492 462.242 353.919C462.277 353.203 464.57 350.151 465.351 350.731C466.132 351.311 468.396 354.485 471.563 355.137C473.721 355.548 475.941 355.492 478.076 354.973C478.527 354.851 487.39 353.275 488.106 353.576C488.823 353.876 497.635 353.69 497.757 353.683L501.024 353.597C501.344 353.452 501.716 353.488 502.001 353.692C502.286 353.896 502.441 354.237 502.407 354.586" fill="black"/>
<path d="M497.235 356.979C499.332 367.487 501.481 377.981 503.683 388.461C505.885 398.94 508.116 409.418 510.375 419.892C512.634 430.367 514.893 440.84 517.153 451.31C519.412 461.78 521.65 472.255 523.866 482.734C526.073 493.219 528.237 503.71 530.357 514.209C530.622 515.52 530.88 516.824 531.146 518.128C531.146 518.243 530.995 518.293 530.966 518.178C528.874 507.67 526.725 497.176 524.518 486.696C522.311 476.217 520.081 465.74 517.826 455.265C515.577 444.79 513.32 434.317 511.056 423.847C508.792 413.377 506.554 402.902 504.342 392.423C502.135 381.938 499.972 371.447 497.851 360.948C497.586 359.644 497.328 358.333 497.063 357.029C497.063 356.914 497.213 356.864 497.235 356.979Z" fill="black"/>
<path d="M490.493 361.048C491.467 371.25 492.685 381.431 494.075 391.591C495.465 401.75 497.006 411.917 498.632 422.062C500.258 432.208 501.992 442.525 503.697 452.756C505.446 463.209 507.179 473.663 508.82 484.131C510.511 494.878 512.102 505.625 513.527 516.372C513.707 517.726 513.886 519.073 514.058 520.427C514.058 520.542 513.893 520.542 513.878 520.427C512.446 509.479 510.884 498.553 509.193 487.641C507.552 477.095 505.818 466.563 504.063 456.03C502.35 445.778 500.624 435.532 498.969 425.279C497.335 415.177 495.766 405.061 494.355 394.922C492.922 384.892 491.704 374.861 490.686 364.78L490.321 361.055C490.321 360.94 490.493 360.94 490.5 361.055L490.493 361.048Z" fill="black"/>
<path d="M465.416 363.993C462.772 372.362 462.364 381.353 462.335 390.066C462.335 399.251 462.872 408.429 463.109 417.614C463.231 422.436 463.202 427.251 462.865 432.065C462.478 437.661 461.769 443.228 460.981 448.781C459.462 459.442 457.8 470.089 456.152 480.728C454.568 490.988 452.971 501.241 451.437 511.537C451.23 512.912 451.022 514.281 450.821 515.656C450.821 515.771 450.628 515.721 450.649 515.606C452.19 505.224 453.795 494.828 455.399 484.468C457.004 474.108 458.631 463.54 460.178 453.072C461.783 442.218 463.145 431.37 462.987 420.38C462.851 411.309 462.27 402.253 462.163 393.154C462.077 384.348 462.292 375.314 464.456 366.73C464.692 365.799 464.95 364.875 465.244 363.957C465.244 363.843 465.452 363.893 465.416 364V363.993Z" fill="black"/>
<path d="M472.874 364.359C473.404 384.85 473.999 405.341 474.45 425.839C474.672 436.042 474.78 446.251 474.407 456.447C474.049 466.399 473.254 476.329 472.559 486.267C471.778 497.393 471.126 508.549 471.291 519.711C471.279 519.751 471.243 519.779 471.201 519.779C471.159 519.779 471.123 519.751 471.111 519.711C470.782 499.65 473.189 479.732 474.092 459.736C475.016 439.388 474.092 418.99 473.583 398.642L472.695 364.359C472.706 364.319 472.743 364.291 472.784 364.291C472.826 364.291 472.863 364.319 472.874 364.359V364.359Z" fill="black"/>
<path fill-rule="evenodd" clip-rule="evenodd" d="M480.563 358.863C480.508 358.867 480.466 358.915 480.47 358.97L480.57 358.963L480.67 358.956C480.666 358.901 480.618 358.859 480.563 358.863ZM493.38 521.201C493.48 521.196 493.48 521.196 493.48 521.196L493.454 520.618C493.436 520.237 493.41 519.676 493.375 518.951C493.305 517.502 493.202 515.398 493.067 512.781C492.798 507.547 492.403 500.26 491.901 492.05C490.897 475.629 489.464 455.51 487.748 440.722C486.032 425.94 484.263 405.499 482.922 388.752C482.252 380.379 481.689 372.93 481.293 367.574C481.095 364.896 480.94 362.742 480.833 361.256C480.78 360.514 480.739 359.939 480.712 359.549L480.67 358.956C480.67 358.955 480.67 358.956 480.57 358.963C480.47 358.97 480.47 358.969 480.47 358.97L480.512 359.563C480.54 359.953 480.58 360.528 480.634 361.271C480.74 362.756 480.896 364.911 481.094 367.589C481.489 372.945 482.052 380.394 482.723 388.768C484.063 405.515 485.833 425.959 487.549 440.745C489.265 455.527 490.698 475.641 491.702 492.062C492.204 500.272 492.598 507.558 492.868 512.791C493.002 515.408 493.105 517.512 493.175 518.961C493.21 519.686 493.236 520.247 493.254 520.627L493.281 521.205C493.281 521.205 493.281 521.206 493.38 521.201ZM493.38 521.201L493.48 521.196C493.483 521.251 493.44 521.298 493.385 521.301C493.33 521.303 493.283 521.26 493.281 521.205L493.38 521.201Z" fill="black"/>
<path fill-rule="evenodd" clip-rule="evenodd" d="M512.159 520.42L531.059 518.156C531.059 518.156 534.233 552.268 535.322 554.295C535.981 555.52 539.621 558.68 542.394 560.973C542.877 561.366 543.06 562.023 542.849 562.609C542.638 563.196 542.079 563.586 541.455 563.581H523.028C523.185 563.581 519.983 548.692 518.793 544.3C516.651 536.369 513.871 525.715 512.159 520.42V520.42Z" stroke="black" stroke-width="0.5" stroke-linecap="round" stroke-linejoin="round"/>
<path d="M462.801 518.371L452.663 555.19C452.569 555.53 452.635 555.894 452.842 556.179L456.718 561.624C456.969 561.981 457.001 562.447 456.801 562.835C456.601 563.222 456.201 563.465 455.765 563.466H442.417C441.437 563.466 440.503 563.043 439.856 562.307C439.209 561.57 438.91 560.591 439.035 559.618C439.709 554.388 440.877 544.422 441.507 533.589C441.951 526.123 443.599 513.434 443.599 513.434" stroke="black" stroke-width="0.5" stroke-linecap="round" stroke-linejoin="round"/>
<path d="M528.552 518.787C528.552 518.787 531.31 517.676 531.188 519.553C531.067 521.43 531.998 527.85 531.998 527.85C531.998 527.85 518.063 531.511 515.233 531.053L513.148 523.651C513.148 523.651 510.762 520.069 513.441 520.413C516.121 520.757 523.823 519.596 523.823 519.596" fill="black"/>
<path d="M461.605 522.635L459.821 528.99C459.821 528.99 446.494 527.736 442.332 523.767L443.421 514.775C443.421 514.775 442.912 513.299 446.208 514.281C449.504 515.262 458.545 517.512 458.545 517.512L461.297 518.465C461.297 518.465 462.945 517.935 462.443 519.712" fill="black"/>
<path d="M538.331 557.67C535.833 558.754 533.016 558.849 530.45 557.935C529.017 557.427 527.835 556.502 526.359 556.245C524.827 556.015 523.27 556.015 521.738 556.245C521.623 556.245 521.623 556.073 521.738 556.065C523.129 555.869 524.539 555.84 525.936 555.979C527.369 556.18 528.516 556.882 529.82 557.47C532.504 558.641 535.554 558.641 538.238 557.47C538.346 557.427 538.432 557.584 538.331 557.627V557.67Z" fill="black"/>
<path d="M454.89 558.967L450.061 558.888C448.699 558.982 447.333 558.769 446.064 558.265C443.713 557.097 442.481 554.009 439.615 553.779C439.501 553.779 439.501 553.593 439.615 553.6C442.288 553.822 443.577 556.509 445.634 557.827C446.966 558.68 448.5 558.687 450.04 558.709L454.869 558.788C454.909 558.799 454.937 558.836 454.937 558.877C454.937 558.919 454.909 558.955 454.869 558.967H454.89Z" fill="black"/>
<path d="M526.61 552.777C526.127 552.538 525.764 552.11 525.607 551.595C525.607 551.48 525.751 551.43 525.779 551.544C525.909 552.024 526.237 552.426 526.682 552.648C526.782 552.705 526.682 552.856 526.589 552.805L526.61 552.777Z" fill="black"/>
<path d="M444.839 551.731L445.204 553.163C445.212 553.194 445.202 553.227 445.18 553.249C445.157 553.271 445.124 553.279 445.094 553.27C445.063 553.261 445.04 553.237 445.032 553.206L444.667 551.773C444.667 551.666 444.81 551.616 444.839 551.723V551.731Z" fill="black"/>
<path d="M500.1 323.362C500.161 320.972 498.437 318.91 496.074 318.546C493.711 318.183 491.446 319.632 490.786 321.929C490.77 321.96 490.738 321.979 490.704 321.979C490.669 321.979 490.637 321.96 490.621 321.929C489.684 320.093 488.433 318.434 486.924 317.028C485.324 315.599 483.074 315.152 481.049 315.861C478.893 316.653 477.368 318.594 477.109 320.876C476.977 321.938 477.09 323.016 477.438 324.028C477.888 325.105 478.502 326.106 479.258 326.995C479.906 327.921 480.39 328.95 480.691 330.04C480.936 331.153 481.51 332.166 482.339 332.948C482.432 333.02 482.303 333.149 482.217 333.077C480.49 331.716 480.555 329.194 479.394 327.46C478.625 326.514 477.96 325.489 477.409 324.401C476.98 323.326 476.818 322.163 476.937 321.012C477.134 318.865 478.422 316.97 480.347 315.997C482.205 315.05 484.425 315.153 486.186 316.269C488.264 317.566 489.604 319.787 490.8 321.857H490.636C491.319 319.489 493.649 317.991 496.088 318.353C498.526 318.715 500.321 320.826 500.286 323.29C500.297 323.328 500.283 323.369 500.251 323.392C500.218 323.415 500.175 323.415 500.143 323.392C500.111 323.369 500.096 323.328 500.107 323.29L500.1 323.362Z" fill="black"/>
<path d="M498.115 325.511C498.226 324.603 498.04 323.683 497.585 322.889C497.141 322.115 496.109 320.955 495.099 321.213C494.089 321.47 493.422 322.524 492.871 323.24C492.251 324.044 491.713 324.908 491.266 325.819C491.266 325.884 491.144 325.87 491.108 325.819C490.029 324.271 488.816 322.821 487.483 321.485C486.258 320.245 484.617 318.54 482.69 318.848C480.92 319.135 479.824 320.998 479.824 322.667C479.815 323.515 480.049 324.347 480.497 325.067C481.04 325.746 481.634 326.384 482.274 326.973C482.842 327.626 483.262 328.393 483.506 329.223C483.786 330.118 483.965 331.136 484.76 331.73C484.853 331.802 484.76 331.96 484.667 331.888C484.104 331.405 483.714 330.751 483.557 330.025C483.318 329.01 482.874 328.054 482.253 327.217C481.571 326.573 480.935 325.883 480.347 325.153C479.908 324.469 479.661 323.68 479.63 322.868C479.522 321.192 480.432 319.615 481.937 318.87C483.664 318.153 485.362 319.285 486.602 320.417C488.329 322.015 489.879 323.795 491.223 325.726H491.065C491.585 324.667 492.227 323.671 492.978 322.76C493.558 322.044 494.411 320.919 495.436 321.005C496.352 321.214 497.135 321.806 497.585 322.631C498.126 323.483 498.356 324.495 498.237 325.497C498.237 325.612 498.044 325.612 498.058 325.497L498.115 325.511Z" fill="black"/>
<path d="M496.174 326.507C496.199 326.116 496.128 325.725 495.967 325.368C495.601 324.723 494.921 325.024 494.498 325.425C493.731 326.142 493.065 327.009 492.348 327.79C491.904 328.277 491.431 328.886 490.715 328.506C490.397 328.319 490.116 328.076 489.884 327.79L488.759 326.543L486.609 324.114C486.273 323.749 485.95 323.398 485.614 323.011C485.292 322.555 484.797 322.252 484.245 322.172C483.314 322.172 483.084 323.362 483.142 324.093C483.231 325.04 483.565 325.949 484.109 326.729C485.091 328.162 486.817 329.051 487.376 330.777C487.412 330.885 487.24 330.935 487.204 330.827C486.617 329.015 484.704 328.105 483.758 326.529C483.127 325.461 482.325 323.183 483.6 322.23C484.22 321.877 485.004 322.032 485.442 322.595C486.287 323.391 487.025 324.322 487.799 325.182C488.573 326.041 489.411 327.03 490.264 327.911C490.451 328.147 490.698 328.328 490.98 328.434C491.331 328.486 491.682 328.333 491.883 328.04C492.305 327.589 492.714 327.13 493.122 326.679C493.553 326.159 494.012 325.664 494.498 325.196C494.74 324.939 495.076 324.791 495.429 324.788C496.246 324.852 496.375 325.855 496.375 326.5C496.375 326.615 496.203 326.615 496.196 326.5L496.174 326.507Z" fill="black"/>
<path d="M489.096 329.488C487.851 328.412 486.746 327.184 485.807 325.834C485.735 325.74 485.893 325.654 485.957 325.748C486.895 327.082 487.993 328.297 489.225 329.366C489.311 329.437 489.182 329.566 489.096 329.488V329.488Z" fill="black"/>
<path d="M88.9841 282L94.342 259.44L105.058 253.236L109.57 263.388C109.946 263.764 110.698 264.685 110.698 265.362C110.698 266.039 110.134 266.584 109.852 266.772C110.416 268.84 111.206 273.427 109.852 275.232C108.498 277.037 106.656 277.676 105.904 277.77L104.776 278.052L103.648 285.666C105.622 285.196 110.529 284.2 114.364 283.974C119.158 283.692 128.746 283.692 132.976 283.41C137.206 283.128 144.538 281.718 147.358 280.59C150.178 279.462 156.664 276.078 158.638 274.104C160.217 272.525 171.328 257.466 176.686 250.134L183.454 239.136L186.838 251.826C185.24 258.124 180.783 271.891 178.096 277.77C173.584 287.64 167.944 294.126 159.766 298.92C151.588 303.714 132.412 311.046 121.696 310.2C120.544 315.645 119.072 320.819 118.03 324.864L120.85 322.326C125.421 323.105 126.245 325.138 127.618 328.812L127.529 328.842C126.466 329.196 126.021 329.344 125.362 330.222C124.685 331.125 127.336 331.35 126.208 332.478C125.55 333.418 123.67 336.426 122.542 336.426C119.722 336.426 117.279 338.306 115.211 339.246C115.255 343.698 115.796 348.683 114.364 352.5C112.672 357.012 111.074 357.012 110.134 357.294C110.04 357.388 109.57 358.084 110.698 361.242C112.108 365.19 129.31 402.696 133.258 414.54C137.206 426.384 149.332 469.812 150.742 482.502C152.152 495.192 155.818 514.368 156.1 526.494C156.382 538.62 157.51 554.13 157.792 555.54C158.018 556.668 160.706 558.83 162.022 559.77V561.744L160.33 563.436H137.206C136.642 563.624 135.458 563.718 135.232 562.59C135.006 561.462 126.678 529.032 122.542 512.958L117.184 490.116C116.244 482.972 114.026 468.007 112.672 465.3L106.186 452.328C107.596 457.592 109.401 469.417 105.34 474.606C100.264 481.092 95.752 484.476 85.6 484.194C77.4784 483.969 67.552 479.776 63.604 477.708C56.272 473.478 40.48 464.116 35.968 460.506C31.456 456.897 16.98 446.218 10.306 441.33C10.118 441.142 9.29077 440.879 7.48597 441.33C5.22997 441.894 2.97397 443.022 1.84597 441.33C0.943569 439.977 0.905969 438.886 0.999969 438.51C2.31601 435.69 5.39929 429.43 7.20409 426.948C9.00889 424.467 12.8441 420.274 14.5361 418.488C14.8181 418.3 15.6077 417.924 16.5101 417.924C17.6381 417.924 24.1242 423.282 30.0461 426.384C34.7836 428.866 43.4881 432.682 47.2481 434.28C53.2641 435.972 66.1985 439.751 69.8081 441.33C73.4177 442.909 75.8241 444.432 76.5761 444.996C74.1321 439.826 68.9057 428.527 67.5521 424.692L67.4674 424.452C65.6629 419.341 59.6471 402.301 59.0921 395.364L59.0682 395.065C58.4973 387.938 57.4355 374.68 59.9381 367.728C61.9685 362.088 64.3561 356.166 65.2961 353.91C64.4501 353.158 62.7017 351.09 62.4761 348.834C62.2505 346.578 62.3821 344.51 62.4761 343.758C60.1261 343.476 54.8057 342.179 52.3241 339.246C49.2221 335.58 47.276 330.097 48.9401 322.608C50.6321 314.994 55.9901 304.56 59.3741 300.048C62.7581 295.536 66.7061 289.332 70.6541 287.64C74.3285 286.065 79.1141 285.29 80.5241 285.102L87.5741 285.666L88.9841 282Z" fill="white"/>
<path d="M102.742 277.864C112.068 278.888 110.825 271.287 110.182 267.632C110.131 267.377 110.073 267.121 110.022 266.858C110.698 266.359 110.882 265.427 110.445 264.709C110.147 264.282 109.874 263.838 109.627 263.379C109.235 262.791 108.916 262.158 108.677 261.493C107.522 258.468 105.527 254.097 104.124 251.305M105.34 260.568C105.697 260.194 105.956 260.077 106.468 260.004" stroke="black" stroke-width="0.5" stroke-linecap="round" stroke-linejoin="round"/>
<path d="M97.276 263.971C97.6633 263.723 98.1895 264.22 98.438 264.468C98.7074 264.746 98.9164 265.077 99.052 265.44C99.0958 265.55 99.2712 265.499 99.2347 265.389C99.0433 264.886 98.7232 264.443 98.3065 264.103C98.0068 263.861 97.5756 263.562 97.1883 263.818C97.0859 263.876 97.1883 264.037 97.276 263.971Z" fill="black"/>
<path d="M98.153 264.951C98.3008 264.789 98.5327 264.734 98.7377 264.812C98.8473 264.849 98.8984 264.673 98.7888 264.637C98.5288 264.56 98.2474 264.633 98.058 264.827C98.0358 264.849 98.0271 264.881 98.0352 264.912C98.0433 264.942 98.067 264.966 98.0973 264.974C98.1277 264.982 98.16 264.973 98.1822 264.951H98.153Z" fill="black"/>
<path d="M106.456 262.291C106.404 262.549 106.419 262.815 106.5 263.066C106.653 263.511 107.355 263.321 107.231 262.868C107.18 262.748 107.162 262.617 107.179 262.488C107.252 262.028 106.551 261.83 106.449 262.291H106.456Z" fill="black"/>
<path d="M105.732 267.552H105.637C105.44 267.64 105.601 268.093 105.681 268.225C105.879 268.576 106.267 268.775 106.668 268.729C106.938 268.663 107.245 268.378 107.187 268.071C107.128 267.764 106.748 267.786 106.544 267.757C106.339 267.728 106.01 267.603 105.732 267.552V267.552Z" fill="black"/>
<path d="M105.732 267.187C105.104 267.187 105.104 267.867 105.316 268.313C105.576 268.867 106.173 269.181 106.777 269.08C107.296 268.949 107.801 268.306 107.508 267.787C107.356 267.583 107.125 267.453 106.872 267.429C106.536 267.37 106.215 267.268 105.878 267.202C105.425 267.114 105.228 267.816 105.688 267.933C105.959 267.991 106.222 268.086 106.5 268.138C106.586 268.141 106.672 268.156 106.755 268.181C106.872 268.233 106.923 268.145 106.807 268.298C106.69 268.452 106.266 268.335 106.12 268.167C106.075 268.114 106.038 268.055 106.01 267.991C105.989 267.945 105.974 267.896 105.966 267.845C105.966 267.721 105.9 267.75 105.783 267.947C105.993 267.933 106.152 267.752 106.138 267.542C106.124 267.332 105.942 267.173 105.732 267.187V267.187Z" fill="black"/>
<path d="M100.799 264.016C100.625 264.144 100.406 264.193 100.195 264.151C99.9836 264.109 99.7996 263.981 99.6877 263.797C99.2346 263.066 98.3722 262.086 97.1736 262.481C95.5145 263.022 95.8946 265.777 97.4805 266.808C97.8733 267.063 98.0658 267.535 97.9629 267.992C97.6779 269.337 97.0932 271.975 96.4281 274.116C95.9019 275.834 96.355 276.872 94.5863 277.179H90.0477C90.0477 277.179 84.2009 271.025 83.185 265.485C82.1691 259.945 83.9962 256.59 87.1389 255.005C87.7824 254.668 88.2391 254.058 88.3814 253.345C88.6226 252.249 89.4411 250.692 92.0722 249.969C94.2648 249.37 96.3112 248.741 97.8021 248.273C98.981 247.926 100.023 247.221 100.784 246.256C101.449 245.247 102.776 244.914 103.839 245.489C106.178 246.512 108.1 252.615 103.167 256.605C101.223 258.167 100.427 260.755 101.157 263.139C101.272 263.459 101.151 263.817 100.864 264.001L100.799 264.016Z" fill="black"/>
<path d="M102.815 286.08C102.815 286.08 103.072 285.966 103.648 285.787M191.037 235.315C191.037 235.315 185.826 236.872 184.211 238.487C180.717 241.98 180.396 245.788 172.78 255.633C167.547 262.386 163.367 268.24 161.255 271.251C160.07 272.943 158.583 274.403 156.87 275.556C151.717 279.042 143.429 283.544 126.488 283.544C112.336 283.544 105.788 285.119 103.648 285.787M103.648 285.787L104.776 278.052M188.812 239.982C189.803 239.704 190.361 239.706 191.35 240.264M190.222 242.238L191.632 242.802M193.042 245.058C192.384 245.058 190.955 245.171 190.504 245.622C189.94 246.186 191.068 248.442 189.658 249.852C188.53 250.98 187.308 251.638 186.838 251.826C185.001 263.588 176.2 285.342 167.944 292.998C158.398 301.85 133.918 311.021 121.696 310.2M121.696 310.2C122.012 309.072 122.485 307.662 124.516 306.534M121.696 310.2C119.534 317.908 115.661 333.945 115.21 336.426C115.099 337.033 115.129 338.135 115.19 339.528M109.852 357.294C116.204 355.933 115.438 345.263 115.19 339.528M115.19 339.528C116.431 338.325 119.99 336.551 122.26 336.426C123.67 336.349 125.738 333.606 126.208 332.478M123.106 331.914C124.833 330.104 126.172 329.213 129.592 327.966M124.798 325.992L126.49 324.582M122.26 324.018C122.73 323.924 123.726 323.623 123.952 323.172M119.158 324.018C120.131 322.78 120.879 322.236 122.824 321.762" stroke="black" stroke-width="0.5" stroke-linecap="round" stroke-linejoin="round"/>
<path d="M109.861 352.873C109.554 356.325 110.103 359.8 111.461 362.988C120.305 383.722 155.934 448.769 157.585 554.801C157.595 555.474 157.883 556.112 158.382 556.563L161.262 559.157C162.004 559.83 162.257 560.89 161.897 561.825C161.538 562.76 160.641 563.379 159.639 563.381H137.355C136.243 563.382 135.273 562.626 135.002 561.547C133.131 554.019 125.954 525.223 122.249 512.046C119.449 502.092 116.278 484.149 114.414 472.902C113.34 466.383 111.009 460.135 107.551 454.506C97.4872 438.149 76.592 401.957 77.586 385.075" stroke="black" stroke-width="0.5" stroke-linecap="round" stroke-linejoin="round"/>
<path d="M67.9976 349.95C67.9976 349.95 57.1663 363.149 58.438 387.91C59.7097 412.672 76.534 445.114 76.534 445.114M76.534 445.114C76.534 445.114 73.9468 441.862 54.1552 436.3C34.6706 430.855 22.5603 422.224 18.1752 418.716C17.0638 417.824 15.464 417.893 14.4332 418.877C10.9178 422.202 3.55073 429.956 1.10967 438.61C0.804924 439.678 1.14728 440.827 1.98742 441.554C2.82757 442.281 4.01314 442.456 5.02706 442.001L6.18181 441.489C7.14654 441.051 9.67531 440.912 10.5158 441.57C19.6953 448.878 29.0649 455.916 38.7999 462.45C48.0672 468.67 57.3052 475.153 67.6176 479.56C76.7094 483.441 88.0085 486.437 97.4219 481.869C100.661 480.321 103.378 477.862 105.242 474.794C108.436 469.481 108.524 462.918 107.31 457.005C106.936 455.113 106.398 453.257 105.702 451.458M76.534 445.114C78.3724 446.599 81.088 450.354 82.216 452.046" stroke="black" stroke-width="0.5" stroke-linecap="round" stroke-linejoin="round"/>
<path d="M176.04 250.969C177.612 251.094 179.109 251.69 180.337 252.68C181.434 253.695 180.98 255.362 180.915 256.787C180.916 256.825 180.939 256.858 180.974 256.872C181.008 256.886 181.048 256.879 181.075 256.853C181.455 256.531 181.667 256.122 182.004 255.83C183.115 254.762 184.408 255.333 185.322 256.319C185.402 256.407 185.526 256.275 185.446 256.188C184.832 255.53 184.035 254.331 182.976 254.565C182.713 254.601 182.475 254.737 182.311 254.945C181.741 255.486 181.185 257.35 181.156 255.53C181.156 254.141 181.602 253.403 180.476 252.526C179.192 251.573 177.68 250.975 176.091 250.794C175.981 250.794 175.93 250.955 176.047 250.969H176.04Z" fill="black"/>
<path d="M88.9876 285.788C92.8538 286.482 96.9027 286.307 100.82 286.424C100.861 286.412 100.889 286.375 100.889 286.332C100.889 286.29 100.861 286.252 100.82 286.241C96.9246 286.124 92.883 286.299 89.0314 285.612C88.9218 285.612 88.8706 285.766 88.9876 285.788V285.788Z" fill="black"/>
<path d="M101.756 286.299L102.07 285.904C102.143 285.809 102.011 285.685 101.938 285.773L101.624 286.175C101.551 286.262 101.682 286.394 101.756 286.299Z" fill="black"/>
<path d="M68.1069 314.489C70.7234 309.782 76.9941 315.219 80.6411 315.395C85.1286 315.599 89.1921 312.83 93.6942 313.085C97.9989 313.327 101.507 316.462 105.804 316.74C110.767 317.054 115.342 313.129 120.283 315.197C120.392 315.241 120.444 315.066 120.334 315.022C115.291 312.91 110.592 317.01 105.519 316.542C100.732 316.096 96.9173 312.457 91.9328 312.961C86.583 313.495 82.0663 316.615 76.7091 314.138C74.0707 312.932 69.8537 310.973 67.9388 314.401C67.8804 314.503 68.0338 314.598 68.0923 314.496L68.1069 314.489Z" fill="black"/>
<path d="M66.1341 329.639C68.2536 325.203 76.1761 326.599 79.8304 327.659C81.6545 328.307 83.5568 328.71 85.4872 328.857C87.7967 328.857 90.0112 328.126 92.2988 327.995C94.7325 327.819 96.6401 328.616 98.8326 329.544C100.771 330.371 102.789 330.997 104.855 331.415C108.767 332.243 112.828 332.013 116.622 330.75C116.731 330.706 116.68 330.531 116.571 330.575C111.777 332.119 106.613 332.078 101.844 330.458C99.6512 329.778 97.6779 328.609 95.4853 328.046C93.5558 327.556 91.6118 327.856 89.6896 328.185C86.954 328.76 84.121 328.677 81.4236 327.944C79.2891 327.236 77.0833 326.766 74.8459 326.54C71.9225 326.365 67.4497 326.467 65.9806 329.544C65.9295 329.654 66.0903 329.742 66.1341 329.639V329.639Z" fill="black"/>
<path d="M2.89996 438.463C5.9184 437.199 7.78208 434.144 9.66038 431.608C12.1187 428.47 14.1261 425.004 15.6242 421.31C15.668 421.2 15.4926 421.157 15.4488 421.259C14.1355 424.557 12.3853 427.664 10.2451 430.497C8.24252 433.282 6.13766 436.907 2.8488 438.288C2.74648 438.332 2.79033 438.507 2.89996 438.463V438.463Z" fill="black"/>
<path d="M17.4882 446.774C24.7017 442.601 28.9188 434.876 30.0004 426.763C30.0004 426.646 29.8323 426.654 29.8177 426.763C28.7433 434.803 24.5482 442.477 17.3932 446.613C17.2908 446.672 17.3932 446.833 17.4882 446.774Z" fill="black"/>
<path d="M131.458 547.72C135.843 547.391 140.272 547.091 144.694 546.923C148.618 546.777 152.558 546.799 156.329 545.535C156.438 545.535 156.395 545.323 156.278 545.359C152.302 546.689 148.114 546.602 143.977 546.77C139.841 546.938 135.624 547.223 131.458 547.501C131.341 547.501 131.341 547.691 131.458 547.683V547.72Z" fill="black"/>
<path d="M120.327 458.27C121.317 458.51 122.361 458.366 123.25 457.868C123.352 457.817 123.25 457.656 123.155 457.715C122.303 458.196 121.297 458.33 120.349 458.087C120.232 458.087 120.188 458.241 120.297 458.27H120.327Z" fill="black"/>
<path d="M120.341 461.653H123.199C123.24 461.641 123.268 461.604 123.268 461.562C123.268 461.519 123.24 461.482 123.199 461.47H120.341C120.301 461.482 120.272 461.519 120.272 461.562C120.272 461.604 120.301 461.641 120.341 461.653V461.653Z" fill="black"/>
<path d="M86.5314 450.231C86.5722 450.219 86.6004 450.182 86.6004 450.139C86.6004 450.097 86.5722 450.06 86.5314 450.048C86.4907 450.06 86.4625 450.097 86.4625 450.139C86.4625 450.182 86.4907 450.219 86.5314 450.231V450.231Z" fill="black"/>
<path d="M86.5314 450.231C86.5722 450.219 86.6004 450.182 86.6004 450.139C86.6004 450.097 86.5722 450.06 86.5314 450.048C86.4907 450.06 86.4625 450.097 86.4625 450.139C86.4625 450.182 86.4907 450.219 86.5314 450.231V450.231Z" fill="black"/>
<path d="M87.38 452.043C87.2883 453.254 87.6562 454.454 88.4105 455.405C88.4836 455.5 88.6079 455.369 88.5421 455.281C87.8147 454.366 87.4643 453.208 87.5627 452.043C87.5627 451.926 87.3946 451.926 87.38 452.043V452.043Z" fill="black"/>
<path d="M89.7186 453.512L90.2228 455.405C90.235 455.453 90.284 455.483 90.3325 455.471C90.3809 455.459 90.4104 455.41 90.3982 455.361L89.894 453.461C89.8714 453.425 89.8277 453.408 89.787 453.42C89.7462 453.432 89.7183 453.47 89.7186 453.512V453.512Z" fill="black"/>
<path d="M157.037 299.17C151.468 296.758 152.93 289.669 157.037 286.658C159.033 285.196 162.263 283.625 164.719 284.728C167.518 285.978 168.176 289.113 168.139 291.913C168.151 291.953 168.188 291.981 168.23 291.981C168.273 291.981 168.31 291.953 168.322 291.913C168.322 289.252 167.795 286.234 165.289 284.772C162.782 283.31 159.347 284.772 157.169 286.329C152.784 289.369 151.117 296.809 156.942 299.331C157.052 299.375 157.147 299.214 157.037 299.17V299.17Z" fill="black"/>
<path d="M157.177 285.291L158.12 286.606C158.186 286.701 158.339 286.606 158.273 286.518L157.338 285.196C157.265 285.101 157.111 285.196 157.177 285.291Z" fill="black"/>
<path d="M158.134 284.691L159.055 286.152C159.121 286.247 159.282 286.152 159.216 286.057L158.295 284.596C158.229 284.5 158.076 284.596 158.134 284.691Z" fill="black"/>
<path d="M153.033 297.028L154.495 296.078C154.59 296.012 154.495 295.851 154.4 295.917L152.938 296.867C152.843 296.933 152.938 297.094 153.033 297.028Z" fill="black"/>
<path d="M153.624 298.169C153.916 297.921 154.275 297.766 154.655 297.723C154.772 297.723 154.721 297.525 154.604 297.54C154.194 297.597 153.809 297.77 153.493 298.037C153.405 298.117 153.529 298.242 153.624 298.169V298.169Z" fill="black"/>
<path d="M167.416 288.419C167.958 288.131 168.422 287.714 168.768 287.206C168.834 287.111 168.673 287.016 168.607 287.111C168.278 287.592 167.836 287.986 167.321 288.259C167.219 288.317 167.321 288.471 167.416 288.419Z" fill="black"/>
<path d="M167.782 289.441L168.776 288.403C168.856 288.323 168.724 288.191 168.644 288.279L167.65 289.309C167.57 289.39 167.701 289.521 167.782 289.441Z" fill="black"/>
<path d="M49.2589 330.369C50.7206 329.185 52.8255 329.741 54.236 330.662C55.6466 331.582 56.1143 333.073 56.6479 334.528C57.5395 336.94 59.8636 339.461 57.4664 341.836C57.3787 341.917 57.5103 342.048 57.5907 341.968C58.6158 341.054 59.0178 339.628 58.6212 338.314C58.2662 337.523 57.861 336.757 57.408 336.019C56.9475 335.054 56.6771 334.009 56.2532 333.037C55.1496 330.574 51.6123 328.294 49.1274 330.311C49.0323 330.384 49.1274 330.515 49.2589 330.442V330.369Z" fill="black"/>
<path d="M49.5433 329.061C49.4858 329.587 49.5204 330.118 49.6456 330.632C49.6456 330.749 49.8503 330.698 49.821 330.581C49.702 330.084 49.6698 329.569 49.726 329.061C49.726 328.944 49.5579 328.944 49.5433 329.061V329.061Z" fill="black"/>
<path d="M56.2899 335.077C56.8695 335.035 57.4296 334.849 57.9197 334.536C58.0147 334.478 57.9197 334.317 57.8246 334.383C57.3623 334.676 56.8355 334.851 56.2899 334.894C56.1729 334.894 56.1729 335.084 56.2899 335.077Z" fill="black"/>
<path d="M57.1297 336.173C57.5538 336.136 57.9542 335.962 58.2698 335.676C58.3575 335.596 58.226 335.472 58.1383 335.545C57.8611 335.802 57.5062 335.958 57.1297 335.991C57.0128 335.991 57.0128 336.188 57.1297 336.173V336.173Z" fill="black"/>
<path d="M67.2378 317.032C67.2378 317.032 63.452 338.468 54.9521 341.15C54.9521 341.15 59.8867 343.429 61.3484 343.758C62.8101 344.087 62.2095 342.956 63.0208 340.252C63.832 337.547 65.3303 331.832 65.3303 331.832L66.4244 324.582L67.2378 317.032Z" fill="black"/>
<path d="M64.0508 356.629C64.0508 356.629 71.8344 359.414 87.6794 359.019C103.524 358.625 110.073 358.23 110.073 358.23L109.861 354.473C109.861 354.473 110.134 354.192 109.852 353.064C104.776 351.936 86.9485 347.925 80.3416 348.999C73.6073 348.999 70.3715 349.68 70.3715 349.68C70.3715 349.68 68.9615 349.68 67.8335 349.962C66.7438 351.733 64.0508 356.629 64.0508 356.629Z" fill="black"/>
<path d="M90.6982 424.6C90.6982 424.6 106.85 468.246 104.731 475.562C104.731 475.562 108.202 471.747 108.012 463.35C107.822 454.952 106.784 453.181 105.622 451.2C104.46 449.22 90.6982 424.6 90.6982 424.6Z" fill="black"/>
<path d="M66.7986 323.507C67.9972 320.584 69.6343 315.709 72.7551 314.218C76.0366 312.654 76.4094 317.054 76.7602 319.122C76.9717 320.801 77.3362 322.458 77.8492 324.07C78.4119 325.656 79.5374 327.725 81.5034 327.666C84.0834 327.556 84.7923 324.304 85.4501 322.397C86.6852 318.808 87.723 315.088 91.9547 314.196C93.8257 313.809 95.4336 314.196 96.2156 316.184C96.4501 316.901 96.6333 317.634 96.7637 318.377C97.1584 320.226 97.3338 322.097 97.6407 323.961C97.9769 325.97 98.8247 328.433 101.039 329.077C103.254 329.72 105.015 328.024 105.951 326.285C106.828 324.662 107.193 322.813 107.968 321.169C108.304 320.411 108.695 319.678 109.137 318.976C109.417 318.464 109.756 317.986 110.146 317.551C110.501 316.999 111.164 316.727 111.805 316.871C112.589 316.316 113.181 316.389 113.581 317.091C115.042 318.296 115.474 321.308 115.832 323.106C116.271 325.385 116.452 327.707 116.373 330.027C116.384 330.068 116.422 330.096 116.464 330.096C116.506 330.096 116.544 330.068 116.555 330.027C116.621 327.761 115.824 313.071 110.789 316.667C108.209 318.523 107.412 322.331 106.287 325.093C105.351 327.366 103.034 330.209 100.243 328.521C98.05 327.184 97.8819 324.363 97.575 322.097C97.3607 320.277 97.0163 318.474 96.5445 316.703C96.2229 315.548 95.8136 314.511 94.6223 314.065C92.364 313.232 89.2286 314.606 87.8107 316.396C85.7278 319.042 85.6839 322.791 84.0249 325.642C82.9871 327.439 80.853 328.09 79.3255 326.424C78.5492 325.462 78.0064 324.334 77.7395 323.127C77.1841 321.183 77.0087 319.174 76.614 317.193C76.4021 316.075 76.2486 314.525 75.1085 313.919C74.1229 313.518 72.9965 313.699 72.185 314.386C69.3128 316.433 67.9095 320.328 66.6378 323.471C66.594 323.573 66.7694 323.624 66.8132 323.515L66.7986 323.507Z" fill="black"/>
<path d="M62.0415 343.701C31.1775 337.569 61.1791 295.567 67.1063 290.129C74.5245 283.339 87.6799 285.642 87.6799 285.642C89.0571 282.304 89.6094 280.001 90.3945 275.515M65.5785 354.193C60.5025 348.835 62.0415 342.349 65.2965 331.351C66.8359 326.149 67.4585 314.713 67.5525 309.355M67.2705 349.963C82.7918 347.803 91.9488 348.8 109.852 353.065" stroke="black" stroke-width="0.5" stroke-linecap="round" stroke-linejoin="round"/>
<line x1="1" y1="563.75" x2="560.488" y2="563.75" stroke="black" stroke-width="0.5"/>
</svg>
