<svg width="564" height="488" viewBox="0 0 564 488" fill="none" xmlns="http://www.w3.org/2000/svg">
<path d="M180.474 103.424L190.66 93.2383C191.399 92.4997 191.687 91.4222 191.415 90.4133L187.684 76.5038C187.425 75.4896 186.634 74.6966 185.621 74.4335L171.705 70.7028C170.696 70.4335 169.62 70.721 168.879 71.4575L158.694 81.6435C157.954 82.3821 157.666 83.4596 157.939 84.4685L161.67 98.3852C161.939 99.3939 162.725 100.183 163.733 100.455L177.664 104.179C178.668 104.446 179.739 104.158 180.474 103.424Z" fill="#1B3C87"/>
<path d="M223.605 135.334C223.595 135.488 223.566 135.64 223.518 135.787" stroke="black" stroke-width="0.5"/>
<path d="M228.941 26.8691C229.801 26.01 231.194 26.01 232.053 26.8691L245.807 40.623C246.666 41.4822 246.666 42.8752 245.807 43.7343L232.053 57.4883C231.194 58.3474 229.801 58.3474 228.941 57.4883L215.188 43.7343C214.328 42.8752 214.328 41.4822 215.188 40.623L228.941 26.8691Z" fill="#FB5D64"/>
<path d="M120.473 109.593L103.94 128.542C103.589 128.93 103.477 129.478 103.648 129.973C103.818 130.468 104.244 130.831 104.759 130.921L129.43 135.759C129.941 135.869 130.472 135.692 130.816 135.298C131.16 134.903 131.262 134.353 131.083 133.861L122.939 110.075C122.777 109.579 122.359 109.209 121.847 109.109C121.335 109.009 120.809 109.194 120.473 109.593Z" fill="#ECC953"/>
<ellipse cx="131.895" cy="39.4197" rx="15.5916" ry="15.5916" fill="#46DBC9"/>
<path d="M128.84 105.179L156.817 113.022L164.724 115.243C164.832 115.279 164.882 115.106 164.767 115.07L136.804 107.228L128.897 105.007C128.864 104.985 128.82 104.988 128.789 105.012C128.758 105.037 128.746 105.079 128.759 105.116C128.772 105.154 128.807 105.179 128.847 105.179H128.84Z" fill="black"/>
<path d="M136.747 72.8957C141.937 75.6273 147.055 78.5026 152.101 81.5217C153.539 82.3843 154.977 83.2613 156.414 84.1455C156.508 84.203 156.601 84.0449 156.501 83.9873C151.502 80.9011 146.427 77.9539 141.276 75.1457C139.804 74.3406 138.319 73.5475 136.819 72.7663C136.718 72.7088 136.625 72.867 136.733 72.9173L136.747 72.8957Z" fill="black"/>
<path d="M193.428 61.588C197.352 66.7109 201.438 71.714 205.684 76.5973C206.906 77.9966 208.142 79.3912 209.393 80.7809C209.472 80.8672 209.594 80.7378 209.515 80.6515C205.202 75.888 201.05 70.9904 197.058 65.9585C195.888 64.4777 194.729 62.9897 193.578 61.4945C193.514 61.4083 193.356 61.4945 193.428 61.588Z" fill="black"/>
<path d="M220.52 75.2109L223.295 80.3865C223.352 80.4872 223.503 80.3865 223.453 80.2931L220.678 75.1247C220.649 75.0945 220.603 75.0875 220.566 75.1076C220.529 75.1277 220.51 75.17 220.52 75.2109Z" fill="black"/>
<path d="M229.887 42.4244L237.65 59.5686L245.421 76.7201L249.784 86.3525C249.827 86.4603 249.985 86.3525 249.935 86.259L242.171 69.1148L234.408 51.9705L230.045 42.3309C229.994 42.2303 229.843 42.3309 229.887 42.4244Z" fill="black"/>
<path d="M151.735 134.363L159.261 136.095C159.303 136.096 159.34 136.068 159.351 136.028C159.363 135.988 159.347 135.945 159.312 135.923L151.785 134.19C151.67 134.19 151.62 134.341 151.735 134.363Z" fill="black"/>
<rect x="191.37" y="89.144" width="255.616" height="398.401" rx="12.12" fill="#D6DEFF"/>
<rect x="183.085" y="89.144" width="255.616" height="398.401" rx="12.12" fill="#EBEFFE"/>
<rect x="191.37" y="89.144" width="255.616" height="398.401" rx="12.12" stroke="black" stroke-width="0.5"/>
<rect x="177.823" y="89.144" width="255.616" height="398.401" rx="12.12" fill="white"/>
<rect x="177.823" y="89.144" width="255.616" height="398.401" rx="12.12" stroke="black" stroke-width="0.5"/>
<path d="M212.408 104.48C203.997 104.48 197.18 97.6621 197.18 89.2519C197.18 80.8417 204.512 74.0239 212.408 74.0239C220.304 74.0239 226.226 81.5815 226.226 89.2519" stroke="#09101D" stroke-width="0.5" stroke-linecap="round" stroke-linejoin="round"/>
<path d="M230.173 104.48C221.763 104.48 214.945 97.6621 214.945 89.2519C214.945 80.8417 222.277 74.0239 230.173 74.0239C238.069 74.0239 243.991 81.5815 243.991 89.2519" stroke="#09101D" stroke-width="0.5" stroke-linecap="round" stroke-linejoin="round"/>
<path d="M247.94 104.48C239.53 104.48 232.712 97.6621 232.712 89.2519C232.712 80.8417 240.044 74.0239 247.94 74.0239C255.836 74.0239 261.758 81.5815 261.758 89.2519" stroke="#09101D" stroke-width="0.5" stroke-linecap="round" stroke-linejoin="round"/>
<path d="M265.706 104.48C257.295 104.48 250.478 97.6621 250.478 89.2519C250.478 80.8417 257.81 74.0239 265.706 74.0239C273.602 74.0239 279.524 81.5815 279.524 89.2519" stroke="#09101D" stroke-width="0.5" stroke-linecap="round" stroke-linejoin="round"/>
<path d="M283.472 104.48C275.062 104.48 268.244 97.6621 268.244 89.2519C268.244 80.8417 275.576 74.0239 283.472 74.0239C291.368 74.0239 297.29 81.5815 297.29 89.2519" stroke="#09101D" stroke-width="0.5" stroke-linecap="round" stroke-linejoin="round"/>
<path d="M301.238 104.48C292.828 104.48 286.01 97.6621 286.01 89.2519C286.01 80.8417 293.342 74.0239 301.238 74.0239C309.134 74.0239 315.056 81.5815 315.056 89.2519" stroke="#09101D" stroke-width="0.5" stroke-linecap="round" stroke-linejoin="round"/>
<path d="M319.003 104.48C310.593 104.48 303.775 97.6621 303.775 89.2519C303.775 80.8417 311.107 74.0239 319.003 74.0239C326.899 74.0239 332.821 81.5815 332.821 89.2519" stroke="#09101D" stroke-width="0.5" stroke-linecap="round" stroke-linejoin="round"/>
<path d="M336.77 104.48C328.36 104.48 321.542 97.6621 321.542 89.2519C321.542 80.8417 328.874 74.0239 336.77 74.0239C344.666 74.0239 350.588 81.5815 350.588 89.2519" stroke="#09101D" stroke-width="0.5" stroke-linecap="round" stroke-linejoin="round"/>
<path d="M354.536 104.48C346.125 104.48 339.308 97.6621 339.308 89.2519C339.308 80.8417 346.64 74.0239 354.536 74.0239C362.432 74.0239 368.354 81.5815 368.354 89.2519" stroke="#09101D" stroke-width="0.5" stroke-linecap="round" stroke-linejoin="round"/>
<path d="M372.301 104.48C363.891 104.48 357.073 97.6621 357.073 89.2519C357.073 80.8417 364.405 74.0239 372.301 74.0239C380.197 74.0239 386.119 81.5815 386.119 89.2519" stroke="#09101D" stroke-width="0.5" stroke-linecap="round" stroke-linejoin="round"/>
<path d="M390.068 104.48C381.658 104.48 374.84 97.6621 374.84 89.2519C374.84 80.8417 382.172 74.0239 390.068 74.0239C397.964 74.0239 403.886 81.5815 403.886 89.2519" stroke="#09101D" stroke-width="0.5" stroke-linecap="round" stroke-linejoin="round"/>
<path d="M407.833 104.48C399.423 104.48 392.605 97.6621 392.605 89.2519C392.605 80.8417 399.937 74.0239 407.833 74.0239C415.729 74.0239 421.651 81.5815 421.651 89.2519" stroke="#09101D" stroke-width="0.5" stroke-linecap="round" stroke-linejoin="round"/>
<line x1="0.25" y1="-0.25" x2="4.26199" y2="-0.25" transform="matrix(7.75021e-08 1 1 -2.46534e-08 408.397 102.224)" stroke="black" stroke-width="0.5" stroke-linecap="round"/>
<line x1="0.25" y1="-0.25" x2="4.26199" y2="-0.25" transform="matrix(7.75021e-08 1 1 -2.46534e-08 390.914 102.224)" stroke="black" stroke-width="0.5" stroke-linecap="round"/>
<line x1="0.25" y1="-0.25" x2="4.26199" y2="-0.25" transform="matrix(7.75021e-08 1 1 -2.46534e-08 372.865 102.224)" stroke="black" stroke-width="0.5" stroke-linecap="round"/>
<line x1="0.25" y1="-0.25" x2="4.26199" y2="-0.25" transform="matrix(7.75021e-08 1 1 -2.46534e-08 355.382 102.224)" stroke="black" stroke-width="0.5" stroke-linecap="round"/>
<line x1="0.25" y1="-0.25" x2="4.26199" y2="-0.25" transform="matrix(7.75021e-08 1 1 -2.46534e-08 337.334 102.224)" stroke="black" stroke-width="0.5" stroke-linecap="round"/>
<line x1="0.25" y1="-0.25" x2="4.26199" y2="-0.25" transform="matrix(7.75021e-08 1 1 -2.46534e-08 319.85 102.224)" stroke="black" stroke-width="0.5" stroke-linecap="round"/>
<line x1="0.25" y1="-0.25" x2="4.26199" y2="-0.25" transform="matrix(7.75021e-08 1 1 -2.46534e-08 301.802 102.224)" stroke="black" stroke-width="0.5" stroke-linecap="round"/>
<line x1="0.25" y1="-0.25" x2="4.26199" y2="-0.25" transform="matrix(7.75021e-08 1 1 -2.46534e-08 283.754 102.224)" stroke="black" stroke-width="0.5" stroke-linecap="round"/>
<line x1="0.25" y1="-0.25" x2="4.26199" y2="-0.25" transform="matrix(7.75021e-08 1 1 -2.46534e-08 266.27 102.224)" stroke="black" stroke-width="0.5" stroke-linecap="round"/>
<line x1="0.25" y1="-0.25" x2="4.26199" y2="-0.25" transform="matrix(7.75021e-08 1 1 -2.46534e-08 248.222 102.224)" stroke="black" stroke-width="0.5" stroke-linecap="round"/>
<line x1="0.25" y1="-0.25" x2="4.26199" y2="-0.25" transform="matrix(7.75021e-08 1 1 -2.46534e-08 230.737 102.224)" stroke="black" stroke-width="0.5" stroke-linecap="round"/>
<path d="M212.689 102.506L212.689 106.454" stroke="black" stroke-width="0.5" stroke-linecap="round"/>
<rect x="0.25" y="-0.25" width="215.512" height="75.64" rx="4.75" transform="matrix(1 0 0 -1 198.871 467.76)" fill="#D6DEFF" stroke="#09101D" stroke-width="0.5"/>
<rect x="0.25" y="-0.25" width="50.824" height="55.9" rx="4.75" transform="matrix(1 0 0 -1 198.871 366.804)" fill="#EBEFFE" stroke="#09101D" stroke-width="0.5"/>
<rect x="0.25" y="-0.25" width="50.824" height="55.9" rx="4.75" transform="matrix(1 0 0 -1 198.871 279.384)" fill="#EBEFFE" stroke="#09101D" stroke-width="0.5"/>
<rect x="0.25" y="-0.25" width="50.824" height="55.9" rx="4.75" transform="matrix(1 0 0 -1 198.871 191.964)" fill="#EBEFFE" stroke="#09101D" stroke-width="0.5"/>
<path d="M209.587 162.915L224.815 178.364L262.039 138.884" stroke="black" stroke-width="0.5" stroke-linecap="round" stroke-linejoin="round"/>
<path d="M209.587 250.335L224.815 265.784L262.039 226.304" stroke="black" stroke-width="0.5" stroke-linecap="round" stroke-linejoin="round"/>
<path d="M209.587 337.755L224.815 353.204L262.039 313.724" stroke="black" stroke-width="0.5" stroke-linecap="round" stroke-linejoin="round"/>
<ellipse cx="306.877" cy="430.19" rx="20.022" ry="20.022" fill="white" stroke="#46DBC9" stroke-width="0.5"/>
<path d="M295.88 431.968L302.102 438.368L317.312 422.012" stroke="#46DBC9" stroke-width="1.5" stroke-linecap="round" stroke-linejoin="round"/>
<path d="M406.423 152.132H279.523" stroke="black" stroke-width="0.5"/>
<path d="M406.423 241.808H279.523" stroke="black" stroke-width="0.5"/>
<path d="M406.423 331.484H279.523" stroke="black" stroke-width="0.5"/>
<path d="M368.366 161.058H279.523" stroke="#D6DEFF" stroke-width="0.5"/>
<path d="M368.366 168.022H279.523" stroke="#D6DEFF" stroke-width="0.5"/>
<path d="M343.953 174.987H279.523" stroke="#D6DEFF" stroke-width="0.5"/>
<path d="M368.366 250.734H279.523" stroke="#D6DEFF" stroke-width="0.5"/>
<path d="M368.366 257.699H279.523" stroke="#D6DEFF" stroke-width="0.5"/>
<path d="M343.953 264.663H279.523" stroke="#D6DEFF" stroke-width="0.5"/>
<path d="M368.366 340.41H279.523" stroke="#D6DEFF" stroke-width="0.5"/>
<path d="M368.366 347.375H279.523" stroke="#D6DEFF" stroke-width="0.5"/>
<path d="M343.953 354.339H279.523" stroke="#D6DEFF" stroke-width="0.5"/>
<path d="M540.092 232.227H514.148L513.302 233.072L507.662 265.784H535.016C535.204 265.878 535.693 265.953 536.144 265.502C536.595 265.051 536.708 264.562 536.708 264.374L542.348 234.482C542.254 234.294 542.01 233.693 541.784 232.791C541.559 231.888 540.562 232.039 540.092 232.227Z" fill="#EBEFFE"/>
<path d="M529.094 226.868C525.936 226.643 524.77 230.158 524.582 231.944L534.17 232.226L533.606 229.688C533.418 228.842 532.252 227.094 529.094 226.868Z" fill="white"/>
<path d="M483.41 221.51V213.05L479.462 202.334L491.87 194.438L500.894 199.232L501.458 206.564C501.364 208.914 500.668 213.783 499.766 215.588C498.864 217.393 496.382 218.502 495.254 218.69L494.972 222.074L498.638 223.484L498.92 227.15C499.484 226.868 501.12 226.248 503.15 226.022C505.688 225.74 506.252 225.176 509.636 226.304C512.343 227.206 513.772 230.628 514.148 232.226L513.302 233.072L510.764 246.326H513.584C518.66 245.198 513.584 253.094 509.636 254.504L507.38 264.938L508.508 266.066H525.71L523.736 269.168C522.89 270.39 520.578 273.229 518.096 274.808C514.994 276.782 513.302 277.064 510.764 277.064C508.734 277.064 507.098 275.936 506.534 275.372L504.842 277.628L503.432 277.346V280.73C503.432 282.704 507.662 294.83 509.354 298.778C511.046 302.726 524.018 345.872 526.274 354.896C528.53 363.92 536.426 400.58 539.246 409.04C542.066 417.5 543.758 429.626 542.912 434.702C542.235 438.763 535.486 441.47 532.196 442.316L536.426 478.412L543.194 484.616C543.476 484.992 543.984 485.913 543.758 486.59C543.532 487.267 542.912 487.624 542.63 487.718H524.3L513.584 444.29C508.132 444.478 495.818 444.91 490.178 445.136C484.538 445.362 470.344 443.35 463.952 442.316L453.518 479.258L458.03 486.026L457.184 487.718H445.058C444.024 487.53 441.73 487.041 440.828 486.59C439.926 486.139 439.888 484.898 439.982 484.334L444.494 437.24L439.982 435.83C439.418 435.36 437.839 433.912 436.034 431.882C434.229 429.852 435.094 426.148 435.752 424.55C441.392 402.648 452.898 357.208 453.8 350.666C454.928 342.488 453.236 328.106 453.8 317.672C454.364 307.238 456.056 300.47 456.902 295.958C457.579 292.348 459.44 287.686 460.286 285.806L463.67 278.756L460.85 260.426C460.38 258.734 459.214 254.053 458.312 248.864C457.184 242.378 457.466 236.738 458.312 234.482C459.158 232.226 459.722 230.252 464.798 227.15C468.859 224.668 475.702 225.928 478.616 226.868C479.086 225.082 479.293 221.679 479.744 221.228C480.195 220.777 482.658 221.134 483.41 221.51Z" fill="white"/>
<path d="M491.198 206.072L491.269 206.015L491.205 206.079L491.262 206.007L491.219 206.086V206C491.216 206.031 491.216 206.062 491.219 206.093V206C491.212 206.041 491.212 206.082 491.219 206.122L491.176 206.036C491.198 206.084 491.225 206.129 491.255 206.172L491.198 206.101H491.234L491.162 206.043L491.076 206.007H490.94L490.854 206.043L490.782 206.093L490.725 206.165L490.689 206.251V206.344V206.437V206.387V206.473L490.553 206.165C490.525 206.128 490.51 206.083 490.51 206.036C490.499 205.989 490.499 205.94 490.51 205.893C490.535 205.802 490.594 205.725 490.675 205.678C490.757 205.631 490.855 205.618 490.947 205.642C491.039 205.665 491.117 205.724 491.162 205.807C491.226 205.936 491.291 206.072 491.348 206.208C491.355 206.256 491.355 206.304 491.348 206.351C491.348 206.351 491.348 206.402 491.348 206.423C491.343 206.476 491.325 206.528 491.298 206.574C491.205 206.736 491.015 206.818 490.832 206.774C490.72 206.744 490.621 206.675 490.553 206.581C490.504 206.518 490.465 206.448 490.438 206.373C490.365 206.214 490.347 206.035 490.388 205.864C490.403 205.815 490.422 205.767 490.446 205.721C490.442 205.697 490.442 205.673 490.446 205.649C490.507 205.561 490.585 205.486 490.675 205.427C490.761 205.384 490.86 205.371 490.954 205.391C491.045 205.416 491.122 205.475 491.169 205.556C491.217 205.641 491.229 205.741 491.205 205.836C491.176 205.924 491.118 206 491.04 206.05L491.198 206.072Z" fill="black"/>
<path d="M498.492 206.451L498.564 206.394L498.499 206.458L498.557 206.386L498.514 206.465L498.549 206.379C498.546 206.41 498.546 206.441 498.549 206.472V206.379C498.545 206.42 498.545 206.461 498.549 206.501L498.514 206.415C498.536 206.463 498.562 206.508 498.592 206.551L498.535 206.48V206.515L498.464 206.458H498.499L498.413 206.422H498.32H498.22L498.134 206.458L498.062 206.515L498.005 206.587V206.673V206.766V206.73V206.831V206.773V206.859C497.962 206.759 497.912 206.659 497.869 206.551C497.84 206.515 497.825 206.469 497.826 206.422C497.812 206.376 497.812 206.326 497.826 206.279C497.851 206.189 497.91 206.111 497.991 206.064C498.073 206.016 498.171 206.004 498.263 206.028C498.354 206.051 498.432 206.11 498.478 206.193C498.542 206.329 498.607 206.458 498.657 206.594C498.666 206.642 498.666 206.69 498.657 206.738C498.657 206.738 498.657 206.788 498.657 206.816C498.651 206.867 498.634 206.916 498.607 206.96C498.513 207.123 498.324 207.204 498.141 207.16C498.029 207.13 497.93 207.061 497.862 206.967C497.812 206.904 497.773 206.834 497.747 206.759C497.674 206.6 497.656 206.421 497.697 206.25C497.712 206.201 497.731 206.153 497.754 206.107C497.763 206.084 497.775 206.062 497.79 206.043C497.849 205.951 497.928 205.873 498.019 205.813C498.192 205.715 498.411 205.772 498.514 205.942C498.549 206.032 498.549 206.132 498.514 206.222C498.485 206.31 498.427 206.386 498.349 206.437L498.492 206.451Z" fill="black"/>
<path d="M483.574 207.812C482.01 207.195 480.838 205.862 480.429 204.23C480.173 203.353 480.408 202.406 481.045 201.751C481.71 201.191 482.639 201.062 483.431 201.422C484.311 201.821 484.944 202.622 485.129 203.571C485.222 204.022 484.534 204.216 484.413 203.764C484.279 202.937 483.687 202.257 482.886 202.009C482.485 201.888 482.051 201.948 481.699 202.174C481.346 202.4 481.11 202.769 481.052 203.184C480.994 204.053 481.265 204.913 481.812 205.591C482.309 206.255 482.974 206.775 483.739 207.096C483.929 207.152 484.041 207.349 483.99 207.54C483.938 207.729 483.743 207.841 483.553 207.791L483.574 207.812Z" fill="black"/>
<path d="M482.113 203.285C482.305 203.14 482.563 203.115 482.779 203.221C483.015 203.351 483.201 203.555 483.31 203.801C483.596 204.364 483.755 204.983 483.775 205.614C483.775 205.729 483.603 205.729 483.596 205.614C483.58 205.073 483.453 204.542 483.224 204.052C483.142 203.835 483.015 203.637 482.851 203.472C482.687 203.305 482.431 203.27 482.228 203.386C482.142 203.465 482.013 203.336 482.099 203.264L482.113 203.285Z" fill="black"/>
<path d="M482.744 204.308C482.837 204.162 483.015 204.094 483.181 204.143C483.36 204.204 483.504 204.34 483.575 204.516C483.591 204.532 483.601 204.554 483.601 204.577C483.601 204.6 483.591 204.622 483.575 204.638C483.54 204.668 483.488 204.668 483.453 204.638C483.423 204.576 483.384 204.518 483.339 204.466C483.296 204.415 483.242 204.376 483.181 204.351H482.995C482.995 204.394 482.916 204.401 482.873 204.351C482.843 204.316 482.843 204.264 482.873 204.229L482.744 204.308Z" fill="black"/>
<path d="M487.64 216.152C487.64 216.152 490.575 222.184 494.952 224.398L494.995 221.977L495.132 218.76C495.132 218.76 495.526 218.588 494.451 218.817C491.965 219.34 488.543 217.098 487.64 216.152Z" fill="black"/>
<path d="M502.661 200.927L497.08 200.533C496.005 200.455 495.039 199.845 494.508 198.907L493.333 196.836V199.702C493.338 200.113 493.026 200.46 492.617 200.497C491.112 200.648 487.673 201.042 486.412 201.629C485.516 201.954 484.882 202.76 484.778 203.707C484.778 203.707 483.345 201.35 481.998 201.686C480.651 202.023 480.501 203.564 480.823 204.388C481.201 205.148 481.655 205.868 482.178 206.537C482.884 207.011 483.263 207.842 483.159 208.686C483.044 210.205 483.159 213.437 483.159 213.437C483.159 213.437 475.844 207.705 477.714 198.613C477.714 198.613 476.195 201.88 471.531 200.712C466.866 199.544 468.844 194.407 466.745 192.895C464.645 191.384 459.974 187.995 463.829 184.842C467.683 181.69 470.162 188.51 473.981 187.601C479.713 186.239 482.822 191.262 480.702 194.178C483.06 190.723 486.938 188.616 491.119 188.518C496.6 188.382 503.048 191.169 503.378 200.268C503.374 200.452 503.296 200.626 503.161 200.751C503.025 200.875 502.845 200.939 502.661 200.927Z" fill="black"/>
<path d="M477.012 226.706C477.012 226.706 463.556 222.199 458.727 233.556C453.898 244.912 464.33 277.26 473.2 279.31C481.798 281.258 500.691 268.792 506.215 259.248C506.578 258.637 507.066 258.109 507.648 257.701C508.501 257.085 509.518 255.967 508.429 254.606" stroke="black" stroke-width="0.5" stroke-linecap="round" stroke-linejoin="round"/>
<path d="M503.392 248.028C502.863 247.635 502.191 247.488 501.546 247.625C500.902 247.762 500.347 248.17 500.024 248.745C499.681 249.272 499.18 249.676 498.592 249.898C495.26 251.248 484.677 255.722 478.333 260.524M473.952 265.087C474.747 263.592 476.328 262.042 478.333 260.524M478.333 260.524L475.513 252.248M509.353 243.224C508.487 243.614 507.187 244.338 505.969 245.293M502.867 249.428C503.232 247.846 504.544 246.412 505.969 245.293M505.969 245.293C505.405 244.509 504.446 242.321 505.123 239.84M502.585 249.146C503.897 251.425 504.734 252.746 506.713 254.695M507.097 255.068C506.964 254.941 506.836 254.817 506.713 254.695M506.713 254.695C507.969 254.725 510.932 254.504 512.737 253.376M511.327 251.402C512.424 251.47 513.04 251.453 514.147 251.12M513.019 249.146C513.99 249.17 514.545 249.098 515.557 248.745M509.071 246.326C512.333 246.769 514.187 246.662 517.531 245.762" stroke="black" stroke-width="0.5" stroke-linecap="round" stroke-linejoin="round"/>
<path d="M510.708 246.623L512.993 233.877C513.173 232.883 514.039 232.159 515.05 232.158H524.3M509.525 254.433L507.684 263.418C507.557 264.033 507.714 264.673 508.111 265.16C508.509 265.646 509.105 265.927 509.733 265.925H534.674C535.681 265.924 536.543 265.204 536.723 264.213L542.182 234.623C542.293 234.013 542.127 233.386 541.73 232.91C541.333 232.434 540.746 232.159 540.126 232.158H534.17M524.3 232.158C524.3 229.124 526.274 226.868 527.966 226.868M524.3 232.158H534.17M530.504 226.868C531.82 227.199 534.395 228.719 534.17 232.158" stroke="black" stroke-width="0.5" stroke-linecap="round" stroke-linejoin="round"/>
<path d="M538.098 233.611C538.416 233.467 538.671 233.213 538.815 232.895C538.995 232.554 539.053 232.162 538.98 231.784C538.894 231.498 538.604 231.326 538.312 231.388C538.02 231.45 537.824 231.725 537.862 232.02C537.862 232.218 537.701 232.379 537.504 232.379C537.306 232.379 537.145 232.218 537.145 232.02C537.118 231.557 537.335 231.114 537.719 230.853C538.109 230.596 538.608 230.572 539.023 230.788C539.968 231.254 539.825 232.529 539.402 233.317C539.162 233.765 538.771 234.112 538.299 234.299C538.171 234.332 538.035 234.295 537.942 234.2C537.849 234.106 537.814 233.97 537.849 233.842C537.884 233.715 537.985 233.616 538.113 233.582L538.098 233.611Z" fill="black"/>
<path d="M534.709 233.611C535.027 233.467 535.282 233.213 535.426 232.895C535.606 232.554 535.664 232.162 535.59 231.784C535.505 231.498 535.214 231.326 534.923 231.388C534.631 231.45 534.435 231.725 534.473 232.02C534.473 232.218 534.312 232.379 534.114 232.379C533.917 232.379 533.756 232.218 533.756 232.02C533.729 231.557 533.946 231.114 534.329 230.853C534.72 230.596 535.219 230.572 535.633 230.788C536.572 231.254 536.436 232.529 536.013 233.317C535.773 233.765 535.382 234.112 534.91 234.299C534.782 234.332 534.646 234.295 534.553 234.2C534.46 234.106 534.425 233.97 534.46 233.842C534.495 233.715 534.595 233.616 534.723 233.582L534.709 233.611Z" fill="black"/>
<path d="M531.321 233.611C531.639 233.468 531.894 233.213 532.038 232.895C532.218 232.554 532.276 232.162 532.202 231.784C532.117 231.499 531.826 231.326 531.535 231.388C531.243 231.45 531.047 231.725 531.085 232.021C531.085 232.218 530.924 232.379 530.726 232.379C530.529 232.379 530.368 232.218 530.368 232.021C530.341 231.558 530.558 231.114 530.941 230.853C531.33 230.596 531.827 230.572 532.238 230.788C533.184 231.254 533.048 232.529 532.625 233.317C532.385 233.765 531.994 234.112 531.522 234.299C531.394 234.332 531.258 234.295 531.165 234.201C531.072 234.106 531.037 233.97 531.072 233.842C531.107 233.715 531.207 233.616 531.335 233.583L531.321 233.611Z" fill="black"/>
<path d="M527.925 233.611C528.246 233.472 528.502 233.216 528.641 232.895C528.821 232.554 528.88 232.162 528.806 231.784C528.723 231.498 528.441 231.317 528.147 231.362C527.844 231.426 527.644 231.714 527.688 232.021C527.688 232.219 527.528 232.379 527.33 232.379C527.132 232.379 526.972 232.219 526.972 232.021C526.944 231.558 527.162 231.114 527.545 230.853C527.933 230.596 528.43 230.572 528.842 230.788C529.787 231.254 529.651 232.529 529.229 233.317C528.988 233.765 528.597 234.112 528.125 234.299C527.927 234.352 527.724 234.235 527.67 234.038C527.617 233.84 527.734 233.636 527.932 233.583L527.925 233.611Z" fill="black"/>
<path d="M524.536 233.611C524.854 233.468 525.109 233.213 525.252 232.895C525.433 232.554 525.491 232.162 525.417 231.784C525.375 231.583 525.229 231.42 525.034 231.356C524.838 231.292 524.624 231.337 524.471 231.474C524.318 231.612 524.25 231.82 524.292 232.021C524.292 232.219 524.132 232.379 523.934 232.379C523.739 232.372 523.583 232.215 523.576 232.021C523.554 231.557 523.774 231.115 524.156 230.853C524.544 230.596 525.041 230.572 525.453 230.788C526.399 231.254 526.263 232.529 525.84 233.318C525.6 233.765 525.209 234.112 524.737 234.299C524.609 234.334 524.472 234.297 524.378 234.204C524.284 234.11 524.247 233.974 524.281 233.845C524.315 233.717 524.415 233.617 524.543 233.583L524.536 233.611Z" fill="black"/>
<path d="M521.146 233.611C521.464 233.467 521.719 233.213 521.863 232.895C522.043 232.554 522.101 232.162 522.028 231.784C521.985 231.583 521.839 231.42 521.644 231.356C521.449 231.292 521.234 231.337 521.082 231.474C520.929 231.611 520.86 231.82 520.903 232.02C520.903 232.218 520.742 232.379 520.544 232.379C520.348 232.375 520.19 232.217 520.186 232.02C520.164 231.559 520.381 231.118 520.759 230.853C521.15 230.596 521.649 230.572 522.063 230.788C523.009 231.254 522.866 232.529 522.45 233.317C522.21 233.765 521.819 234.112 521.347 234.299C521.219 234.333 521.082 234.297 520.988 234.204C520.894 234.11 520.858 233.973 520.892 233.845C520.926 233.717 521.025 233.617 521.153 233.582L521.146 233.611Z" fill="black"/>
<path d="M517.758 233.611C518.076 233.467 518.331 233.213 518.474 232.895C518.654 232.554 518.713 232.162 518.639 231.784C518.597 231.583 518.45 231.42 518.255 231.356C518.06 231.292 517.846 231.337 517.693 231.474C517.54 231.611 517.472 231.82 517.514 232.02C517.514 232.218 517.354 232.379 517.156 232.379C516.96 232.375 516.801 232.217 516.798 232.02C516.776 231.559 516.992 231.118 517.371 230.853C517.762 230.596 518.26 230.572 518.675 230.788C519.62 231.254 519.477 232.529 519.062 233.317C518.821 233.765 518.43 234.112 517.958 234.299C517.83 234.333 517.694 234.297 517.6 234.204C517.506 234.11 517.469 233.973 517.503 233.845C517.537 233.717 517.637 233.617 517.765 233.582L517.758 233.611Z" fill="black"/>
<path d="M499.037 227.294C499.037 227.294 511.217 221.089 513.982 232.159" stroke="black" stroke-width="0.5" stroke-linecap="round" stroke-linejoin="round"/>
<path d="M530.855 231.377L529.386 223.575L529.551 223.79C529.49 223.747 529.426 223.711 529.357 223.682C529.4 223.525 529.422 223.517 529.429 223.682C529.495 223.876 529.531 224.079 529.537 224.284L529.716 225.294L530.124 227.566L530.927 231.993C531.005 232.445 530.318 232.638 530.21 232.187L529.3 227.128L528.877 224.764C528.791 224.306 528.39 223.331 528.971 223.016C529.175 222.923 529.41 222.923 529.615 223.016C529.981 223.159 530.038 223.346 530.11 223.732L530.554 226.104L531.514 231.191C531.6 231.642 530.912 231.836 530.798 231.384L530.855 231.377Z" fill="black"/>
<path d="M503.1 277.985C497.57 277.787 492.066 278.64 486.542 278.631C485.799 278.631 485.055 278.631 484.312 278.545C483.486 278.414 482.65 278.478 481.842 278.735C481.437 278.898 481.258 278.071 481.669 277.873C482.997 277.33 484.444 277.709 485.812 277.735C487.18 277.761 488.468 277.735 489.795 277.649C492.703 277.511 495.598 277.27 498.499 277.141C500.039 277.072 501.573 277.037 503.113 277.089C503.538 277.089 503.538 277.951 503.113 277.951L503.1 277.985Z" fill="black"/>
<path d="M483.127 207.41C483.436 213.08 483.709 216.629 483.177 221.51M482.845 224.048C482.98 223.155 483.089 222.314 483.177 221.51M481.435 222.92C483.169 225.148 490.99 226.942 494.971 226.01M496.381 225.458C496.003 225.698 495.524 225.88 494.971 226.01M494.971 226.01L495.112 222.209M495.253 218.779L495.112 222.209M487.357 215.588C489.049 217.468 492.703 220.277 497.227 218.126C502.565 215.588 501.799 203.325 500.611 197.258M489.331 202.616C490.139 202.164 490.577 202.044 491.305 202.334M497.227 203.18C497.799 202.84 498.162 202.769 498.919 202.898M494.971 205.436C495.277 207.086 495.394 208.012 495.253 209.666M492.433 211.076C493.17 211.716 493.597 211.904 494.407 211.64M495.112 222.209C496.287 222.352 498.694 222.863 498.919 223.766C499.145 224.668 499.013 227.15 498.919 228.278M483.177 221.51C482.596 221.04 481.153 220.269 480.025 220.946C478.897 221.623 478.615 225.176 478.615 226.868" stroke="black" stroke-width="0.5" stroke-linecap="round" stroke-linejoin="round"/>
<path d="M461.013 260.545C461.013 260.545 460.505 276.436 463.306 277.21C465.804 277.771 468.34 278.147 470.894 278.335C468.797 276.748 467.071 274.724 465.835 272.403C463.913 268.585 462.301 264.62 461.013 260.545Z" fill="black" stroke="black" stroke-width="0.5" stroke-linecap="round" stroke-linejoin="round"/>
<path d="M463.477 275.268V275.49C463.457 278.18 462.786 280.826 461.521 283.2C452.658 300.202 453.088 327.506 454.027 341.513C454.457 347.808 453.876 354.131 452.307 360.242L435.477 425.484C434.309 429.992 436.764 434.649 441.145 436.231C463.491 444.349 487.379 446.326 510.972 444.671C520.243 444.019 532.76 444.134 540.441 438.101C547.584 432.498 540.491 414.716 538.943 407.594C536.959 398.487 534.601 389.467 532.588 380.368C524.334 343.025 509.245 298.461 504.717 285.406C503.842 282.888 503.394 280.241 503.392 277.575C505.121 278.105 506.022 276.939 506.455 275.372M507.097 268.886C507.321 270.7 506.958 273.547 506.455 275.372M506.455 275.372C510.847 280.116 522.889 273.962 525.709 266.066" stroke="black" stroke-width="0.5" stroke-linecap="round" stroke-linejoin="round"/>
<path d="M523.31 270.038C523.31 270.038 508.228 270.654 507.154 269.078C507.154 269.078 499.272 276.895 494.759 277.862C490.245 278.829 482.478 278.406 483.245 277.561C484.012 276.716 492.007 273.262 495.712 270.217C499.416 267.172 504.804 260.796 506.215 259.219C507.627 257.643 509.382 256.138 508.88 258.016C508.379 259.893 506.989 264.184 508.35 265.044C509.711 265.904 514.655 265.897 514.655 265.897H522.995C522.995 265.897 526.044 265.082 525.428 266.63" fill="black"/>
<path d="M503.594 280.714C503.594 280.714 497.325 286.166 481.139 288.502C464.954 290.837 460.226 285.915 460.226 285.915L461.845 282.555C462.414 281.039 462.892 279.492 463.278 277.919C463.314 277.203 465.606 274.151 466.387 274.731C467.168 275.311 469.432 278.485 472.599 279.137C474.757 279.548 476.978 279.492 479.112 278.973C479.563 278.851 488.426 277.275 489.142 277.576C489.859 277.876 498.672 277.69 498.793 277.683L502.06 277.597C502.38 277.452 502.752 277.488 503.037 277.692C503.322 277.896 503.477 278.237 503.443 278.586" fill="black"/>
<path d="M498.27 280.979C500.367 291.487 502.516 301.981 504.718 312.461C506.92 322.94 509.151 333.418 511.41 343.892C513.669 354.367 515.929 364.84 518.188 375.31C520.447 385.78 522.685 396.255 524.901 406.734C527.108 417.219 529.272 427.71 531.393 438.209C531.658 439.52 531.916 440.824 532.181 442.128C532.181 442.243 532.03 442.293 532.002 442.178C529.909 431.67 527.76 421.176 525.553 410.696C523.347 400.217 521.116 389.74 518.861 379.265C516.612 368.79 514.355 358.317 512.091 347.847C509.827 337.377 507.589 326.903 505.377 316.423C503.171 305.938 501.007 295.447 498.886 284.948C498.621 283.644 498.363 282.333 498.098 281.029C498.098 280.914 498.248 280.864 498.27 280.979Z" fill="black"/>
<path d="M491.528 285.048C492.502 295.25 493.72 305.431 495.11 315.591C496.5 325.75 498.041 335.917 499.667 346.062C501.293 356.208 503.027 366.525 504.733 376.756C506.481 387.209 508.215 397.663 509.855 408.131C511.546 418.878 513.137 429.625 514.563 440.372C514.742 441.726 514.921 443.073 515.093 444.427C515.093 444.542 514.928 444.542 514.914 444.427C513.481 433.479 511.919 422.553 510.228 411.641C508.587 401.095 506.853 390.563 505.098 380.03C503.386 369.778 501.659 359.532 500.004 349.279C498.37 339.177 496.801 329.061 495.39 318.922C493.957 308.892 492.739 298.861 491.721 288.78L491.356 285.055C491.356 284.94 491.528 284.94 491.535 285.055L491.528 285.048Z" fill="black"/>
<path d="M466.451 287.993C463.807 296.362 463.399 305.353 463.37 314.066C463.37 323.251 463.907 332.429 464.144 341.614C464.266 346.436 464.237 351.251 463.9 356.065C463.513 361.661 462.804 367.228 462.016 372.781C460.497 383.442 458.835 394.089 457.187 404.728C455.604 414.988 454.006 425.241 452.473 435.537C452.265 436.912 452.057 438.281 451.856 439.656C451.856 439.771 451.663 439.721 451.684 439.606C453.225 429.224 454.83 418.828 456.435 408.468C458.04 398.108 459.666 387.54 461.214 377.072C462.818 366.218 464.18 355.37 464.022 344.38C463.886 335.309 463.306 326.253 463.198 317.154C463.112 308.348 463.327 299.314 465.491 290.73C465.727 289.799 465.985 288.875 466.279 287.957C466.279 287.843 466.487 287.893 466.451 288V287.993Z" fill="black"/>
<path d="M473.909 288.359C474.439 308.85 475.034 329.341 475.485 349.839C475.707 360.042 475.815 370.251 475.442 380.447C475.084 390.399 474.289 400.329 473.594 410.267C472.813 421.393 472.161 432.549 472.326 443.712C472.314 443.751 472.278 443.779 472.236 443.779C472.195 443.779 472.158 443.751 472.147 443.712C471.817 423.65 474.224 403.732 475.127 383.736C476.051 363.388 475.127 342.99 474.618 322.642L473.73 288.359C473.741 288.319 473.778 288.291 473.82 288.291C473.861 288.291 473.898 288.319 473.909 288.359Z" fill="black"/>
<path fill-rule="evenodd" clip-rule="evenodd" d="M481.598 282.863C481.543 282.867 481.502 282.915 481.505 282.97L481.605 282.963L481.705 282.956C481.701 282.901 481.653 282.859 481.598 282.863ZM494.416 445.201C494.516 445.196 494.516 445.196 494.516 445.196L494.489 444.618C494.471 444.237 494.445 443.676 494.41 442.951C494.34 441.502 494.237 439.398 494.103 436.781C493.833 431.547 493.439 424.26 492.937 416.05C491.933 399.629 490.499 379.51 488.783 364.722C487.067 349.94 485.298 329.499 483.957 312.752C483.287 304.379 482.724 296.93 482.328 291.574C482.131 288.896 481.975 286.742 481.868 285.256C481.815 284.514 481.774 283.939 481.747 283.549L481.705 282.956C481.705 282.955 481.705 282.956 481.605 282.963C481.505 282.97 481.505 282.969 481.505 282.97L481.547 283.563C481.575 283.953 481.616 284.528 481.669 285.271C481.775 286.756 481.931 288.911 482.129 291.589C482.524 296.945 483.087 304.394 483.758 312.768C485.099 329.515 486.868 349.959 488.585 364.745C490.3 379.527 491.733 399.641 492.737 416.062C493.239 424.272 493.634 431.558 493.903 436.791C494.037 439.408 494.141 441.512 494.21 442.961C494.245 443.686 494.271 444.247 494.289 444.627L494.316 445.205C494.316 445.205 494.316 445.206 494.416 445.201ZM494.416 445.201L494.516 445.196C494.518 445.251 494.475 445.298 494.42 445.301C494.365 445.303 494.318 445.26 494.316 445.205L494.416 445.201Z" fill="black"/>
<path fill-rule="evenodd" clip-rule="evenodd" d="M513.194 444.42L532.094 442.156C532.094 442.156 535.268 476.268 536.357 478.295C537.016 479.52 540.656 482.68 543.429 484.973C543.913 485.366 544.095 486.023 543.884 486.609C543.673 487.196 543.114 487.586 542.49 487.581H524.063C524.22 487.581 521.018 472.692 519.828 468.3C517.686 460.369 514.906 449.715 513.194 444.42V444.42Z" stroke="black" stroke-width="0.5" stroke-linecap="round" stroke-linejoin="round"/>
<path d="M463.836 442.371L453.698 479.19C453.604 479.53 453.67 479.894 453.877 480.179L457.753 485.624C458.005 485.981 458.037 486.447 457.836 486.835C457.636 487.222 457.236 487.465 456.8 487.466H443.452C442.472 487.466 441.539 487.043 440.891 486.307C440.244 485.57 439.945 484.591 440.071 483.618C440.744 478.388 441.912 468.422 442.542 457.589C442.987 450.123 444.634 437.434 444.634 437.434" stroke="black" stroke-width="0.5" stroke-linecap="round" stroke-linejoin="round"/>
<path d="M529.587 442.787C529.587 442.787 532.345 441.676 532.224 443.553C532.102 445.43 533.033 451.85 533.033 451.85C533.033 451.85 519.098 455.511 516.268 455.053L514.183 447.651C514.183 447.651 511.797 444.069 514.477 444.413C517.156 444.757 524.858 443.596 524.858 443.596" fill="black"/>
<path d="M462.64 446.635L460.856 452.99C460.856 452.99 447.53 451.736 443.367 447.767L444.456 438.775C444.456 438.775 443.947 437.299 447.243 438.281C450.539 439.262 459.581 441.512 459.581 441.512L462.332 442.465C462.332 442.465 463.98 441.935 463.478 443.712" fill="black"/>
<path d="M539.367 481.67C536.868 482.754 534.051 482.849 531.485 481.935C530.052 481.427 528.87 480.502 527.394 480.245C525.862 480.015 524.305 480.015 522.773 480.245C522.658 480.245 522.658 480.073 522.773 480.065C524.164 479.869 525.574 479.84 526.972 479.979C528.405 480.18 529.551 480.882 530.855 481.47C533.539 482.641 536.59 482.641 539.274 481.47C539.381 481.427 539.467 481.584 539.367 481.627V481.67Z" fill="black"/>
<path d="M455.926 482.967L451.097 482.888C449.734 482.982 448.368 482.769 447.099 482.265C444.749 481.097 443.516 478.009 440.65 477.779C440.536 477.779 440.536 477.593 440.65 477.6C443.323 477.822 444.612 480.509 446.669 481.827C448.001 482.68 449.535 482.687 451.075 482.709L455.904 482.788C455.944 482.799 455.972 482.836 455.972 482.877C455.972 482.919 455.944 482.955 455.904 482.967H455.926Z" fill="black"/>
<path d="M527.645 476.777C527.162 476.538 526.799 476.11 526.642 475.595C526.642 475.48 526.786 475.43 526.814 475.544C526.944 476.024 527.272 476.426 527.717 476.648C527.817 476.705 527.717 476.856 527.624 476.805L527.645 476.777Z" fill="black"/>
<path d="M445.874 475.731L446.239 477.163C446.247 477.194 446.238 477.227 446.215 477.249C446.192 477.271 446.159 477.279 446.129 477.27C446.098 477.261 446.075 477.237 446.067 477.206L445.702 475.773C445.702 475.666 445.845 475.616 445.874 475.723V475.731Z" fill="black"/>
<path d="M501.135 247.362C501.196 244.972 499.472 242.91 497.109 242.546C494.746 242.183 492.481 243.632 491.821 245.929C491.805 245.96 491.773 245.979 491.739 245.979C491.704 245.979 491.672 245.96 491.656 245.929C490.719 244.093 489.468 242.434 487.959 241.028C486.359 239.599 484.109 239.152 482.084 239.861C479.928 240.653 478.404 242.594 478.144 244.876C478.013 245.938 478.125 247.016 478.473 248.028C478.923 249.105 479.537 250.106 480.293 250.995C480.941 251.921 481.425 252.95 481.726 254.04C481.971 255.153 482.545 256.166 483.374 256.948C483.467 257.02 483.338 257.149 483.252 257.077C481.525 255.716 481.59 253.194 480.429 251.46C479.66 250.514 478.995 249.489 478.445 248.401C478.016 247.326 477.853 246.163 477.972 245.012C478.169 242.865 479.458 240.97 481.382 239.997C483.24 239.05 485.46 239.153 487.221 240.269C489.299 241.566 490.639 243.787 491.835 245.857H491.671C492.354 243.489 494.684 241.991 497.123 242.353C499.561 242.715 501.356 244.826 501.322 247.29C501.332 247.328 501.318 247.369 501.286 247.392C501.254 247.415 501.21 247.415 501.178 247.392C501.146 247.369 501.132 247.328 501.142 247.29L501.135 247.362Z" fill="black"/>
<path d="M499.15 249.511C499.261 248.603 499.075 247.683 498.62 246.889C498.176 246.115 497.144 244.955 496.134 245.213C495.124 245.47 494.457 246.524 493.906 247.24C493.286 248.044 492.748 248.908 492.301 249.819C492.301 249.884 492.179 249.87 492.143 249.819C491.064 248.271 489.851 246.821 488.518 245.485C487.293 244.245 485.652 242.54 483.725 242.848C481.955 243.135 480.859 244.998 480.859 246.667C480.85 247.515 481.084 248.347 481.532 249.067C482.076 249.746 482.67 250.384 483.309 250.973C483.877 251.626 484.297 252.393 484.542 253.223C484.821 254.118 485 255.136 485.795 255.73C485.888 255.802 485.795 255.96 485.702 255.888C485.139 255.405 484.749 254.751 484.592 254.025C484.353 253.01 483.91 252.054 483.288 251.217C482.607 250.573 481.97 249.883 481.382 249.153C480.943 248.469 480.696 247.68 480.665 246.868C480.557 245.192 481.467 243.615 482.972 242.87C484.699 242.153 486.397 243.285 487.637 244.417C489.364 246.015 490.914 247.795 492.258 249.726H492.1C492.621 248.667 493.263 247.671 494.013 246.76C494.594 246.044 495.446 244.919 496.471 245.005C497.387 245.214 498.17 245.806 498.62 246.631C499.161 247.483 499.391 248.495 499.272 249.497C499.272 249.612 499.079 249.612 499.093 249.497L499.15 249.511Z" fill="black"/>
<path d="M497.21 250.507C497.235 250.116 497.163 249.725 497.002 249.368C496.636 248.723 495.956 249.024 495.533 249.425C494.766 250.142 494.1 251.009 493.384 251.79C492.939 252.277 492.467 252.886 491.75 252.506C491.432 252.319 491.151 252.076 490.919 251.79L489.794 250.543L487.645 248.114C487.308 247.749 486.985 247.398 486.649 247.011C486.327 246.555 485.832 246.252 485.28 246.172C484.349 246.172 484.12 247.362 484.177 248.093C484.266 249.04 484.6 249.949 485.144 250.729C486.126 252.162 487.852 253.051 488.411 254.777C488.447 254.885 488.275 254.935 488.239 254.827C487.652 253.015 485.739 252.105 484.793 250.529C484.163 249.461 483.36 247.183 484.635 246.23C485.255 245.877 486.039 246.032 486.477 246.595C487.322 247.391 488.06 248.322 488.834 249.182C489.608 250.041 490.446 251.03 491.299 251.911C491.486 252.147 491.734 252.328 492.015 252.434C492.367 252.486 492.717 252.333 492.918 252.04C493.341 251.589 493.749 251.13 494.157 250.679C494.588 250.159 495.047 249.664 495.533 249.196C495.775 248.939 496.111 248.791 496.464 248.788C497.281 248.852 497.41 249.855 497.41 250.5C497.41 250.615 497.238 250.615 497.231 250.5L497.21 250.507Z" fill="black"/>
<path d="M490.131 253.488C488.886 252.412 487.781 251.184 486.842 249.834C486.771 249.74 486.928 249.654 486.993 249.748C487.931 251.082 489.028 252.297 490.26 253.366C490.346 253.437 490.217 253.566 490.131 253.488Z" fill="black"/>
<path d="M90.0192 206L95.3771 183.44L106.093 177.236L110.605 187.388C110.981 187.764 111.733 188.685 111.733 189.362C111.733 190.039 111.169 190.584 110.887 190.772C111.451 192.84 112.241 197.427 110.887 199.232C109.534 201.037 107.691 201.676 106.939 201.77L105.811 202.052L104.683 209.666C106.657 209.196 111.564 208.2 115.399 207.974C120.193 207.692 129.781 207.692 134.011 207.41C138.241 207.128 145.573 205.718 148.393 204.59C151.213 203.462 157.699 200.078 159.673 198.104C161.252 196.525 172.363 181.466 177.721 174.134L184.489 163.136L187.873 175.826C186.275 182.124 181.819 195.891 179.131 201.77C174.619 211.64 168.979 218.126 160.801 222.92C152.623 227.714 133.447 235.046 122.731 234.2C121.58 239.645 120.107 244.819 119.065 248.864L121.885 246.326C126.456 247.105 127.28 249.138 128.653 252.812L128.564 252.842C127.501 253.196 127.056 253.344 126.397 254.222C125.72 255.125 128.371 255.35 127.243 256.478C126.585 257.418 124.705 260.426 123.577 260.426C120.757 260.426 118.314 262.306 116.247 263.246C116.291 267.698 116.831 272.683 115.399 276.5C113.707 281.012 112.109 281.012 111.169 281.294C111.075 281.388 110.605 282.084 111.733 285.242C113.143 289.19 130.345 326.696 134.293 338.54C138.241 350.384 150.367 393.812 151.777 406.502C153.187 419.192 156.853 438.368 157.135 450.494C157.417 462.62 158.545 478.13 158.827 479.54C159.053 480.668 161.741 482.83 163.057 483.77V485.744L161.365 487.436H138.241C137.677 487.624 136.493 487.718 136.267 486.59C136.042 485.462 127.713 453.032 123.577 436.958L118.219 414.116C117.279 406.972 115.061 392.007 113.707 389.3L107.221 376.328C108.631 381.592 110.436 393.417 106.375 398.606C101.299 405.092 96.7871 408.476 86.6351 408.194C78.5135 407.969 68.5871 403.776 64.6391 401.708C57.3071 397.478 41.5151 388.116 37.0031 384.506C32.4911 380.897 18.0151 370.218 11.3411 365.33C11.1531 365.142 10.3259 364.879 8.52113 365.33C6.26513 365.894 4.00913 367.022 2.88113 365.33C1.97873 363.977 1.94113 362.886 2.03513 362.51C3.35117 359.69 6.43445 353.43 8.23925 350.948C10.0441 348.467 13.8793 344.274 15.5712 342.488C15.8533 342.3 16.6428 341.924 17.5452 341.924C18.6733 341.924 25.1594 347.282 31.0813 350.384C35.8188 352.866 44.5232 356.682 48.2833 358.28C54.2993 359.972 67.2337 363.751 70.8433 365.33C74.4529 366.909 76.8593 368.432 77.6113 368.996C75.1673 363.826 69.9408 352.527 68.5872 348.692L68.5026 348.452C66.6981 343.341 60.6822 326.301 60.1273 319.364L60.1033 319.065C59.5325 311.938 58.4707 298.68 60.9733 291.728C63.0037 286.088 65.3913 280.166 66.3313 277.91C65.4853 277.158 63.7369 275.09 63.5112 272.834C63.2857 270.578 63.4173 268.51 63.5112 267.758C61.1613 267.476 55.8409 266.179 53.3592 263.246C50.2573 259.58 48.3111 254.097 49.9753 246.608C51.6673 238.994 57.0252 228.56 60.4093 224.048C63.7933 219.536 67.7412 213.332 71.6893 211.64C75.3637 210.065 80.1493 209.29 81.5592 209.102L88.6093 209.666L90.0192 206Z" fill="white"/>
<path d="M103.777 201.864C113.103 202.888 111.861 195.287 111.217 191.632C111.166 191.377 111.108 191.121 111.057 190.858C111.733 190.359 111.917 189.427 111.481 188.709C111.183 188.282 110.909 187.838 110.662 187.379C110.271 186.791 109.952 186.158 109.712 185.493C108.557 182.468 106.562 178.097 105.159 175.305M106.375 184.568C106.732 184.194 106.991 184.077 107.503 184.004" stroke="black" stroke-width="0.5" stroke-linecap="round" stroke-linejoin="round"/>
<path d="M98.3111 187.971C98.6985 187.723 99.2247 188.22 99.4732 188.468C99.7425 188.746 99.9515 189.077 100.087 189.44C100.131 189.55 100.306 189.499 100.27 189.389C100.078 188.886 99.7584 188.443 99.3416 188.103C99.042 187.861 98.6108 187.562 98.2234 187.818C98.1211 187.876 98.2234 188.037 98.3111 187.971Z" fill="black"/>
<path d="M99.1881 188.951C99.3359 188.789 99.5679 188.734 99.7728 188.812C99.8824 188.849 99.9336 188.673 99.824 188.637C99.564 188.56 99.2826 188.633 99.0931 188.827C99.0709 188.849 99.0623 188.881 99.0704 188.912C99.0785 188.942 99.1022 188.966 99.1325 188.974C99.1628 188.982 99.1952 188.973 99.2174 188.951H99.1881Z" fill="black"/>
<path d="M107.491 186.291C107.439 186.549 107.454 186.815 107.535 187.066C107.688 187.511 108.39 187.321 108.266 186.868C108.215 186.748 108.197 186.617 108.215 186.488C108.288 186.028 107.586 185.83 107.484 186.291H107.491Z" fill="black"/>
<path d="M106.768 191.552H106.673C106.475 191.639 106.636 192.093 106.716 192.224C106.914 192.575 107.303 192.774 107.703 192.728C107.973 192.663 108.28 192.378 108.222 192.071C108.163 191.764 107.783 191.786 107.579 191.756C107.374 191.727 107.045 191.603 106.768 191.552V191.552Z" fill="black"/>
<path d="M106.767 191.187C106.139 191.187 106.139 191.867 106.351 192.313C106.611 192.867 107.208 193.181 107.812 193.08C108.331 192.949 108.836 192.306 108.543 191.787C108.392 191.583 108.161 191.453 107.907 191.429C107.571 191.37 107.25 191.268 106.914 191.202C106.46 191.114 106.263 191.816 106.723 191.933C106.994 191.991 107.257 192.086 107.535 192.138C107.622 192.141 107.708 192.156 107.791 192.181C107.907 192.233 107.959 192.145 107.842 192.298C107.725 192.452 107.301 192.335 107.155 192.167C107.11 192.114 107.073 192.055 107.045 191.991C107.024 191.945 107.009 191.896 107.001 191.845C107.001 191.721 106.935 191.75 106.819 191.947C107.028 191.933 107.187 191.752 107.173 191.542C107.159 191.332 106.977 191.173 106.767 191.187Z" fill="black"/>
<path d="M101.834 188.016C101.66 188.144 101.441 188.193 101.23 188.151C101.019 188.109 100.835 187.981 100.723 187.797C100.27 187.066 99.4073 186.086 98.2087 186.481C96.5497 187.022 96.9297 189.777 98.5157 190.808C98.9085 191.063 99.101 191.535 98.998 191.992C98.713 193.337 98.1283 195.975 97.4633 198.116C96.937 199.834 97.3902 200.872 95.6215 201.179H91.0829C91.0829 201.179 85.236 195.025 84.2201 189.485C83.2042 183.945 85.0314 180.59 88.1741 179.005C88.8175 178.668 89.2742 178.058 89.4165 177.345C89.6577 176.249 90.4763 174.692 93.1073 173.969C95.2999 173.37 97.3463 172.741 98.8373 172.273C100.016 171.926 101.058 171.221 101.819 170.256C102.485 169.247 103.811 168.914 104.874 169.489C107.213 170.512 109.135 176.615 104.202 180.605C102.259 182.167 101.463 184.755 102.192 187.139C102.307 187.459 102.186 187.817 101.9 188.001L101.834 188.016Z" fill="black"/>
<path d="M103.851 210.08C103.851 210.08 104.107 209.966 104.683 209.787M192.072 159.315C192.072 159.315 186.861 160.872 185.246 162.487C181.753 165.98 181.431 169.788 173.815 179.633C168.582 186.386 164.402 192.24 162.29 195.251C161.105 196.943 159.618 198.403 157.905 199.556C152.752 203.042 144.464 207.544 127.523 207.544C113.372 207.544 106.823 209.119 104.683 209.787M104.683 209.787L105.811 202.052M189.847 163.982C190.838 163.704 191.397 163.706 192.385 164.264M191.257 166.238L192.667 166.802M194.077 169.058C193.419 169.058 191.99 169.171 191.539 169.622C190.975 170.186 192.103 172.442 190.693 173.852C189.565 174.98 188.343 175.638 187.873 175.826C186.037 187.588 177.235 209.342 168.979 216.998C159.434 225.85 134.953 235.021 122.731 234.2M122.731 234.2C123.047 233.072 123.52 231.662 125.551 230.534M122.731 234.2C120.569 241.908 116.696 257.945 116.245 260.426C116.135 261.033 116.164 262.135 116.225 263.528M110.887 281.294C117.239 279.933 116.473 269.263 116.225 263.528M116.225 263.528C117.466 262.325 121.025 260.551 123.295 260.426C124.705 260.349 126.773 257.606 127.243 256.478M124.141 255.914C125.868 254.104 127.207 253.213 130.627 251.966M125.833 249.992L127.525 248.582M123.295 248.018C123.765 247.924 124.761 247.623 124.987 247.172M120.193 248.018C121.166 246.78 121.914 246.236 123.859 245.762" stroke="black" stroke-width="0.5" stroke-linecap="round" stroke-linejoin="round"/>
<path d="M110.896 276.873C110.589 280.325 111.139 283.8 112.496 286.988C121.34 307.722 156.969 372.769 158.621 478.801C158.63 479.474 158.919 480.112 159.417 480.563L162.297 483.157C163.039 483.83 163.292 484.89 162.933 485.825C162.573 486.76 161.676 487.379 160.674 487.381H138.391C137.278 487.382 136.309 486.626 136.037 485.547C134.166 478.019 126.989 449.223 123.284 436.046C120.485 426.092 117.313 408.149 115.449 396.902C114.375 390.383 112.044 384.135 108.586 378.506C98.5224 362.149 77.6272 325.957 78.6212 309.075" stroke="black" stroke-width="0.5" stroke-linecap="round" stroke-linejoin="round"/>
<path d="M69.0328 273.95C69.0328 273.95 58.2015 287.149 59.4732 311.91C60.7449 336.672 77.5692 369.114 77.5692 369.114M77.5692 369.114C77.5692 369.114 74.9819 365.862 55.1904 360.3C35.7057 354.855 23.5955 346.224 19.2103 342.716C18.0989 341.824 16.4991 341.893 15.4683 342.877C11.9529 346.202 4.58589 353.956 2.14483 362.61C1.84008 363.678 2.18243 364.827 3.02258 365.554C3.86272 366.281 5.04829 366.456 6.06222 366.001L7.21697 365.489C8.1817 365.051 10.7105 364.912 11.5509 365.57C20.7305 372.878 30.1001 379.916 39.8351 386.45C49.1023 392.67 58.3403 399.153 68.6527 403.56C77.7446 407.441 89.0436 410.437 98.457 405.869C101.696 404.321 104.413 401.862 106.277 398.794C109.471 393.481 109.559 386.918 108.346 381.005C107.972 379.113 107.434 377.257 106.738 375.458M77.5692 369.114C79.4076 370.599 82.1232 374.354 83.2512 376.046" stroke="black" stroke-width="0.5" stroke-linecap="round" stroke-linejoin="round"/>
<path d="M177.075 174.969C178.647 175.094 180.144 175.69 181.372 176.68C182.469 177.695 182.016 179.362 181.95 180.787C181.951 180.825 181.974 180.858 182.009 180.872C182.044 180.886 182.083 180.879 182.111 180.853C182.491 180.531 182.703 180.122 183.039 179.83C184.15 178.762 185.443 179.333 186.357 180.319C186.437 180.407 186.561 180.275 186.481 180.188C185.867 179.53 185.071 178.331 184.011 178.565C183.748 178.601 183.51 178.737 183.346 178.945C182.776 179.486 182.22 181.35 182.191 179.53C182.191 178.141 182.637 177.403 181.511 176.526C180.228 175.573 178.715 174.975 177.126 174.794C177.017 174.794 176.965 174.955 177.082 174.969H177.075Z" fill="black"/>
<path d="M90.0227 209.788C93.8889 210.482 97.9379 210.307 101.855 210.424C101.896 210.412 101.924 210.375 101.924 210.332C101.924 210.29 101.896 210.252 101.855 210.241C97.9598 210.124 93.9182 210.299 90.0666 209.612C89.9569 209.612 89.9058 209.766 90.0227 209.788Z" fill="black"/>
<path d="M102.791 210.299L103.105 209.904C103.178 209.809 103.046 209.685 102.973 209.773L102.659 210.175C102.586 210.262 102.718 210.394 102.791 210.299Z" fill="black"/>
<path d="M69.1421 238.489C71.7586 233.782 78.0293 239.219 81.6763 239.395C86.1637 239.599 90.2273 236.83 94.7294 237.085C99.0341 237.327 102.542 240.462 106.84 240.74C111.802 241.054 116.377 237.129 121.318 239.197C121.428 239.241 121.479 239.066 121.369 239.022C116.326 236.91 111.627 241.01 106.555 240.542C101.768 240.096 97.9524 236.457 92.968 236.961C87.6181 237.495 83.1014 240.615 77.7443 238.138C75.1059 236.932 70.8888 234.973 68.974 238.401C68.9155 238.503 69.069 238.598 69.1275 238.496L69.1421 238.489Z" fill="black"/>
<path d="M67.1693 253.639C69.2888 249.203 77.2112 250.599 80.8655 251.659C82.6896 252.307 84.5919 252.71 86.5223 252.857C88.8319 252.857 91.0464 252.126 93.3339 251.995C95.7677 251.819 97.6752 252.616 99.8678 253.544C101.807 254.371 103.824 254.997 105.89 255.415C109.802 256.243 113.863 256.013 117.657 254.75C117.766 254.706 117.715 254.531 117.606 254.575C112.812 256.119 107.648 256.078 102.879 254.458C100.686 253.778 98.713 252.609 96.5205 252.046C94.591 251.556 92.6469 251.856 90.7248 252.185C87.9892 252.76 85.1562 252.677 82.4588 251.944C80.3242 251.236 78.1184 250.766 75.8811 250.54C72.9577 250.365 68.4848 250.467 67.0158 253.544C66.9646 253.654 67.1254 253.742 67.1693 253.639Z" fill="black"/>
<path d="M3.93512 362.463C6.95355 361.199 8.81724 358.144 10.6955 355.608C13.1539 352.47 15.1612 349.004 16.6593 345.31C16.7032 345.2 16.5278 345.157 16.4839 345.259C15.1707 348.557 13.4205 351.664 11.2802 354.497C9.27768 357.282 7.17281 360.907 3.88396 362.288C3.78164 362.332 3.82549 362.507 3.93512 362.463Z" fill="black"/>
<path d="M18.5233 370.774C25.7369 366.601 29.9539 358.876 31.0356 350.763C31.0356 350.646 30.8675 350.654 30.8529 350.763C29.7785 358.803 25.5834 366.477 18.4283 370.613C18.326 370.672 18.4283 370.833 18.5233 370.774Z" fill="black"/>
<path d="M132.493 471.72C136.878 471.391 141.307 471.091 145.729 470.923C149.653 470.777 153.593 470.799 157.364 469.535C157.474 469.535 157.43 469.323 157.313 469.359C153.337 470.689 149.149 470.602 145.013 470.77C140.876 470.938 136.659 471.223 132.493 471.501C132.376 471.501 132.376 471.691 132.493 471.683V471.72Z" fill="black"/>
<path d="M121.362 382.27C122.352 382.51 123.396 382.366 124.285 381.868C124.388 381.817 124.285 381.656 124.19 381.715C123.338 382.196 122.332 382.33 121.384 382.087C121.267 382.087 121.223 382.241 121.333 382.27H121.362Z" fill="black"/>
<path d="M121.377 385.653H124.234C124.275 385.641 124.303 385.604 124.303 385.562C124.303 385.519 124.275 385.482 124.234 385.47H121.377C121.336 385.482 121.308 385.519 121.308 385.562C121.308 385.604 121.336 385.641 121.377 385.653Z" fill="black"/>
<path d="M87.5666 374.231C87.6074 374.219 87.6355 374.182 87.6355 374.139C87.6355 374.097 87.6074 374.06 87.5666 374.048C87.5258 374.06 87.4977 374.097 87.4977 374.139C87.4977 374.182 87.5258 374.219 87.5666 374.231Z" fill="black"/>
<path d="M87.5666 374.231C87.6074 374.219 87.6355 374.182 87.6355 374.139C87.6355 374.097 87.6074 374.06 87.5666 374.048C87.5258 374.06 87.4977 374.097 87.4977 374.139C87.4977 374.182 87.5258 374.219 87.5666 374.231Z" fill="black"/>
<path d="M88.4152 376.043C88.3234 377.254 88.6914 378.454 89.4457 379.405C89.5188 379.5 89.643 379.369 89.5772 379.281C88.8498 378.366 88.4995 377.208 88.5979 376.043C88.5979 375.926 88.4298 375.926 88.4152 376.043Z" fill="black"/>
<path d="M90.7537 377.512L91.258 379.405C91.2701 379.453 91.3192 379.483 91.3676 379.471C91.4161 379.459 91.4455 379.41 91.4334 379.361L90.9291 377.461C90.9065 377.425 90.8628 377.408 90.8221 377.42C90.7814 377.432 90.7535 377.47 90.7537 377.512Z" fill="black"/>
<path d="M158.072 223.17C152.503 220.758 153.965 213.669 158.072 210.658C160.068 209.196 163.298 207.625 165.754 208.728C168.553 209.978 169.211 213.113 169.174 215.913C169.186 215.953 169.223 215.981 169.266 215.981C169.308 215.981 169.345 215.953 169.357 215.913C169.357 213.252 168.831 210.234 166.324 208.772C163.817 207.31 160.382 208.772 158.204 210.329C153.819 213.369 152.152 220.809 157.977 223.331C158.087 223.375 158.182 223.214 158.072 223.17Z" fill="black"/>
<path d="M158.212 209.291L159.155 210.606C159.221 210.701 159.374 210.606 159.309 210.518L158.373 209.196C158.3 209.101 158.147 209.196 158.212 209.291Z" fill="black"/>
<path d="M159.169 208.691L160.09 210.152C160.156 210.247 160.317 210.152 160.251 210.057L159.33 208.596C159.264 208.5 159.111 208.596 159.169 208.691Z" fill="black"/>
<path d="M154.068 221.028L155.53 220.078C155.625 220.012 155.53 219.851 155.435 219.917L153.973 220.867C153.878 220.933 153.973 221.094 154.068 221.028Z" fill="black"/>
<path d="M154.659 222.169C154.951 221.921 155.31 221.766 155.69 221.723C155.807 221.723 155.756 221.525 155.639 221.54C155.229 221.597 154.844 221.77 154.528 222.037C154.44 222.117 154.564 222.242 154.659 222.169Z" fill="black"/>
<path d="M168.451 212.419C168.994 212.131 169.458 211.714 169.803 211.206C169.869 211.111 169.708 211.016 169.642 211.111C169.313 211.592 168.872 211.986 168.356 212.259C168.254 212.317 168.356 212.471 168.451 212.419Z" fill="black"/>
<path d="M168.817 213.441L169.811 212.403C169.891 212.323 169.76 212.191 169.679 212.279L168.685 213.309C168.605 213.39 168.736 213.521 168.817 213.441Z" fill="black"/>
<path d="M50.2941 254.369C51.7558 253.185 53.8606 253.741 55.2712 254.662C56.6818 255.582 57.1495 257.073 57.683 258.528C58.5747 260.94 60.8988 263.461 58.5016 265.836C58.4139 265.917 58.5454 266.048 58.6258 265.968C59.6509 265.054 60.0529 263.628 59.6563 262.314C59.3014 261.523 58.8961 260.757 58.4431 260.019C57.9827 259.054 57.7123 258.009 57.2884 257.037C56.1848 254.574 52.6474 252.294 50.1625 254.311C50.0675 254.384 50.1625 254.515 50.2941 254.442V254.369Z" fill="black"/>
<path d="M50.5785 253.061C50.5209 253.587 50.5555 254.118 50.6808 254.632C50.6808 254.749 50.8854 254.698 50.8562 254.581C50.7371 254.084 50.705 253.569 50.7612 253.061C50.7612 252.944 50.5931 252.944 50.5785 253.061Z" fill="black"/>
<path d="M57.325 259.077C57.9047 259.035 58.4647 258.849 58.9548 258.536C59.0498 258.478 58.9548 258.317 58.8598 258.383C58.3975 258.676 57.8706 258.851 57.325 258.894C57.2081 258.894 57.2081 259.084 57.325 259.077Z" fill="black"/>
<path d="M58.1649 260.173C58.5889 260.136 58.9893 259.962 59.305 259.676C59.3927 259.596 59.2611 259.472 59.1734 259.545C58.8963 259.802 58.5413 259.958 58.1649 259.991C58.0479 259.991 58.0479 260.188 58.1649 260.173Z" fill="black"/>
<path d="M68.273 241.032C68.273 241.032 64.4872 262.468 55.9873 265.15C55.9873 265.15 60.9218 267.429 62.3835 267.758C63.8452 268.087 63.2447 266.956 64.056 264.252C64.8672 261.547 66.3655 255.832 66.3655 255.832L67.4595 248.582L68.273 241.032Z" fill="black"/>
<path d="M65.0859 280.629C65.0859 280.629 72.8696 283.414 88.7145 283.019C104.559 282.625 111.108 282.23 111.108 282.23L110.896 278.473C110.896 278.473 111.169 278.192 110.887 277.064C105.811 275.936 87.9837 271.925 81.3767 272.999C74.6425 272.999 71.4067 273.68 71.4067 273.68C71.4067 273.68 69.9967 273.68 68.8687 273.962C67.779 275.733 65.0859 280.629 65.0859 280.629Z" fill="black"/>
<path d="M91.7334 348.6C91.7334 348.6 107.885 392.246 105.766 399.562C105.766 399.562 109.237 395.747 109.047 387.35C108.857 378.952 107.819 377.181 106.657 375.2C105.495 373.22 91.7334 348.6 91.7334 348.6Z" fill="black"/>
<path d="M67.8338 247.507C69.0324 244.584 70.6695 239.709 73.7903 238.218C77.0718 236.654 77.4445 241.054 77.7954 243.122C78.0068 244.801 78.3713 246.457 78.8843 248.07C79.4471 249.656 80.5726 251.724 82.5386 251.666C85.1185 251.556 85.8275 248.304 86.4852 246.396C87.7204 242.808 88.7582 239.088 92.9898 238.196C94.8608 237.809 96.4687 238.196 97.2507 240.184C97.4852 240.901 97.6684 241.633 97.7989 242.376C98.1935 244.225 98.3689 246.096 98.6759 247.96C99.0121 249.97 99.8599 252.433 102.074 253.076C104.289 253.719 106.05 252.024 106.986 250.284C107.863 248.662 108.228 246.813 109.003 245.168C109.339 244.41 109.73 243.677 110.172 242.976C110.453 242.463 110.791 241.985 111.181 241.551C111.536 240.998 112.199 240.726 112.84 240.871C113.624 240.315 114.216 240.388 114.616 241.09C116.078 242.296 116.509 245.307 116.867 247.105C117.306 249.385 117.488 251.706 117.408 254.026C117.419 254.067 117.457 254.095 117.499 254.095C117.542 254.095 117.579 254.067 117.59 254.026C117.656 251.761 116.86 237.07 111.824 240.666C109.244 242.523 108.447 246.33 107.322 249.093C106.386 251.366 104.07 254.209 101.278 252.521C99.0852 251.183 98.9171 248.362 98.6101 246.096C98.3959 244.276 98.0515 242.474 97.5796 240.703C97.258 239.548 96.8488 238.51 95.6575 238.064C93.3991 237.231 90.2638 238.605 88.8459 240.396C86.763 243.041 86.7191 246.791 85.0601 249.641C84.0222 251.439 81.8881 252.089 80.3607 250.423C79.5844 249.462 79.0415 248.333 78.7747 247.127C78.2192 245.183 78.0438 243.173 77.6492 241.192C77.4372 240.074 77.2838 238.525 76.1436 237.918C75.158 237.518 74.0316 237.698 73.2202 238.386C70.3479 240.432 68.9447 244.328 67.673 247.47C67.6291 247.573 67.8045 247.624 67.8484 247.514L67.8338 247.507Z" fill="black"/>
<path d="M63.0767 267.701C32.2126 261.569 62.2143 219.567 68.1415 214.129C75.5597 207.339 88.7151 209.642 88.7151 209.642C90.0922 206.304 90.6446 204.001 91.4296 199.515M66.6136 278.193C61.5376 272.835 63.0767 266.349 66.3316 255.351C67.871 250.149 68.4936 238.713 68.5876 233.355M68.3056 273.963C83.827 271.803 92.984 272.8 110.888 277.065" stroke="black" stroke-width="0.5" stroke-linecap="round" stroke-linejoin="round"/>
<line x1="2.03516" y1="487.75" x2="561.523" y2="487.75" stroke="black" stroke-width="0.5"/>
</svg>
