<svg width="448" height="320" viewBox="0 0 448 320" fill="none" xmlns="http://www.w3.org/2000/svg">
<path d="M257.044 36.001H77.956C73.562 36.001 70 39.5633 70 43.9576V152.017C70.0038 156.41 73.5636 159.97 77.956 159.974H182.954L198.996 176.331C199.686 177.031 200.73 177.246 201.64 176.875C202.55 176.504 203.145 175.62 203.148 174.637V159.974H257.044C261.436 159.97 264.996 156.41 265 152.017V43.9576C265 39.5633 261.438 36.001 257.044 36.001Z" fill="#F4F6F9"/>
<path fill-rule="evenodd" clip-rule="evenodd" d="M257.043 36H77.9571C73.5625 36 70 39.5623 70 43.9566V152.016C70.0038 156.409 73.5641 159.969 77.9571 159.973H182.97L198.987 176.33C199.676 177.03 200.721 177.245 201.631 176.874C202.541 176.503 203.137 175.619 203.14 174.636V159.973H257.043C261.436 159.969 264.996 156.409 265 152.016V43.9566C265 39.5623 261.437 36 257.043 36V36Z" stroke="black" stroke-width="0.5" stroke-linecap="round" stroke-linejoin="round"/>
<path d="M148.157 100.519L147.939 100.929L148.007 101.052C148.212 101.052 148.301 101.154 148.287 101.318L148.328 101.626C148.328 101.769 148.328 101.913 148.376 102.049L148.492 102.985L148.697 104.679L149.141 108.319L150.022 115.545C150.022 115.654 150.206 115.654 150.193 115.545L149.141 106.912L148.622 102.677L148.485 101.578C148.485 101.38 148.485 101.079 148.314 100.895C148.252 100.827 148.16 100.796 148.069 100.811C147.978 100.826 147.901 100.886 147.864 100.97C147.85 100.997 147.85 101.029 147.865 101.056C147.881 101.082 147.908 101.099 147.939 101.1C148.109 101.121 148.275 101.035 148.356 100.884C148.438 100.733 148.419 100.548 148.308 100.417C148.239 100.328 148.089 100.417 148.157 100.499V100.519Z" fill="black"/>
<path d="M168.831 123.918C168.688 124.143 169.022 127.777 166.236 128.733C165.273 129.068 166.645 131.465 165.314 133.35C163.982 135.235 163.265 135.686 163.64 138.021C164.016 140.357 162.418 145.254 160.492 147.883C158.566 150.513 156.811 153.347 157.999 153.347C159.187 153.347 164.241 153.17 165.04 153.053C165.84 152.937 167.984 152.022 168.189 153.094C168.394 154.167 168.571 155.505 167.725 155.724C166.878 155.942 151.074 157.506 149.967 158.06C149.099 158.587 148.322 159.251 147.666 160.027C147.666 160.027 141.212 160.477 143.773 159.159C146.334 157.841 146.887 156.762 148.929 155.28C150.971 153.798 156.756 146.975 157.678 145.418C158.6 143.861 160.506 141.177 160.526 138.998C160.547 136.819 160.26 135.583 160.629 134.832C160.995 134.051 161.518 133.354 162.165 132.783C162.944 132.1 163.811 131.649 163.968 130.522C164.12 129.816 164.018 129.078 163.681 128.439C163.538 128.337 163.053 127.913 164.146 127.756C165.132 127.47 166.057 127.007 166.878 126.39L168.831 123.918Z" fill="black"/>
<path d="M133.541 67.7369C133.541 67.7369 134.06 69.2804 133.541 76.0555C133.022 82.8305 137.639 88.0826 146.101 89.1275C146.101 89.1275 150.547 89.5031 151.565 85.1116C152.582 80.7201 152.931 69.5263 152.698 67.0198L151.899 67.3408C151.899 67.3408 152.507 77.0389 150.342 77.155C148.177 77.2711 145.65 72.6543 139.606 74.3549C133.562 76.0555 134.934 67.6413 135.044 65.1416L131.506 65.4967C132.59 65.7372 133.405 66.6345 133.541 67.7369Z" fill="black" stroke="black" stroke-width="0.5" stroke-linecap="round" stroke-linejoin="round"/>
<path d="M151.817 61.3106C152.439 66.59 152.739 72.081 151.51 77.2989C151.115 79.242 150.33 81.0847 149.201 82.7149C147.935 84.4449 145.966 85.5232 143.826 85.6585C141.29 85.7835 138.816 84.8483 136.997 83.0769C136.676 82.7764 136.191 83.2544 136.512 83.5618C139.776 86.6761 145.295 87.5367 148.757 84.2447C150.232 82.7181 151.286 80.8358 151.817 78.781C152.513 76.3345 152.903 73.8109 152.978 71.2683C153.089 67.9371 152.929 64.6023 152.5 61.2969C152.452 60.8667 151.762 60.8598 151.817 61.2969V61.3106Z" fill="black"/>
<path d="M146.871 105.966L145.231 109.171L168.683 114.401L170.476 111.231L146.871 105.966Z" fill="#1B3C87"/>
<path d="M170.158 111.16L168.358 114.328L199.529 121.281C200.195 121.428 200.88 121.119 201.22 120.517L202.446 118.361L170.158 111.16Z" fill="#D6DEFF"/>
<path fill-rule="evenodd" clip-rule="evenodd" d="M215.54 94.8622L183.733 87.7679L170.476 111.23L202.283 118.324L215.54 94.8622Z" fill="white" stroke="black" stroke-width="0.5" stroke-linecap="round" stroke-linejoin="round"/>
<path d="M188.491 79.5411L188.536 82.9176C188.542 83.0241 188.368 83.0058 188.366 82.8938L188.318 79.5228C188.316 79.4108 188.485 79.4346 188.491 79.5411Z" fill="black"/>
<path d="M181.668 79.2125L183.008 82.4026C183.025 82.4459 183.004 82.4949 182.961 82.5121C182.918 82.5293 182.869 82.5081 182.851 82.4648L181.512 79.2747C181.473 79.1779 181.634 79.1102 181.668 79.2125Z" fill="black"/>
<path d="M174.975 84.6366L179.021 87.642C179.057 87.6553 179.08 87.6894 179.079 87.7271C179.078 87.7647 179.053 87.7978 179.018 87.8095C178.982 87.8212 178.943 87.809 178.92 87.7791L174.873 84.7737C174.849 84.7422 174.849 84.6985 174.873 84.6667C174.896 84.6349 174.938 84.6226 174.975 84.6366V84.6366Z" fill="black"/>
<path d="M140.364 69.4452C140.294 69.4788 140.232 69.5251 140.18 69.5818C140.115 69.6462 140.064 69.7228 140.029 69.8072C139.958 69.9732 139.944 70.1581 139.988 70.3331C140.011 70.4183 140.043 70.5007 140.084 70.5789C140.133 70.6743 140.209 70.7529 140.303 70.8043C140.461 70.8937 140.659 70.8717 140.794 70.7497C140.884 70.6654 140.929 70.5443 140.917 70.4219C140.907 70.331 140.887 70.2416 140.856 70.1555L140.774 69.9233C140.75 69.8371 140.694 69.7635 140.617 69.7184C140.538 69.6737 140.445 69.6615 140.357 69.6843C140.177 69.7342 140.07 69.92 140.118 70.1009L140.193 70.3194C140.219 70.3809 140.237 70.4451 140.248 70.5107V70.4219V70.3331L140.282 70.2511L140.337 70.1828L140.405 70.135H140.487H140.576H140.671H140.753H140.719L140.787 70.1897L140.746 70.1487L140.801 70.217C140.78 70.1843 140.762 70.15 140.746 70.1145L140.781 70.1965C140.758 70.1415 140.742 70.0843 140.733 70.0257V70.1145C140.726 70.0693 140.726 70.0232 140.733 69.9779V70.0736C140.729 70.0372 140.729 70.0006 140.733 69.9643V70.0462C140.745 70.0146 140.761 69.9847 140.781 69.9574L140.726 70.0257L140.801 69.9574L140.733 70.0053L140.801 69.9643C140.878 69.9219 140.934 69.8506 140.958 69.7662C140.981 69.6763 140.969 69.581 140.924 69.4999C140.879 69.4227 140.805 69.3663 140.719 69.3428H140.63C140.57 69.344 140.512 69.3605 140.46 69.3906L140.364 69.4452Z" fill="black"/>
<path d="M148.512 70.6885C148.443 70.7214 148.38 70.7679 148.328 70.8251C148.266 70.89 148.217 70.9666 148.185 71.0505C148.113 71.2164 148.099 71.4013 148.144 71.5763C148.165 71.6597 148.198 71.74 148.239 71.8154C148.287 71.9108 148.36 71.9911 148.451 72.0476C148.584 72.1232 148.748 72.1197 148.878 72.0384C149.008 71.9571 149.082 71.8111 149.072 71.6583C149.063 71.5667 149.04 71.477 149.004 71.3919L148.929 71.1597C148.903 71.0764 148.847 71.0057 148.772 70.9617C148.608 70.8678 148.398 70.9224 148.301 71.0846C148.255 71.1631 148.243 71.2565 148.267 71.3441L148.342 71.5627C148.342 71.6241 148.389 71.6856 148.403 71.7471V71.6583V71.6993V71.6037V71.6037L148.437 71.5217L148.492 71.4534V71.4534L148.56 71.3988H148.642H148.731H148.82H148.902L148.97 71.4466C148.953 71.4366 148.939 71.4225 148.929 71.4056L148.984 71.4807C148.961 71.4465 148.943 71.4098 148.929 71.3714L148.963 71.4534C148.937 71.3999 148.921 71.342 148.915 71.2827V71.3783C148.909 71.333 148.909 71.287 148.915 71.2417V71.3305C148.913 71.2941 148.913 71.2576 148.915 71.2212L148.881 71.3031L148.936 71.2212L148.881 71.2895L148.956 71.2144L148.888 71.269L148.956 71.228C149.034 71.1829 149.09 71.1094 149.113 71.0231C149.137 70.9355 149.125 70.8421 149.079 70.7636C149.034 70.6864 148.961 70.6301 148.874 70.6065H148.786C148.723 70.6052 148.661 70.6218 148.608 70.6543L148.512 70.6885Z" fill="black"/>
<path d="M130.652 67.5059C130.855 67.3556 131.132 67.3556 131.335 67.5059C131.551 67.6908 131.72 67.9251 131.827 68.1888C132.093 68.7246 132.253 69.3067 132.298 69.9031C132.298 70.0124 132.475 70.0124 132.469 69.9031C132.414 69.2006 132.209 68.5181 131.868 67.902C131.74 67.6255 131.524 67.3995 131.253 67.26C131.011 67.1416 130.722 67.1764 130.515 67.3488C130.433 67.4239 130.556 67.54 130.638 67.4717L130.652 67.5059Z" fill="black"/>
<path d="M131.437 68.5908C131.458 68.5407 131.501 68.503 131.554 68.4884C131.613 68.4681 131.678 68.4681 131.738 68.4884C131.883 68.5446 132 68.6547 132.066 68.7957C132.08 68.8213 132.108 68.8372 132.137 68.8373C132.167 68.8375 132.194 68.8218 132.209 68.7964C132.224 68.7709 132.224 68.7394 132.209 68.7138C132.124 68.5247 131.963 68.3807 131.765 68.3176C131.581 68.2635 131.383 68.3425 131.287 68.5089C131.258 68.5422 131.258 68.5916 131.287 68.625C131.308 68.6371 131.333 68.6404 131.356 68.6339C131.379 68.6275 131.399 68.612 131.41 68.5908H131.437Z" fill="black"/>
<path d="M138.868 84.8516C140.289 85.8942 141.785 86.8324 143.342 87.6586C143.802 87.849 144.228 88.1119 144.605 88.4372C144.79 87.6244 144.953 86.8117 145.097 85.9853C143.434 86.3175 141.71 86.1463 140.145 85.4936C139.736 85.2887 140.828 86.1082 139.053 84.995" fill="black"/>
<path d="M138.697 85.1462C139.64 85.8292 140.582 86.4575 141.566 87.0585C142.058 87.3591 142.556 87.6391 143.068 87.8986C143.535 88.096 143.97 88.3606 144.359 88.684C144.447 88.7675 144.571 88.7997 144.688 88.769C144.805 88.7384 144.898 88.6494 144.933 88.5338C145.115 87.7233 145.279 86.9037 145.425 86.0751C145.452 85.957 145.416 85.8332 145.33 85.7482C145.243 85.6632 145.119 85.6292 145.001 85.6585C144.143 85.7905 143.271 85.8203 142.406 85.7472C141.975 85.7072 141.549 85.6225 141.136 85.4945C140.808 85.3989 140.507 85.2077 140.179 85.1189C140.028 85.0757 139.866 85.1352 139.779 85.2662C139.692 85.3971 139.699 85.5695 139.797 85.6926C139.64 85.5355 140.186 85.276 140.159 85.2214C140.132 85.1667 140.159 85.2214 140.159 85.2214L140.063 85.1735C139.776 85.0096 139.49 84.8321 139.21 84.6545C138.93 84.4769 138.492 85.0165 138.861 85.2487C139.23 85.4809 139.435 85.6175 139.735 85.7677C139.862 85.8633 140.023 85.9028 140.179 85.877C140.286 85.8463 140.372 85.7678 140.412 85.6647C140.452 85.5616 140.442 85.4456 140.384 85.3511C140.376 85.3292 140.362 85.3102 140.343 85.2965C140.296 85.2487 140.439 85.2965 140.343 85.3443C140.248 85.3921 139.988 85.8565 139.961 85.7541C139.934 85.6516 139.824 85.6926 140.036 85.7951L140.316 85.9112C140.539 86.0068 140.767 86.0889 140.999 86.157C141.447 86.2771 141.904 86.3594 142.365 86.4029C143.293 86.4769 144.226 86.438 145.145 86.2868L144.721 85.8702C144.585 86.6897 144.421 87.5093 144.229 88.322L144.803 88.1718C144.406 87.8282 143.96 87.5473 143.478 87.3386C142.959 87.079 142.461 86.799 141.962 86.4985C140.951 85.8838 139.975 85.2077 139.005 84.5247C138.643 84.2789 138.322 84.8662 138.656 85.1189L138.697 85.1462Z" fill="black"/>
<path d="M152.275 63.2576C152.275 63.2576 150.786 66.1944 152.043 68.3048L152.726 68.578C152.726 68.578 153.669 64.1318 153.505 62.001" fill="black"/>
<path d="M152.275 63.2576C152.275 63.2576 150.786 66.1944 152.043 68.3048L152.726 68.578C152.726 68.578 153.669 64.1318 153.505 62.001" stroke="black" stroke-width="0.5" stroke-linecap="round" stroke-linejoin="round"/>
<path d="M134.586 65.688C134.586 65.688 137.776 64.6499 138.479 61.7199C138.479 61.7199 141.368 64.2196 144.715 63.7005C148.061 63.1815 145.172 60.7911 145.507 60.7911C145.842 60.7911 150.178 66.1866 154.126 62.4644C158.074 58.7422 152.958 53.2853 143.67 54.5624C143.67 54.5624 147.884 54.0092 145.036 52.7867C142.188 51.5642 136.943 53.4697 135.474 56.1196C135.474 56.1196 129.075 58.2368 128.071 62.7376C127.067 67.2383 130.454 78.241 130.454 78.241L130.926 74.348C130.926 74.348 132.005 71.6162 131.151 71.3771C130.297 71.1381 128.221 68.2081 129.334 66.5417C129.951 65.6022 131.192 65.3033 132.169 65.8587" fill="black"/>
<path d="M134.586 65.688C134.586 65.688 137.776 64.6499 138.479 61.7199C138.479 61.7199 141.368 64.2196 144.715 63.7005C148.061 63.1815 145.172 60.7911 145.507 60.7911C145.842 60.7911 150.178 66.1866 154.126 62.4644C158.074 58.7422 152.958 53.2853 143.67 54.5624C143.67 54.5624 147.884 54.0092 145.036 52.7867C142.188 51.5642 136.943 53.4697 135.474 56.1196C135.474 56.1196 129.075 58.2368 128.071 62.7376C127.067 67.2383 130.454 78.241 130.454 78.241L130.926 74.348C130.926 74.348 132.005 71.6162 131.151 71.3771C130.297 71.1381 128.221 68.2081 129.334 66.5417C129.951 65.6022 131.192 65.3033 132.169 65.8587" stroke="black" stroke-width="0.5" stroke-linecap="round" stroke-linejoin="round"/>
<path d="M141.402 75.2975C141.346 75.2732 141.281 75.2732 141.225 75.2975C141.19 75.3194 141.166 75.3536 141.156 75.3931C141.006 75.933 141.201 76.5097 141.648 76.8479C142.212 77.359 142.987 77.5675 143.731 77.4079C144.269 77.2824 144.719 76.9175 144.954 76.4176C144.986 76.3419 144.984 76.2557 144.947 76.182C144.91 76.1083 144.842 76.0546 144.762 76.0351C143.636 75.7961 142.27 75.4614 141.402 75.2975V75.2975Z" fill="white"/>
<path d="M141.511 74.9702C141.293 74.9034 141.056 74.9797 140.917 75.1614C140.819 75.3363 140.769 75.5345 140.774 75.7351C140.778 76.123 140.913 76.4982 141.156 76.8005C141.646 77.4194 142.382 77.7916 143.171 77.8182C143.931 77.8583 144.66 77.5082 145.104 76.8893C145.381 76.6102 145.399 76.1652 145.145 75.8649C144.992 75.7544 144.813 75.6861 144.626 75.6668L143.997 75.5166C143.171 75.3253 142.345 75.1273 141.511 74.9702C141.33 74.9222 141.145 75.0288 141.095 75.2092C141.047 75.3901 141.153 75.5759 141.334 75.6258C141.86 75.7283 142.392 75.8512 142.918 75.9673L143.847 76.1859L144.257 76.2815C144.4 76.3242 144.546 76.3562 144.694 76.3771C144.694 76.3771 144.639 76.302 144.66 76.302C144.68 76.302 144.612 76.3976 144.605 76.4044C144.541 76.5142 144.463 76.6152 144.373 76.7049C144.196 76.876 143.98 77.0025 143.745 77.0737C143.225 77.2111 142.671 77.127 142.215 76.8415C141.964 76.6969 141.753 76.4928 141.6 76.2473C141.529 76.1272 141.481 75.9953 141.457 75.858C141.457 75.7897 141.457 75.5849 141.457 75.5507L141.306 75.6395C141.487 75.6874 141.673 75.5808 141.723 75.4005C141.782 75.2233 141.688 75.0316 141.511 74.9702V74.9702Z" fill="black"/>
<path d="M169.978 120.853C170.707 124.185 171.236 127.558 171.562 130.954C171.726 132.62 171.842 134.293 171.897 135.96C172 137.588 172 139.222 171.897 140.85C171.843 141.667 171.61 142.462 171.214 143.179C170.859 143.821 170.422 144.408 170.067 145.043C169.362 146.417 169.048 147.957 169.158 149.496V150.651C169.158 150.651 169.261 151.532 169.035 151.825C168.81 152.119 168.257 152.133 167.929 152.208C167.601 152.283 167.075 152.385 166.645 152.467C164.929 152.784 163.192 152.978 161.448 153.048C159.576 153.123 157.712 153 155.84 152.932C154.022 152.794 152.194 152.988 150.445 153.505C150.035 153.642 150.213 154.298 150.629 154.188C153.915 153.089 157.493 153.867 160.874 153.779C162.627 153.732 164.375 153.566 166.106 153.28C166.993 153.137 167.881 152.966 168.755 152.74C169.379 152.643 169.839 152.108 169.841 151.477C169.964 149.804 169.609 148.151 170.128 146.519C170.599 145.043 171.781 143.916 172.28 142.421C172.778 140.925 172.655 139.088 172.628 137.49C172.601 135.741 172.514 133.995 172.368 132.251C172.052 128.357 171.47 124.49 170.627 120.675C170.531 120.245 169.876 120.429 169.944 120.853H169.978Z" fill="black"/>
<path d="M167.773 152.843C168.244 155.233 168.688 157.624 169.098 160.035C169.173 160.472 169.835 160.287 169.78 159.857C169.362 157.453 168.918 155.056 168.449 152.665C168.367 152.228 167.704 152.413 167.766 152.843H167.773Z" fill="black"/>
<path d="M180.257 123.584C177.381 122.512 174.574 121.255 171.747 120.053C171.344 119.883 170.996 120.47 171.399 120.641C174.281 121.87 177.142 123.147 180.072 124.247C180.489 124.397 180.667 123.741 180.257 123.564V123.584Z" fill="black"/>
<path d="M139.367 101.326L139.838 101.121L139.709 101.046L139.49 101.312C139.461 101.321 139.439 101.344 139.43 101.373C139.422 101.402 139.429 101.433 139.449 101.455C139.749 101.735 139.633 102.138 139.579 102.5C139.524 102.862 139.463 103.183 139.408 103.484C139.312 104.092 139.217 104.706 139.142 105.314C138.971 106.605 138.834 107.896 138.746 109.193C138.563 111.819 138.545 114.454 138.691 117.082C138.691 117.191 138.868 117.191 138.862 117.082C138.709 114.289 138.741 111.49 138.957 108.702C139.067 107.274 139.224 105.847 139.435 104.433C139.531 103.75 139.661 103.067 139.77 102.384C139.892 102.023 139.817 101.625 139.572 101.332L139.538 101.476C139.736 101.426 139.876 101.25 139.879 101.046C139.879 100.977 139.804 100.95 139.749 100.971L139.278 101.182C139.183 101.223 139.278 101.373 139.367 101.326V101.326Z" fill="black"/>
<path d="M138.363 117.934C138.32 118.186 138.359 118.444 138.472 118.672C138.508 118.702 138.56 118.702 138.595 118.672C138.624 118.639 138.624 118.589 138.595 118.556C138.499 118.371 138.466 118.16 138.5 117.955C138.509 117.908 138.483 117.862 138.438 117.845C138.393 117.837 138.349 117.863 138.336 117.907L138.363 117.934Z" fill="black"/>
<path d="M139.143 117.826C139.088 118.04 139.128 118.266 139.252 118.448C139.28 118.477 139.323 118.484 139.359 118.465C139.394 118.446 139.412 118.405 139.403 118.366C139.349 118.294 139.314 118.209 139.3 118.12V117.963C139.3 117.963 139.3 117.929 139.3 117.963V117.895C139.307 117.848 139.282 117.803 139.238 117.785C139.192 117.776 139.145 117.802 139.129 117.847L139.143 117.826Z" fill="black"/>
<path d="M140.146 117.649L140.262 118.332C140.278 118.376 140.326 118.4 140.371 118.387C140.393 118.382 140.412 118.368 140.423 118.348C140.433 118.328 140.434 118.305 140.426 118.284L140.31 117.601C140.303 117.58 140.289 117.563 140.27 117.553C140.251 117.542 140.228 117.54 140.207 117.547C140.163 117.56 140.137 117.604 140.146 117.649Z" fill="black"/>
<path d="M149.605 116.823C149.543 117.138 149.572 117.465 149.687 117.765C149.703 117.81 149.75 117.836 149.796 117.827C149.841 117.811 149.867 117.764 149.858 117.717C149.744 117.451 149.713 117.155 149.769 116.871C149.769 116.831 149.743 116.796 149.705 116.785C149.667 116.774 149.626 116.789 149.605 116.823V116.823Z" fill="black"/>
<path d="M150.595 116.844C150.547 117.227 150.582 117.616 150.698 117.984C150.713 118.029 150.76 118.054 150.806 118.041C150.851 118.028 150.879 117.982 150.868 117.936C150.753 117.585 150.718 117.211 150.766 116.844C150.766 116.803 150.725 116.762 150.684 116.762C150.639 116.765 150.602 116.799 150.595 116.844V116.844Z" fill="black"/>
<path d="M151.496 116.713C151.41 117.056 151.494 117.42 151.721 117.69C151.756 117.723 151.81 117.723 151.844 117.69C151.874 117.654 151.874 117.603 151.844 117.567C151.654 117.345 151.585 117.044 151.66 116.761C151.66 116.722 151.634 116.687 151.596 116.675C151.558 116.664 151.517 116.68 151.496 116.713V116.713Z" fill="black"/>
<path d="M151.92 123.414C153.513 127.964 156.546 131.869 160.559 134.54C160.648 134.601 160.737 134.451 160.648 134.39C156.672 131.743 153.665 127.874 152.084 123.367C152.049 123.264 151.886 123.312 151.92 123.414V123.414Z" fill="black"/>
<path d="M153.429 125.436C154.194 123.682 155.547 122.25 157.254 121.386C157.282 121.358 157.289 121.315 157.27 121.28C157.251 121.245 157.211 121.227 157.172 121.236C155.439 122.111 154.064 123.559 153.279 125.334C153.238 125.429 153.381 125.518 153.429 125.416V125.436Z" fill="black"/>
<path d="M154.426 128.016C154.86 127.15 155.429 126.359 156.113 125.674C156.428 125.339 156.755 124.991 157.083 124.69C157.406 124.329 157.833 124.079 158.306 123.973C158.415 123.973 158.367 123.789 158.258 123.802C157.822 123.899 157.424 124.119 157.111 124.438C156.735 124.772 156.387 125.121 156.045 125.503C155.327 126.208 154.731 127.027 154.283 127.928C154.235 128.03 154.379 128.112 154.426 128.016V128.016Z" fill="black"/>
<path d="M156.25 130.243C157.367 128.677 158.675 127.257 160.143 126.015C160.225 125.954 160.143 125.804 160.054 125.872C159.304 126.43 158.617 127.069 158.006 127.777C157.357 128.542 156.742 129.341 156.114 130.12C156.045 130.209 156.168 130.332 156.237 130.243H156.25Z" fill="black"/>
<path d="M158.17 132.654C159.809 131.472 161.53 130.188 162.336 128.262C162.377 128.167 162.213 128.119 162.172 128.221C161.386 130.1 159.679 131.349 158.074 132.51C157.985 132.572 158.074 132.722 158.163 132.654H158.17Z" fill="black"/>
<path d="M174.567 130.619C174.768 129.841 175.109 129.105 175.571 128.447C175.787 128.17 176.057 127.938 176.363 127.764C176.693 127.623 177.04 127.522 177.394 127.464C178.152 127.252 178.316 126.603 178.508 125.927C178.624 125.497 178.747 125.074 178.863 124.643C178.924 124.432 179.02 123.96 179.313 123.96C179.502 123.96 179.655 123.807 179.655 123.619C179.655 123.43 179.502 123.277 179.313 123.277C178.521 123.277 178.309 124.131 178.132 124.746C178.002 125.217 177.879 125.688 177.743 126.159C177.708 126.365 177.615 126.557 177.476 126.713C177.304 126.822 177.106 126.885 176.903 126.897C175.12 127.239 174.417 128.905 173.911 130.455C173.775 130.872 174.43 131.05 174.594 130.633L174.567 130.619Z" fill="black"/>
<path d="M178.576 128.215C179.333 129.495 180.6 130.391 182.059 130.68C182.905 130.869 183.768 130.97 184.634 130.981C185.379 131.068 186.132 130.917 186.786 130.55C186.874 130.489 186.786 130.339 186.697 130.4C186.023 130.772 185.246 130.914 184.484 130.803C183.682 130.789 182.883 130.693 182.1 130.516C180.684 130.239 179.454 129.369 178.72 128.126C178.672 128.03 178.522 128.126 178.576 128.215V128.215Z" fill="black"/>
<path d="M179.027 127.551C179.321 126.807 179.573 126.049 179.792 125.284C179.792 125.244 179.766 125.209 179.728 125.198C179.69 125.187 179.649 125.202 179.628 125.236C179.409 126.008 179.15 126.759 178.863 127.503C178.822 127.606 178.986 127.654 179.027 127.551V127.551Z" fill="black"/>
<path d="M180.236 129.812L180.755 128.139C180.888 127.611 181.081 127.101 181.329 126.616C181.384 126.521 181.24 126.432 181.186 126.527C180.937 127.008 180.742 127.514 180.605 128.037L180.072 129.765C180.072 129.867 180.209 129.915 180.236 129.812V129.812Z" fill="black"/>
<path d="M182.572 130.516C182.695 129.943 182.832 129.376 182.975 128.809L183.2 127.962L183.31 127.566C183.348 127.408 183.395 127.253 183.453 127.102C183.562 127.102 183.562 126.924 183.453 126.931C183.344 126.938 183.317 126.979 183.282 127.067C183.248 127.156 183.187 127.375 183.146 127.525C183.057 127.846 182.961 128.174 182.879 128.502C182.711 129.148 182.554 129.804 182.408 130.469C182.408 130.578 182.552 130.619 182.572 130.516Z" fill="black"/>
<path d="M185.754 127.245C185.444 128.442 185.059 129.619 184.6 130.769C184.559 130.864 184.723 130.912 184.764 130.81C185.219 129.663 185.6 128.488 185.905 127.292C185.905 127.253 185.879 127.218 185.841 127.207C185.803 127.196 185.762 127.211 185.741 127.245H185.754Z" fill="black"/>
<path d="M187.756 126.807C187.421 128.091 187.073 129.361 186.615 130.618H186.772C186.73 130.569 186.73 130.496 186.772 130.447C186.787 130.407 186.771 130.362 186.734 130.341C186.697 130.319 186.65 130.326 186.622 130.359C186.553 130.462 186.553 130.597 186.622 130.7C186.637 130.729 186.668 130.747 186.701 130.747C186.734 130.747 186.764 130.729 186.779 130.7C187.212 129.448 187.592 128.18 187.92 126.896C187.92 126.856 187.894 126.821 187.856 126.81C187.818 126.799 187.777 126.815 187.756 126.848V126.807Z" fill="black"/>
<path d="M178.071 126.254C178.071 126.254 178.242 126.828 177.299 127.033C175.817 127.347 174.301 129.608 174.24 131.582C174.178 133.555 172.443 134.382 172.088 132.947C171.844 131.632 171.714 130.297 171.699 128.959L170.524 121.822C170.524 121.822 170.34 120.456 170.763 120.374C171.187 120.292 172.416 120.374 172.621 120.654C172.826 120.934 177.067 122.703 177.163 122.751C177.258 122.799 179.212 123.318 178.945 123.768C178.596 124.575 178.304 125.406 178.071 126.254Z" fill="black"/>
<path d="M172.089 132.941C172.089 132.941 174.438 138.405 174.24 140.543C174.042 142.681 171.467 145.05 172.089 149.497C172.71 153.943 174.67 159.154 178.973 157.972C178.973 157.972 178.16 160.41 174.267 159.973C170.374 159.536 169.329 160.991 169.261 158.963C169.101 157.226 168.776 155.509 168.291 153.833C168.291 153.833 167.226 152.918 168.667 152.386C170.108 151.853 169.555 151.634 169.48 150.48C169.405 149.326 169.002 146.983 170.484 144.969C171.966 142.954 172.068 141.922 172.293 139.641C172.383 137.406 172.315 135.167 172.089 132.941V132.941Z" fill="black"/>
<path d="M162.349 58.3125C163.026 57.7404 163.766 57.2478 164.555 56.8441C164.651 56.7963 164.555 56.646 164.466 56.6938C163.667 57.1089 162.916 57.6104 162.226 58.1895C162.144 58.2647 162.26 58.3808 162.349 58.3125V58.3125Z" fill="black"/>
<path d="M163.367 63.0584C163.995 62.5785 164.74 62.2745 165.525 62.1773C165.634 62.1773 165.634 61.9929 165.525 62.0066C164.694 62.1042 163.905 62.4278 163.244 62.9423C163.155 63.0037 163.244 63.1267 163.367 63.0584V63.0584Z" fill="black"/>
<path d="M159.528 54.4532L160.416 53.5653C160.498 53.4902 160.375 53.3673 160.3 53.4424L159.405 54.3371C159.33 54.4122 159.453 54.5351 159.528 54.4532V54.4532Z" fill="black"/>
<path d="M133.5 68.5C133.492 66.9034 131.173 64.6781 129.5 66.5C128.016 68.1167 129.802 70.2449 131.501 71.4563M132.5 72C132.19 71.8914 131.847 71.7033 131.501 71.4563M131.501 71.4563L129.001 90.6635M128.001 89.0003C128.767 92.4489 138.93 96.7783 144.312 95.4629M147.501 92.5003C147.15 94.1359 145.953 95.0618 144.312 95.4629M144.312 95.4629L145.001 88.5003M149.501 86.5003C152.501 89.0003 152.001 93.0003 153.001 93.0003C154.001 93.0003 160.001 91.5003 163.501 94.5003C166.301 96.9003 167.001 99.167 167.001 100M130.501 78.5003C124.5 81.0003 119.594 85.5829 119.501 95.5003C114.667 97.0003 104.501 101.6 102.501 108C100.001 116 106.412 143.368 108.001 149C109.733 155.142 115.487 160.193 118 160M128 136C128.467 135.555 129.006 135.048 129.598 134.5M142.5 160C147.697 158.014 158.782 146.836 160.5 141C161.764 136.71 160.459 137.168 161 135C161.5 133 164 132.5 164.5 130C164.699 129.009 164.467 128.452 163.974 128M129.598 134.5C133.657 130.742 140.208 125.048 143 124C147 122.5 149 123.5 151 123C153 122.5 154.5 119.5 156 119.5C156.447 119.5 156.894 119.9 157.341 120.5M129.598 134.5C129.409 131.73 129.084 129.996 128 126.5M157.341 120.5C158.394 121.915 159.447 124.447 160.5 125.5C161.867 126.867 163.223 127.312 163.974 128M157.341 120.5C158.061 119.5 159 117.5 159.5 116.5C160 115.5 160.5 111.5 161.5 111M165.5 114C166.353 112.575 167.059 111.807 169 110.5M168 114.5C169.108 114.068 169.702 113.92 170.5 114.5M169 117C169.945 116.71 170.473 116.533 171.5 117M163.974 128C165.718 127.894 168.843 123.815 170 121.5C170.614 120.274 171.5 120.5 172.5 120M175.5 160C181.5 160.5 189.5 134.5 188.5 132.5C187.606 130.711 187 130.5 187 130.5L188.5 126.5M191 122C191 123.2 189 125.5 188 126.5C186.239 127.381 182.152 127.098 180.177 125.311M179.5 124.5C179.68 124.799 179.909 125.069 180.177 125.311M180.177 125.311C180 122 181.5 121 181.5 120C181.5 119.2 181.167 117.334 181 116.5M183 115C183.5 116 183.797 117.018 183.5 118M185.5 114.5C185.966 115.58 186.152 116.276 186 118M188 113.5C188.992 115.6 189.296 116.987 188.5 120.5M139 66.0003C139.977 65.6097 140.524 65.5425 141.5 66.0003M147.5 67.0003C148.476 66.6307 149.025 66.5153 150 67.0003M145 69.5003C145.278 71.6359 145.394 72.8075 145 74.5003" stroke="black" stroke-width="0.5" stroke-linecap="round" stroke-linejoin="round"/>
<rect x="241.404" y="94.541" width="48.0867" height="48.0867" rx="24.0433" fill="#ECC953"/>
<path d="M279.5 114C277.5 101 285 91 289 85.5L293.5 130C288 126.5 281.5 123 279.5 114Z" fill="white"/>
<path d="M306.522 3.5971C306.745 2.51522 307.803 1.81874 308.885 2.04147L340.288 8.50652C341.37 8.72925 342.066 9.78684 341.844 10.8687L332.724 55.166C332.501 56.2479 331.444 56.9443 330.362 56.7216L298.959 50.2566C297.877 50.0338 297.18 48.9762 297.403 47.8944L306.522 3.5971Z" fill="white"/>
<path fill-rule="evenodd" clip-rule="evenodd" d="M306.522 3.5971C306.745 2.51522 307.803 1.81874 308.885 2.04147L340.288 8.50652C341.37 8.72925 342.066 9.78684 341.844 10.8687L332.724 55.166C332.501 56.2479 331.444 56.9443 330.362 56.7216L298.959 50.2566C297.877 50.0338 297.18 48.9762 297.403 47.8944L306.522 3.5971Z" stroke="black" stroke-width="0.5" stroke-linecap="round" stroke-linejoin="round"/>
<path d="M338.194 9.44397L338.062 10.0857C338.036 10.2079 338.115 10.3273 338.237 10.3525C338.359 10.3776 338.479 10.299 338.504 10.1768L338.688 9.57347C338.774 9.29128 338.334 9.20993 338.246 9.48236C338.191 9.64967 338.164 9.82504 338.167 10.0012C338.171 10.0821 338.219 10.1543 338.292 10.1902C338.365 10.2261 338.451 10.2204 338.518 10.1751C338.618 10.1292 338.728 10.1135 338.837 10.1299C338.971 10.1345 339.105 10.1218 339.237 10.0923C339.494 10.0183 339.729 9.8831 339.922 9.69828C340.351 9.34287 340.63 8.83821 340.702 8.28577C340.742 7.75202 340.523 7.23163 340.113 6.8868C339.672 6.51838 339.071 6.40555 338.526 6.58881C337.981 6.77207 337.571 7.22513 337.442 7.78533C337.384 8.06856 337.826 8.15967 337.884 7.87644C338.017 7.36162 338.466 6.9905 338.996 6.95671C339.545 6.93407 340.04 7.28186 340.206 7.80535C340.332 8.35522 340.137 8.92925 339.702 9.28854C339.529 9.4892 339.293 9.62455 339.032 9.672C338.763 9.70415 338.513 9.63894 338.272 9.80152L338.624 9.97541C338.629 9.83902 338.657 9.70443 338.706 9.57712L338.263 9.48601L338.079 10.0893L338.522 10.1804L338.654 9.53872C338.679 9.41651 338.6 9.29705 338.478 9.27189C338.356 9.24673 338.237 9.3254 338.211 9.44761L338.194 9.44397Z" fill="black"/>
<path d="M333.334 8.44397L333.202 9.08566C333.177 9.20787 333.256 9.32733 333.378 9.35249C333.5 9.37765 333.62 9.29898 333.645 9.17677L333.829 8.57347C333.915 8.29128 333.475 8.20993 333.386 8.48236C333.331 8.64967 333.304 8.82504 333.307 9.00119C333.312 9.08213 333.36 9.15426 333.433 9.1902C333.505 9.22614 333.592 9.22037 333.659 9.17508C333.758 9.12924 333.869 9.11353 333.977 9.12991C334.112 9.13446 334.246 9.12182 334.377 9.09229C334.634 9.0183 334.869 8.8831 335.063 8.69828C335.492 8.34287 335.77 7.83821 335.842 7.28577C335.882 6.75202 335.663 6.23163 335.254 5.8868C334.813 5.51838 334.212 5.40555 333.667 5.58881C333.122 5.77207 332.711 6.22513 332.582 6.78533C332.524 7.06856 332.967 7.15967 333.025 6.87644C333.158 6.36162 333.606 5.9905 334.137 5.95671C334.685 5.93407 335.181 6.28186 335.346 6.80535C335.472 7.35522 335.277 7.92925 334.842 8.28854C334.67 8.4892 334.434 8.62455 334.173 8.672C333.908 8.70506 333.658 8.63985 333.413 8.80152L333.765 8.97541C333.77 8.83902 333.797 8.70443 333.847 8.57712L333.404 8.48601L333.22 9.08931L333.662 9.18041L333.795 8.53872C333.82 8.41651 333.741 8.29705 333.619 8.27189C333.497 8.24673 333.377 8.3254 333.352 8.44761L333.334 8.44397Z" fill="black"/>
<path d="M328.475 7.44299L328.343 8.08469C328.318 8.20689 328.396 8.32635 328.519 8.35151C328.641 8.37667 328.76 8.298 328.785 8.17579L328.97 7.57249C329.055 7.2903 328.615 7.20896 328.527 7.48139C328.471 7.64874 328.446 7.82479 328.452 8.00112C328.456 8.08179 328.503 8.15427 328.575 8.19027C328.647 8.22627 328.733 8.22007 328.8 8.1741C328.899 8.12826 329.01 8.11256 329.118 8.12893C329.252 8.13349 329.387 8.12084 329.518 8.09131C329.775 8.01733 330.01 7.88213 330.203 7.69731C330.634 7.34337 330.913 6.83795 330.983 6.28479C331.023 5.75104 330.804 5.23066 330.395 4.88582C329.953 4.51741 329.352 4.40457 328.807 4.58783C328.263 4.77109 327.852 5.22415 327.723 5.78435C327.665 6.06758 328.107 6.15869 328.166 5.87546C328.298 5.36064 328.747 4.98952 329.278 4.95573C329.826 4.93309 330.322 5.28089 330.487 5.80437C330.613 6.35425 330.418 6.92828 329.983 7.28756C329.81 7.48822 329.574 7.62357 329.314 7.67102C329.049 7.70409 328.799 7.63888 328.554 7.80054L328.905 7.97443C328.91 7.83805 328.938 7.70345 328.987 7.57614L328.545 7.48503L328.361 8.08833L328.803 8.17944L328.935 7.53774C328.96 7.41554 328.882 7.29607 328.759 7.27091C328.637 7.24575 328.518 7.32443 328.493 7.44663L328.475 7.44299Z" fill="black"/>
<path d="M323.616 6.44299L323.483 7.08469C323.458 7.20689 323.537 7.32635 323.659 7.35151C323.781 7.37667 323.901 7.298 323.926 7.17579L324.11 6.57249C324.196 6.2903 323.756 6.20896 323.668 6.48139C323.616 6.64974 323.591 6.82506 323.593 7.00112C323.596 7.08179 323.643 7.15427 323.715 7.19027C323.788 7.22627 323.874 7.22007 323.94 7.1741C324.04 7.12826 324.15 7.11256 324.259 7.12893C324.666 7.15179 325.063 6.99389 325.344 6.69731C325.775 6.34337 326.054 5.83795 326.124 5.28479C326.163 4.75104 325.944 4.23066 325.535 3.88582C325.094 3.51741 324.493 3.40457 323.948 3.58783C323.403 3.77109 322.993 4.22415 322.864 4.78435C322.805 5.06758 323.248 5.15869 323.306 4.87546C323.439 4.36064 323.888 3.98952 324.418 3.95573C324.967 3.93309 325.462 4.28089 325.627 4.80437C325.754 5.35425 325.559 5.92828 325.124 6.28756C324.951 6.48822 324.715 6.62357 324.454 6.67102C324.189 6.70409 323.94 6.63888 323.694 6.80054L324.046 6.97443C324.051 6.83805 324.079 6.70345 324.128 6.57614L323.685 6.48503L323.501 7.08833L323.944 7.17944L324.076 6.53774C324.101 6.41554 324.022 6.29607 323.9 6.27091C323.778 6.24575 323.658 6.32443 323.633 6.44663L323.616 6.44299Z" fill="black"/>
<path d="M318.757 5.44299L318.625 6.08469C318.6 6.20689 318.679 6.32635 318.801 6.35151C318.923 6.37667 319.042 6.298 319.068 6.17579L319.252 5.57249C319.338 5.2903 318.898 5.20896 318.809 5.48139C318.758 5.64974 318.732 5.82506 318.735 6.00112C318.738 6.08179 318.785 6.15427 318.857 6.19027C318.929 6.22627 319.015 6.22007 319.082 6.1741C319.181 6.12826 319.292 6.11256 319.4 6.12893C319.808 6.15179 320.205 5.99389 320.485 5.69731C320.916 5.34337 321.195 4.83795 321.265 4.28479C321.305 3.75104 321.086 3.23066 320.677 2.88582C320.235 2.51741 319.635 2.40457 319.09 2.58783C318.545 2.77109 318.134 3.22415 318.005 3.78435C317.947 4.06758 318.39 4.15869 318.448 3.87546C318.581 3.36064 319.029 2.98952 319.56 2.95573C320.108 2.93309 320.604 3.28089 320.769 3.80437C320.895 4.35425 320.7 4.92828 320.265 5.28756C320.093 5.48822 319.856 5.62357 319.596 5.67102C319.331 5.70409 319.081 5.63888 318.836 5.80054L319.187 5.97443C319.195 5.8383 319.222 5.70402 319.269 5.57614L318.827 5.48503L318.643 6.08833L319.085 6.17944L319.217 5.53774C319.243 5.41554 319.164 5.29607 319.042 5.27091C318.919 5.24575 318.8 5.32443 318.775 5.44663L318.757 5.44299Z" fill="black"/>
<path d="M313.898 4.44299L313.766 5.08469C313.741 5.20689 313.819 5.32635 313.941 5.35151C314.064 5.37667 314.183 5.298 314.208 5.17579L314.392 4.57249C314.478 4.2903 314.038 4.20896 313.95 4.48139C313.898 4.64974 313.873 4.82506 313.875 5.00112C313.878 5.08179 313.925 5.15427 313.998 5.19027C314.07 5.22627 314.156 5.22007 314.222 5.1741C314.322 5.12826 314.433 5.11256 314.541 5.12893C314.948 5.15179 315.345 4.99389 315.626 4.69731C316.057 4.34337 316.336 3.83795 316.406 3.28479C316.448 2.75067 316.229 2.22928 315.817 1.88582C315.376 1.51741 314.775 1.40457 314.23 1.58783C313.685 1.77109 313.275 2.22415 313.146 2.78435C313.088 3.06758 313.53 3.15869 313.588 2.87546C313.721 2.36064 314.17 1.98952 314.7 1.95573C315.249 1.93309 315.744 2.28089 315.91 2.80437C316.036 3.35425 315.841 3.92828 315.406 4.28756C315.233 4.48822 314.997 4.62357 314.737 4.67102C314.471 4.70409 314.222 4.63888 313.976 4.80054L314.328 4.97443C314.335 4.8383 314.363 4.70402 314.41 4.57614L313.968 4.48503L313.783 5.08833L314.226 5.17944L314.358 4.53774C314.383 4.41554 314.305 4.29607 314.182 4.27091C314.06 4.24575 313.941 4.32443 313.915 4.44663L313.898 4.44299Z" fill="black"/>
<path d="M309.038 3.44209L308.906 4.08378C308.881 4.20599 308.959 4.32545 309.082 4.35061C309.204 4.37577 309.323 4.2971 309.348 4.17489L309.533 3.57159C309.618 3.2894 309.178 3.20805 309.09 3.48048C309.039 3.64884 309.013 3.82416 309.015 4.00022C309.019 4.08089 309.066 4.15337 309.138 4.18937C309.21 4.22536 309.296 4.21917 309.363 4.1732C309.463 4.12679 309.576 4.11139 309.685 4.12894C309.82 4.13217 309.954 4.11954 310.085 4.09132C310.34 4.0156 310.574 3.88023 310.766 3.6964C311.197 3.34247 311.476 2.83705 311.546 2.28389C311.588 1.74977 311.369 1.22838 310.958 0.88492C310.516 0.51912 309.916 0.407874 309.372 0.590803C308.828 0.773732 308.417 1.22483 308.286 1.78345C308.228 2.06668 308.67 2.15779 308.729 1.87456C308.861 1.35974 309.31 0.988621 309.841 0.954827C310.389 0.932191 310.885 1.27998 311.05 1.80347C311.176 2.35334 310.981 2.92737 310.546 3.28666C310.374 3.48732 310.137 3.62267 309.877 3.67012C309.612 3.70318 309.362 3.63798 309.121 3.80055L309.468 3.97353C309.475 3.8374 309.503 3.70312 309.55 3.57524L309.108 3.48413L308.924 4.08743L309.366 4.17853L309.498 3.53684C309.523 3.41463 309.445 3.29517 309.323 3.27001C309.2 3.24485 309.081 3.32352 309.056 3.44573L309.038 3.44209Z" fill="black"/>
<circle cx="312.66" cy="13.6724" r="2.82732" transform="rotate(11.6331 312.66 13.6724)" fill="#D6DEFF"/>
<path d="M311.528 13.635C311.573 13.9369 311.71 14.2175 311.92 14.439C312.045 14.5489 312.235 14.539 312.347 14.4167C312.565 14.1294 312.807 13.8614 313.07 13.6155L313.161 13.5301L313.214 13.4797L313.429 13.3032C313.574 13.1941 313.724 13.0902 313.879 12.9914C314.013 12.8965 314.05 12.714 313.965 12.5739C313.921 12.5069 313.852 12.4602 313.774 12.444C313.696 12.4279 313.614 12.4437 313.547 12.488C312.908 12.9011 312.344 13.4216 311.882 14.0267L312.31 14.0044C312.25 13.937 312.338 14.0469 312.28 13.9984L312.246 13.9546C312.229 13.9322 312.213 13.9085 312.2 13.8837L312.178 13.8424L312.186 13.8012C312.173 13.7806 312.163 13.7579 312.157 13.7339L312.14 13.6691C312.122 13.6043 312.134 13.6985 312.147 13.6338C312.14 13.523 312.075 13.4241 311.975 13.3745C311.876 13.3249 311.758 13.3321 311.665 13.3934C311.573 13.4546 311.52 13.5607 311.526 13.6715L311.528 13.635Z" fill="black"/>
<path d="M317.209 15.4628L332.931 18.6995C333.047 18.7234 333.161 18.6488 333.184 18.5329C333.208 18.417 333.134 18.3038 333.018 18.2799L317.296 15.0432C317.18 15.0193 317.067 15.0939 317.043 15.2098C317.019 15.3257 317.093 15.4389 317.209 15.4628Z" fill="black"/>
<circle cx="310.399" cy="23.6567" r="2.82732" transform="rotate(11.6331 310.399 23.6567)" fill="#D6DEFF"/>
<path d="M309.272 23.594C309.317 23.8959 309.454 24.1765 309.664 24.398C309.789 24.5079 309.979 24.498 310.092 24.3757C310.311 24.0875 310.553 23.8176 310.815 23.5686L310.905 23.4891L310.959 23.4387L311.173 23.2622C311.318 23.1512 311.468 23.0472 311.624 22.9445C311.757 22.8514 311.794 22.6709 311.709 22.5329C311.665 22.4659 311.597 22.4191 311.518 22.403C311.44 22.3869 311.358 22.4027 311.292 22.447C310.652 22.8601 310.089 23.3806 309.626 23.9857L310.054 23.9634C309.994 23.896 310.082 24.0059 310.024 23.9574L309.991 23.9136L309.944 23.8427C309.944 23.8427 309.91 23.7683 309.922 23.8014C309.933 23.8344 309.93 23.7602 309.93 23.7602C309.917 23.7396 309.907 23.7169 309.901 23.6929L309.884 23.6281C309.867 23.5633 309.878 23.6575 309.891 23.5928C309.881 23.4214 309.733 23.2909 309.562 23.3014C309.391 23.3118 309.26 23.4591 309.271 23.6305L309.272 23.594Z" fill="black"/>
<path d="M315.209 25.4628L330.931 28.6995C331.047 28.7234 331.161 28.6488 331.184 28.5329C331.208 28.417 331.134 28.3038 331.018 28.2799L315.296 25.0432C315.18 25.0193 315.067 25.0939 315.043 25.2098C315.019 25.3257 315.093 25.4389 315.209 25.4628Z" fill="black"/>
<circle cx="308.139" cy="33.6382" r="2.82732" transform="rotate(11.6331 308.139 33.6382)" fill="#D6DEFF"/>
<path d="M307.011 33.5774C307.056 33.8793 307.193 34.1599 307.403 34.3814C307.528 34.4913 307.718 34.4814 307.831 34.3591C308.05 34.0709 308.292 33.8009 308.555 33.552L308.645 33.4725C308.661 33.4544 308.679 33.4376 308.698 33.4221C308.698 33.4221 308.736 33.387 308.698 33.4221L308.912 33.2456C309.057 33.1346 309.208 33.0306 309.363 32.9279C309.496 32.8348 309.533 32.6543 309.448 32.5163C309.404 32.4493 309.336 32.4025 309.257 32.3864C309.179 32.3703 309.097 32.3861 309.031 32.4304C308.391 32.8435 307.828 33.364 307.366 33.9691L307.793 33.9468C307.733 33.8794 307.821 33.9893 307.764 33.9407L307.73 33.897L307.683 33.8261C307.683 33.8261 307.649 33.7517 307.661 33.7848C307.673 33.8178 307.67 33.7436 307.67 33.7436C307.656 33.723 307.646 33.7003 307.64 33.6763L307.623 33.6115C307.606 33.5467 307.617 33.6409 307.63 33.5762C307.62 33.4048 307.473 33.2743 307.301 33.2848C307.13 33.2952 306.999 33.4425 307.01 33.6139L307.011 33.5774Z" fill="black"/>
<path d="M313.209 35.4628L328.931 38.6995C329.047 38.7234 329.161 38.6488 329.184 38.5329C329.208 38.417 329.134 38.3038 329.018 38.2799L313.296 35.0432C313.18 35.0193 313.067 35.0939 313.043 35.2098C313.019 35.3257 313.093 35.4389 313.209 35.4628Z" fill="black"/>
<circle cx="305.877" cy="43.6206" r="2.82732" transform="rotate(11.6331 305.877 43.6206)" fill="#D6DEFF"/>
<path d="M304.75 43.5604C304.796 43.8622 304.933 44.1429 305.143 44.3643C305.268 44.4743 305.457 44.4643 305.57 44.342C305.788 44.0528 306.03 43.7828 306.294 43.5349L306.384 43.4554L306.438 43.3992C306.438 43.3992 306.475 43.3699 306.438 43.3992C306.506 43.3395 306.578 43.2869 306.651 43.2285C306.725 43.17 306.947 43.0135 307.103 42.9108C307.242 42.8193 307.28 42.6324 307.189 42.4934C307.097 42.3544 306.91 42.3159 306.771 42.4074C306.131 42.8222 305.567 43.3448 305.105 43.952L305.532 43.9297C305.473 43.8623 305.56 43.9723 305.503 43.9237L305.469 43.8799L305.424 43.8031C305.424 43.8031 305.389 43.7347 305.4 43.7677C305.412 43.8007 305.409 43.7265 305.409 43.7265C305.397 43.7051 305.387 43.6826 305.38 43.6593L305.364 43.5885C305.345 43.5296 305.356 43.6238 305.364 43.5885C305.35 43.4231 305.207 43.2985 305.041 43.3077C304.878 43.3241 304.755 43.4652 304.761 43.6299L304.75 43.5604Z" fill="black"/>
<path d="M311.209 45.4628L326.931 48.6995C327.047 48.7234 327.161 48.6488 327.184 48.5329C327.208 48.417 327.134 48.3038 327.018 48.2799L311.296 45.0432C311.18 45.0193 311.067 45.0939 311.043 45.2098C311.019 45.3257 311.093 45.4389 311.209 45.4628Z" fill="black"/>
<path d="M352.839 99.066H352.898L352.8 98.9876L352.888 99.0758L352.809 98.9778C352.838 99.0079 352.859 99.0451 352.868 99.0856V98.968C352.873 99.0103 352.873 99.053 352.868 99.0954V98.968C352.878 99.0198 352.878 99.073 352.868 99.1248V98.9876C352.874 99.0495 352.874 99.1118 352.868 99.1738V99.0562L352.78 99.2228L352.849 99.1248C352.838 99.1457 352.821 99.1627 352.8 99.1738L352.898 99.0954L353.015 99.0464H353.201H353.319L353.417 99.115L353.495 99.213L353.544 99.3306V99.5168C353.56 99.4384 353.587 99.3626 353.623 99.2914L353.731 99.0268C353.784 98.9049 353.784 98.7665 353.731 98.6446C353.664 98.5359 353.559 98.4556 353.437 98.4192C353.317 98.3712 353.184 98.3712 353.064 98.4192L352.966 98.4976C352.906 98.5572 352.862 98.6315 352.839 98.7132L352.741 98.9484C352.707 99.0184 352.678 99.0904 352.653 99.164C352.643 99.2322 352.643 99.3015 352.653 99.3698C352.652 99.4744 352.683 99.5769 352.741 99.6638C352.872 99.8817 353.132 99.9858 353.378 99.9186C353.48 99.8934 353.575 99.8429 353.652 99.7716C353.703 99.7206 353.749 99.6648 353.789 99.605C353.848 99.5121 353.897 99.4136 353.936 99.311C353.965 99.2051 353.985 99.0969 353.995 98.9876V98.8798C354 98.8113 354 98.7425 353.995 98.674C353.928 98.4265 353.766 98.2154 353.544 98.086C353.428 98.0212 353.291 98.0037 353.162 98.037C353.039 98.0707 352.933 98.1517 352.868 98.2624C352.734 98.4953 352.813 98.7926 353.045 98.9288L352.839 99.066Z" fill="black"/>
<path d="M342.892 99.9477H342.95L342.852 99.8693L342.941 99.9575L342.862 99.8595L342.921 99.9673L342.872 99.8497C342.876 99.8921 342.876 99.9348 342.872 99.9771V99.8497C342.882 99.9016 342.882 99.9547 342.872 100.007V99.8693C342.862 99.9328 342.845 99.9951 342.823 100.056L342.872 99.9379C342.845 99.9966 342.812 100.052 342.774 100.105L342.852 100.007L342.803 100.056L342.901 99.9771L343.019 99.9281H343.146H343.244L343.352 99.9771L343.45 100.056L343.529 100.154L343.578 100.271V100.271V100.408V100.536C343.597 100.457 343.626 100.381 343.666 100.31L343.774 100.046C343.827 99.9238 343.827 99.7855 343.774 99.6635C343.707 99.5548 343.602 99.4746 343.48 99.4381C343.354 99.4044 343.22 99.422 343.107 99.4871L343.009 99.5655C342.945 99.6224 342.901 99.6978 342.882 99.7811L342.784 100.016C342.75 100.086 342.721 100.158 342.696 100.232C342.686 100.3 342.686 100.369 342.696 100.438C342.697 100.541 342.724 100.642 342.774 100.732C342.911 100.949 343.173 101.052 343.421 100.987C343.523 100.961 343.618 100.911 343.695 100.84C343.743 100.788 343.786 100.733 343.823 100.673C343.885 100.582 343.935 100.483 343.97 100.379C344.007 100.275 344.027 100.166 344.028 100.056C344.038 100.02 344.038 99.983 344.028 99.9477C344.038 99.8795 344.038 99.8102 344.028 99.7419C343.959 99.4928 343.793 99.2815 343.568 99.1539C343.449 99.1049 343.315 99.1049 343.195 99.1539C343.072 99.1877 342.966 99.2686 342.901 99.3793C342.852 99.4986 342.852 99.6324 342.901 99.7517C342.932 99.877 343.014 99.9836 343.127 100.046L342.892 99.9477Z" fill="black"/>
<path d="M361.5 94.9998C361.833 93.6665 363.5 91.2 365.5 92C367.5 92.8 366.746 95.5165 366.5 96.5C366 98.5 365.109 99.1955 363 100" stroke="black" stroke-width="0.5" stroke-linecap="round"/>
<path d="M364.933 94.2929C364.657 94.1315 364.316 94.1315 364.041 94.2929C363.726 94.4934 363.488 94.7936 363.365 95.1455C363.034 95.9362 362.874 96.7877 362.894 97.6445C362.894 97.8013 363.149 97.8013 363.139 97.6445C363.122 96.9206 363.238 96.1996 363.482 95.5179C363.579 95.1943 363.746 94.8962 363.972 94.6457C364.186 94.4142 364.532 94.3614 364.805 94.5183C364.943 94.6065 365.06 94.4007 364.933 94.3027V94.2929Z" fill="black"/>
<path d="M364.197 95.7735C364.059 95.5757 363.803 95.4986 363.579 95.5873C363.339 95.6845 363.153 95.8812 363.07 96.1263C363.057 96.1821 363.083 96.2397 363.133 96.2671C363.183 96.2946 363.246 96.2851 363.285 96.2439C363.323 96.1549 363.369 96.0696 363.423 95.9891C363.479 95.92 363.549 95.8632 363.628 95.8225H363.834H363.893V95.8225C363.971 95.9597 364.187 95.8225 364.109 95.6951L364.197 95.7735Z" fill="black"/>
<path d="M358.209 112.845C358.209 112.845 352.682 120.94 346.704 123.978L346.645 120.655L346.469 116.481C346.469 116.481 346.53 116.686 348 117C351.43 117.725 357.3 114.432 358.505 113.129L358.209 112.845Z" fill="black"/>
<path d="M349.311 106.2C349.232 105.825 349.447 105.449 349.811 105.328C350.791 104.985 352.81 104.446 353.016 105.416C353.231 106.661 349.958 109.356 349.311 106.2Z" fill="black" stroke="black" stroke-width="0.5" stroke-linecap="round" stroke-linejoin="round"/>
<path d="M334.953 90.6181C334.953 90.6181 333.797 94.5381 337.776 93.9697C348.35 92.4311 351.447 87.5409 354.857 83.0819C354.857 83.0819 358.777 93.0387 361.815 93.7247C361.815 93.7247 364 91 365.921 92.5095C367 93 367.107 96.1453 366.117 97.4095C365.5 98.5 364.877 98.9041 364.157 99.5557C364.157 99.5557 362.746 99.9575 362.736 101.192C362.726 102.427 362.736 109.532 362.736 109.532C362.736 109.532 372.272 101.33 369.508 90.7357C367.185 81.9157 360.806 75.6535 356.18 78.2799C356.18 78.2799 345.821 73.2133 340.608 79.0051C337.636 82.2455 335.671 86.2805 334.953 90.6181Z" fill="black"/>
<path d="M334.954 90.6182C334.954 90.6182 332.131 100.095 328.515 105.318C325.654 109.454 326.193 115.99 327.878 118.646C328.565 119.631 328.659 120.913 328.123 121.988C326.741 124.748 326.655 127.979 327.888 130.808C328.279 132.043 329.22 133.027 330.436 133.474C332.066 134.005 333.053 135.658 332.749 137.345C332.18 140.53 332.523 144.538 337.59 145.185C345.675 146.253 347.811 139.148 347.468 131.533C347.184 125.114 346.773 119.901 346.577 117.647C346.516 116.714 346.248 116.56 345.5 116C345.389 115.91 344.635 115.546 344.5 115.5C343.941 115.343 339.276 111.218 339.315 102.143C339.354 93.0682 338.864 88.1878 340.942 87.8252" fill="black"/>
<path d="M378.123 187.805C378.123 187.805 382.061 184.007 386.5 178.316M363.031 105C362.655 108.2 362.874 118.292 363.031 122.938C363.031 122.938 390.04 126.182 397.488 144.067C402.081 155.098 393.643 169.159 386.5 178.316M386.5 178.316C377.516 171.81 371.823 168.535 363.741 165M359 163C360.685 163.69 362.253 164.349 363.741 165M363.741 165C360.827 170 353 180.7 347 187.5" stroke="black" stroke-width="0.5" stroke-linecap="round" stroke-linejoin="round"/>
<path d="M334.797 118.411C334.797 118.411 305.583 109.385 301.957 107.631M301.957 107.631C307.135 98.4697 311.277 88.7601 314.305 78.6818C318.568 63.5702 323.889 63.9818 324.311 59.317C324.732 54.6522 320.91 50.8008 320.91 50.8008M301.957 107.631C301.183 109 301 109.5 300 111" stroke="black" stroke-width="0.5" stroke-linecap="round" stroke-linejoin="round"/>
<path d="M307.327 52.1729L308.709 56.8769C309.123 58.3598 308.754 59.9517 307.729 61.1007C302.417 67.2453 286.306 86.3945 281.357 98.6445C275.399 113.393 278.584 127.682 316.471 140.873" stroke="black" stroke-width="0.5" stroke-linecap="round" stroke-linejoin="round"/>
<path d="M295.998 165.441C295.998 165.441 302.701 163.971 307.65 167.96" stroke="black" stroke-width="0.5" stroke-linecap="round" stroke-linejoin="round"/>
<path d="M310.052 161.57C310.052 161.57 314.677 163.53 314.04 171.468C319.143 174.912 324.538 177.902 330.161 180.406C339.746 184.718 347.468 187.805 347.468 187.805" stroke="black" stroke-width="0.5" stroke-linecap="round" stroke-linejoin="round"/>
<path d="M297.871 180.847C299.488 180.327 300.811 181.611 302.095 182.434C303.314 183.25 304.658 183.862 306.073 184.247C306.779 184.434 307.534 184.483 308.22 184.737C308.599 184.908 308.934 185.162 309.2 185.482C309.941 186.185 310.552 187.015 311.003 187.932C311.248 188.51 312.189 188.256 311.983 187.677C311.51 186.665 310.863 185.743 310.072 184.953C309.753 184.573 309.38 184.243 308.964 183.973C308.261 183.677 307.518 183.482 306.759 183.395C305.075 182.98 303.487 182.241 302.085 181.219C300.772 180.288 299.302 179.357 297.636 179.896C297.038 180.092 297.293 181.033 297.89 180.876L297.871 180.847Z" fill="black"/>
<path d="M342 137.5C345.333 140.167 354.1 144.8 362.5 142C370.9 139.2 376 130.833 377.5 127" stroke="black" stroke-width="0.5" stroke-linecap="round" stroke-linejoin="round"/>
<path d="M387.826 176.633L385.395 187.54H380.956C380.956 187.54 377.908 188.256 381.113 184.688C384.317 181.121 387.826 176.633 387.826 176.633V176.633Z" fill="black" stroke="black" stroke-width="0.5" stroke-linecap="round" stroke-linejoin="round"/>
<path d="M320.342 170.733C321.116 170.89 335.042 178.573 346.87 175.78C358.699 172.987 363.05 166.588 362.835 166.911C362.619 167.235 352.819 180.964 351.917 182.121C351.016 183.277 349.056 188.471 345.743 187.109C342.431 185.747 325.634 178.289 325.634 178.289C325.634 178.289 322.715 177.754 322 176" fill="black"/>
<path d="M365.902 166.068C365.902 166.068 381.406 178.573 382.768 184.963L386.551 180.063C386.551 180.063 388.972 178.554 383.729 175.486C378.486 172.419 365.902 166.068 365.902 166.068Z" fill="black"/>
<path d="M221.181 315.767L211.981 300.639V198.002C211.981 193.608 208.419 190.046 204.024 190.046H24.9498C20.5581 190.05 17 193.611 17 198.002V306.062C16.9982 308.172 17.835 310.195 19.326 311.688C20.8171 313.18 22.8402 314.019 24.9498 314.019H200.111L218.941 318.799C219.74 318.99 220.575 318.684 221.063 318.024C221.551 317.363 221.597 316.475 221.181 315.767Z" fill="#EBEFFE"/>
<path d="M424.031 177H244.957C240.562 177 237 180.562 237 184.957V293.03C237.004 297.423 240.564 300.983 244.957 300.986H269.974V315.643C269.977 316.626 270.573 317.51 271.483 317.881C272.393 318.252 273.437 318.037 274.126 317.337L290.142 301.014H424.004C426.129 301.028 428.172 300.193 429.678 298.694C431.183 297.194 432.028 295.155 432.022 293.03V184.97C432.026 182.852 431.184 180.819 429.684 179.323C428.184 177.827 426.15 176.991 424.031 177Z" fill="#F4F6F9"/>
<path d="M375 250.5C374.333 253.06 374.889 254.629 376.5 257.5" stroke="black" stroke-width="0.5" stroke-linecap="round" stroke-linejoin="round"/>
<path fill-rule="evenodd" clip-rule="evenodd" d="M424.084 177.013H245.009C242.899 177.011 240.874 177.849 239.381 179.341C237.889 180.834 237.051 182.859 237.053 184.969V293.042C237.053 297.437 240.615 300.999 245.009 300.999H270.027V315.656C270.025 316.639 270.62 317.525 271.53 317.896C272.44 318.268 273.485 318.052 274.172 317.349L290.188 301.026H424.05C428.442 301.023 432 297.461 432 293.07V184.983C432.011 180.598 428.469 177.032 424.084 177.013V177.013Z" stroke="black" stroke-width="0.5" stroke-linecap="round" stroke-linejoin="round"/>
<path d="M345.888 214.605L345.937 214.668L345.886 214.59L345.929 214.672L345.902 214.588C345.911 214.626 345.916 214.665 345.917 214.703L345.945 214.627C345.936 214.662 345.923 214.696 345.907 214.729L345.941 214.64L345.929 214.672C345.901 214.724 345.868 214.772 345.83 214.817L345.859 214.74L345.754 214.825L345.832 214.774C345.819 214.785 345.804 214.792 345.788 214.794L345.875 214.775L345.836 214.761L345.913 214.79L345.996 214.821L346.086 214.855L346.162 214.884L346.213 214.961L346.241 215.045L346.244 215.133L346.212 215.216L346.193 215.267C346.226 215.212 346.268 215.161 346.316 215.117L346.463 214.939C346.517 214.865 346.54 214.773 346.526 214.683C346.512 214.592 346.463 214.511 346.389 214.458C346.235 214.357 346.029 214.39 345.914 214.535L345.774 214.694C345.753 214.751 345.686 214.792 345.652 214.845C345.57 214.936 345.525 215.054 345.526 215.177C345.563 215.355 345.707 215.491 345.887 215.517C346.106 215.513 346.309 215.406 346.434 215.227C346.49 215.158 346.533 215.081 346.564 214.999C346.608 214.931 346.637 214.855 346.649 214.775C346.654 214.668 346.64 214.561 346.607 214.46C346.577 214.377 346.532 214.3 346.473 214.234C346.411 214.166 346.327 214.122 346.236 214.108C346.149 214.106 346.064 214.133 345.995 214.186C345.927 214.25 345.893 214.342 345.901 214.435C345.889 214.524 345.917 214.614 345.976 214.682L345.888 214.605Z" fill="black"/>
<path d="M338.096 212.099L338.145 212.162L338.101 212.086L338.134 212.172L338.109 212.083C338.12 212.12 338.125 212.159 338.124 212.198L338.153 212.121C338.144 212.156 338.131 212.191 338.115 212.223L338.148 212.134L338.105 212.249L338.136 212.166C338.104 212.215 338.069 212.263 338.031 212.309L338.06 212.232L337.962 212.319L338.031 212.272L338.112 212.251L338.073 212.237L338.162 212.234L338.245 212.265L338.334 212.299L338.399 212.36L338.444 212.435L338.471 212.518L338.474 212.607L338.443 212.69L338.438 212.703C338.473 212.648 338.515 212.598 338.56 212.552L338.708 212.374C338.816 212.221 338.782 212.01 338.631 211.899C338.559 211.844 338.466 211.822 338.376 211.84C338.289 211.857 338.211 211.905 338.157 211.976L338.019 212.129C337.997 212.186 337.931 212.227 337.896 212.28C337.821 212.381 337.789 212.508 337.807 212.633C337.842 212.809 337.986 212.942 338.164 212.964C338.384 212.968 338.591 212.858 338.711 212.674C338.766 212.605 338.81 212.528 338.841 212.446C338.882 212.377 338.911 212.301 338.925 212.222C338.926 212.114 338.91 212.007 338.877 211.905C338.849 211.822 338.802 211.747 338.741 211.685C338.682 211.617 338.601 211.571 338.512 211.556C338.424 211.55 338.336 211.576 338.265 211.63C338.201 211.697 338.167 211.787 338.171 211.88C338.16 211.969 338.187 212.059 338.246 212.127L338.096 212.099Z" fill="black"/>
<path d="M356.963 217.638C356.827 217.408 356.574 217.273 356.307 217.288C356.012 217.317 355.735 217.44 355.517 217.64C354.966 218.089 354.519 218.653 354.208 219.293C354.17 219.395 354.317 219.45 354.368 219.353C354.634 218.808 355.004 218.32 355.457 217.917C355.645 217.725 355.875 217.58 356.128 217.491C356.367 217.407 356.633 217.492 356.779 217.7C356.829 217.799 356.988 217.727 356.938 217.628L356.963 217.638Z" fill="black"/>
<path d="M355.847 218.429C355.827 218.236 355.676 218.082 355.483 218.059C355.271 218.033 355.06 218.107 354.911 218.259C354.82 218.327 354.931 218.457 355.016 218.387C355.129 218.28 355.28 218.221 355.435 218.223C355.496 218.228 355.553 218.25 355.601 218.286L355.66 218.344C355.671 218.365 355.677 218.387 355.679 218.41C355.677 218.432 355.685 218.453 355.699 218.469C355.713 218.486 355.734 218.496 355.755 218.497C355.801 218.5 355.842 218.468 355.849 218.423L355.847 218.429Z" fill="black"/>
<path d="M336.588 207.232C338.363 207.753 340.182 208.112 342.023 208.302L344.744 205.342L343.017 208.589C344.639 208.952 346.284 209.201 347.94 209.335C349.731 209.404 351.456 208.655 352.627 207.298V207.298C352.569 207.452 351.056 213.596 354.595 216.251C355.444 215.362 356.811 215.219 357.825 215.913C359.758 217.058 358.059 220.636 354.635 221.28C354.635 221.28 354.067 223.774 354.112 223.615C354.157 223.457 362.462 218.733 362.17 211.916C361.878 205.099 354.329 201.948 354.329 201.948C354.329 201.948 342.964 194.534 336.167 206.197C336.047 206.384 336.026 206.618 336.109 206.824C336.193 207.029 336.371 207.182 336.588 207.232V207.232Z" fill="black" stroke="black" stroke-width="0.5" stroke-linecap="round" stroke-linejoin="round"/>
<circle cx="368.468" cy="207.268" r="10.1216" transform="rotate(20.6476 368.468 207.268)" fill="black" stroke="black" stroke-width="0.5" stroke-linecap="round" stroke-linejoin="round"/>
<path d="M377.999 255.875L376.605 256.92L376.257 266.677L382.877 266.677C383.903 267.172 383.763 269.85 382.877 276.782L375.908 278.176L375.908 280.267L377.65 281.312L387.756 280.964L389.149 279.57L389.846 257.617L388.801 255.875L377.999 255.875Z" fill="white"/>
<path d="M387.08 259.608C387.094 259.13 386.719 258.732 386.242 258.718L385.409 258.693C384.932 258.679 384.534 259.055 384.52 259.532L384.422 262.835C384.408 263.312 384.783 263.711 385.26 263.725L386.093 263.749C386.57 263.763 386.968 263.388 386.982 262.911L387.08 259.608Z" fill="black"/>
<path d="M377.5 291.5C378.277 294.523 380.524 298.122 383.671 299.097C386.025 299.748 388.551 299.437 390.664 298.235C394.884 296.014 396.018 291.661 396.104 287.308C396.275 281.368 394.922 275.285 392.995 269.662C392.049 266.79 391.167 263.779 390 261" stroke="black" stroke-width="0.5" stroke-linecap="round" stroke-linejoin="round"/>
<path d="M387.058 247.511C386.706 249.19 386.776 250.106 387.407 251.692" stroke="black" stroke-width="0.5" stroke-linecap="round" stroke-linejoin="round"/>
<path d="M383.837 247.162C383.574 247.859 383.574 247.859 383.574 248.556" stroke="black" stroke-width="0.5" stroke-linecap="round" stroke-linejoin="round"/>
<path d="M381.482 245.768C380.786 246.813 380.786 247.161 380.786 248.555M378.695 245.768C377.998 246.813 377.649 248.207 377.649 249.601" stroke="black" stroke-width="0.5" stroke-linecap="round" stroke-linejoin="round"/>
<path d="M250.787 303.641V292.638C250.789 291.902 250.395 291.221 249.756 290.855L240.195 285.358C239.561 284.992 238.78 284.992 238.146 285.358L228.618 290.855C227.979 291.221 227.585 291.902 227.587 292.638V303.641C227.585 304.377 227.979 305.057 228.618 305.423L238.146 310.928C238.78 311.294 239.561 311.294 240.195 310.928L249.756 305.423C250.395 305.057 250.789 304.377 250.787 303.641Z" fill="#FB5D64"/>
<path d="M330.791 264.296C330.626 267.167 330.907 270.047 331.624 272.833C331.979 274.199 332.498 275.517 332.867 276.883C333.22 278.218 333.498 279.573 333.7 280.94C333.768 281.37 334.424 281.185 334.383 280.755C334.186 279.414 333.917 278.085 333.577 276.773C333.215 275.408 332.703 274.144 332.348 272.805C331.621 270.031 331.335 267.159 331.501 264.296C331.501 263.858 330.818 263.858 330.818 264.296H330.791Z" fill="#C5C5C5"/>
<path d="M377.547 283.017C377.875 282.238 377.042 282.45 377.042 282.45C377.042 282.45 371.346 282.833 369.905 282.689C368.464 282.546 368.491 283.154 368.491 283.154L363.997 286.773C363.997 286.773 361.422 288.822 356.033 292.975C351.951 295.994 347.51 298.494 342.811 300.419C341.193 301.102 342.811 300.931 342.811 300.931H350.822C357.42 298.35 362.522 293.262 365.725 289.321C368.523 285.865 372.732 283.857 377.178 283.857H377.424" fill="black"/>
<path d="M331.497 269C331.497 269 330.466 276.076 331.108 279.49C331.75 282.905 328 284 328 284C329.513 283.226 331.553 282.003 332.5 281.5C333.447 280.997 334.611 281.765 334.242 279.893C333.874 278.022 332.685 274.334 332.685 274.334L331.497 269Z" fill="black"/>
<path fill-rule="evenodd" clip-rule="evenodd" d="M221.256 315.767L212.056 300.639V198.002C212.053 193.61 208.492 190.05 204.1 190.046H25.025C20.6322 190.05 17.0721 193.61 17.0684 198.002V306.062C17.0684 310.456 20.6306 314.019 25.025 314.019H200.186L219.016 318.799C219.815 318.99 220.65 318.684 221.138 318.024C221.626 317.363 221.672 316.475 221.256 315.767Z" stroke="black" stroke-width="0.5" stroke-linecap="round" stroke-linejoin="round"/>
<path d="M89.9521 225.753C89.8678 225.813 89.7939 225.887 89.7335 225.971C89.708 226.018 89.6852 226.066 89.6652 226.115V226.19C89.6481 226.285 89.6481 226.382 89.6652 226.477C89.6798 226.571 89.7074 226.663 89.7472 226.75C89.7769 226.814 89.8161 226.874 89.8633 226.927C89.9234 227.012 90.0062 227.079 90.1023 227.119C90.25 227.186 90.4236 227.16 90.5448 227.052C90.666 226.944 90.7121 226.775 90.6623 226.62C90.6311 226.531 90.5899 226.447 90.5394 226.367L90.4165 226.162C90.3215 226.001 90.1144 225.946 89.9521 226.039C89.7907 226.134 89.7359 226.342 89.8291 226.504L89.9384 226.688L90.034 226.859L89.9999 226.777V226.832V226.736V226.647V226.647L90.034 226.565L90.0887 226.497L90.1569 226.442L90.2389 226.408H90.3277H90.4233H90.3892L90.4711 226.442L90.5394 226.497C90.5133 226.478 90.4903 226.455 90.4711 226.429L90.5258 226.504C90.4936 226.455 90.464 226.405 90.437 226.354L90.4711 226.436C90.4512 226.39 90.4374 226.342 90.4301 226.292V226.381V226.265V226.36C90.4262 226.324 90.4262 226.288 90.4301 226.251V226.333C90.4419 226.302 90.458 226.272 90.4779 226.244L90.4301 226.313C90.4452 226.287 90.4663 226.266 90.4916 226.251L90.4233 226.299C90.5 226.257 90.5566 226.185 90.5804 226.101C90.6067 226.011 90.5943 225.915 90.5462 225.835C90.5011 225.757 90.4276 225.701 90.3413 225.678C90.254 225.651 90.1592 225.663 90.0818 225.712L89.9521 225.753Z" fill="black"/>
<path d="M98.1891 225.392C98.1047 225.455 98.0309 225.531 97.9706 225.618C97.946 225.661 97.9254 225.707 97.9091 225.754C97.9073 225.779 97.9073 225.804 97.9091 225.829C97.8923 225.924 97.8923 226.021 97.9091 226.116C97.9219 226.211 97.9496 226.303 97.9911 226.389C98.0242 226.452 98.0631 226.512 98.1072 226.567C98.1666 226.654 98.2495 226.723 98.3462 226.765C98.5036 226.833 98.6859 226.8 98.8107 226.683C98.918 226.57 98.9547 226.408 98.9063 226.26C98.8764 226.173 98.835 226.09 98.7833 226.014L98.6672 225.802C98.6211 225.726 98.5479 225.67 98.4623 225.645C98.3725 225.622 98.2771 225.634 98.196 225.679C98.0346 225.774 97.9798 225.981 98.073 226.144L98.1823 226.328C98.2165 226.389 98.2506 226.444 98.2779 226.506L98.2438 226.424C98.2478 226.439 98.2478 226.456 98.2438 226.471V226.383V226.294L98.2779 226.212L98.3326 226.144L98.4009 226.089L98.4828 226.055H98.5716H98.6604H98.6262L98.7082 226.089H98.6741L98.7424 226.137C98.7424 226.137 98.7014 226.096 98.6809 226.075L98.7355 226.144C98.6972 226.098 98.6651 226.047 98.6399 225.993V226.075C98.6368 226.027 98.6368 225.98 98.6399 225.932V226.021C98.6365 225.984 98.6365 225.948 98.6399 225.911V226C98.636 225.964 98.636 225.927 98.6399 225.891V225.973C98.6541 225.941 98.6724 225.911 98.6945 225.884L98.6399 225.952L98.7014 225.891L98.6331 225.945C98.7072 225.897 98.7626 225.825 98.7902 225.741C98.8153 225.653 98.8041 225.558 98.7592 225.479C98.7143 225.399 98.6393 225.341 98.5511 225.317C98.4612 225.294 98.3659 225.306 98.2848 225.351L98.1891 225.392Z" fill="black"/>
<path d="M80.0016 225.759C80.1826 225.578 80.4611 225.539 80.6846 225.663C80.936 225.812 81.1489 226.018 81.3061 226.264C81.6619 226.734 81.926 227.267 82.0847 227.835C82.1058 227.868 82.1466 227.884 82.1847 227.873C82.2227 227.862 82.2488 227.827 82.2486 227.787C82.0628 227.124 81.7393 226.507 81.2993 225.977C81.1168 225.718 80.8521 225.528 80.548 225.438C80.2947 225.379 80.0299 225.469 79.865 225.67C79.7968 225.759 79.947 225.848 80.0153 225.759H80.0016Z" fill="black"/>
<path d="M80.9643 226.674C80.9797 226.624 81.014 226.583 81.0599 226.558C81.1164 226.528 81.1803 226.514 81.2443 226.517C81.3955 226.55 81.5293 226.638 81.62 226.763C81.6543 226.796 81.7085 226.796 81.7429 226.763C81.7583 226.748 81.767 226.727 81.767 226.705C81.767 226.683 81.7583 226.662 81.7429 226.647C81.6208 226.477 81.4319 226.368 81.2238 226.346C81.0337 226.334 80.8593 226.452 80.8004 226.633C80.7891 226.678 80.8166 226.724 80.8619 226.736C80.9071 226.747 80.953 226.719 80.9643 226.674V226.674Z" fill="black"/>
<path d="M93.6535 231.707C93.6246 231.698 93.5936 231.698 93.5647 231.707C93.5579 231.725 93.5579 231.744 93.5647 231.762C93.5362 232.047 93.6889 232.32 93.9472 232.445C94.2736 232.643 94.6756 232.671 95.0263 232.52C95.2757 232.407 95.4595 232.185 95.5248 231.919C95.5353 231.879 95.5266 231.836 95.5013 231.802C95.476 231.769 95.4369 231.749 95.3951 231.748C94.8009 231.742 94.0974 231.707 93.6535 231.707V231.707Z" fill="black"/>
<path d="M93.654 231.367C93.4923 231.363 93.3412 231.447 93.2579 231.585C93.1979 231.723 93.1812 231.875 93.2101 232.023C93.2548 232.237 93.3674 232.431 93.5311 232.576C93.8623 232.877 94.3105 233.014 94.7536 232.951C95.1897 232.897 95.568 232.624 95.7576 232.227C95.813 232.122 95.8456 232.005 95.8532 231.886C95.8494 231.721 95.7619 231.569 95.621 231.483C95.5086 231.428 95.3841 231.402 95.259 231.408H94.9448C94.5146 231.408 94.0843 231.374 93.654 231.374C93.4669 231.377 93.3162 231.528 93.3125 231.715C93.3162 231.902 93.4669 232.053 93.654 232.057H94.4668H94.9243H95.1429C95.2202 232.063 95.2978 232.063 95.3751 232.057C95.3751 232.057 95.2453 232.002 95.2385 231.995H95.1975V231.824C95.1944 231.852 95.1944 231.879 95.1975 231.906C95.1975 231.941 95.1634 231.968 95.1497 231.995V232.029L95.0883 232.091H95.0541C95.1019 232.05 95.0541 232.091 95.0541 232.091C95.0271 232.113 94.9972 232.131 94.9653 232.145H94.9243H94.8356H94.7399H94.5214C94.5214 232.145 94.576 232.145 94.5214 232.145C94.4491 232.135 94.3782 232.116 94.3097 232.091H94.2619V232.091L94.1526 232.036C94.1414 232.033 94.1296 232.033 94.1184 232.036C94.0775 232.036 94.1184 232.07 94.1184 232.036L93.9409 232.016V232.016C93.9422 232 93.9422 231.984 93.9409 231.968L93.9067 231.913C93.9067 231.879 93.9067 231.913 93.9067 231.913C93.9038 231.9 93.9038 231.886 93.9067 231.872C93.9067 231.872 93.9067 231.797 93.9067 231.872V231.831C93.9067 231.831 93.9067 231.865 93.9067 231.879L93.7838 232.002C93.6677 232.002 93.6335 232.002 93.695 232.002C93.8836 232.002 94.0365 231.849 94.0365 231.661C94.0083 231.476 93.8396 231.346 93.654 231.367V231.367Z" fill="black"/>
<path d="M91.4141 241.195C93.0118 241.945 94.6621 242.577 96.3519 243.087C96.8323 243.185 97.2936 243.36 97.7179 243.606C97.7179 242.773 97.752 241.94 97.7179 241.106C96.1497 241.749 94.4256 241.908 92.7663 241.564C92.3224 241.441 93.5586 242.035 91.5985 241.284" fill="black"/>
<path d="M90.8018 241.105C91.8536 241.57 93.347 242.417 94.4261 242.813C94.9543 243.013 95.487 243.191 96.0243 243.346C96.5603 243.456 97.0777 243.642 97.561 243.899C97.6663 243.96 97.796 243.96 97.9016 243.899C98.0071 243.839 98.0725 243.727 98.0732 243.605C98.0732 242.772 98.0732 241.939 98.0732 241.105C98.0704 240.999 98.0192 240.9 97.934 240.836C97.8488 240.772 97.739 240.75 97.6361 240.778C96.7826 241.095 95.8921 241.301 94.9862 241.392C94.55 241.433 94.111 241.433 93.6749 241.392C93.3555 241.313 93.0316 241.254 92.705 241.215C92.527 241.184 92.3534 241.289 92.2984 241.461C92.2433 241.633 92.3236 241.82 92.4865 241.898C92.462 241.887 93.0268 241.985 93.0741 241.782C93.096 241.688 93.0786 241.589 93.026 241.508C93.0025 241.469 92.9725 241.435 92.9372 241.406C93.0943 241.508 92.6572 241.891 92.6982 241.946C92.6026 241.946 92.7392 242 92.6982 241.946C92.7943 241.975 92.8924 241.998 92.9919 242.014C93.2241 242.062 93.4631 242.096 93.6749 242.123C94.1291 242.167 94.5866 242.167 95.0408 242.123C95.9903 242.028 96.9241 241.815 97.8205 241.488L97.3902 241.16V243.66L97.9093 243.366C97.4498 243.109 96.9551 242.92 96.4409 242.806C95.9013 242.656 95.3618 242.485 94.8359 242.294C93.7363 241.898 92.6572 241.426 91.5918 240.928C91.5032 240.889 90.8018 241.111 90.8018 241.105Z" fill="black"/>
<path d="M77.9592 215.809C76.1196 217.643 75.1484 220.174 75.2887 222.768C75.4595 227.262 82.0843 235.547 82.0843 235.547C82.0843 235.547 81.9204 232.569 81.8794 232.016C81.8384 231.463 82.1594 229.919 81.3057 229.468C79.9043 228.911 78.8231 227.76 78.3553 226.327C78.1776 225.816 78.2156 225.255 78.4604 224.773C78.7053 224.291 79.1358 223.93 79.6529 223.772C80.9113 223.469 82.2155 224.056 82.8219 225.2H83.5595L83.02 221.553C83.8337 220.985 84.3382 220.071 84.3859 219.08C83.5713 218.83 82.8287 218.387 82.2209 217.789C83.1946 218.074 84.1988 218.242 85.2123 218.288C88.6681 218.384 102.341 218.37 101.952 212.1C101.494 204.902 80.9096 206.794 77.9592 215.809V215.809Z" fill="black" stroke="black" stroke-width="0.5" stroke-linecap="round" stroke-linejoin="round"/>
<path d="M101.105 213.746C101.105 213.746 102.819 216.765 101.603 221.614C101.603 221.614 99.9506 214.784 99.3223 214.156" fill="black"/>
<path d="M101.105 213.746C101.105 213.746 102.819 216.765 101.603 221.614C101.603 221.614 99.9506 214.784 99.3223 214.156" stroke="black" stroke-width="0.5" stroke-linecap="round" stroke-linejoin="round"/>
<path d="M75.3639 299.63C73.944 304.293 73.0797 309.107 72.7891 313.972C72.7891 314.416 73.472 314.416 73.472 313.972C73.7618 309.176 74.6169 304.431 76.0195 299.835C76.1493 299.412 75.4936 299.234 75.3365 299.651L75.3639 299.63Z" fill="black"/>
<path d="M90.0751 280.397C91.8508 282.337 94.6783 281.906 97.0209 281.804C99.9718 281.672 102.928 281.881 105.831 282.425C105.94 282.425 105.981 282.282 105.872 282.261C103.172 281.744 100.425 281.515 97.6765 281.579C95.2042 281.647 92.0762 282.316 90.1639 280.213C90.0887 280.131 89.9726 280.254 90.0478 280.336L90.0751 280.397Z" fill="black"/>
<path d="M88.0057 286.065C89.7815 287.998 92.609 287.575 94.9584 287.466C97.9073 287.336 100.861 287.547 103.762 288.094C103.871 288.094 103.912 287.944 103.81 287.923C101.109 287.409 98.3623 287.18 95.614 287.24C93.1348 287.308 90.0068 287.971 88.1014 285.908C88.0262 285.826 87.9101 285.949 87.9853 286.031L88.0057 286.065Z" fill="black"/>
<path d="M90.0751 291.817C91.2157 293.032 92.9641 292.786 94.4666 292.711C96.3333 292.631 98.203 292.764 100.04 293.107C100.142 293.107 100.19 292.964 100.081 292.944C98.4441 292.635 96.7805 292.493 95.1154 292.52C93.4968 292.52 91.4479 293.032 90.1912 291.694C90.1161 291.619 90 291.735 90.0751 291.817V291.817Z" fill="black"/>
<path d="M96.9321 260.701C96.843 260.583 96.704 260.514 96.5564 260.514C96.4089 260.514 96.2699 260.583 96.1808 260.701C96.0712 260.831 95.9939 260.986 95.9554 261.152C95.891 261.353 95.8565 261.562 95.853 261.773C95.842 262.131 96.0352 262.465 96.3516 262.634C96.6572 262.758 97.0078 262.646 97.1848 262.367C97.4104 261.973 97.4599 261.502 97.3214 261.07C97.3214 260.96 97.137 261.001 97.1575 261.111C97.2461 261.432 97.2461 261.772 97.1575 262.094C97.0726 262.347 96.8364 262.517 96.5701 262.518C96.3051 262.457 96.1013 262.245 96.051 261.978C96.0054 261.66 96.0504 261.336 96.1808 261.042C96.2214 260.897 96.3238 260.777 96.4608 260.715C96.577 260.659 96.7166 260.696 96.7887 260.803C96.8433 260.899 96.9935 260.803 96.9389 260.715L96.9321 260.701Z" fill="black"/>
<path d="M97.6157 266.731C97.5266 266.614 97.3876 266.544 97.2401 266.544C97.0925 266.544 96.9535 266.614 96.8644 266.731C96.7548 266.861 96.6775 267.016 96.639 267.182C96.5741 267.383 96.5396 267.592 96.5366 267.803C96.5253 268.164 96.7218 268.498 97.042 268.664C97.3457 268.784 97.6921 268.673 97.8684 268.398C98.0943 268.001 98.1438 267.528 98.005 267.093C98.005 266.991 97.8206 267.032 97.8411 267.141C97.9298 267.463 97.9298 267.803 97.8411 268.124C97.7562 268.377 97.52 268.547 97.2537 268.548C96.9888 268.487 96.7849 268.275 96.7347 268.008C96.6891 267.69 96.734 267.366 96.8644 267.073C96.9032 266.927 97.0062 266.806 97.1444 266.745C97.2606 266.689 97.4002 266.727 97.4723 266.834C97.5269 266.929 97.6772 266.834 97.6225 266.745L97.6157 266.731Z" fill="black"/>
<path d="M66.335 314.02H65.1466C65.1466 314.02 64.0812 314.095 64.9759 313.248C65.8706 312.401 70.6924 307.102 71.1841 305.736C71.6758 304.37 73.8204 301.829 74.278 301.214C75.0512 300.092 76.2008 298.914 77.4995 298.5C79.1523 298.063 80.9995 297.5 80.9995 297.5C80.9995 297.5 75.3844 299.746 74.7151 303.058C74.7151 303.058 73.3491 309.997 73.2603 312.142C73.1715 314.286 72.8232 313.897 72.8232 313.897" fill="black"/>
<path d="M113.447 282.815C113.447 282.815 117.367 282.945 117.585 285.506C117.804 288.067 107.129 298.722 106.35 314.02H99.4525C99.4525 314.02 98.7695 314.396 98.8378 313.242C99.0094 311.84 99.251 310.447 99.5618 309.069C99.5618 309.069 102.082 299.999 105.818 294.207L111.015 286.36L113.447 282.815Z" fill="black"/>
<path d="M127.461 280.335C127.461 280.335 129.045 291.427 130.876 295.921C130.876 295.921 127.502 291.755 127.461 289.296C127.42 286.837 127.304 283.832 127.304 283.832" fill="black"/>
<path d="M145.023 228.653L147.707 230.701C147.789 230.77 147.878 230.619 147.789 230.551L145.112 228.502C145.023 228.434 144.941 228.584 145.023 228.653Z" fill="black"/>
<path d="M148.828 222.98L150.59 225.957C150.615 225.997 150.667 226.009 150.706 225.985C150.746 225.96 150.758 225.908 150.733 225.869L148.971 222.891C148.917 222.802 148.767 222.891 148.828 222.98Z" fill="black"/>
<path d="M157.174 220.84V225.881C157.164 225.917 157.177 225.956 157.208 225.977C157.239 225.999 157.28 225.999 157.311 225.977C157.342 225.956 157.355 225.917 157.345 225.881V220.84C157.334 220.802 157.299 220.776 157.259 220.776C157.22 220.776 157.185 220.802 157.174 220.84V220.84Z" fill="black"/>
<path d="M153.5 236.5C154.295 234.484 154.803 233.369 156.5 231.5" stroke="black" stroke-width="0.5" stroke-linecap="round"/>
<path d="M157.5 235.5C158.429 236.04 158.65 236.507 158 238M160 236.5C160.159 238.147 160.146 239.018 159 240M157 239L155 241C155.723 241.656 156.003 242.219 156 244" stroke="black" stroke-width="0.5" stroke-linecap="round" stroke-linejoin="round"/>
<path d="M100 216C102.798 222.21 103.318 235.086 100.5 238.5C99.5865 239.607 98.6189 240.363 97.6345 240.851M89 240C91.2719 241.255 94.5368 242.384 97.6345 240.851M97.6345 240.851L98.1605 245.5M98.5 248.5L99 248M98.5 248.5C97.8333 249 96.8315 249.837 96.5 250.5C96.1685 251.163 95.8333 253 95.5 254C94.6366 253.098 93.7371 251.135 93 251C92.3117 250.874 85.183 249.906 82.5 248.342M98.5 248.5L98.1605 245.5M82 248C82.1417 248.117 82.3097 248.231 82.5 248.342M82.5 248.342L82.3504 245.673M81.5 230.5L82.3504 245.673M98.1605 245.5C99.4695 246.117 100.21 246.716 101.225 248.5M101.5 249C101.406 248.824 101.314 248.657 101.225 248.5M101.225 248.5C109.816 250 127.6 254.2 130 259C132.4 263.8 137 272.667 139 276.5M139 276.5V277.5M139 276.5C140.683 270.293 145.058 256.253 148 251.5C149.433 249.185 149.309 239.046 154.5 237.5M161 241.5C161 245.5 159 248 158 249C157 250 156.919 274.322 155.5 280C153.606 287.575 149.704 296.871 144.663 300.5M127.669 290.238C129.169 293.905 133.5 301.2 139.5 302C141.319 302.243 143.049 301.662 144.663 300.5M127.5 278C127.411 287.246 128.196 306.526 128.5 309.5C128.843 312.863 125.994 314.13 125 314M36 314C39.5 299.5 47.1404 267.07 53.5 261.5C59.6739 256.092 72.3333 252.167 79.5 249.5C80.1669 248.071 80.5852 246.784 82.3504 245.673M144.663 300.5C140 297.5 138.372 289.387 139 278.5" stroke="black" stroke-width="0.5" stroke-linecap="round" stroke-linejoin="round"/>
<path d="M99 314C99.5 300.5 113.209 283.37 117 277C119.313 273.114 111.435 274.064 110 274C108.199 273.92 106.886 271.32 104 270.5C100.61 269.537 97.582 272.957 94.5 273C90.8603 273.05 88.707 271.141 86.5 271.5C83.8443 271.932 79.7034 282.552 78.5 288M86 290C83.0601 288.485 81.3259 288.016 78 288M83.5 291.5L85 292.5M82.5 294L85 295M82.5 297.5C80.8333 297.5 77.1 297.9 75.5 299.5C73.5 301.5 69 311 64 314M78.5 284C75.5225 284.734 72.5673 291.414 70 293C69.1085 293.551 65.8845 295.06 62 297.15M44.8237 309.5C47.8575 304.925 56.0434 300.354 62 297.15M61 282C61.9268 285.598 62.3279 288.125 62 297.15M45.5 307.5C44.583 309.924 44.1835 311.308 45 314" stroke="black" stroke-width="0.5" stroke-linecap="round" stroke-linejoin="round"/>
<path d="M391.018 247.96L389.853 253.304C389.808 253.403 389.996 253.435 390.022 253.327L391.187 247.983C391.232 247.884 391.044 247.852 391.018 247.96Z" fill="black"/>
<path d="M399.885 247.906L392.046 255.247C392.001 255.304 391.988 255.364 392.015 255.393C392.042 255.422 392.102 255.413 392.163 255.371L400.002 248.031C400.048 247.974 400.06 247.914 400.033 247.885C400.006 247.856 399.946 247.865 399.885 247.906V247.906Z" fill="black"/>
<path d="M397.256 257.072L392.733 257.499C392.634 257.528 392.629 257.679 392.74 257.668L397.256 257.242C397.361 257.212 397.366 257.061 397.256 257.072Z" fill="black"/>
<path d="M164.948 233.716L171.22 239.988L186.552 223.959" stroke="#09101D" stroke-width="0.5" stroke-linecap="round" stroke-linejoin="round"/>
<path d="M209.709 182.364L193.775 210.035C193.447 210.606 193.448 211.309 193.776 211.879C194.105 212.45 194.712 212.802 195.369 212.802H227.232C227.889 212.802 228.496 212.45 228.825 211.879C229.153 211.309 229.154 210.606 228.826 210.035L212.897 182.364C212.567 181.793 211.96 181.441 211.303 181.441C210.645 181.441 210.038 181.793 209.709 182.364V182.364Z" fill="#46DBC9"/>
<rect x="263.705" y="210.924" width="32.5435" height="32.5435" rx="2.38241" fill="#1B3C87"/>
<path d="M352 275.5C350.5 278 351.173 282.018 351.5 283C352 284.5 350.5 285.833 350 286.5C351.01 286.601 351.702 286.427 353 286C353.608 287.675 354.789 289.105 357.5 292" stroke="black" stroke-width="0.5" stroke-linecap="round" stroke-linejoin="round"/>
<path d="M374.5 279L374.402 278.77L374.5 279ZM384.177 276.177C384.274 276.079 384.274 275.921 384.177 275.823C384.079 275.726 383.921 275.726 383.823 275.823L384.177 276.177ZM341.067 301.241C347.371 299.476 354.342 294.562 360.432 289.81C361.957 288.62 363.428 287.439 364.822 286.317C366.217 285.196 367.533 284.134 368.748 283.183C371.188 281.274 373.194 279.832 374.598 279.23L374.402 278.77C372.927 279.402 370.869 280.889 368.44 282.79C367.221 283.743 365.902 284.807 364.509 285.928C363.115 287.049 361.646 288.229 360.124 289.416C354.029 294.172 347.129 299.024 340.933 300.759L341.067 301.241ZM374.598 279.23C376.316 278.494 378.153 278.249 379.858 277.933C381.538 277.622 383.115 277.239 384.177 276.177L383.823 275.823C382.885 276.761 381.462 277.128 379.767 277.442C378.097 277.751 376.184 278.006 374.402 278.77L374.598 279.23Z" fill="black"/>
<path d="M380.005 270.25C379.867 270.247 379.753 270.357 379.75 270.495C379.747 270.633 379.857 270.747 379.995 270.75L380.005 270.25ZM383.636 269.71C383.752 269.634 383.785 269.479 383.71 269.364C383.634 269.248 383.479 269.215 383.364 269.29L383.636 269.71ZM380.5 273.25C380.362 273.25 380.25 273.362 380.25 273.5C380.25 273.638 380.362 273.75 380.5 273.75L380.5 273.25ZM383.601 273.228C383.728 273.172 383.785 273.025 383.728 272.899C383.672 272.772 383.525 272.715 383.399 272.772L383.601 273.228ZM379.995 270.75C380.734 270.765 381.318 270.723 381.885 270.563C382.452 270.404 382.987 270.132 383.636 269.71L383.364 269.29C382.737 269.698 382.25 269.941 381.75 270.082C381.25 270.222 380.721 270.265 380.005 270.25L379.995 270.75ZM380.5 273.75C381.237 273.75 381.705 273.762 382.137 273.702C382.58 273.64 382.98 273.505 383.601 273.228L383.399 272.772C382.793 273.04 382.443 273.155 382.068 273.207C381.681 273.261 381.263 273.25 380.5 273.25L380.5 273.75Z" fill="black"/>
<path d="M385 266.5L376 267L376.413 257.909C376.462 256.841 377.342 256 378.411 256H387.918C389.054 256 389.962 256.945 389.917 258.08L389.074 279.152C389.032 280.195 388.195 281.031 387.152 281.071L378.077 281.42C376.943 281.464 376 280.556 376 279.422V278.5" stroke="black" stroke-width="0.5" stroke-linecap="round" stroke-linejoin="round"/>
<path d="M346.5 228C345.376 228.63 344.5 228.5 343 229.138C343.102 229.821 343.458 232.464 343.642 234.601C346.299 229.985 347.337 227.922 348.716 227C348.184 227.315 347.5 227.5 346.5 228Z" fill="black"/>
<path d="M82.5001 229.499C81.0875 229.413 77.4295 227.392 78.5001 224.999C79.3219 223.163 82.324 224.13 83.0001 225.5" stroke="black" stroke-width="0.5" stroke-linecap="round" stroke-linejoin="round"/>
<path d="M89 223C89.7567 222.422 90.2051 222.365 91 222.5" stroke="black" stroke-width="0.5" stroke-linecap="round" stroke-linejoin="round"/>
<path d="M97 222.561C97.7567 221.983 98.2051 221.926 99 222.061" stroke="black" stroke-width="0.5" stroke-linecap="round" stroke-linejoin="round"/>
<path d="M94.5 225C95.263 227.015 95.4978 228.133 95.5 230" stroke="black" stroke-width="0.5" stroke-linecap="round"/>
<path d="M357.253 236.035C357.272 236.172 357.399 236.267 357.535 236.247C357.672 236.228 357.767 236.101 357.747 235.965L357.253 236.035ZM355.253 222.035L357.253 236.035L357.747 235.965L355.747 221.965L355.253 222.035Z" fill="black"/>
<path d="M346 212C346.906 212.052 347.342 212.276 348 213" stroke="black" stroke-width="0.5" stroke-linecap="round" stroke-linejoin="round"/>
<path d="M344.076 219.933C342.535 220.717 341.5 221 340 220" stroke="black" stroke-width="0.5" stroke-linecap="round" stroke-linejoin="round"/>
<path d="M338 210C338.906 210.052 339.342 210.276 340 211" stroke="black" stroke-width="0.5" stroke-linecap="round" stroke-linejoin="round"/>
<path d="M341.5 214C340.625 215.627 340.277 216.718 340 218.5" stroke="black" stroke-width="0.5" stroke-linecap="round" stroke-linejoin="round"/>
<path d="M382.5 286.5C381.747 284.58 381.704 283.467 382 281.5" stroke="black" stroke-width="0.5" stroke-linecap="round" stroke-linejoin="round"/>
<path d="M389.5 274.5C391.45 274.179 391.893 273.641 393.5 272.5" stroke="black" stroke-width="0.5" stroke-linecap="round" stroke-linejoin="round"/>
<path d="M323 115C319.077 124.99 317.661 130.977 316.5 142.5L321 144C316.131 156.869 317.573 164.105 322.5 177" stroke="black" stroke-width="0.5" stroke-linecap="round" stroke-linejoin="round"/>
<path d="M339.068 88C338.872 93.8821 339.068 104.5 340.068 108.5C341.068 112.5 343.398 116.032 347.568 117C352.124 118.058 357.881 114.52 359.068 112M342 95C342.984 94.6973 343.536 94.6441 344.5 95.5M352.5 93.5C353.916 93.3176 354.097 93.4847 355.5 94M348 98.5C347.493 100.831 347.248 102.116 347.5 104" stroke="black" stroke-width="0.5" stroke-linecap="round" stroke-linejoin="round"/>
<path d="M296.5 170.5H299" stroke="black" stroke-width="0.5" stroke-linecap="round"/>
<path d="M297 175C297.975 174.765 298.524 174.788 299.5 175" stroke="black" stroke-width="0.5" stroke-linecap="round"/>
<path d="M323.5 301C316 301 310.265 292.501 311.5 282.001C311.855 278.98 314.5 260.5 318.5 248.5C321.7 238.9 335 237.166 341.5 237.5C344.751 243.162 347.629 246.206 354.853 251.265M352.5 254.5C353.394 253.364 354.173 252.298 354.853 251.265M385.5 246.499C384.5 244.5 382 239.799 378 236.999C374 234.199 363.833 235.5 359.5 236.5C358.901 242.863 357.818 246.755 354.853 251.265" stroke="black" stroke-width="0.5" stroke-linecap="round" stroke-linejoin="round"/>
<path d="M323.924 287.403C326.403 284.986 329.939 282.865 333.924 281M376 261.5C374 262 370 267.832 366 270.5C362.977 272.516 345 277 333.924 281M331 264C331 270.5 333.063 273.936 333.924 281" stroke="black" stroke-width="0.5" stroke-linecap="round" stroke-linejoin="round"/>
<path d="M366.465 300.753C366.328 300.772 366.233 300.899 366.253 301.035C366.272 301.172 366.399 301.267 366.535 301.247L366.465 300.753ZM377.749 281.525C377.762 281.387 377.662 281.265 377.525 281.251C377.387 281.238 377.265 281.338 377.251 281.475L377.749 281.525ZM377.175 297.827L377.02 297.631L377.02 297.631L377.175 297.827ZM377.758 301.063C377.793 301.197 377.929 301.277 378.063 301.242C378.197 301.207 378.277 301.071 378.242 300.937L377.758 301.063ZM378.25 296.5C378.25 294.23 377.868 292.932 377.623 291.031C377.376 289.116 377.25 286.511 377.749 281.525L377.251 281.475C376.75 286.489 376.874 289.134 377.127 291.094C377.382 293.068 377.75 294.27 377.75 296.5H378.25ZM366.535 301.247C367.949 301.046 370.094 300.67 372.156 300.134C374.204 299.601 376.217 298.899 377.329 298.024L377.02 297.631C375.999 298.434 374.082 299.117 372.03 299.65C369.992 300.18 367.866 300.552 366.465 300.753L366.535 301.247ZM377.329 298.024C377.87 297.598 378.25 297.091 378.25 296.5H377.75C377.75 296.862 377.517 297.24 377.02 297.631L377.329 298.024ZM376.933 297.89L377.758 301.063L378.242 300.937L377.417 297.764L376.933 297.89Z" fill="black"/>
<path d="M337.5 207.5C334.667 212 330.952 221.771 335.5 226.5C337.975 229.074 340.5 229.5 343 229M348.5 227C347.395 227.68 345 228.5 343 229M343 229C343 229 343.622 234.923 343.5 238.5" stroke="black" stroke-width="0.5" stroke-linecap="round" stroke-linejoin="round"/>
<path d="M354 217C354.667 216.167 356.5 215 357.5 216C358.5 217 358.5 218.5 357.5 219.5C356.5 220.5 355.5 221 353.5 221" stroke="black" stroke-width="0.5" stroke-linecap="round" stroke-linejoin="round"/>
</svg>
