<svg width="333" height="296" viewBox="0 0 333 296" fill="none" xmlns="http://www.w3.org/2000/svg">
<path d="M240.477 89.8183C240.3 89.5362 239.956 89.4066 239.636 89.5012C239.291 89.6187 239.014 89.8804 238.878 90.2182C238.847 90.2492 238.829 90.2914 238.829 90.3354C238.829 90.3794 238.847 90.4215 238.878 90.4526C238.945 90.5107 239.045 90.5107 239.112 90.4526C239.171 90.3331 239.245 90.2219 239.333 90.1216C239.415 90.0247 239.519 89.949 239.636 89.901H239.995C239.995 89.9838 240.146 89.9976 240.229 89.901C240.287 89.8337 240.287 89.7339 240.229 89.6666L240.477 89.8183Z" fill="black"/>
<path d="M78.0322 20.1313C84.4663 28.1517 90.9549 36.1211 97.4981 44.0393C104.041 51.9575 110.678 59.853 117.409 67.7257C121.19 72.1563 124.991 76.5698 128.814 80.9663C128.905 81.0685 129.069 80.9152 128.969 80.8129C122.238 73.0538 115.558 65.2378 108.93 57.365C102.302 49.4923 95.7017 41.54 89.1283 33.5082C85.4932 29.0379 81.8581 24.5505 78.2231 20.0461C78.1322 19.9353 77.9323 20.0461 78.0231 20.1483L78.0322 20.1313Z" fill="black"/>
<path d="M132.293 45.2823C137.835 53.6357 142.691 62.4249 146.812 71.5632C146.895 71.7701 147.198 71.5632 147.102 71.3978C142.991 62.2525 138.139 53.4584 132.596 45.1031C132.472 44.9238 132.169 45.1031 132.293 45.2823V45.2823Z" fill="black"/>
<path d="M21.7779 109.027C33.728 114.377 45.5356 120.007 57.2007 125.918C68.8658 131.829 80.3562 137.988 91.672 144.395C98.1066 148.072 104.486 151.804 110.81 155.591C110.99 155.715 111.169 155.412 110.976 155.301C99.7613 148.545 88.3857 142.055 76.8493 135.832C65.3129 129.609 53.7076 123.689 42.0333 118.072C35.378 114.855 28.6722 111.739 21.9158 108.724C21.7228 108.641 21.5435 108.93 21.7504 109.027H21.7779Z" fill="black"/>
<path d="M78.4773 172.716C84.6017 174.89 90.9768 176.28 97.4503 176.852C97.6709 176.852 97.6709 176.535 97.4503 176.508C91.0081 175.935 84.665 174.545 78.5738 172.371C78.3532 172.302 78.2705 172.633 78.4773 172.702V172.716Z" fill="black"/>
<circle cx="21.4274" cy="228.656" r="21.4274" fill="#46DBC9"/>
<path d="M166 24H193V51H166V24Z" fill="#1B3C87"/>
<path d="M93.9192 74.5142L62.2055 110.861C61.5335 111.604 61.3174 112.653 61.6411 113.601C61.9648 114.55 62.7774 115.248 63.7636 115.425L111.1 124.704C112.081 124.916 113.1 124.577 113.759 123.82C114.419 123.063 114.615 122.007 114.271 121.064L98.6348 75.438C98.322 74.4928 97.524 73.7896 96.5469 73.5981C95.5699 73.4067 94.5655 73.7568 93.9192 74.5142V74.5142Z" fill="#ECC953"/>
<path d="M134.871 287.119L149.666 272.324C150.753 271.245 151.174 269.664 150.769 268.188L145.364 247.974C144.969 246.503 143.817 245.356 142.344 244.968L122.13 239.618C120.654 239.207 119.07 239.629 117.994 240.721L103.226 255.475C102.147 256.558 101.731 258.137 102.137 259.611L107.542 279.825C107.942 281.288 109.085 282.431 110.548 282.831L130.762 288.25C132.235 288.634 133.802 288.203 134.871 287.119Z" fill="#FB5D64"/>
<path d="M86.6137 219.156L97.4515 217.777C97.6721 217.777 97.6721 217.405 97.4515 217.432L86.6137 218.811C86.3931 218.811 86.3931 219.184 86.6137 219.156Z" fill="black"/>
<path d="M80.8215 359.827L109.777 332.664L138.733 305.487L155.018 290.195C155.169 290.043 154.935 289.809 154.769 289.961L125.814 317.124L96.8576 344.301L80.5733 359.579C80.4217 359.731 80.6561 359.979 80.8215 359.827Z" fill="black"/>
<path d="M165.827 263.32L171.343 258.922C171.522 258.784 171.343 258.536 171.095 258.674L165.579 263.086C165.414 263.224 165.579 263.458 165.827 263.32Z" fill="black"/>
<path d="M224.21 93.2107L224.072 93.1004L224.196 93.2245L224.086 93.0866L224.168 93.2383V93.0728C224.174 93.1324 224.174 93.1925 224.168 93.2521V93.0728C224.182 93.1504 224.182 93.2297 224.168 93.3072L224.251 93.1418C224.209 93.2336 224.158 93.3213 224.099 93.4038L224.21 93.2659H224.141L224.279 93.1556L224.444 93.0866H224.706L224.872 93.1556L225.009 93.2521L225.12 93.39L225.189 93.5554V93.5554V93.7347V93.9139V93.8174V93.9829L225.451 93.39C225.504 93.3184 225.533 93.2313 225.533 93.1418C225.555 93.0511 225.555 92.9567 225.533 92.866C225.486 92.6919 225.372 92.5434 225.216 92.4524C225.057 92.3621 224.869 92.3374 224.692 92.3834C224.516 92.4266 224.366 92.5416 224.279 92.7006C224.155 92.9487 224.031 93.2107 223.92 93.4727C223.907 93.5641 223.907 93.657 223.92 93.7485C223.92 93.7485 223.92 93.845 223.92 93.8864C223.931 93.9887 223.964 94.0875 224.017 94.1759C224.197 94.4894 224.562 94.6467 224.913 94.562C225.13 94.5032 225.319 94.3718 225.451 94.1897C225.546 94.0696 225.621 93.9345 225.671 93.7898C225.812 93.4836 225.846 93.1388 225.768 92.8109C225.74 92.7158 225.703 92.6235 225.658 92.5351C225.665 92.4894 225.665 92.4429 225.658 92.3972C225.539 92.228 225.389 92.0829 225.216 91.9698C225.05 91.886 224.86 91.8616 224.679 91.9008C224.504 91.9483 224.356 92.0622 224.265 92.218C224.174 92.3817 224.149 92.5742 224.196 92.7557C224.252 92.9257 224.363 93.0716 224.513 93.1694L224.21 93.2107Z" fill="black"/>
<path d="M210.175 93.9417L210.037 93.8314L210.161 93.9555L210.05 93.8176L210.133 93.9693L210.064 93.8038C210.07 93.8634 210.07 93.9235 210.064 93.9831V93.8038C210.072 93.8818 210.072 93.9603 210.064 94.0382L210.133 93.8728C210.091 93.9646 210.04 94.0523 209.981 94.1347L210.092 93.9969V94.0658L210.23 93.9555H210.161L210.326 93.8865H210.505H210.699L210.864 93.9555L211.002 94.0658L211.112 94.2037V94.2037V94.3691V94.5484V94.4795V94.6725V94.5622V94.7276C211.195 94.5346 211.291 94.3416 211.374 94.1347C211.43 94.0642 211.459 93.9764 211.457 93.8865C211.485 93.7967 211.485 93.7006 211.457 93.6108C211.409 93.4367 211.296 93.2882 211.14 93.1971C210.981 93.1055 210.793 93.0806 210.616 93.1282C210.44 93.1713 210.29 93.2864 210.202 93.4453C210.078 93.7073 209.954 93.9555 209.857 94.2175C209.839 94.3085 209.839 94.4022 209.857 94.4932C209.857 94.4932 209.857 94.5898 209.857 94.6449C209.869 94.7429 209.902 94.8371 209.954 94.9207C210.134 95.2342 210.499 95.3914 210.85 95.3068C211.067 95.248 211.257 95.1166 211.388 94.9345C211.483 94.8144 211.558 94.6792 211.609 94.5346C211.75 94.2283 211.784 93.8835 211.705 93.5556C211.677 93.4606 211.64 93.3683 211.595 93.2799C211.577 93.2358 211.554 93.1941 211.526 93.1558C211.412 92.9792 211.261 92.8288 211.085 92.7145C210.753 92.525 210.33 92.6352 210.133 92.9627C210.065 93.1355 210.065 93.3277 210.133 93.5005C210.189 93.6704 210.301 93.8163 210.45 93.9141L210.175 93.9417Z" fill="black"/>
<path d="M241.694 87.8467C241.324 87.5663 240.828 87.5183 240.412 87.7226C239.959 87.9736 239.6 88.3658 239.391 88.8395C238.84 89.9224 238.534 91.1135 238.495 92.328C238.495 92.5486 238.826 92.5486 238.84 92.328C238.872 91.2877 239.116 90.2648 239.557 89.3221C239.714 88.9034 239.959 88.5228 240.274 88.2052C240.59 87.8844 241.082 87.8164 241.473 88.0398C241.639 88.1915 241.887 87.9433 241.722 87.8054L241.694 87.8467Z" fill="black"/>
<path d="M231.283 112.833C231.283 112.833 225.409 124.222 216.984 128.482L216.902 123.822L216.64 117.631C216.64 117.631 215.881 117.3 217.95 117.741C222.734 118.748 229.546 114.653 231.283 112.833Z" fill="black"/>
<path d="M202.149 83.3104L212.891 82.552C214.96 82.402 216.818 81.2274 217.841 79.422L220.102 75.4371V80.9525C220.092 81.7445 220.692 82.4111 221.481 82.4831C224.376 82.7726 230.995 83.531 233.422 84.6617C235.146 85.2866 236.365 86.8373 236.566 88.6603C236.566 88.6603 239.323 84.1239 241.915 84.772C244.508 85.42 244.797 88.3846 244.177 89.9702C243.45 91.4336 242.577 92.8196 241.571 94.1068C240.212 95.0195 239.482 96.6187 239.682 98.2434C239.902 101.167 239.682 107.385 239.682 107.385C239.682 107.385 253.76 96.3543 250.161 78.8567C250.161 78.8567 253.084 85.1443 262.061 82.8967C271.037 80.6492 267.231 70.7628 271.271 67.8534C275.311 64.9441 284.301 58.4221 276.883 52.3551C269.465 46.2882 264.694 59.4149 257.345 57.6637C246.314 55.0439 240.33 64.7097 244.411 70.3216C239.873 63.673 232.41 59.618 224.363 59.4286C213.814 59.1667 201.405 64.5304 200.771 82.0418C200.777 82.3956 200.928 82.7312 201.189 82.9708C201.449 83.2103 201.796 83.333 202.149 83.3104V83.3104Z" fill="black"/>
<path d="M251.512 132.922C251.512 132.922 277.407 124.249 286.7 146.104C295.994 167.958 275.918 230.214 258.847 234.157C242.301 237.908 205.941 213.916 195.31 195.549C194.612 194.372 193.672 193.357 192.552 192.571C190.911 191.385 188.953 189.234 191.049 186.614M182.208 184.504C186.607 185.798 189.072 186.433 193.464 186.614M192.761 188.234C197.039 184.805 199.263 182.291 201.751 177.349M202.609 175.571C202.318 176.198 202.032 176.789 201.751 177.349M201.751 177.349C200.51 173.313 198.865 170.799 195.904 168.642M189.243 165.019C192.025 166.258 194.186 167.39 195.904 168.642M195.904 168.642C197.619 165.396 197.848 163.244 196.981 157.984M173.766 170.297C180.088 171.725 183.632 172.194 189.947 171M177.284 174.868C179.276 175.624 180.372 175.902 182.208 175.571M180.098 179.792C182.113 180.217 183.178 180.332 185.022 180.496M160.4 143.211C159.449 136.954 157.983 134.679 153.365 133.362M148.44 132.922C145.164 134.336 143.353 135.257 141.405 143.211" stroke="black" stroke-width="0.5" stroke-linecap="round" stroke-linejoin="round"/>
<path d="M200.743 173.957C201.761 173.2 203.055 172.917 204.295 173.181C205.536 173.445 206.603 174.23 207.224 175.336C207.884 176.35 208.85 177.127 209.981 177.556C218.42 180.975 251.03 194.805 257.4 206.787M248.337 198.083L253.965 181.903" stroke="black" stroke-width="0.5" stroke-linecap="round" stroke-linejoin="round"/>
<path d="M186.664 171.254L182.265 146.725C181.919 144.81 180.253 143.417 178.308 143.415H130.048C128.856 143.417 127.725 143.947 126.961 144.862C126.197 145.778 125.878 146.985 126.091 148.159L136.598 205.105C136.944 207.012 138.603 208.399 140.541 208.401H188.539C189.748 208.405 190.895 207.864 191.66 206.927C192.426 205.991 192.728 204.759 192.483 203.575L188.939 186.284" stroke="black" stroke-width="0.5" stroke-linecap="round" stroke-linejoin="round"/>
<path d="M133.95 146.214C133.338 145.938 132.847 145.448 132.571 144.836C132.224 144.18 132.112 143.426 132.254 142.698C132.419 142.149 132.977 141.817 133.539 141.936C134.1 142.055 134.477 142.584 134.405 143.153C134.405 143.534 134.713 143.843 135.094 143.843C135.475 143.843 135.784 143.534 135.784 143.153C135.837 142.262 135.418 141.409 134.681 140.906C133.928 140.413 132.968 140.365 132.171 140.782C130.351 141.678 130.627 144.132 131.44 145.649C131.903 146.51 132.655 147.179 133.564 147.538C133.81 147.602 134.072 147.53 134.25 147.349C134.429 147.167 134.497 146.905 134.43 146.659C134.362 146.414 134.168 146.223 133.922 146.159L133.95 146.214Z" fill="black"/>
<path d="M140.472 146.214C139.86 145.938 139.37 145.448 139.094 144.836C138.746 144.18 138.635 143.426 138.776 142.698C138.941 142.149 139.5 141.817 140.061 141.936C140.623 142.055 140.999 142.584 140.927 143.153C140.927 143.534 141.236 143.843 141.617 143.843C141.998 143.843 142.306 143.534 142.306 143.153C142.36 142.262 141.941 141.409 141.203 140.906C140.451 140.413 139.491 140.365 138.694 140.782C136.887 141.678 137.149 144.132 137.963 145.649C138.425 146.51 139.178 147.179 140.086 147.538C140.333 147.602 140.594 147.53 140.773 147.349C140.952 147.167 141.02 146.905 140.952 146.659C140.885 146.414 140.691 146.223 140.445 146.159L140.472 146.214Z" fill="black"/>
<path d="M146.996 146.215C146.383 145.938 145.893 145.448 145.617 144.836C145.27 144.181 145.158 143.426 145.3 142.699C145.464 142.149 146.023 141.818 146.585 141.936C147.146 142.055 147.523 142.584 147.451 143.154C147.451 143.535 147.759 143.843 148.14 143.843C148.521 143.843 148.829 143.535 148.829 143.154C148.883 142.263 148.464 141.409 147.726 140.906C146.979 140.413 146.023 140.365 145.231 140.782C143.411 141.678 143.673 144.133 144.486 145.649C144.949 146.51 145.701 147.179 146.609 147.539C146.856 147.603 147.118 147.53 147.296 147.349C147.475 147.168 147.543 146.905 147.475 146.66C147.408 146.414 147.214 146.224 146.968 146.16L146.996 146.215Z" fill="black"/>
<path d="M153.531 146.215C152.913 145.946 152.42 145.453 152.152 144.836C151.805 144.181 151.693 143.426 151.835 142.699C151.994 142.148 152.536 141.8 153.103 141.885C153.686 142.01 154.072 142.565 153.986 143.154C153.986 143.535 154.294 143.843 154.675 143.843C155.056 143.843 155.365 143.535 155.365 143.154C155.418 142.263 154.999 141.409 154.262 140.906C153.515 140.413 152.558 140.365 151.766 140.782C149.946 141.678 150.208 144.133 151.021 145.649C151.484 146.51 152.236 147.179 153.145 147.539C153.525 147.641 153.917 147.416 154.02 147.035C154.123 146.654 153.898 146.262 153.517 146.16L153.531 146.215Z" fill="black"/>
<path d="M160.051 146.215C159.439 145.938 158.949 145.448 158.672 144.836C158.325 144.181 158.213 143.426 158.355 142.699C158.437 142.312 158.718 141.998 159.093 141.875C159.469 141.752 159.882 141.839 160.176 142.103C160.47 142.366 160.601 142.767 160.52 143.154C160.52 143.535 160.829 143.843 161.209 143.843C161.584 143.829 161.885 143.528 161.899 143.154C161.941 142.262 161.518 141.411 160.782 140.906C160.035 140.413 159.079 140.365 158.286 140.782C156.466 141.678 156.728 144.133 157.542 145.649C158.004 146.51 158.756 147.179 159.665 147.539C159.911 147.605 160.175 147.535 160.355 147.355C160.536 147.175 160.607 146.912 160.541 146.666C160.476 146.419 160.284 146.226 160.037 146.16L160.051 146.215Z" fill="black"/>
<path d="M166.575 146.214C165.963 145.938 165.472 145.448 165.196 144.836C164.849 144.18 164.737 143.426 164.879 142.698C164.96 142.312 165.242 141.998 165.617 141.875C165.993 141.752 166.405 141.839 166.7 142.102C166.994 142.366 167.125 142.767 167.044 143.153C167.044 143.534 167.352 143.843 167.733 143.843C168.111 143.835 168.415 143.531 168.423 143.153C168.465 142.265 168.049 141.416 167.32 140.906C166.567 140.413 165.607 140.365 164.81 140.782C162.99 141.678 163.266 144.132 164.065 145.649C164.528 146.51 165.28 147.179 166.189 147.538C166.435 147.605 166.698 147.535 166.879 147.355C167.06 147.175 167.131 146.912 167.065 146.665C167 146.419 166.807 146.226 166.561 146.159L166.575 146.214Z" fill="black"/>
<path d="M173.096 146.214C172.484 145.938 171.994 145.448 171.718 144.836C171.37 144.18 171.259 143.426 171.4 142.698C171.482 142.312 171.763 141.998 172.139 141.875C172.514 141.752 172.927 141.839 173.221 142.102C173.515 142.366 173.647 142.767 173.565 143.153C173.565 143.534 173.874 143.843 174.255 143.843C174.632 143.835 174.937 143.531 174.944 143.153C174.987 142.265 174.57 141.416 173.841 140.906C173.089 140.413 172.129 140.365 171.331 140.782C169.511 141.678 169.787 144.132 170.587 145.649C171.049 146.51 171.802 147.179 172.71 147.538C172.957 147.605 173.22 147.535 173.4 147.355C173.581 147.175 173.652 146.912 173.587 146.665C173.521 146.419 173.329 146.226 173.083 146.159L173.096 146.214Z" fill="black"/>
<path d="M209.127 134.052C209.127 134.052 185.687 122.111 180.364 143.415" stroke="black" stroke-width="0.5" stroke-linecap="round" stroke-linejoin="round"/>
<path d="M147.89 141.911L150.717 126.896L150.4 127.309C150.516 127.227 150.641 127.158 150.772 127.102C150.689 126.799 150.648 126.785 150.634 127.102C150.507 127.476 150.438 127.866 150.427 128.261L150.083 130.205L149.297 134.576L147.752 143.097C147.601 143.966 148.924 144.338 149.131 143.469L150.882 133.735L151.696 129.184C151.861 128.302 152.633 126.427 151.517 125.82C151.122 125.641 150.67 125.641 150.276 125.82C149.572 126.096 149.462 126.454 149.324 127.199L148.469 131.763L146.622 141.553C146.456 142.421 147.78 142.794 148.001 141.925L147.89 141.911Z" fill="black"/>
<path d="M201.026 231.589C211.837 231.238 222.219 232.794 233.017 232.779C234.47 232.779 235.924 232.779 237.377 232.626C238.991 232.393 244 234 245.5 233.5C246.217 233.261 241.395 231.541 240.59 231.19C237.994 230.227 237.118 231.144 234.444 231.19C231.771 231.236 229.253 231.19 226.657 231.037C220.973 230.793 215.314 230.365 209.643 230.136C206.632 230.014 204.011 229.908 201 230C200.169 230 200.169 231.528 201 231.528L201.026 231.589Z" fill="black"/>
<path d="M282.301 198.045C282.301 198.045 283.28 228.628 277.889 230.117C273.082 231.197 265.914 233.139 261 233.5C265.035 230.446 270.122 224.967 272.5 220.5C276.199 213.154 279.824 205.888 282.301 198.045Z" fill="black" stroke="black" stroke-width="0.5" stroke-linecap="round" stroke-linejoin="round"/>
<path d="M277.559 226.381V226.808C277.598 231.985 278.889 237.076 281.323 241.645C298.38 274.365 297.553 326.913 295.746 353.87C294.919 365.984 296.036 378.152 299.056 389.913L331.445 515.471C333.694 524.147 328.968 533.109 320.538 536.154C277.532 551.776 231.561 555.582 186.155 552.397C168.313 551.142 144.224 551.363 129.443 539.753C115.696 528.97 129.346 494.747 132.325 481.041C136.144 463.516 140.68 446.156 144.555 428.645C160.439 356.779 189.478 271.015 198.192 245.892C199.877 241.046 200.739 235.952 200.743 230.821C198.421 231.434 195.884 229.402 194.872 226.395M193.465 214.264C193.278 217.789 193.659 222.792 194.872 226.395M194.872 226.395C184.319 233.961 163.424 225.384 158.5 208.5" stroke="black" stroke-width="0.5" stroke-linecap="round" stroke-linejoin="round"/>
<path d="M162.41 216.315C162.41 216.315 191.434 217.501 193.503 214.468C193.503 214.468 208.67 229.511 217.357 231.372C226.044 233.234 240.99 232.42 239.515 230.793C238.04 229.166 222.652 222.52 215.523 216.66C208.394 210.8 198.025 198.528 195.309 195.495C192.593 192.461 189.214 189.566 190.18 193.178C191.145 196.791 193.82 205.05 191.2 206.705C188.58 208.359 179.066 208.346 179.066 208.346H163.016C163.016 208.346 160 208.5 158.871 208.346C158.142 208.666 158.627 209.754 159 210.5" fill="black"/>
<path d="M200.356 236.86C200.356 236.86 212.421 247.353 243.57 251.848C274.718 256.343 283.818 246.871 283.818 246.871L280.702 240.404C279.607 237.487 278.687 234.508 277.944 231.483C277.876 230.104 273.463 224.23 271.96 225.347C270.457 226.464 266.1 232.572 260.006 233.827C255.853 234.617 251.579 234.509 247.472 233.509C246.603 233.275 229.547 230.242 228.168 230.821C226.789 231.4 209.829 231.041 209.595 231.028L203.307 230.862C202.693 230.583 201.976 230.653 201.427 231.045C200.879 231.438 200.581 232.093 200.646 232.765" fill="black"/>
<path d="M210.601 237.37C206.566 257.594 202.429 277.789 198.191 297.957C193.954 318.125 189.661 338.289 185.313 358.448C180.965 378.606 176.617 398.761 172.269 418.91C167.921 439.06 163.614 459.219 159.349 479.387C155.102 499.564 150.938 519.755 146.857 539.96C146.346 542.483 145.85 544.993 145.34 547.502C145.34 547.723 145.629 547.819 145.685 547.599C149.711 527.375 153.847 507.18 158.094 487.012C162.341 466.844 166.634 446.68 170.973 426.522C175.302 406.363 179.646 386.208 184.003 366.059C188.36 345.909 192.667 325.75 196.923 305.582C201.17 285.405 205.334 265.214 209.415 245.009C209.925 242.5 210.422 239.977 210.932 237.467C210.932 237.246 210.642 237.15 210.601 237.37Z" fill="black"/>
<path d="M223.576 245.201C221.701 264.836 219.357 284.43 216.682 303.982C214.007 323.534 211.042 343.1 207.912 362.625C204.782 382.149 201.445 402.005 198.164 421.695C194.799 441.812 191.463 461.93 188.305 482.075C185.051 502.757 181.99 523.44 179.246 544.123C178.901 546.729 178.557 549.321 178.226 551.927C178.226 552.148 178.543 552.148 178.57 551.927C181.328 530.858 184.334 509.831 187.588 488.831C190.746 468.534 194.082 448.265 197.461 427.996C200.756 408.265 204.079 388.547 207.264 368.816C210.408 349.374 213.428 329.904 216.144 310.394C218.902 291.09 221.246 271.786 223.204 252.385L223.907 245.215C223.907 244.995 223.576 244.995 223.562 245.215L223.576 245.201Z" fill="black"/>
<path d="M271.835 250.868C276.923 266.973 277.709 284.278 277.764 301.045C277.764 318.722 276.73 336.385 276.275 354.062C276.041 363.341 276.096 372.607 276.744 381.873C277.488 392.642 278.853 403.356 280.37 414.042C283.293 434.559 286.492 455.049 289.664 475.525C292.711 495.27 295.786 515.001 298.737 534.815C299.136 537.463 299.536 540.096 299.922 542.744C299.922 542.964 300.295 542.868 300.253 542.647C297.289 522.668 294.2 502.661 291.112 482.722C288.023 462.784 284.893 442.446 281.915 422.301C278.826 401.411 276.206 380.536 276.509 359.384C276.771 341.928 277.888 324.499 278.095 306.988C278.261 290.041 277.847 272.654 273.683 256.135C273.228 254.343 272.731 252.564 272.166 250.799C272.166 250.579 271.766 250.675 271.835 250.882V250.868Z" fill="black"/>
<path d="M257.483 251.572C256.463 291.007 255.318 330.442 254.45 369.891C254.022 389.526 253.815 409.175 254.532 428.796C255.222 447.948 256.752 467.059 258.09 486.183C259.593 507.597 260.847 529.066 260.53 550.548C260.552 550.625 260.623 550.678 260.703 550.678C260.783 550.678 260.853 550.625 260.875 550.548C261.509 511.94 256.876 473.608 255.139 435.125C253.36 395.965 255.139 356.709 256.118 317.55L257.828 251.572C257.806 251.495 257.735 251.442 257.655 251.442C257.575 251.442 257.505 251.495 257.483 251.572V251.572Z" fill="black"/>
<path fill-rule="evenodd" clip-rule="evenodd" d="M242.498 241.178C242.498 241.178 242.498 241.177 242.673 241.189C242.849 241.202 242.849 241.202 242.849 241.203L242.768 242.344C242.715 243.094 242.637 244.201 242.534 245.63C242.329 248.488 242.029 252.635 241.649 257.789C240.888 268.097 239.804 282.433 238.514 298.548C235.934 330.777 232.528 370.122 229.225 398.578C225.923 427.026 223.166 465.736 221.234 497.338C220.268 513.138 219.508 527.16 218.99 537.231C218.731 542.267 218.532 546.316 218.398 549.105C218.331 550.5 218.28 551.58 218.246 552.311L218.195 553.424C218.195 553.424 218.195 553.425 218.019 553.417C217.844 553.409 217.844 553.409 217.844 553.408L217.895 552.295C217.929 551.563 217.98 550.483 218.047 549.088C218.181 546.299 218.379 542.25 218.639 537.213C219.157 527.141 219.916 513.118 220.882 497.316C222.815 465.714 225.573 426.995 228.876 398.538C232.177 370.088 235.583 330.749 238.163 298.52C239.453 282.406 240.537 268.07 241.298 257.763C241.679 252.609 241.979 248.463 242.183 245.605C242.286 244.176 242.364 243.069 242.417 242.319L242.498 241.178Z" fill="black"/>
<path d="M205.086 172.675C204.969 168.076 208.288 164.106 212.835 163.406C217.382 162.707 221.741 165.495 223.011 169.917C223.042 169.976 223.103 170.013 223.17 170.013C223.236 170.013 223.297 169.976 223.328 169.917C225.133 166.383 227.54 163.191 230.443 160.486C233.523 157.735 237.853 156.875 241.75 158.238C245.899 159.763 248.833 163.498 249.333 167.89C249.586 169.934 249.369 172.009 248.699 173.957C247.834 176.03 246.653 177.955 245.197 179.665C243.951 181.447 243.018 183.429 242.439 185.526C241.968 187.668 240.863 189.618 239.268 191.124C239.089 191.262 239.337 191.51 239.502 191.372C242.825 188.752 242.701 183.899 244.935 180.562C246.415 178.741 247.695 176.767 248.754 174.674C249.58 172.605 249.892 170.368 249.664 168.152C249.285 164.019 246.805 160.373 243.101 158.5C239.526 156.678 235.254 156.877 231.863 159.024C227.865 161.52 225.286 165.794 222.984 169.779H223.301C221.985 165.221 217.501 162.339 212.808 163.036C208.115 163.732 204.662 167.793 204.728 172.537C204.707 172.61 204.734 172.688 204.796 172.732C204.858 172.776 204.942 172.776 205.004 172.732C205.066 172.688 205.093 172.61 205.072 172.537L205.086 172.675Z" fill="black"/>
<path d="M208.904 176.81C208.691 175.062 209.049 173.292 209.925 171.763C210.78 170.274 212.765 168.041 214.709 168.537C216.654 169.033 217.936 171.06 218.998 172.439C220.19 173.987 221.225 175.649 222.086 177.403C222.086 177.527 222.321 177.5 222.39 177.403C224.467 174.424 226.802 171.632 229.367 169.061C231.725 166.676 234.882 163.394 238.591 163.987C241.997 164.538 244.107 168.123 244.107 171.336C244.123 172.968 243.673 174.57 242.81 175.955C241.765 177.263 240.622 178.489 239.391 179.623C238.298 180.879 237.49 182.356 237.019 183.953C236.482 185.676 236.137 187.634 234.606 188.779C234.427 188.916 234.606 189.22 234.786 189.082C235.87 188.152 236.62 186.893 236.923 185.497C237.381 183.543 238.236 181.703 239.432 180.092C240.743 178.852 241.968 177.526 243.1 176.121C243.944 174.804 244.42 173.285 244.479 171.722C244.687 168.497 242.936 165.462 240.039 164.028C236.716 162.649 233.448 164.828 231.063 167.006C227.738 170.081 224.756 173.507 222.169 177.224H222.472C221.471 175.184 220.236 173.269 218.791 171.515C217.674 170.136 216.033 167.972 214.061 168.137C212.298 168.54 210.792 169.679 209.925 171.267C208.885 172.906 208.441 174.854 208.67 176.783C208.67 177.003 209.042 177.003 209.015 176.783L208.904 176.81Z" fill="black"/>
<path d="M212.642 178.727C212.594 177.975 212.731 177.222 213.042 176.535C213.745 175.294 215.055 175.873 215.868 176.645C217.344 178.024 218.626 179.692 220.005 181.195C220.86 182.133 221.77 183.305 223.149 182.574C223.76 182.214 224.302 181.747 224.748 181.195L226.913 178.796L231.05 174.122C231.698 173.419 232.318 172.743 232.966 171.998C233.585 171.121 234.537 170.538 235.6 170.385C237.392 170.385 237.834 172.674 237.723 174.08C237.551 175.904 236.91 177.652 235.862 179.155C233.973 181.912 230.65 183.622 229.574 186.945C229.505 187.152 229.836 187.249 229.905 187.042C231.036 183.553 234.717 181.802 236.537 178.769C237.751 176.714 239.295 172.329 236.841 170.495C235.649 169.816 234.139 170.115 233.297 171.199C231.67 172.729 230.25 174.522 228.761 176.176C227.272 177.831 225.658 179.734 224.017 181.43C223.657 181.884 223.181 182.231 222.639 182.436C221.962 182.535 221.288 182.241 220.901 181.678C220.088 180.809 219.302 179.927 218.516 179.058C217.688 178.058 216.804 177.105 215.868 176.204C215.403 175.709 214.756 175.425 214.076 175.418C212.504 175.542 212.256 177.472 212.256 178.713C212.256 178.934 212.587 178.934 212.601 178.713L212.642 178.727Z" fill="black"/>
<path d="M226.264 184.464C228.659 182.393 230.785 180.031 232.593 177.431C232.731 177.252 232.427 177.087 232.303 177.266C230.498 179.834 228.387 182.172 226.016 184.229C225.85 184.367 226.098 184.615 226.264 184.464V184.464Z" fill="black"/>
<path d="M206.128 76.3784C203.314 89.0414 201.826 109.621 211.052 115.071C212.733 116.063 214.384 116.72 215.977 117.107M231.454 111.553C229.442 114.919 223.329 118.893 215.977 117.107M215.977 117.107C216.4 120.172 216.755 122.525 216.9 124.92M216.68 131.955C216.989 129.221 217.028 127.054 216.9 124.92M213.866 130.548C219.432 133.639 233.15 132.383 240.211 127.734M242.71 125.623C242.029 126.389 241.183 127.094 240.211 127.734M240.211 127.734C240.088 126 239.979 124.369 239.883 122.809M240.211 95.6805C240.192 106.78 239.295 113.306 239.883 122.809M236.378 89.0414C236.369 87.0411 239.733 82.2373 243.413 85.5239C247.532 89.2016 241.674 95.1385 238.489 96.0763M239.883 122.809C240.825 122.34 243.132 121.543 244.82 122.106C246.509 122.668 247.4 129.844 247.634 133.362M216.9 124.92C215.42 125.154 211.358 125.185 209.645 127.03C208.687 128.063 209.19 133.524 208.942 136.176M223.715 85.5239C225.372 85.2084 226.296 85.283 227.936 86.2274M209.645 87.2857C211.237 86.8827 211.756 87.2857 213.163 87.6344M216.9 91.8553C216.239 95.3199 216.034 97.2188 216.68 100.297M218.087 104.518C220.064 104.427 221.013 104.049 222.308 102.408" stroke="black" stroke-width="0.5" stroke-linecap="round" stroke-linejoin="round"/>
</svg>
