<svg width="448" height="320" viewBox="0 0 448 320" fill="none" xmlns="http://www.w3.org/2000/svg">
<rect x="193.366" y="41.7002" width="177.627" height="276.847" rx="8.16998" fill="#EBEFFE"/>
<rect x="187.608" y="41.7002" width="177.627" height="276.847" rx="8.16998" fill="#D6DEFF"/>
<rect x="193.366" y="41.7002" width="177.627" height="276.847" rx="8.16998" stroke="black" stroke-width="0.5"/>
<rect x="183.952" y="41.7002" width="177.627" height="276.847" rx="8.16998" fill="#F4F6F9"/>
<rect x="183.952" y="41.7002" width="177.627" height="276.847" rx="8.16998" stroke="black" stroke-width="0.5"/>
<rect x="203.943" y="61.3252" width="137.644" height="33.3883" rx="3.54572" fill="white" stroke="black" stroke-width="0.5"/>
<path d="M318.5 66V90" stroke="#D6DEFF"/>
<rect x="217.057" y="117.154" width="14.8909" height="14.8909" rx="2.69636" fill="black" stroke="black" stroke-width="0.5"/>
<rect x="217.057" y="117.154" width="14.8909" height="14.8909" rx="2.69636" stroke="black" stroke-width="0.5"/>
<rect x="249.58" y="117.154" width="14.8909" height="14.8909" rx="2.69636" fill="black" stroke="black" stroke-width="0.5"/>
<rect x="249.58" y="117.154" width="14.8909" height="14.8909" rx="2.69636" stroke="black" stroke-width="0.5"/>
<rect x="282.102" y="117.154" width="14.8909" height="14.8909" rx="2.69636" fill="black" stroke="black" stroke-width="0.5"/>
<rect x="282.102" y="117.154" width="14.8909" height="14.8909" rx="2.69636" stroke="black" stroke-width="0.5"/>
<rect x="217.057" y="149.504" width="14.8909" height="14.8909" rx="2.69636" fill="black" stroke="black" stroke-width="0.5"/>
<rect x="217.057" y="149.504" width="14.8909" height="14.8909" rx="2.69636" stroke="black" stroke-width="0.5"/>
<rect x="249.58" y="149.504" width="14.8909" height="14.8909" rx="2.69636" fill="black" stroke="black" stroke-width="0.5"/>
<rect x="249.58" y="149.504" width="14.8909" height="14.8909" rx="2.69636" stroke="black" stroke-width="0.5"/>
<rect x="282.102" y="149.504" width="14.8909" height="14.8909" rx="2.69636" fill="black" stroke="black" stroke-width="0.5"/>
<rect x="282.102" y="149.504" width="14.8909" height="14.8909" rx="2.69636" stroke="black" stroke-width="0.5"/>
<rect x="314.625" y="149.504" width="14.8909" height="14.8909" rx="2.69636" fill="black" stroke="black" stroke-width="0.5"/>
<rect x="314.625" y="149.504" width="14.8909" height="14.8909" rx="2.69636" stroke="black" stroke-width="0.5"/>
<rect x="313.588" y="149.504" width="14.8909" height="14.8909" rx="2.69636" fill="#EBEFFE"/>
<rect x="313.588" y="149.504" width="14.8909" height="14.8909" rx="2.69636" stroke="black" stroke-width="0.5"/>
<rect x="217.057" y="181.852" width="14.8909" height="14.8909" rx="2.69636" fill="black" stroke="black" stroke-width="0.5"/>
<rect x="217.057" y="181.852" width="14.8909" height="14.8909" rx="2.69636" stroke="black" stroke-width="0.5"/>
<rect x="249.58" y="181.847" width="14.8909" height="14.8909" rx="2.69636" fill="black" stroke="black" stroke-width="0.5"/>
<rect x="249.58" y="181.847" width="14.8909" height="14.8909" rx="2.69636" stroke="black" stroke-width="0.5"/>
<rect x="282.102" y="181.847" width="14.8909" height="14.8909" rx="2.69636" fill="black" stroke="black" stroke-width="0.5"/>
<rect x="282.102" y="181.847" width="14.8909" height="14.8909" rx="2.69636" stroke="black" stroke-width="0.5"/>
<rect x="314.625" y="181.847" width="14.8909" height="14.8909" rx="2.69636" fill="black" stroke="black" stroke-width="0.5"/>
<rect x="314.625" y="181.847" width="14.8909" height="14.8909" rx="2.69636" stroke="black" stroke-width="0.5"/>
<rect x="217.057" y="214.193" width="14.8909" height="14.8909" rx="2.69636" fill="black" stroke="black" stroke-width="0.5"/>
<rect x="217.057" y="214.193" width="14.8909" height="14.8909" rx="2.69636" stroke="black" stroke-width="0.5"/>
<rect x="249.58" y="214.19" width="14.8909" height="14.8909" rx="2.69636" fill="black" stroke="black" stroke-width="0.5"/>
<rect x="249.58" y="214.19" width="14.8909" height="14.8909" rx="2.69636" stroke="black" stroke-width="0.5"/>
<rect x="282.102" y="214.19" width="14.8909" height="14.8909" rx="2.69636" fill="black" stroke="black" stroke-width="0.5"/>
<rect x="282.102" y="214.19" width="14.8909" height="14.8909" rx="2.69636" stroke="black" stroke-width="0.5"/>
<rect x="314.625" y="214.19" width="14.8909" height="14.8909" rx="2.69636" fill="black" stroke="black" stroke-width="0.5"/>
<rect x="314.625" y="214.19" width="14.8909" height="14.8909" rx="2.69636" stroke="black" stroke-width="0.5"/>
<rect x="313.588" y="214.19" width="14.8909" height="14.8909" rx="2.69636" fill="#EBEFFE"/>
<rect x="313.588" y="214.19" width="14.8909" height="14.8909" rx="2.69636" stroke="black" stroke-width="0.5"/>
<rect x="217.057" y="246.54" width="14.8909" height="14.8909" rx="2.69636" fill="black" stroke="black" stroke-width="0.5"/>
<rect x="217.057" y="246.54" width="14.8909" height="14.8909" rx="2.69636" stroke="black" stroke-width="0.5"/>
<rect x="249.58" y="246.54" width="14.8909" height="14.8909" rx="2.69636" fill="black" stroke="black" stroke-width="0.5"/>
<rect x="249.58" y="246.54" width="14.8909" height="14.8909" rx="2.69636" stroke="black" stroke-width="0.5"/>
<rect x="282.102" y="246.54" width="14.8909" height="14.8909" rx="2.69636" fill="black" stroke="black" stroke-width="0.5"/>
<rect x="282.102" y="246.54" width="14.8909" height="14.8909" rx="2.69636" stroke="black" stroke-width="0.5"/>
<rect x="314.625" y="246.54" width="14.8909" height="14.8909" rx="2.69636" fill="black" stroke="black" stroke-width="0.5"/>
<rect x="314.625" y="246.54" width="14.8909" height="14.8909" rx="2.69636" stroke="black" stroke-width="0.5"/>
<rect x="313.588" y="246.54" width="14.8909" height="14.8909" rx="2.69636" fill="#EBEFFE"/>
<rect x="313.588" y="246.54" width="14.8909" height="14.8909" rx="2.69636" stroke="black" stroke-width="0.5"/>
<rect x="313.311" y="116.675" width="16.2971" height="47.8726" rx="2.69636" fill="black" stroke="black" stroke-width="0.5"/>
<rect x="314.625" y="117.154" width="14.8909" height="47.2383" rx="2.69636" stroke="black" stroke-width="0.5"/>
<rect x="313.311" y="214.458" width="16.2971" height="46.854" rx="2.69636" fill="black" stroke="black" stroke-width="0.5"/>
<rect x="314.625" y="214.193" width="14.8909" height="47.2383" rx="2.69636" stroke="black" stroke-width="0.5"/>
<rect x="217.057" y="278.889" width="14.8909" height="14.8909" rx="2.69636" fill="black" stroke="black" stroke-width="0.5"/>
<rect x="217.057" y="278.889" width="14.8909" height="14.8909" rx="2.69636" stroke="black" stroke-width="0.5"/>
<rect x="249.58" y="278.889" width="14.8909" height="14.8909" rx="2.69636" fill="black" stroke="black" stroke-width="0.5"/>
<rect x="249.58" y="278.889" width="14.8909" height="14.8909" rx="2.69636" stroke="black" stroke-width="0.5"/>
<rect x="282.102" y="278.889" width="14.8909" height="14.8909" rx="2.69636" fill="black" stroke="black" stroke-width="0.5"/>
<rect x="282.102" y="278.889" width="14.8909" height="14.8909" rx="2.69636" stroke="black" stroke-width="0.5"/>
<rect x="314.625" y="278.889" width="14.8909" height="14.8909" rx="2.69636" fill="black" stroke="black" stroke-width="0.5"/>
<rect x="314.625" y="278.889" width="14.8909" height="14.8909" rx="2.69636" stroke="black" stroke-width="0.5"/>
<rect x="216.019" y="117.153" width="14.8909" height="14.8909" rx="2.69636" fill="#EBEFFE"/>
<rect x="248.543" y="117.152" width="14.8909" height="14.8909" rx="2.69636" fill="#EBEFFE"/>
<rect x="281.063" y="117.152" width="14.8909" height="14.8909" rx="2.69636" fill="#EBEFFE"/>
<rect x="216.019" y="149.499" width="14.8909" height="14.8909" rx="2.69636" fill="#EBEFFE"/>
<rect x="248.543" y="149.499" width="14.8909" height="14.8909" rx="2.69636" fill="#EBEFFE"/>
<rect x="281.063" y="149.499" width="14.8909" height="14.8909" rx="2.69636" fill="#EBEFFE"/>
<rect x="216.019" y="181.849" width="14.8909" height="14.8909" rx="2.69636" fill="#EBEFFE"/>
<rect x="248.543" y="181.849" width="14.8909" height="14.8909" rx="2.69636" fill="#EBEFFE"/>
<rect x="281.063" y="181.849" width="14.8909" height="14.8909" rx="2.69636" fill="#EBEFFE"/>
<rect x="313.587" y="181.849" width="14.8909" height="14.8909" rx="2.69636" fill="#D6DEFF"/>
<rect x="216.019" y="214.188" width="14.8909" height="14.8909" rx="2.69636" fill="#EBEFFE"/>
<rect x="248.543" y="214.188" width="14.8909" height="14.8909" rx="2.69636" fill="#EBEFFE"/>
<rect x="281.063" y="214.188" width="14.8909" height="14.8909" rx="2.69636" fill="#EBEFFE"/>
<rect x="216.019" y="246.538" width="14.8909" height="14.8909" rx="2.69636" fill="#EBEFFE"/>
<rect x="248.543" y="246.538" width="14.8909" height="14.8909" rx="2.69636" fill="#EBEFFE"/>
<rect x="281.063" y="246.538" width="14.8909" height="14.8909" rx="2.69636" fill="#EBEFFE"/>
<rect x="313.587" y="117.152" width="14.8909" height="47.2383" rx="2.69636" fill="#D6DEFF"/>
<rect x="313.587" y="214.188" width="14.8909" height="47.2383" rx="2.69636" fill="#D6DEFF"/>
<rect x="216.019" y="278.887" width="14.8909" height="14.8909" rx="2.69636" fill="#EBEFFE"/>
<rect x="248.543" y="278.887" width="14.8909" height="14.8909" rx="2.69636" fill="#EBEFFE"/>
<rect x="281.063" y="278.887" width="14.8909" height="14.8909" rx="2.69636" fill="#EBEFFE"/>
<rect x="313.587" y="278.887" width="14.8909" height="14.8909" rx="2.69636" fill="#D6DEFF"/>
<rect x="216.019" y="117.149" width="14.8909" height="14.8909" rx="2.69636" stroke="black" stroke-width="0.5"/>
<rect x="248.543" y="117.15" width="14.8909" height="14.8909" rx="2.69636" stroke="black" stroke-width="0.5"/>
<rect x="281.062" y="117.152" width="14.8909" height="14.8909" rx="2.69636" stroke="black" stroke-width="0.5"/>
<rect x="216.019" y="149.499" width="14.8909" height="14.8909" rx="2.69636" stroke="black" stroke-width="0.5"/>
<rect x="248.543" y="149.499" width="14.8909" height="14.8909" rx="2.69636" stroke="black" stroke-width="0.5"/>
<rect x="281.063" y="149.499" width="14.8909" height="14.8909" rx="2.69636" stroke="black" stroke-width="0.5"/>
<rect x="216.019" y="181.846" width="14.8909" height="14.8909" rx="2.69636" stroke="black" stroke-width="0.5"/>
<rect x="248.543" y="181.846" width="14.8909" height="14.8909" rx="2.69636" stroke="black" stroke-width="0.5"/>
<rect x="281.063" y="181.846" width="14.8909" height="14.8909" rx="2.69636" stroke="black" stroke-width="0.5"/>
<rect x="313.587" y="181.849" width="14.8909" height="14.8909" rx="2.69636" stroke="black" stroke-width="0.5"/>
<rect x="216.019" y="214.193" width="14.8909" height="14.8909" rx="2.69636" stroke="black" stroke-width="0.5"/>
<rect x="248.543" y="214.193" width="14.8909" height="14.8909" rx="2.69636" stroke="black" stroke-width="0.5"/>
<rect x="281.063" y="214.193" width="14.8909" height="14.8909" rx="2.69636" stroke="black" stroke-width="0.5"/>
<rect x="216.019" y="246.537" width="14.8909" height="14.8909" rx="2.69636" stroke="black" stroke-width="0.5"/>
<rect x="248.543" y="246.537" width="14.8909" height="14.8909" rx="2.69636" stroke="black" stroke-width="0.5"/>
<rect x="281.063" y="246.537" width="14.8909" height="14.8909" rx="2.69636" stroke="black" stroke-width="0.5"/>
<rect x="313.587" y="117.152" width="14.8909" height="47.2383" rx="2.69636" stroke="black" stroke-width="0.5"/>
<rect x="313.587" y="214.191" width="14.8909" height="47.2383" rx="2.69636" stroke="black" stroke-width="0.5"/>
<rect x="216.019" y="278.886" width="14.8909" height="14.8909" rx="2.69636" stroke="black" stroke-width="0.5"/>
<rect x="248.543" y="278.886" width="14.8909" height="14.8909" rx="2.69636" stroke="black" stroke-width="0.5"/>
<rect x="281.063" y="278.886" width="14.8909" height="14.8909" rx="2.69636" stroke="black" stroke-width="0.5"/>
<rect x="313.657" y="278.886" width="14.8909" height="14.8909" rx="2.69636" stroke="black" stroke-width="0.5"/>
<path d="M240 78H250" stroke="black" stroke-linecap="round" stroke-linejoin="round"/>
<path d="M245 83V73" stroke="black" stroke-linecap="round" stroke-linejoin="round"/>
<path d="M289.153 81.5356L296.224 74.4646" stroke="black" stroke-linecap="round" stroke-linejoin="round"/>
<path d="M296.225 81.5356L289.154 74.4646" stroke="black" stroke-linecap="round" stroke-linejoin="round"/>
<path d="M183 136.5C182.2 135.3 181.333 132.333 181 131L163.5 149.5L170 318C176.5 319 191.5 318 191.5 318C192.456 317.988 188.432 294.015 186 288.5C184.16 284.327 180.167 266 178 257.5C179 257 182 255.654 182 253.5C182 251 182.805 232.796 184 233.5C183.389 233.771 186.358 250.377 190.5 255C191.833 257.5 197 262.6 207 263C219.5 263.5 232 249.5 240.5 241C247.3 234.2 259 214.667 262.5 208C263 208.833 266 213.5 270 212C273.376 210.734 272.667 207.333 273 206L249.5 146.5L251.5 137.5L239 126.5L236.5 143L244 149L253 179H251C250.667 179.167 249.7 179.9 248.5 181.5C247 183.5 248 193.5 248 195.5C248 197.5 236 212.5 233 216C230.6 218.8 219.333 228.167 214 232.5L204.5 190.5C204.667 190.167 203.4 187.9 197 181.5C190.6 175.1 174.667 172.167 167.5 171.5L170 161.5L180.5 160.5L183.5 151.5C184.5 148.5 183.5 143 183.5 142C183.5 141 184.5 140.5 185 140C185.5 139.5 184 138 183 136.5Z" fill="white"/>
<path d="M52.4893 20.4878H150.622V118.621H52.4893V20.4878Z" fill="#D6DEFF"/>
<path d="M175.076 132.509C174.943 132.574 174.825 132.669 174.733 132.786C174.609 132.931 174.511 133.096 174.443 133.274C174.396 133.42 174.37 133.57 174.364 133.723C174.337 133.88 174.337 134.041 174.364 134.198C174.407 134.352 174.465 134.503 174.535 134.647C174.627 134.824 174.763 134.974 174.931 135.082C175.239 135.26 175.627 135.212 175.881 134.963C176.058 134.771 176.14 134.51 176.106 134.251C176.078 134.107 176.039 133.966 175.987 133.828L175.895 133.446C175.849 133.279 175.74 133.137 175.591 133.05C175.43 132.984 175.25 132.984 175.09 133.05C174.923 133.095 174.781 133.204 174.694 133.353C174.621 133.513 174.621 133.696 174.694 133.855L174.826 134.251C174.873 134.366 174.908 134.485 174.931 134.607V134.33L174.997 134.172L175.103 134.04L175.235 133.934H175.393H175.565H175.736H175.895L176.027 134.04H175.961L176.066 134.185C176.03 134.121 175.999 134.055 175.974 133.987V134.145C175.921 134.047 175.89 133.939 175.881 133.828V134.013C175.868 133.921 175.868 133.828 175.881 133.736V133.921C175.874 133.851 175.874 133.78 175.881 133.71L175.815 133.868C175.843 133.802 175.878 133.74 175.921 133.683L175.815 133.815L175.934 133.697L175.802 133.802L175.895 133.736C176.041 133.652 176.15 133.515 176.198 133.353C176.243 133.18 176.219 132.995 176.132 132.839C175.949 132.527 175.548 132.421 175.235 132.601L175.076 132.509Z" fill="black"/>
<path d="M151.73 136.623C151.966 136.214 152.477 136.053 152.905 136.254C153.385 136.472 153.809 136.797 154.145 137.204C154.881 137.974 155.475 138.867 155.9 139.843C155.98 140.028 156.27 139.843 156.178 139.672C155.683 138.541 154.964 137.522 154.066 136.676C153.689 136.247 153.177 135.958 152.614 135.858C152.136 135.803 151.672 136.043 151.44 136.465C151.347 136.663 151.638 136.821 151.73 136.636V136.623Z" fill="black"/>
<path d="M153.671 137.981C153.66 137.942 153.66 137.901 153.671 137.862C153.694 137.821 153.726 137.785 153.764 137.756C153.839 137.693 153.93 137.652 154.028 137.638C154.295 137.652 154.546 137.771 154.727 137.968C154.795 138.012 154.885 138.003 154.942 137.945C155 137.888 155.009 137.798 154.965 137.73C154.704 137.456 154.339 137.307 153.962 137.321C153.611 137.352 153.332 137.63 153.302 137.981C153.323 138.054 153.39 138.105 153.467 138.105C153.543 138.105 153.611 138.054 153.632 137.981H153.671Z" fill="black"/>
<path d="M173.585 113.937C176.673 120.232 179.722 125.907 181.609 132.769C182.287 134.964 183.321 137.033 184.67 138.893C184.914 139.15 185.036 139.499 185.006 139.852C184.976 140.205 184.796 140.528 184.512 140.74L184.42 140.806C183.795 141.255 183.461 142.008 183.549 142.772C184.091 146.459 183.971 150.214 183.192 153.858C182.101 157.293 178.968 159.67 175.367 159.797C171.17 160.047 167.198 157.711 163.489 155.969M172 129.5C173.058 128.206 173.733 127.61 175.5 127.5M173.5 142C174.572 143.237 175.324 143.613 177 144" stroke="black" stroke-width="0.5" stroke-linecap="round" stroke-linejoin="round"/>
<path d="M145.804 167.307C145.804 167.307 115.689 157.159 105.012 174.249L92.2773 192.184M92.2773 192.184C92.2773 192.184 92.1322 180.227 92.4225 165.499C92.7128 150.771 93.1352 137.984 93.1352 132.626C93.1352 127.268 89.9811 119.943 84.1084 121.091M92.2773 192.184C92.2773 197.637 91.4255 199.334 90.9995 199.5" stroke="black" stroke-width="0.5" stroke-linecap="round" stroke-linejoin="round"/>
<path d="M112.271 248.259C134.434 253.516 157.311 255.089 179.985 252.917" stroke="black" stroke-width="0.5" stroke-linecap="round"/>
<path d="M178.27 253.102V257.061C178.271 259.453 178.627 261.833 179.325 264.121C182.44 274.336 191.315 305.897 191.5 318.5" stroke="black" stroke-width="0.5" stroke-linecap="round"/>
<path d="M114.673 248.784C114.673 248.784 114.528 251.423 112.165 257.639C109.803 263.855 100.446 294.973 101.951 318.279M152.5 284.5C148.1 289.3 148.666 309.02 149.5 318.279" stroke="black" stroke-width="0.5" stroke-linecap="round"/>
<path d="M154.7 133.929C155.501 135.002 156.412 135.989 157.419 136.872C158.039 137.242 158.738 136.054 158.738 134.589C158.68 133.644 159.089 132.732 159.834 132.147C163.717 129.396 165.907 124.836 165.627 120.085C167.302 122.367 168.077 125.186 167.805 128.004C169.886 127.006 171.078 124.772 170.748 122.487C170.77 120.266 169.146 118.37 166.947 118.053C169.445 118.856 171.731 120.209 173.638 122.012C176.234 124.319 180.019 124.697 183.021 122.949C183.274 122.774 183.444 122.504 183.494 122.2C183.544 121.897 183.468 121.586 183.285 121.339C180.408 117.38 166.881 100.646 151.612 115.031C151.612 115.031 141.965 117.67 140.025 129.864C138.085 142.058 125.416 145.45 129.177 149.66C132.621 153.5 145.489 162.091 156.429 161.788C157.168 161.775 157.864 161.434 158.327 160.859C158.791 160.283 158.976 159.531 158.831 158.805C157.933 154.424 156.257 145.899 156.191 143.325C156.191 143.325 149.448 141.834 149.012 137.809C148.577 133.784 150.477 130.458 154.7 133.929V133.929Z" fill="black"/>
<path d="M180.196 121.299C180.196 121.299 183.323 123.819 182.294 133.796C182.294 133.796 179.655 126.934 179.285 126.01C178.916 125.086 177.464 121.087 177.464 121.087" fill="black"/>
<path d="M164.585 156.772C164.585 156.772 166.393 162.46 169.468 163.912L170.22 161.035C170.22 161.035 170.748 159.002 169.375 158.672" fill="black"/>
<path d="M183.601 142.044C184.007 147.939 184.761 153.804 185.858 159.61C186.051 160.36 185.603 161.125 184.855 161.325C181.688 162.17 173.783 163.965 169.375 161.721C169.375 161.721 170.022 158.277 172.014 159.425C174.007 160.573 180.329 160.006 182.044 156.561C183.002 154.87 183.566 152.984 183.694 151.045L183.601 142.044Z" fill="black"/>
<path d="M183.812 233.145C183.812 233.145 184.723 262.97 206.01 262.97C227.296 262.97 248.478 231.1 253.36 223.854C255.653 220.248 259.133 213.56 262.5 207.5M187.5 204C189 217 184.382 230.583 183 236C181.54 241.722 184.09 257.684 178.5 257.5" stroke="black" stroke-width="0.5" stroke-linecap="round" stroke-linejoin="round"/>
<path d="M168.122 171.112C168.122 171.112 201.299 173.751 205.166 193.547L214.06 232.517M214.06 232.517C214.06 232.517 222.661 226.308 231.414 217.555C236.55 212.418 240.832 206.844 243.792 202.5M214.06 232.517C211.5 234.5 210.5 235.5 209.5 237.5M258.527 192.705C259.108 189.273 255.888 184.536 255.888 184.536C255.888 184.536 259.926 184.76 261.694 182.028C263.463 179.296 257.603 178.096 251.586 179.033C246.584 179.838 247.719 190.105 248.247 193.549C248.363 194.296 248.248 195.061 247.917 195.74C247.306 196.994 245.877 199.442 243.792 202.5M243.792 202.5C247.25 210.346 249.493 214.412 255.888 219M170.5 159.5C168.578 164.956 167.986 167.526 167.5 172.5C158.114 173.88 153.143 173.513 145.5 168C149.153 159.775 150.787 153.953 153.5 143M157.5 143.5C153.943 143.76 145.39 138.559 149.5 133.5C152.042 130.372 155.673 134.613 156.5 135" stroke="black" stroke-width="0.5" stroke-linecap="round" stroke-linejoin="round"/>
<path d="M253.5 178.5C253.292 177.832 244.195 149.188 244.195 149.188L236.4 142.953L239.08 126.646L251.786 137.542L249.532 146.665L272.596 205.411C273.074 206.64 273.042 208.009 272.507 209.214C271.972 210.419 270.979 211.361 269.747 211.83C268.459 212.329 267.021 212.267 265.781 211.659C264.541 211.051 263.612 209.952 263.218 208.629L258.477 192.246" stroke="black" stroke-width="0.5"/>
<path d="M246.927 147.533L243.681 138.951" stroke="black" stroke-width="0.5"/>
<circle r="1.10855" transform="matrix(-0.954582 0.297949 0.297949 0.954582 243.424 138.173)" fill="black" stroke="black" stroke-width="0.5"/>
<path d="M151.15 229.907C149.007 228.804 147.011 227.434 145.212 225.829C143.575 224.365 141.398 222.477 141.503 220.075C141.635 216.816 145.238 214.19 144.46 210.838C144.011 208.937 142.163 208.013 140.91 206.681C139.568 205.217 138.714 203.372 138.468 201.402C138.193 199.539 138.591 197.64 139.59 196.044C140.804 194.209 142.836 193.404 144.763 192.467C145.688 192.066 146.572 191.575 147.402 191.002C148.189 190.326 148.925 189.594 149.606 188.812C151.309 187.136 154.027 187.387 156.205 187.492C158.3 187.432 160.357 188.057 162.064 189.274C163.608 190.593 164.044 192.613 165.35 194.091C166.657 195.569 169.125 195.41 170.854 196.611C172.776 198.124 173.915 200.421 173.955 202.867C174.064 205.205 173.329 207.505 171.883 209.346C171.205 210.154 170.673 211.074 170.313 212.065C170.016 213.142 169.909 214.263 169.996 215.377C170.115 218.017 170.656 220.656 169.732 223.177C168.822 225.659 166.967 227.68 164.572 228.799C162.249 229.881 159.782 230.624 157.247 231.003C154.898 231.372 152.338 231.253 150.557 229.472C150.411 229.327 150.174 229.564 150.332 229.709C153.407 232.797 158.382 231.28 161.985 230.132C164.239 229.55 166.298 228.38 167.95 226.74C169.393 225.196 170.316 223.24 170.59 221.144C170.906 218.571 170.115 216.011 170.405 213.437C170.61 212.031 171.204 210.71 172.12 209.623C172.821 208.744 173.378 207.76 173.77 206.707C175.09 202.959 174.06 197.245 169.89 195.727C168.631 195.465 167.418 195.02 166.287 194.407C165.403 193.622 164.701 192.654 164.229 191.57C163.436 189.818 161.978 188.455 160.177 187.782C158.112 187.167 155.953 186.93 153.803 187.083C152.726 187.038 151.652 187.217 150.649 187.611C149.711 188.168 148.891 188.904 148.234 189.775C146.558 191.544 144.169 192.177 142.11 193.338C140.485 194.182 139.222 195.59 138.56 197.297C137.387 200.949 138.479 204.95 141.345 207.499C142.316 208.195 143.156 209.057 143.826 210.046C144.279 210.976 144.35 212.046 144.024 213.028C143.47 214.863 142.256 216.407 141.596 218.188C140.894 219.894 141.178 221.846 142.335 223.282C143.879 225.204 145.714 226.874 147.772 228.231C148.8 228.951 149.876 229.599 150.992 230.171C151.177 230.277 151.348 229.986 151.164 229.894L151.15 229.907Z" fill="black"/>
<path d="M150.054 194.571C148.299 195.323 146.412 195.97 144.776 196.881C143.645 197.408 142.957 198.579 143.047 199.824C143.284 203.228 147.402 204.218 148.801 206.937C149.549 208.764 149.596 210.804 148.933 212.664C148.418 214.419 147.283 215.95 146.94 217.745C146.641 218.977 146.951 220.277 147.771 221.242C148.324 221.784 148.925 222.274 149.566 222.707C150.305 223.275 151.031 223.855 151.783 224.383C152.966 225.309 154.502 225.654 155.967 225.32C157.56 224.883 159.072 224.187 160.441 223.261C161.589 222.632 162.494 221.639 163.014 220.437C163.418 219.037 163.468 217.559 163.159 216.135C162.746 214.384 162.847 212.551 163.449 210.856C164.123 209.391 165.297 208.217 166.089 206.805C166.828 205.626 167.061 204.199 166.736 202.846C166.243 201.702 165.281 200.826 164.096 200.444C163.326 200.146 162.602 199.742 161.945 199.243C161.293 198.619 160.795 197.85 160.493 196.999C159.993 195.506 159.233 194.112 158.25 192.882C157.326 191.853 156.561 190.243 154.924 190.836C154.084 191.247 153.31 191.781 152.628 192.42C151.757 193.08 150.86 193.74 149.989 194.347C149.817 194.466 149.989 194.756 150.16 194.637C151.414 193.779 152.615 192.856 153.816 191.932C154.66 191.285 155.769 190.612 156.706 191.483C157.194 191.985 157.59 192.605 158.025 193.119C158.966 194.271 159.686 195.587 160.15 196.999C160.495 198.017 161.1 198.927 161.905 199.639C162.856 200.378 164.057 200.681 165.059 201.315C166.486 202.228 167.017 204.056 166.3 205.591C165.363 208.23 162.79 210.012 162.631 213.021C162.473 216.029 164.057 219.118 162.051 221.572C161.107 222.559 159.977 223.349 158.725 223.895C157.115 224.713 155.281 225.597 153.446 224.937C152.009 224.248 150.676 223.359 149.487 222.298C148.732 221.817 148.077 221.194 147.56 220.464C147.165 219.667 147.058 218.757 147.257 217.89C147.711 216.385 148.298 214.923 149.012 213.522C149.544 212.126 149.773 210.632 149.685 209.141C149.604 207.737 149.018 206.411 148.035 205.406C146.874 204.218 145.396 203.4 144.34 202.107C143.707 201.374 143.364 200.435 143.377 199.467C143.441 198.432 144.092 197.524 145.053 197.131C146.729 196.274 148.537 195.627 150.252 194.888C150.45 194.795 150.252 194.518 150.094 194.598L150.054 194.571Z" fill="black"/>
<path d="M153.842 198.568C152.998 199.809 150.873 198.344 149.976 199.637C148.867 201.221 151.48 202.277 152.364 203.016C154.052 204.493 155.015 206.632 155.004 208.875C154.948 211.279 154.171 213.61 152.773 215.566C152.202 216.215 151.913 217.065 151.968 217.928C152.172 218.753 152.669 219.476 153.367 219.961C154.687 221.03 156.336 220.264 157.326 219.063C157.923 218.34 158.372 217.506 158.646 216.609C158.864 215.544 158.983 214.462 159.002 213.375C159.213 211.132 160.507 209.231 160.322 206.909C160.238 205.96 159.983 205.035 159.57 204.177C159.035 203.196 158.349 202.306 157.537 201.538C157.121 201.034 156.835 200.436 156.706 199.796C156.619 199.389 156.428 199.011 156.152 198.7C155.957 198.468 155.677 198.323 155.374 198.298C155.072 198.273 154.772 198.37 154.542 198.568C154.383 198.713 154.621 198.938 154.766 198.806C155.584 198.054 156.218 199.307 156.389 199.875C156.469 200.215 156.57 200.55 156.693 200.878C157.106 201.56 157.623 202.174 158.224 202.699C159.403 204.081 160.04 205.844 160.018 207.661C160.018 209.575 158.976 211.211 158.699 213.072C158.567 214.035 158.699 215.025 158.461 215.988C158.254 216.944 157.844 217.844 157.26 218.628C156.704 219.553 155.7 220.115 154.621 220.106C153.494 219.833 152.617 218.951 152.351 217.823C152.193 216.741 153.037 215.843 153.565 214.985C154.007 214.255 154.383 213.487 154.687 212.689C155.913 209.751 155.523 206.387 153.657 203.807C153.127 203.145 152.484 202.582 151.757 202.145C151.301 201.914 150.883 201.616 150.517 201.26C149.936 200.587 150.028 199.584 150.965 199.373C151.902 199.162 153.42 199.769 154.146 198.687C154.278 198.515 153.987 198.357 153.869 198.529L153.842 198.568Z" fill="black"/>
<path d="M34 2H132.133V100.133H34L34 2Z" fill="black"/>
<path d="M119.332 201.539C119.501 206.951 118.563 212.34 116.574 217.375C116.867 214.731 116.149 206.257 117.96 204.429" fill="black"/>
<path d="M112.166 257.639C112.166 257.639 139.576 267.379 158.171 269.741C176.765 272.103 181.635 272.011 181.635 272.011L178.534 261.044L178.5 253C178.5 253 180.289 253.113 174.179 253.43C168.069 253.746 149.791 253.614 149.791 253.614C149.791 253.614 127.5 251.5 124.901 250.896C122.5 250 117.405 249.484 117.405 249.484C117.405 249.484 116.5 249 115 249C113.826 253.025 112.166 257.639 112.166 257.639Z" fill="black"/>
<path d="M188.075 210.301C188.075 210.301 193.855 218.695 191.058 227.932C188.26 237.17 186.61 247.227 186.452 246.936C186.293 246.646 185 241 184.67 239.244C183.646 236.356 183.723 233 184.67 230.057C185.792 226.573 187 220.5 187 220.5L188.075 210.301Z" fill="black"/>
<path d="M150.5 288C150.5 288 152.469 302.532 155.769 309.976C159.068 317.419 159.728 318.276 159.728 318.276H153.327C153.327 318.276 151 319 149.5 318C148.985 312.5 149 298 149 296.5C149 295 150.5 288 150.5 288Z" fill="black"/>
<path d="M184.116 97.8129L190.358 89.1689C190.477 88.9973 190.186 88.8258 190.067 88.9973L183.812 97.6282C183.693 97.7997 183.97 97.9713 184.102 97.7997L184.116 97.8129Z" fill="black"/>
<path d="M193.868 109.318C196.21 106.867 198.874 104.745 201.786 103.01C201.863 102.962 201.886 102.862 201.839 102.785C201.791 102.709 201.691 102.685 201.615 102.732C198.66 104.474 195.956 106.609 193.578 109.08C193.432 109.239 193.67 109.476 193.815 109.318H193.868Z" fill="black"/>
<path d="M202.367 124.204L209.876 120.244C210.061 120.139 209.876 119.862 209.705 119.954L202.209 123.913C202.011 124.019 202.209 124.296 202.367 124.204Z" fill="black"/>
<path d="M68.6293 116.574C69.3661 121.899 71.1609 127.023 73.9081 131.645C75.0351 133.651 75.338 136.017 74.7527 138.243C74.3386 139.912 73.8103 142.061 73.2224 144.5M116.944 206.076C116.944 206.076 105.33 229.197 84.0566 229.936C59.2594 230.794 65.3828 182.717 67.5735 170.312C68.8883 162.895 71.3556 152.242 73.2224 144.5M116.944 206.076C116.944 206.076 116.587 232.364 113.288 238.672C109.989 244.981 105.515 250.55 113.407 253.955M116.944 206.076C118.589 203.215 120 200.5 120.5 199.5M71.5004 112C71.8564 114.448 72.1299 115.803 73.5004 118M75.5004 110C75.5463 111.963 75.7014 113.06 76.5004 115M80.0004 107.5C80.9526 112.447 81.8131 115.042 84.5004 119M82.0004 121C81.2004 123.4 83.667 125 85.0004 125.5L83.5004 127.5M73.2224 144.5C80.8548 147.935 85.1024 149.351 92.5004 149" stroke="black" stroke-width="0.5" stroke-linecap="round" stroke-linejoin="round"/>
<path d="M410.352 17.7915L419.097 33.0087L352.424 71.3263L343.679 56.1091L410.352 17.7915Z" fill="#D6DEFF"/>
<path d="M372.877 6.0293H390.368V82.6645H372.877V6.0293Z" fill="#D6DEFF"/>
<path d="M344.062 32.7622L352.808 17.6145L419.176 55.9321L410.431 71.0798L344.062 32.7622Z" fill="#D6DEFF"/>
<circle cx="381.622" cy="44.3471" r="30.8466" fill="#D6DEFF"/>
<circle cx="381.622" cy="44.3477" r="8.90824" fill="#F4F6F9"/>
<path fill-rule="evenodd" clip-rule="evenodd" d="M411.608 37.1335L419.173 32.7608L410.435 17.6154L402.862 21.9814C399.324 18.6268 395.043 16.1573 390.367 14.7748V6.0293H372.89V14.768C368.212 16.1531 363.929 18.6249 360.389 21.9814L352.823 17.6154L344.077 32.7608L351.65 37.1335C350.507 41.8746 350.507 46.8192 351.65 51.5603L344.084 55.933L352.829 71.0784L360.395 66.7124C363.929 70.0799 368.211 72.5613 372.89 73.9529V82.6984H390.381V73.9529C392.711 73.2599 394.952 72.2975 397.059 71.0852C399.162 69.8685 401.115 68.4076 402.876 66.7327L410.448 71.1055L419.187 55.9602L411.601 51.5806C412.749 46.8336 412.751 41.8816 411.608 37.1335V37.1335Z" stroke="black" stroke-width="0.674091"/>
<line x1="45" y1="318.5" x2="354" y2="318.5" stroke="black"/>
<path d="M67.0455 62.9545H98.4318V54.8864H67.0455V62.9545ZM67.0455 47.8636H98.4318V39.7955H67.0455V47.8636Z" fill="#F4F6F9"/>
<circle cx="382" cy="44" r="41" fill="#EBEFFE"/>
<circle cx="382" cy="43.9994" r="36.1791" fill="#D6DEFF"/>
<circle cx="382" cy="44" r="41" stroke="black" stroke-width="0.5"/>
<path d="M382 17.0171V44.0002H398.233" stroke="black" stroke-width="0.5"/>
<circle cx="382.001" cy="43.9997" r="2.14616" fill="black"/>
<path d="M112.078 128.419L98.2986 144.038C98.0136 144.36 97.9249 144.808 98.066 145.212C98.2072 145.617 98.5567 145.916 98.9822 145.996L119.558 149.979C119.982 150.059 120.417 149.91 120.701 149.589C120.985 149.267 121.074 148.821 120.936 148.417L114.157 128.832C114.022 128.419 113.671 128.109 113.24 128.024C112.808 127.938 112.364 128.089 112.078 128.419V128.419Z" fill="#ECC953"/>
<path d="M42 37.7719V23.2281C42.0005 22.1729 41.4396 21.1977 40.5288 20.67L27.974 13.3954C27.0616 12.8682 25.9384 12.8682 25.026 13.3954L12.4712 20.67C11.5604 21.1977 10.9995 22.1729 11 23.2281V37.7719C10.9975 38.8291 11.5586 39.8069 12.4712 40.3355L25.026 47.6046C25.9384 48.1318 27.0616 48.1318 27.974 47.6046L40.5288 40.3355C41.4414 39.8069 42.0025 38.8291 42 37.7719Z" fill="#FB5D64"/>
<ellipse cx="49.5" cy="115" rx="11.5" ry="11" fill="#46DBC9"/>
<path d="M163.885 2.0294C165.005 0.908594 166.823 0.908592 167.943 2.0294L180.798 14.8842C181.919 16.005 181.919 17.8222 180.798 18.943L167.943 31.7978C166.823 32.9186 165.005 32.9186 163.885 31.7978L151.03 18.943C149.909 17.8222 149.909 16.005 151.03 14.8842L163.885 2.0294Z" fill="#1B3C87"/>
<path d="M231.75 69.6308L231.75 86.3692C231.75 87.6841 230.684 88.75 229.369 88.75L212.631 88.75C211.316 88.75 210.25 87.6841 210.25 86.3692L210.25 69.6308C210.25 68.3159 211.316 67.25 212.631 67.25L229.369 67.25C230.684 67.25 231.75 68.3159 231.75 69.6308Z" fill="white" stroke="black" stroke-width="0.5"/>
<path d="M221.501 77.667C221.501 75.1357 220.016 73.5576 217.97 73.5576C215.923 73.5576 214.438 75.1357 214.438 77.667C214.438 80.1982 215.923 81.7764 217.97 81.7764C218.493 81.7764 218.977 81.6748 219.411 81.4795L220.11 82.417H221.173L220.13 81.0303C220.981 80.3311 221.501 79.167 221.501 77.667ZM217.657 79.167L218.845 80.7217C218.571 80.8193 218.278 80.8701 217.97 80.8701C216.516 80.8701 215.376 79.7451 215.376 77.667C215.376 75.5889 216.516 74.4639 217.97 74.4639C219.423 74.4639 220.563 75.5889 220.563 77.667C220.563 78.874 220.181 79.7568 219.571 80.2881L218.72 79.167H217.657ZM226.802 73.667H225.833L223.833 74.9951V75.9795L225.786 74.6826H225.833V81.667H226.802V73.667Z" fill="#09101D"/>
<path d="M279.75 69.6308L279.75 86.3692C279.75 87.6841 278.684 88.75 277.369 88.75L260.631 88.75C259.316 88.75 258.25 87.6841 258.25 86.3692L258.25 69.6308C258.25 68.3159 259.316 67.25 260.631 67.25L277.369 67.25C278.684 67.25 279.75 68.3159 279.75 69.6308Z" fill="white" stroke="black" stroke-width="0.5"/>
<path d="M269.501 77.667C269.501 75.1357 268.016 73.5576 265.97 73.5576C263.923 73.5576 262.438 75.1357 262.438 77.667C262.438 80.1982 263.923 81.7764 265.97 81.7764C266.493 81.7764 266.977 81.6748 267.411 81.4795L268.11 82.417H269.173L268.13 81.0303C268.981 80.3311 269.501 79.167 269.501 77.667ZM265.657 79.167L266.845 80.7217C266.571 80.8193 266.278 80.8701 265.97 80.8701C264.516 80.8701 263.376 79.7451 263.376 77.667C263.376 75.5889 264.516 74.4639 265.97 74.4639C267.423 74.4639 268.563 75.5889 268.563 77.667C268.563 78.874 268.181 79.7568 267.571 80.2881L266.72 79.167H265.657ZM271.223 81.667H276.27V80.8076H272.552V80.7451L274.348 78.8232C275.723 77.3506 276.13 76.6631 276.13 75.7764C276.13 74.542 275.13 73.5576 273.723 73.5576C272.321 73.5576 271.255 74.5107 271.255 75.917H272.177C272.177 75.0068 272.766 74.4014 273.692 74.4014C274.559 74.4014 275.223 74.9326 275.223 75.7764C275.223 76.5146 274.79 77.0615 273.864 78.0732L271.223 80.9639V81.667Z" fill="#09101D"/>
<path d="M314 80.5H305.5L312 71V85" stroke="black" stroke-linecap="round" stroke-linejoin="round"/>
</svg>
