<svg width="360" height="200" viewBox="0 0 360 200" fill="none" xmlns="http://www.w3.org/2000/svg">
<path d="M311.301 55.7051H275.256V194.997H311.301V55.7051Z" fill="#EBEFFE"/>
<path d="M278.312 55.7051H275.257V194.997H296.283V81.8211C296.284 74.8953 294.391 68.2526 291.021 63.3547C287.651 58.4568 283.079 55.7051 278.312 55.7051Z" fill="#D6DEFF"/>
<path d="M311.301 55.7051H275.256V194.997H311.301V55.7051Z" stroke="black" stroke-width="0.5"/>
<path fill-rule="evenodd" clip-rule="evenodd" d="M311.301 55.707H204.388V194.999H311.301L311.301 55.707Z" stroke="black" stroke-width="0.5"/>
<rect x="54.9961" y="12.8164" width="132.176" height="182.181" rx="8" fill="#D6DEFF"/>
<rect x="50.7109" y="12.8164" width="132.176" height="182.181" rx="8" fill="#EBEFFE"/>
<rect x="54.9961" y="12.8164" width="132.176" height="182.181" rx="8" stroke="black" stroke-width="0.5"/>
<rect x="47.9902" y="12.8164" width="132.176" height="182.181" rx="8" fill="white"/>
<rect x="47.9902" y="12.8164" width="132.176" height="182.181" rx="8" stroke="black" stroke-width="0.5"/>
<path d="M65.8722 20.7484C61.5234 20.7484 57.998 17.223 57.998 12.8742C57.998 8.52539 61.7893 5 65.8722 5C69.9551 5 73.0173 8.90793 73.0173 12.8742" stroke="#09101D" stroke-width="0.5" stroke-linecap="round" stroke-linejoin="round"/>
<path d="M75.0578 20.7484C70.709 20.7484 67.1836 17.223 67.1836 12.8742C67.1836 8.52539 70.9749 5 75.0578 5C79.1407 5 82.2029 8.90793 82.2029 12.8742" stroke="#09101D" stroke-width="0.5" stroke-linecap="round" stroke-linejoin="round"/>
<path d="M84.2453 20.7484C79.8965 20.7484 76.3711 17.223 76.3711 12.8742C76.3711 8.52539 80.1624 5 84.2453 5C88.3282 5 91.3904 8.90793 91.3904 12.8742" stroke="#09101D" stroke-width="0.5" stroke-linecap="round" stroke-linejoin="round"/>
<path d="M93.4308 20.7484C89.082 20.7484 85.5566 17.223 85.5566 12.8742C85.5566 8.52539 89.3479 5 93.4308 5C97.5137 5 100.576 8.90793 100.576 12.8742" stroke="#09101D" stroke-width="0.5" stroke-linecap="round" stroke-linejoin="round"/>
<path d="M102.618 20.7484C98.2695 20.7484 94.7441 17.223 94.7441 12.8742C94.7441 8.52539 98.5354 5 102.618 5C106.701 5 109.763 8.90793 109.763 12.8742" stroke="#09101D" stroke-width="0.5" stroke-linecap="round" stroke-linejoin="round"/>
<path d="M111.804 20.7484C107.455 20.7484 103.93 17.223 103.93 12.8742C103.93 8.52539 107.721 5 111.804 5C115.887 5 118.949 8.90793 118.949 12.8742" stroke="#09101D" stroke-width="0.5" stroke-linecap="round" stroke-linejoin="round"/>
<path d="M120.991 20.7484C116.643 20.7484 113.117 17.223 113.117 12.8742C113.117 8.52539 116.908 5 120.991 5C125.074 5 128.136 8.90793 128.136 12.8742" stroke="#09101D" stroke-width="0.5" stroke-linecap="round" stroke-linejoin="round"/>
<path d="M130.177 20.7484C125.828 20.7484 122.303 17.223 122.303 12.8742C122.303 8.52539 126.094 5 130.177 5C134.26 5 137.322 8.90793 137.322 12.8742" stroke="#09101D" stroke-width="0.5" stroke-linecap="round" stroke-linejoin="round"/>
<path d="M139.364 20.7484C135.016 20.7484 131.49 17.223 131.49 12.8742C131.49 8.52539 135.282 5 139.364 5C143.447 5 146.51 8.90793 146.51 12.8742" stroke="#09101D" stroke-width="0.5" stroke-linecap="round" stroke-linejoin="round"/>
<path d="M148.55 20.7484C144.201 20.7484 140.676 17.223 140.676 12.8742C140.676 8.52539 144.467 5 148.55 5C152.633 5 155.695 8.90793 155.695 12.8742" stroke="#09101D" stroke-width="0.5" stroke-linecap="round" stroke-linejoin="round"/>
<path d="M157.737 20.7484C153.389 20.7484 149.863 17.223 149.863 12.8742C149.863 8.52539 153.655 5 157.737 5C161.82 5 164.883 8.90793 164.883 12.8742" stroke="#09101D" stroke-width="0.5" stroke-linecap="round" stroke-linejoin="round"/>
<path d="M166.923 20.7484C162.574 20.7484 159.049 17.223 159.049 12.8742C159.049 8.52539 162.84 5 166.923 5C171.006 5 174.068 8.90793 174.068 12.8742" stroke="#09101D" stroke-width="0.5" stroke-linecap="round" stroke-linejoin="round"/>
<line x1="0.25" y1="-0.25" x2="2.08309" y2="-0.25" transform="matrix(6.64413e-08 1 1 -2.87575e-08 167.215 19.582)" stroke="black" stroke-width="0.5" stroke-linecap="round"/>
<line x1="0.25" y1="-0.25" x2="2.08309" y2="-0.25" transform="matrix(6.64413e-08 1 1 -2.87575e-08 158.176 19.582)" stroke="black" stroke-width="0.5" stroke-linecap="round"/>
<line x1="0.25" y1="-0.25" x2="2.08309" y2="-0.25" transform="matrix(6.64413e-08 1 1 -2.87575e-08 148.842 19.582)" stroke="black" stroke-width="0.5" stroke-linecap="round"/>
<line x1="0.25" y1="-0.25" x2="2.08309" y2="-0.25" transform="matrix(6.64413e-08 1 1 -2.87575e-08 139.803 19.582)" stroke="black" stroke-width="0.5" stroke-linecap="round"/>
<line x1="0.25" y1="-0.25" x2="2.08309" y2="-0.25" transform="matrix(6.64413e-08 1 1 -2.87575e-08 130.469 19.582)" stroke="black" stroke-width="0.5" stroke-linecap="round"/>
<line x1="0.25" y1="-0.25" x2="2.08309" y2="-0.25" transform="matrix(6.64413e-08 1 1 -2.87575e-08 121.43 19.582)" stroke="black" stroke-width="0.5" stroke-linecap="round"/>
<line x1="0.25" y1="-0.25" x2="2.08309" y2="-0.25" transform="matrix(6.64413e-08 1 1 -2.87575e-08 112.096 19.582)" stroke="black" stroke-width="0.5" stroke-linecap="round"/>
<line x1="0.25" y1="-0.25" x2="2.08309" y2="-0.25" transform="matrix(6.64413e-08 1 1 -2.87575e-08 102.764 19.582)" stroke="black" stroke-width="0.5" stroke-linecap="round"/>
<line x1="0.25" y1="-0.25" x2="2.08309" y2="-0.25" transform="matrix(6.64413e-08 1 1 -2.87575e-08 93.7227 19.582)" stroke="black" stroke-width="0.5" stroke-linecap="round"/>
<line x1="0.25" y1="-0.25" x2="2.08309" y2="-0.25" transform="matrix(6.64413e-08 1 1 -2.87575e-08 84.3906 19.582)" stroke="black" stroke-width="0.5" stroke-linecap="round"/>
<line x1="0.25" y1="-0.25" x2="2.08309" y2="-0.25" transform="matrix(6.64413e-08 1 1 -2.87575e-08 75.3496 19.582)" stroke="black" stroke-width="0.5" stroke-linecap="round"/>
<path d="M66.0176 19.7266L66.0176 21.768" stroke="black" stroke-width="0.5" stroke-linecap="round"/>
<line x1="161.012" y1="82.9512" x2="210.497" y2="82.9512" stroke="black" stroke-width="0.5"/>
<line x1="161.012" y1="117.771" x2="210.497" y2="117.771" stroke="black" stroke-width="0.5"/>
<line x1="161.012" y1="152.596" x2="210.497" y2="152.596" stroke="black" stroke-width="0.5"/>
<rect x="0.25" y="-0.25" width="75.2552" height="22.7153" rx="4.75" transform="matrix(1 0 0 -1 85.2578 94.3086)" fill="#EBEFFE" stroke="#09101D" stroke-width="0.5"/>
<rect x="0.25" y="-0.25" width="75.2552" height="22.7153" rx="4.75" transform="matrix(1 0 0 -1 85.2578 129.133)" fill="#EBEFFE" stroke="#09101D" stroke-width="0.5"/>
<rect x="0.25" y="-0.25" width="75.2552" height="22.7153" rx="4.75" transform="matrix(1 0 0 -1 85.2578 163.953)" fill="#EBEFFE" stroke="#09101D" stroke-width="0.5"/>
<circle cx="70.5948" cy="83.2003" r="6.33115" stroke="#D6DEFF" stroke-width="2"/>
<circle cx="70.5948" cy="118.023" r="6.33115" stroke="#D6DEFF" stroke-width="2"/>
<circle cx="70.5948" cy="152.847" r="6.33115" stroke="#D6DEFF" stroke-width="2"/>
<path d="M92.6641 86.8691L93.4688 84.6035H96.7031L97.5078 86.8691H98.5234L95.5859 78.8691H94.5859L91.6484 86.8691H92.6641ZM93.7734 83.7441L95.0547 80.1348H95.1172L96.3984 83.7441H93.7734ZM99.5235 89.1191H100.445V85.9473H100.524C100.727 86.2754 101.117 86.9941 102.274 86.9941C103.774 86.9941 104.82 85.791 104.82 83.8848C104.82 81.9941 103.774 80.791 102.258 80.791C101.086 80.791 100.727 81.5098 100.524 81.8223H100.414V80.8691H99.5235V89.1191ZM100.43 83.8691C100.43 82.5254 101.024 81.6191 102.149 81.6191C103.32 81.6191 103.899 82.6035 103.899 83.8691C103.899 85.1504 103.305 86.166 102.149 86.166C101.039 86.166 100.43 85.2285 100.43 83.8691ZM106.106 89.1191H107.028V85.9473H107.106C107.309 86.2754 107.699 86.9941 108.856 86.9941C110.356 86.9941 111.403 85.791 111.403 83.8848C111.403 81.9941 110.356 80.791 108.84 80.791C107.668 80.791 107.309 81.5098 107.106 81.8223H106.996V80.8691H106.106V89.1191ZM107.012 83.8691C107.012 82.5254 107.606 81.6191 108.731 81.6191C109.903 81.6191 110.481 82.6035 110.481 83.8691C110.481 85.1504 109.887 86.166 108.731 86.166C107.621 86.166 107.012 85.2285 107.012 83.8691ZM112.688 78.8691V85.5566C112.688 86.4121 113.125 86.916 114 86.916C114.266 86.916 114.528 86.8691 114.688 86.8223L114.5 86.0254C114.41 86.0527 114.328 86.0801 114.11 86.0879C113.703 86.0996 113.61 85.8887 113.61 85.3066V78.8691H112.688ZM117.929 86.9941C119.148 86.9941 120.038 86.3848 120.32 85.4785L119.429 85.2285C119.195 85.8535 118.652 86.166 117.929 86.166C116.847 86.166 116.101 85.4668 116.058 84.1816H120.413V83.791C120.413 81.5566 119.085 80.791 117.835 80.791C116.21 80.791 115.132 82.0723 115.132 83.916C115.132 85.7598 116.195 86.9941 117.929 86.9941ZM116.058 83.3848C116.12 82.4512 116.781 81.6191 117.835 81.6191C118.835 81.6191 119.476 82.3691 119.476 83.3848H116.058ZM125.945 82.2129C125.656 81.3613 125.007 80.791 123.82 80.791C122.554 80.791 121.617 81.5098 121.617 82.5254C121.617 83.3535 122.109 83.9082 123.21 84.166L124.21 84.4004C124.816 84.541 125.101 84.8301 125.101 85.2441C125.101 85.7598 124.554 86.1816 123.695 86.1816C122.941 86.1816 122.468 85.8574 122.304 85.2129L121.429 85.4316C121.644 86.4512 122.484 86.9941 123.71 86.9941C125.105 86.9941 126.054 86.2324 126.054 85.1973C126.054 84.3613 125.531 83.834 124.46 83.5723L123.57 83.3535C122.859 83.1777 122.539 82.9395 122.539 82.4785C122.539 81.9629 123.085 81.5879 123.82 81.5879C124.624 81.5879 124.957 82.0332 125.117 82.4473L125.945 82.2129Z" fill="black"/>
<path d="M92.3359 121.691H95.2266C97.1172 121.691 97.8984 120.77 97.8984 119.566C97.8984 118.301 97.0234 117.613 96.2891 117.566V117.488C96.9766 117.301 97.5859 116.848 97.5859 115.816C97.5859 114.645 96.8047 113.691 95.1328 113.691H92.3359V121.691ZM93.3047 120.832V118.051H95.2734C96.3203 118.051 96.9766 118.754 96.9766 119.566C96.9766 120.27 96.4922 120.832 95.2266 120.832H93.3047ZM93.3047 117.207V114.551H95.1328C96.1953 114.551 96.6641 115.113 96.6641 115.816C96.6641 116.66 95.9766 117.207 95.1016 117.207H93.3047ZM101.01 121.832C102.057 121.832 102.604 121.27 102.791 120.879H102.838V121.691H103.76V117.738C103.76 115.832 102.307 115.613 101.541 115.613C100.635 115.613 99.6036 115.926 99.1349 117.02L100.01 117.332C100.213 116.895 100.693 116.426 101.572 116.426C102.42 116.426 102.838 116.875 102.838 117.645V117.676C102.838 118.121 102.385 118.082 101.291 118.223C100.178 118.367 98.963 118.613 98.963 119.988C98.963 121.16 99.8692 121.832 101.01 121.832ZM101.15 121.004C100.416 121.004 99.8849 120.676 99.8849 120.035C99.8849 119.332 100.525 119.113 101.244 119.02C101.635 118.973 102.682 118.863 102.838 118.676V119.52C102.838 120.27 102.244 121.004 101.15 121.004ZM106.243 118.082C106.243 117.035 106.892 116.441 107.775 116.441C108.63 116.441 109.15 117 109.15 117.941V121.691H110.071V117.879C110.071 116.348 109.255 115.613 108.04 115.613C107.134 115.613 106.571 116.02 106.29 116.629H106.212V115.691H105.321V121.691H106.243V118.082ZM113.401 121.832C114.448 121.832 114.994 121.27 115.182 120.879H115.229V121.691H116.151V117.738C116.151 115.832 114.698 115.613 113.932 115.613C113.026 115.613 111.994 115.926 111.526 117.02L112.401 117.332C112.604 116.895 113.084 116.426 113.963 116.426C114.811 116.426 115.229 116.875 115.229 117.645V117.676C115.229 118.121 114.776 118.082 113.682 118.223C112.569 118.367 111.354 118.613 111.354 119.988C111.354 121.16 112.26 121.832 113.401 121.832ZM113.541 121.004C112.807 121.004 112.276 120.676 112.276 120.035C112.276 119.332 112.916 119.113 113.635 119.02C114.026 118.973 115.073 118.863 115.229 118.676V119.52C115.229 120.27 114.635 121.004 113.541 121.004ZM118.634 118.082C118.634 117.035 119.283 116.441 120.165 116.441C121.021 116.441 121.54 117 121.54 117.941V121.691H122.462V117.879C122.462 116.348 121.646 115.613 120.431 115.613C119.525 115.613 118.962 116.02 118.681 116.629H118.603V115.691H117.712V121.691H118.634V118.082ZM125.791 121.832C126.838 121.832 127.385 121.27 127.573 120.879H127.62V121.691H128.541V117.738C128.541 115.832 127.088 115.613 126.323 115.613C125.416 115.613 124.385 115.926 123.916 117.02L124.791 117.332C124.995 116.895 125.475 116.426 126.354 116.426C127.202 116.426 127.62 116.875 127.62 117.645V117.676C127.62 118.121 127.166 118.082 126.073 118.223C124.959 118.367 123.745 118.613 123.745 119.988C123.745 121.16 124.651 121.832 125.791 121.832ZM125.932 121.004C125.198 121.004 124.666 120.676 124.666 120.035C124.666 119.332 125.307 119.113 126.026 119.02C126.416 118.973 127.463 118.863 127.62 118.676V119.52C127.62 120.27 127.026 121.004 125.932 121.004ZM134.353 117.035C134.064 116.184 133.416 115.613 132.228 115.613C130.962 115.613 130.025 116.332 130.025 117.348C130.025 118.176 130.517 118.73 131.619 118.988L132.619 119.223C133.224 119.363 133.509 119.652 133.509 120.066C133.509 120.582 132.962 121.004 132.103 121.004C131.349 121.004 130.877 120.68 130.712 120.035L129.837 120.254C130.052 121.273 130.892 121.816 132.119 121.816C133.513 121.816 134.462 121.055 134.462 120.02C134.462 119.184 133.939 118.656 132.869 118.395L131.978 118.176C131.267 118 130.947 117.762 130.947 117.301C130.947 116.785 131.494 116.41 132.228 116.41C133.033 116.41 133.365 116.855 133.525 117.27L134.353 117.035Z" fill="black"/>
<path d="M92.3359 156.516H93.3047V153.594H95.0547C96.918 153.594 97.7578 152.461 97.7578 151.047C97.7578 149.633 96.918 148.516 95.0391 148.516H92.3359V156.516ZM93.3047 152.734V149.375H95.0078C96.3086 149.375 96.8047 150.086 96.8047 151.047C96.8047 152.008 96.3086 152.734 95.0234 152.734H93.3047ZM101.524 156.641C102.742 156.641 103.633 156.031 103.914 155.125L103.024 154.875C102.789 155.5 102.246 155.813 101.524 155.813C100.442 155.813 99.6954 155.113 99.6524 153.828H104.008V153.437C104.008 151.203 102.68 150.438 101.43 150.438C99.8048 150.438 98.7267 151.719 98.7267 153.563C98.7267 155.406 99.7892 156.641 101.524 156.641ZM99.6524 153.031C99.7149 152.098 100.375 151.266 101.43 151.266C102.43 151.266 103.07 152.016 103.07 153.031H99.6524ZM107.055 156.656C108.102 156.656 108.649 156.094 108.836 155.703H108.883V156.516H109.805V152.562C109.805 150.656 108.352 150.438 107.586 150.438C106.68 150.438 105.649 150.75 105.18 151.844L106.055 152.156C106.258 151.719 106.738 151.25 107.617 151.25C108.465 151.25 108.883 151.699 108.883 152.469V152.5C108.883 152.945 108.43 152.906 107.336 153.047C106.223 153.191 105.008 153.437 105.008 154.812C105.008 155.984 105.914 156.656 107.055 156.656ZM107.196 155.828C106.461 155.828 105.93 155.5 105.93 154.859C105.93 154.156 106.571 153.938 107.289 153.844C107.68 153.797 108.727 153.687 108.883 153.5V154.344C108.883 155.094 108.289 155.828 107.196 155.828ZM111.366 156.516H112.288V152.719C112.288 151.906 112.929 151.312 113.804 151.312C114.05 151.312 114.304 151.359 114.366 151.375V150.438C114.261 150.43 114.019 150.422 113.882 150.422C113.163 150.422 112.538 150.828 112.32 151.422H112.257V150.516H111.366V156.516ZM119.588 151.859C119.299 151.008 118.651 150.438 117.463 150.438C116.198 150.438 115.26 151.156 115.26 152.172C115.26 153 115.752 153.555 116.854 153.812L117.854 154.047C118.459 154.187 118.745 154.477 118.745 154.891C118.745 155.406 118.198 155.828 117.338 155.828C116.584 155.828 116.112 155.504 115.948 154.859L115.073 155.078C115.287 156.098 116.127 156.641 117.354 156.641C118.748 156.641 119.698 155.879 119.698 154.844C119.698 154.008 119.174 153.48 118.104 153.219L117.213 153C116.502 152.824 116.182 152.586 116.182 152.125C116.182 151.609 116.729 151.234 117.463 151.234C118.268 151.234 118.6 151.68 118.76 152.094L119.588 151.859Z" fill="black"/>
<path d="M70.6699 50.5977C70.373 48.957 69.0605 47.9883 67.4512 47.9883C65.4043 47.9883 63.9199 49.5664 63.9199 52.0977C63.9199 54.6289 65.4043 56.207 67.4512 56.207C69.0605 56.207 70.373 55.2383 70.6699 53.5977H69.7012C69.4668 54.707 68.5137 55.3008 67.4512 55.3008C65.998 55.3008 64.8574 54.1758 64.8574 52.0977C64.8574 50.0195 65.998 48.8945 67.4512 48.8945C68.5137 48.8945 69.4668 49.4883 69.7012 50.5977H70.6699ZM72.9112 52.4883C72.9112 51.4414 73.5792 50.8477 74.4894 50.8477C75.3565 50.8477 75.88 51.3945 75.88 52.3477V56.0977H76.8019V52.2852C76.8019 50.7422 75.9815 50.0195 74.755 50.0195C73.8097 50.0195 73.2706 50.4141 72.9894 51.0352H72.9112V48.0977H71.9894V56.0977H72.9112V52.4883ZM80.8049 56.2227C82.4299 56.2227 83.5236 54.9883 83.5236 53.1289C83.5236 51.2539 82.4299 50.0195 80.8049 50.0195C79.1799 50.0195 78.0861 51.2539 78.0861 53.1289C78.0861 54.9883 79.1799 56.2227 80.8049 56.2227ZM80.8049 55.3945C79.5705 55.3945 79.008 54.332 79.008 53.1289C79.008 51.9258 79.5705 50.8477 80.8049 50.8477C82.0393 50.8477 82.6018 51.9258 82.6018 53.1289C82.6018 54.332 82.0393 55.3945 80.8049 55.3945ZM87.2474 56.2227C88.8724 56.2227 89.9661 54.9883 89.9661 53.1289C89.9661 51.2539 88.8724 50.0195 87.2474 50.0195C85.6224 50.0195 84.5286 51.2539 84.5286 53.1289C84.5286 54.9883 85.6224 56.2227 87.2474 56.2227ZM87.2474 55.3945C86.013 55.3945 85.4505 54.332 85.4505 53.1289C85.4505 51.9258 86.013 50.8477 87.2474 50.8477C88.4817 50.8477 89.0442 51.9258 89.0442 53.1289C89.0442 54.332 88.4817 55.3945 87.2474 55.3945ZM95.5023 51.4414C95.2133 50.5898 94.5648 50.0195 93.3773 50.0195C92.1117 50.0195 91.1742 50.7383 91.1742 51.7539C91.1742 52.582 91.6664 53.1367 92.768 53.3945L93.768 53.6289C94.3734 53.7695 94.6586 54.0586 94.6586 54.4727C94.6586 54.9883 94.1117 55.4102 93.2523 55.4102C92.4984 55.4102 92.0258 55.0859 91.8617 54.4414L90.9867 54.6602C91.2015 55.6797 92.0414 56.2227 93.268 56.2227C94.6625 56.2227 95.6117 55.4609 95.6117 54.4258C95.6117 53.5898 95.0883 53.0625 94.018 52.8008L93.1273 52.582C92.4164 52.4062 92.0961 52.168 92.0961 51.707C92.0961 51.1914 92.643 50.8164 93.3773 50.8164C94.182 50.8164 94.514 51.2617 94.6742 51.6758L95.5023 51.4414ZM99.394 56.2227C100.613 56.2227 101.503 55.6133 101.785 54.707L100.894 54.457C100.66 55.082 100.117 55.3945 99.394 55.3945C98.312 55.3945 97.5659 54.6953 97.5229 53.4102H101.878V53.0195C101.878 50.7852 100.55 50.0195 99.3003 50.0195C97.6753 50.0195 96.5971 51.3008 96.5971 53.1445C96.5971 54.9883 97.6596 56.2227 99.394 56.2227ZM97.5229 52.6133C97.5854 51.6797 98.2456 50.8477 99.3003 50.8477C100.3 50.8477 100.941 51.5977 100.941 52.6133H97.5229ZM107.898 56.2383C108.945 56.2383 109.492 55.6758 109.679 55.2852H109.726V56.0977H110.648V52.1445C110.648 50.2383 109.195 50.0195 108.429 50.0195C107.523 50.0195 106.492 50.332 106.023 51.4258L106.898 51.7383C107.101 51.3008 107.582 50.832 108.461 50.832C109.308 50.832 109.726 51.2812 109.726 52.0508V52.082C109.726 52.5273 109.273 52.4883 108.179 52.6289C107.066 52.7734 105.851 53.0195 105.851 54.3945C105.851 55.5664 106.757 56.2383 107.898 56.2383ZM108.039 55.4102C107.304 55.4102 106.773 55.082 106.773 54.4414C106.773 53.7383 107.414 53.5195 108.132 53.4258C108.523 53.3789 109.57 53.2695 109.726 53.082V53.9258C109.726 54.6758 109.132 55.4102 108.039 55.4102ZM117.854 50.0977H116.511V49.4883C116.511 48.8945 116.761 48.582 117.37 48.582C117.636 48.582 117.792 48.6445 117.886 48.6758L118.151 47.8789C118.011 47.8164 117.729 47.7227 117.276 47.7227C116.417 47.7227 115.589 48.2383 115.589 49.2695V50.0977H114.62V50.8789H115.589V56.0977H116.511V50.8789H117.854V50.0977ZM119.025 56.0977H119.947V52.3008C119.947 51.4883 120.588 50.8945 121.463 50.8945C121.709 50.8945 121.963 50.9414 122.025 50.957V50.0195C121.92 50.0117 121.678 50.0039 121.541 50.0039C120.822 50.0039 120.197 50.4102 119.978 51.0039H119.916V50.0977H119.025V56.0977ZM126.778 53.6445C126.778 54.7695 125.919 55.2852 125.231 55.2852C124.466 55.2852 123.919 54.7227 123.919 53.8477V50.0977H122.997V53.9102C122.997 55.4414 123.81 56.1758 124.935 56.1758C125.841 56.1758 126.435 55.6914 126.716 55.082H126.778V56.0977H127.7V50.0977H126.778V53.6445ZM129.268 56.0977H130.19V50.0977H129.268V56.0977ZM129.736 49.0977C130.096 49.0977 130.393 48.8164 130.393 48.4727C130.393 48.1289 130.096 47.8477 129.736 47.8477C129.377 47.8477 129.08 48.1289 129.08 48.4727C129.08 48.8164 129.377 49.0977 129.736 49.0977ZM134.366 50.0977H133.085V48.6602H132.163V50.0977H131.257V50.8789H132.163V54.6289C132.163 55.6758 133.007 56.1758 133.788 56.1758C134.132 56.1758 134.351 56.1133 134.476 56.0664L134.288 55.2383C134.21 55.2539 134.085 55.2852 133.882 55.2852C133.476 55.2852 133.085 55.1602 133.085 54.3789V50.8789H134.366V50.0977ZM136.304 56.1602C136.691 56.1602 137.007 55.8437 137.007 55.457C137.007 55.0703 136.691 54.7539 136.304 54.7539C135.917 54.7539 135.601 55.0703 135.601 55.457C135.601 55.8437 135.917 56.1602 136.304 56.1602Z" fill="black"/>
<path d="M260.963 163.842H205.055V169.951H260.963V163.842Z" fill="#EBEFFE"/>
<path d="M265.48 141.238H198.278V164.454H265.48V141.238Z" fill="#D6DEFF"/>
<path fill-rule="evenodd" clip-rule="evenodd" d="M265.48 141.238H198.278V164.454H265.48V141.238Z" stroke="black" stroke-width="0.5"/>
<path d="M265.48 141.238H253.057V164.454H265.48V141.238Z" fill="black"/>
<path d="M203.166 147.957L203.166 149.772L205.13 149.772L205.13 147.957L203.166 147.957Z" fill="white"/>
<path d="M203.166 152.152L203.166 153.968L205.13 153.968L205.13 152.152L203.166 152.152Z" fill="white"/>
<path d="M203.166 156.346L203.166 158.161L205.13 158.161L205.13 156.346L203.166 156.346Z" fill="white"/>
<path d="M260.963 129.02H205.055V135.129H260.963V129.02Z" fill="#EBEFFE"/>
<path d="M265.48 106.414H198.278V129.629H265.48V106.414Z" fill="#D6DEFF"/>
<path fill-rule="evenodd" clip-rule="evenodd" d="M265.48 106.414H198.278V129.629H265.48V106.414Z" stroke="black" stroke-width="0.5"/>
<path d="M265.48 106.414H253.057V129.629H265.48V106.414Z" fill="black"/>
<path d="M203.166 113.135L203.166 114.95L205.13 114.95L205.13 113.135L203.166 113.135Z" fill="white"/>
<path d="M203.166 117.33L203.166 119.145L205.13 119.145L205.13 117.33L203.166 117.33Z" fill="white"/>
<path d="M203.166 121.523L203.166 123.339L205.13 123.339L205.13 121.523L203.166 121.523Z" fill="white"/>
<path d="M260.963 94.1953H205.055V100.305H260.963V94.1953Z" fill="#EBEFFE"/>
<path d="M265.48 71.5898H198.278V94.8051H265.48V71.5898Z" fill="#D6DEFF"/>
<path fill-rule="evenodd" clip-rule="evenodd" d="M265.48 71.5898H198.278V94.8051H265.48V71.5898Z" stroke="black" stroke-width="0.5"/>
<path d="M265.48 71.5898H253.057V94.8051H265.48V71.5898Z" fill="black"/>
<path d="M203.166 78.3105L203.166 80.1258L205.13 80.1258L205.13 78.3105L203.166 78.3105Z" fill="white"/>
<path d="M203.166 82.5059L203.166 84.3211L205.13 84.3211L205.13 82.5059L203.166 82.5059Z" fill="white"/>
<path d="M203.166 86.6992L203.166 88.5145L205.13 88.5145L205.13 86.6992L203.166 86.6992Z" fill="white"/>
<path d="M225.97 87.3125C227.494 87.3125 228.611 86.1875 228.611 84.6562C228.611 83.1055 227.533 81.9687 226.064 81.9687C225.525 81.9687 225.001 82.1602 224.673 82.4219H224.626L224.908 80.0625H228.251V79.2031H224.095L223.611 83.1406L224.517 83.25C224.849 83.0117 225.416 82.8398 225.908 82.8437C226.927 82.8516 227.673 83.625 227.673 84.6719C227.673 85.6992 226.955 86.4531 225.97 86.4531C225.15 86.4531 224.498 85.9258 224.423 85.2031H223.486C223.544 86.4219 224.595 87.3125 225.97 87.3125Z" fill="black"/>
<path d="M224.079 114.025H223.11L221.11 115.354V116.338L223.063 115.041H223.11V122.025H224.079V114.025ZM230.002 122.135C231.768 122.135 232.783 120.639 232.783 118.025C232.783 115.432 231.752 113.916 230.002 113.916C228.252 113.916 227.221 115.432 227.221 118.025C227.221 120.639 228.236 122.135 230.002 122.135ZM230.002 121.275C228.838 121.275 228.158 120.107 228.158 118.025C228.158 115.947 228.846 114.76 230.002 114.76C231.158 114.76 231.846 115.947 231.846 118.025C231.846 120.107 231.166 121.275 230.002 121.275Z" fill="black"/>
<path d="M222.97 156.957C224.493 156.957 225.61 155.832 225.61 154.301C225.61 152.75 224.532 151.613 223.063 151.613C222.524 151.613 222.001 151.805 221.673 152.066H221.626L221.907 149.707H225.251V148.848H221.095L220.61 152.785L221.517 152.895C221.849 152.656 222.415 152.484 222.907 152.488C223.927 152.496 224.673 153.27 224.673 154.316C224.673 155.344 223.954 156.098 222.97 156.098C222.149 156.098 221.497 155.57 221.423 154.848H220.485C220.544 156.066 221.595 156.957 222.97 156.957ZM230.002 156.957C231.768 156.957 232.783 155.461 232.783 152.848C232.783 150.254 231.752 148.738 230.002 148.738C228.252 148.738 227.221 150.254 227.221 152.848C227.221 155.461 228.236 156.957 230.002 156.957ZM230.002 156.098C228.838 156.098 228.158 154.93 228.158 152.848C228.158 150.77 228.846 149.582 230.002 149.582C231.158 149.582 231.846 150.77 231.846 152.848C231.846 154.93 231.166 156.098 230.002 156.098Z" fill="black"/>
<path d="M248.986 181.557H250.884V187.28H248.986V181.557Z" fill="#D6DEFF"/>
<path d="M253.967 181.557H255.865V187.28H253.967V181.557Z" fill="#D6DEFF"/>
<path d="M258.949 181.557H260.847V187.28H258.949V181.557Z" fill="#D6DEFF"/>
<path d="M263.93 181.557H265.828V187.28H263.93V181.557Z" fill="#D6DEFF"/>
<path d="M184.838 80.1445H190.675V85.982H184.838V80.1445Z" fill="black"/>
<path d="M165.9 114.967H171.738V120.804H165.9V114.967Z" fill="black"/>
<path d="M172.008 149.791H177.845V155.628H172.008V149.791Z" fill="black"/>
<line x1="15" y1="195" x2="344.902" y2="195.001" stroke="black" stroke-width="0.5"/>
<path d="M253.222 45.3602V36.3421C253.222 35.6878 252.875 35.0831 252.31 34.7559L244.525 30.2452C243.959 29.9183 243.263 29.9183 242.697 30.2452L234.912 34.7559C234.347 35.0831 234 35.6878 234 36.3421V45.3602C233.998 46.0158 234.346 46.6221 234.912 46.9498L242.697 51.4572C243.263 51.7841 243.959 51.7841 244.525 51.4572L252.31 46.9498C252.876 46.6221 253.224 46.0158 253.222 45.3602Z" fill="#FB5D64"/>
<path d="M197.459 172.029C198.58 170.909 200.397 170.909 201.518 172.029L207.946 178.458C209.067 179.579 209.067 181.396 207.946 182.517L201.518 188.946C200.397 190.067 198.58 190.067 197.459 188.946L191.03 182.517C189.909 181.396 189.909 179.579 191.03 178.458L197.459 172.029Z" fill="#1B3C87"/>
<path d="M306.533 70.26L315.077 79.9447C315.253 80.1444 315.308 80.4222 315.221 80.6729C315.133 80.9236 314.917 81.1089 314.653 81.1587L301.895 83.6283C301.631 83.6779 301.362 83.5857 301.186 83.3864C301.01 83.187 300.954 82.9104 301.04 82.6598L305.243 70.516C305.327 70.2595 305.545 70.0677 305.812 70.0146C306.08 69.9615 306.355 70.0554 306.533 70.26Z" fill="#ECC953"/>
<ellipse cx="329.131" cy="146.821" rx="7.13077" ry="6.82074" fill="#46DBC9"/>
</svg>
