<svg width="360" height="200" viewBox="0 0 360 200" fill="none" xmlns="http://www.w3.org/2000/svg">
<rect x="112.891" y="53.3535" width="202.255" height="142.384" rx="11.9296" fill="#EBEFFE"/>
<path d="M307.615 53.334H120.945C116.641 53.3362 113.153 56.8245 113.15 61.1281V65.9945H315.409V61.1281C315.407 56.8245 311.919 53.3362 307.615 53.334V53.334Z" fill="black"/>
<circle cx="123.712" cy="59.8469" r="1.24341" fill="white"/>
<circle cx="131.39" cy="59.8469" r="1.24341" fill="white"/>
<circle cx="139.068" cy="59.8469" r="1.24341" fill="white"/>
<path d="M113.15 65.9941H315.405V69.1404H113.15L113.15 65.9941Z" fill="#D6DEFF"/>
<path fill-rule="evenodd" clip-rule="evenodd" d="M180.938 196.007H120.945C118.877 196.007 116.895 195.185 115.433 193.72C113.972 192.255 113.15 190.269 113.15 188.198V61.1437C113.153 56.832 116.642 53.3379 120.945 53.3379H307.615C311.918 53.3379 315.407 56.832 315.409 61.1437V188.198C315.409 192.511 311.919 196.007 307.615 196.007H180.938Z" stroke="black" stroke-width="0.5"/>
<rect x="92.7383" y="170.006" width="25.8594" height="25.8594" rx="12.9297" fill="#FB5D64"/>
<path d="M133.439 148.922C134.754 148.922 135.82 149.988 135.82 151.303L135.82 160.708C135.82 162.023 134.754 163.089 133.439 163.089L124.034 163.089C122.719 163.089 121.653 162.023 121.653 160.708L121.653 151.303C121.653 149.988 122.719 148.922 124.034 148.922L133.439 148.922Z" fill="white" stroke="black" stroke-width="0.5"/>
<path d="M129.072 155.572C129.072 153.961 128.128 152.957 126.825 152.957C125.523 152.957 124.578 153.961 124.578 155.572C124.578 157.183 125.523 158.187 126.825 158.187C127.158 158.187 127.467 158.123 127.743 157.998L128.188 158.595H128.864L128.2 157.712C128.742 157.267 129.072 156.527 129.072 155.572ZM126.626 156.527L127.382 157.516C127.208 157.578 127.022 157.61 126.825 157.61C125.901 157.61 125.175 156.895 125.175 155.572C125.175 154.25 125.901 153.534 126.825 153.534C127.75 153.534 128.476 154.25 128.476 155.572C128.476 156.34 128.232 156.902 127.844 157.24L127.303 156.527H126.626Z" fill="#09101D"/>
<path d="M131.779 158.187C132.766 158.187 133.5 157.568 133.5 156.735C133.5 156.089 133.117 155.619 132.475 155.512V155.473C132.99 155.316 133.311 154.893 133.311 154.319C133.311 153.598 132.741 152.957 131.799 152.957C130.919 152.957 130.189 153.499 130.159 154.299H130.755C130.778 153.792 131.26 153.494 131.789 153.494C132.351 153.494 132.714 153.835 132.714 154.349C132.714 154.886 132.294 155.234 131.69 155.234H131.282V155.781H131.69C132.463 155.781 132.893 156.174 132.893 156.735C132.893 157.275 132.423 157.64 131.77 157.64C131.18 157.64 130.713 157.337 130.676 156.845H130.049C130.087 157.645 130.793 158.187 131.779 158.187Z" fill="#09101D"/>
<path d="M121.407 167.002C124.8 159.911 117.915 142.467 112.924 134.668L92.4062 172.002C100.57 175.324 104.561 175.488 111.407 175.002C112.992 174.542 118.409 173.267 121.407 167.002Z" fill="#F4F6F9"/>
<path d="M70.0605 123.816C70.9974 124.994 72.1005 126.029 73.3352 126.889C73.3352 126.889 73.7015 125.439 73.7464 125.289C73.7912 125.14 74.1127 124.706 72.9389 124.691C71.9354 124.572 70.9609 124.275 70.0605 123.816L70.0605 123.816Z" fill="black"/>
<path d="M70.0605 123.816C81.8357 127.621 80.6096 118.836 80.0414 115.15C80.0414 114.904 79.9517 114.665 79.9068 114.403C80.5681 113.959 80.7654 113.075 80.3554 112.392C80.0824 111.985 79.8328 111.563 79.6078 111.128C79.1186 110.218 78.6963 109.274 78.3443 108.302C77.3275 105.446 75.9519 102.321 74.6959 99.6895" stroke="black" stroke-width="0.5"/>
<path d="M71.63 112.108C72.0263 111.899 72.5122 112.46 72.7216 112.721C72.9267 112.986 73.0836 113.285 73.1851 113.604C73.2082 113.64 73.2529 113.657 73.2946 113.645C73.3362 113.633 73.3648 113.595 73.3645 113.551C73.2273 113.077 72.9697 112.647 72.6169 112.303C72.3328 112.041 71.9515 111.742 71.5553 111.951C71.4506 112.004 71.5553 112.168 71.6525 112.108H71.63Z" fill="black"/>
<path d="M72.3864 113.08C72.5363 112.947 72.7499 112.915 72.9322 112.998C73.0443 113.035 73.0967 112.855 72.9845 112.811C72.7297 112.701 72.4338 112.757 72.2369 112.953C72.1397 113.027 72.2743 113.162 72.364 113.08H72.3864Z" fill="black"/>
<path d="M72.429 97.6573C72.6757 97.7097 78.2231 98.9208 79.2474 102.293C80.1445 105.283 77.2138 106.405 74.2233 105.104C74.0868 105.043 73.9272 105.074 73.8224 105.18C73.7177 105.287 73.6898 105.447 73.7523 105.582C74.058 106.187 74.0799 106.896 73.8121 107.519C73.4284 108.552 73.2384 109.646 73.2514 110.748C73.2528 110.88 73.179 111.001 73.0613 111.06C72.9436 111.119 72.8026 111.105 72.6981 111.025C72.1386 110.546 71.3139 110.546 70.7543 111.025C70.0067 111.623 70.4702 114.158 72.3916 114.995C72.7036 115.126 72.8677 115.47 72.7729 115.795C72.1748 117.694 70.3057 123.368 69.0347 123.809C67.4647 124.348 67.689 123.518 62.3883 124.318C60.4594 124.609 51.8243 114.21 54.8746 107.249C55.8423 105.017 57.5992 103.22 59.809 102.203C61.585 101.349 63.2518 100.285 64.7732 99.033C66.1937 97.8667 68.6235 96.835 72.429 97.6573Z" fill="black"/>
<circle cx="55.1657" cy="107.004" r="11.1696" fill="black"/>
<path d="M44.1071 161.766C41.5804 156.853 37.622 145.68 42.0015 140.289C46.381 134.899 52.2484 134.955 54.6347 135.657L55.0558 131.447C56.6145 131.204 58.5066 131.043 60.5302 130.954M108.115 155.028C106.959 155.304 105.096 155.132 103.062 154.414M60.5302 130.954C61.4062 128.468 61.7445 126.647 62.2146 123.025M60.5302 130.954C64.6186 130.776 69.244 130.898 72.7423 131.26M72.7423 131.26C75.7815 131.575 77.97 132.071 78.2166 132.71C78.6542 133.843 79.0588 135.658 79.0588 136.5C79.9011 136.219 80.7433 135.657 83.2699 136.5C85.084 137.105 91.4452 142.915 95.482 148.712C97.5335 151.658 100.441 153.489 103.062 154.414M72.7423 131.26C72.9597 128.927 73.2156 127.515 74.0056 124.709M103.062 154.414C99.4871 145.606 90.0946 127.189 89.5865 125.972C89.3786 125.474 90.6434 124.598 92.5342 123.662M85.7965 168.504C86.5317 169.043 87.3816 169.588 88.3232 170.123M88.3232 170.123C95.9223 174.438 109.495 178.085 116.958 172.715C126.455 165.881 120.748 151.66 119.064 147.448C117.379 143.237 106.431 120.919 105.167 120.077C104.746 119.629 102.859 119.931 100.535 120.598M88.3232 170.123C86.2176 175.241 89.1654 190.822 89.1654 195.454M46.2126 149.554C45.9916 156.571 40.4841 176.372 36.9483 182.821C34.3523 187.557 37.7305 194.044 39.4043 195.67M92.5342 123.662C89.1609 118.024 88.641 114.594 88.7443 108.286M92.5342 123.662C94.7898 122.546 97.936 121.344 100.535 120.598M100.535 120.598C100.114 119.863 99.3561 118.14 99.693 117.129C100.114 115.866 101.799 114.181 100.956 111.655M98.8508 108.286C98.9862 109.767 98.954 110.537 98.4297 111.655M97.1664 106.18C97.0427 107.465 96.8847 108.052 96.3242 108.707M94.6397 103.232C94.7465 104.674 94.2241 105.971 92.1131 109.128M83.2699 127.235C84.6548 125.588 85.7956 124.673 88.7443 123.024M81.5855 130.604C83.8314 128.982 88.6887 126.32 88.3232 128.499C88.1041 129.804 86.0038 130.443 85.149 131.26M87.9021 126.814C88.5232 126.387 88.8893 126.293 89.5865 126.393M89.1654 131.025C89.7322 131.999 89.803 132.581 89.5865 133.552M91.2709 134.394C90.9958 135.49 90.7729 136.014 90.0076 136.5" stroke="black" stroke-width="0.5" stroke-linecap="round" stroke-linejoin="round"/>
<path d="M115.672 164.48L116.158 164.151C116.255 164.084 116.158 163.919 116.068 163.986L115.582 164.315C115.485 164.383 115.582 164.547 115.672 164.48Z" fill="black"/>
<path d="M116.637 165.646C116.946 165.599 117.209 165.395 117.332 165.107C117.384 164.995 117.22 164.898 117.175 165.01C117.075 165.255 116.853 165.428 116.592 165.466C116.472 165.466 116.517 165.661 116.637 165.646Z" fill="black"/>
<path d="M45.7683 152.645C45.7683 152.645 44.9758 155.725 43.3908 155.403C41.8058 155.082 40.7891 153.235 40.7891 153.235L42.8151 159.373C42.8151 159.373 43.8768 162.364 44.2207 160.868C44.5646 159.373 45.7683 152.645 45.7683 152.645V152.645Z" fill="black"/>
<path d="M86.4863 168.988C86.4863 168.988 86.9648 171.852 87.7423 172.988L87.9666 170.984C87.9666 170.984 88.2283 169.915 87.5853 169.699" fill="black"/>
<path d="M41.3359 196.159C41.3359 196.159 54.0007 195.903 64.5842 195.903C70.6677 195.903 72.0011 195.903 76.4818 195.903C75.0029 195.224 73.5399 194.605 72.3402 194.2C68.1535 192.787 55.825 189.356 45.8367 191.045L44.3414 191.3C44.3414 191.3 43.5938 191.457 42.9508 192.855" fill="black"/>
<path d="M61.2219 147.695C60.8118 155.157 59.545 162.548 57.4463 169.72C57.4089 169.833 57.5959 169.885 57.6258 169.765C59.7306 162.578 60.9999 155.173 61.4088 147.695C61.4088 147.576 61.2293 147.576 61.2219 147.695Z" fill="black"/>
<path d="M70.8221 82.115L71.5248 86.6531C71.5248 86.7727 71.7267 86.7279 71.7043 86.6083L71.0015 82.0701C71.0015 81.9505 70.7996 82.0029 70.8221 82.115Z" fill="black"/>
<path d="M78.2913 81.3964L76.4446 86.6298C76.3998 86.7419 76.5792 86.7942 76.6241 86.6821L78.4707 81.4487C78.5081 81.3365 78.3287 81.2842 78.2913 81.3964Z" fill="black"/>
<path d="M85.842 85.3047L82.9113 90.1718C82.8515 90.2765 83.016 90.3737 83.0758 90.269L86.0065 85.4019C86.0663 85.2972 85.9018 85.2001 85.842 85.3047Z" fill="black"/>
<rect x="141.406" y="112.668" width="145.336" height="29.5915" rx="2.6267" fill="white"/>
<path d="M152.367 129.273L158.85 135.776L174.695 119.156" stroke="black" stroke-width="0.5" stroke-linecap="round" stroke-linejoin="round"/>
<rect x="141.406" y="112.668" width="145.336" height="29.5915" rx="2.6267" stroke="black" stroke-width="0.5"/>
<path d="M276.593 119.355H185.25" stroke="black" stroke-width="0.5"/>
<path d="M249.199 125.769H185.25" stroke="#D6DEFF" stroke-width="0.5"/>
<path d="M249.199 130.773H185.25" stroke="#D6DEFF" stroke-width="0.5"/>
<path d="M231.627 135.781H185.25" stroke="#D6DEFF" stroke-width="0.5"/>
<rect x="141.406" y="76.002" width="145.336" height="29.5915" rx="2.6267" fill="#D6DEFF"/>
<rect x="141.406" y="148.668" width="145.336" height="29.5915" rx="2.6267" fill="white"/>
<path d="M152.367 165.269L158.85 171.772L174.695 155.152" stroke="black" stroke-width="0.5" stroke-linecap="round" stroke-linejoin="round"/>
<rect x="141.406" y="148.668" width="145.336" height="29.5915" rx="2.6267" stroke="black" stroke-width="0.5"/>
<path d="M276.593 155.351H185.25" stroke="black" stroke-width="0.5"/>
<path d="M249.199 161.769H185.25" stroke="#D6DEFF" stroke-width="0.5"/>
<path d="M249.199 166.773H185.25" stroke="#D6DEFF" stroke-width="0.5"/>
<path d="M231.627 171.783H185.25" stroke="#D6DEFF" stroke-width="0.5"/>
<path d="M212.073 49.7345V8.33203H121.971L84.4043 137.336" stroke="black" stroke-width="0.5"/>
<rect x="118.072" y="5.33203" width="6.6668" height="6.6668" rx="3.3334" fill="#1B3C87"/>
<rect x="208.074" y="4" width="8.00016" height="8.00016" rx="4.00008" fill="#FB5D64"/>
<rect x="140.307" y="44.9238" width="145.12" height="29.5915" rx="2.6267" transform="rotate(-8.03392 140.307 44.9238)" fill="white"/>
<rect x="140.307" y="44.9238" width="145.12" height="29.5915" rx="2.6267" transform="rotate(-8.03392 140.307 44.9238)" stroke="black" stroke-width="0.5"/>
<path d="M153.465 59.8316L160.783 65.3666L174.127 46.6985" stroke="black" stroke-width="0.5" stroke-linecap="round" stroke-linejoin="round"/>
<path d="M274.904 32.6782L184.592 45.4252" stroke="black" stroke-width="0.5"/>
<path d="M248.716 42.8526L185.489 51.7768" stroke="#D6DEFF" stroke-width="0.5"/>
<path d="M249.413 47.8097L186.186 56.7338" stroke="#D6DEFF" stroke-width="0.5"/>
<path d="M232.74 55.2136L186.887 61.6855" stroke="#D6DEFF" stroke-width="0.5"/>
<path d="M324.742 196.002L39.4033 196.002" stroke="black" stroke-width="0.5" stroke-linecap="round"/>
<path d="M292.076 169.982H317.936V195.842H292.076V169.982Z" fill="#46DBC9"/>
<path d="M308.154 147.11L295.977 168.093C295.725 168.526 295.724 169.061 295.974 169.495C296.224 169.929 296.688 170.196 297.188 170.195L321.436 170.263C321.936 170.262 322.397 169.996 322.648 169.564C322.899 169.132 322.901 168.599 322.655 168.165L310.607 147.129C310.362 146.682 309.895 146.404 309.386 146.4C308.877 146.396 308.406 146.668 308.154 147.11Z" fill="#ECC953"/>
<rect x="292.076" y="76.002" width="14.667" height="14.667" rx="2.6267" fill="white"/>
<rect x="292.326" y="76.252" width="14.167" height="14.167" rx="2.3767" stroke="black" stroke-width="0.5"/>
<path d="M296.076 83.334H302.743" stroke="black" stroke-linecap="round" stroke-linejoin="round"/>
<path d="M299.41 86.6699V80.0031" stroke="black" stroke-linecap="round" stroke-linejoin="round"/>
<path d="M133.439 76.252C134.754 76.252 135.82 77.3179 135.82 78.6328L135.82 88.0381C135.82 89.353 134.754 90.4189 133.439 90.4189L124.034 90.4189C122.719 90.4189 121.653 89.353 121.653 88.0381L121.653 78.6328C121.653 77.3179 122.719 76.252 124.034 76.252L133.439 76.252Z" fill="white" stroke="black" stroke-width="0.5"/>
<path d="M129.072 82.9022C129.072 81.2914 128.128 80.2871 126.825 80.2871C125.523 80.2871 124.578 81.2914 124.578 82.9022C124.578 84.513 125.523 85.5172 126.825 85.5172C127.158 85.5172 127.467 85.4526 127.743 85.3283L128.188 85.9249H128.864L128.2 85.0424C128.742 84.5975 129.072 83.8567 129.072 82.9022ZM126.626 83.8567L127.382 84.8461C127.208 84.9082 127.022 84.9405 126.825 84.9405C125.901 84.9405 125.175 84.2246 125.175 82.9022C125.175 81.5797 125.901 80.8638 126.825 80.8638C127.75 80.8638 128.476 81.5797 128.476 82.9022C128.476 83.6703 128.232 84.2321 127.844 84.5701L127.303 83.8567H126.626Z" fill="#09101D"/>
<path d="M132.446 80.3567H131.829L130.556 81.2019V81.8283L131.799 81.003H131.829V85.4476H132.446V80.3567Z" fill="#09101D"/>
<path d="M133.439 112.92C134.754 112.92 135.82 113.986 135.82 115.301L135.82 124.706C135.82 126.021 134.754 127.087 133.439 127.087L124.034 127.087C122.719 127.087 121.653 126.021 121.653 124.706L121.653 115.301C121.653 113.986 122.719 112.92 124.034 112.92L133.439 112.92Z" fill="white" stroke="black" stroke-width="0.5"/>
<path d="M129.072 119.57C129.072 117.959 128.128 116.955 126.825 116.955C125.523 116.955 124.578 117.959 124.578 119.57C124.578 121.181 125.523 122.185 126.825 122.185C127.158 122.185 127.467 122.121 127.743 121.996L128.188 122.593H128.864L128.2 121.71C128.742 121.265 129.072 120.525 129.072 119.57ZM126.626 120.525L127.382 121.514C127.208 121.576 127.022 121.608 126.825 121.608C125.901 121.608 125.175 120.893 125.175 119.57C125.175 118.248 125.901 117.532 126.825 117.532C127.75 117.532 128.476 118.248 128.476 119.57C128.476 120.338 128.232 120.9 127.844 121.238L127.303 120.525H126.626Z" fill="black"/>
<path d="M130.169 122.116H133.38V121.569H131.014V121.529L132.157 120.306C133.032 119.369 133.291 118.931 133.291 118.367C133.291 117.581 132.654 116.955 131.76 116.955C130.867 116.955 130.189 117.562 130.189 118.456H130.775C130.775 117.877 131.151 117.492 131.74 117.492C132.292 117.492 132.714 117.83 132.714 118.367C132.714 118.837 132.438 119.185 131.849 119.829L130.169 121.668V122.116Z" fill="black"/>
</svg>
