<svg width="256" height="240" viewBox="0 0 256 240" fill="none" xmlns="http://www.w3.org/2000/svg">
<line x1="2" y1="234.75" x2="254" y2="234.75" stroke="black" stroke-width="0.5"/>
<rect x="66.4258" y="33.5703" width="129.237" height="201.427" rx="8.16998" fill="#EBEFFE"/>
<rect x="62.2363" y="33.5703" width="129.237" height="201.427" rx="8.16998" fill="#D6DEFF"/>
<rect x="66.4258" y="33.5703" width="129.237" height="201.427" rx="8.16998" stroke="black" stroke-width="0.5"/>
<rect x="59.5742" y="33.5703" width="129.237" height="201.427" rx="8.16998" fill="#F4F6F9"/>
<rect x="59.5742" y="33.5703" width="129.237" height="201.427" rx="8.16998" stroke="black" stroke-width="0.5"/>
<rect x="74.1211" y="47.8477" width="100.146" height="24.2926" rx="3.54572" fill="white" stroke="black" stroke-width="0.5"/>
<path d="M157.471 51.248V68.7099" stroke="#D6DEFF" stroke-width="0.5"/>
<rect x="83.6602" y="88.4707" width="10.8343" height="10.8343" rx="2.69636" fill="black" stroke="black" stroke-width="0.5"/>
<rect x="83.6602" y="88.4707" width="10.8343" height="10.8343" rx="2.69636" stroke="black" stroke-width="0.5"/>
<rect x="107.324" y="88.4707" width="10.8343" height="10.8343" rx="2.69636" fill="black" stroke="black" stroke-width="0.5"/>
<rect x="107.324" y="88.4707" width="10.8343" height="10.8343" rx="2.69636" stroke="black" stroke-width="0.5"/>
<rect x="130.986" y="88.4707" width="10.8343" height="10.8343" rx="2.69636" fill="black" stroke="black" stroke-width="0.5"/>
<rect x="130.986" y="88.4707" width="10.8343" height="10.8343" rx="2.69636" stroke="black" stroke-width="0.5"/>
<rect x="83.6602" y="112.008" width="10.8343" height="10.8343" rx="2.69636" fill="black" stroke="black" stroke-width="0.5"/>
<rect x="83.6602" y="112.008" width="10.8343" height="10.8343" rx="2.69636" stroke="black" stroke-width="0.5"/>
<rect x="107.324" y="112.008" width="10.8343" height="10.8343" rx="2.69636" fill="black" stroke="black" stroke-width="0.5"/>
<rect x="107.324" y="112.008" width="10.8343" height="10.8343" rx="2.69636" stroke="black" stroke-width="0.5"/>
<rect x="130.986" y="112.008" width="10.8343" height="10.8343" rx="2.69636" fill="black" stroke="black" stroke-width="0.5"/>
<rect x="130.986" y="112.008" width="10.8343" height="10.8343" rx="2.69636" stroke="black" stroke-width="0.5"/>
<rect x="154.648" y="112.008" width="10.8343" height="10.8343" rx="2.69636" fill="black" stroke="black" stroke-width="0.5"/>
<rect x="154.648" y="112.008" width="10.8343" height="10.8343" rx="2.69636" stroke="black" stroke-width="0.5"/>
<rect x="153.895" y="112.008" width="10.8343" height="10.8343" rx="2.69636" fill="#EBEFFE"/>
<rect x="153.895" y="112.008" width="10.8343" height="10.8343" rx="2.69636" stroke="black" stroke-width="0.5"/>
<rect x="83.6602" y="135.543" width="10.8343" height="10.8343" rx="2.69636" fill="black" stroke="black" stroke-width="0.5"/>
<rect x="83.6602" y="135.543" width="10.8343" height="10.8343" rx="2.69636" stroke="black" stroke-width="0.5"/>
<rect x="107.322" y="135.541" width="10.8343" height="10.8343" rx="2.69636" fill="black" stroke="black" stroke-width="0.5"/>
<rect x="107.322" y="135.541" width="10.8343" height="10.8343" rx="2.69636" stroke="black" stroke-width="0.5"/>
<rect x="130.986" y="135.541" width="10.8343" height="10.8343" rx="2.69636" fill="black" stroke="black" stroke-width="0.5"/>
<rect x="130.986" y="135.541" width="10.8343" height="10.8343" rx="2.69636" stroke="black" stroke-width="0.5"/>
<rect x="154.648" y="135.541" width="10.8343" height="10.8343" rx="2.69636" fill="black" stroke="black" stroke-width="0.5"/>
<rect x="154.648" y="135.541" width="10.8343" height="10.8343" rx="2.69636" stroke="black" stroke-width="0.5"/>
<rect x="83.6602" y="159.074" width="10.8343" height="10.8343" rx="2.69636" fill="black" stroke="black" stroke-width="0.5"/>
<rect x="83.6602" y="159.074" width="10.8343" height="10.8343" rx="2.69636" stroke="black" stroke-width="0.5"/>
<rect x="107.322" y="159.074" width="10.8343" height="10.8343" rx="2.69636" fill="black" stroke="black" stroke-width="0.5"/>
<rect x="107.322" y="159.074" width="10.8343" height="10.8343" rx="2.69636" stroke="black" stroke-width="0.5"/>
<rect x="130.986" y="159.074" width="10.8343" height="10.8343" rx="2.69636" fill="black" stroke="black" stroke-width="0.5"/>
<rect x="130.986" y="159.074" width="10.8343" height="10.8343" rx="2.69636" stroke="black" stroke-width="0.5"/>
<rect x="154.648" y="159.074" width="10.8343" height="10.8343" rx="2.69636" fill="black" stroke="black" stroke-width="0.5"/>
<rect x="154.648" y="159.074" width="10.8343" height="10.8343" rx="2.69636" stroke="black" stroke-width="0.5"/>
<rect x="153.895" y="159.074" width="10.8343" height="10.8343" rx="2.69636" fill="#EBEFFE"/>
<rect x="153.895" y="159.074" width="10.8343" height="10.8343" rx="2.69636" stroke="black" stroke-width="0.5"/>
<rect x="83.6602" y="182.611" width="10.8343" height="10.8343" rx="2.69636" fill="black" stroke="black" stroke-width="0.5"/>
<rect x="83.6602" y="182.611" width="10.8343" height="10.8343" rx="2.69636" stroke="black" stroke-width="0.5"/>
<rect x="107.322" y="182.611" width="10.8343" height="10.8343" rx="2.69636" fill="black" stroke="black" stroke-width="0.5"/>
<rect x="107.322" y="182.611" width="10.8343" height="10.8343" rx="2.69636" stroke="black" stroke-width="0.5"/>
<rect x="130.986" y="182.611" width="10.8343" height="10.8343" rx="2.69636" fill="black" stroke="black" stroke-width="0.5"/>
<rect x="130.986" y="182.611" width="10.8343" height="10.8343" rx="2.69636" stroke="black" stroke-width="0.5"/>
<rect x="154.648" y="182.611" width="10.8343" height="10.8343" rx="2.69636" fill="black" stroke="black" stroke-width="0.5"/>
<rect x="154.648" y="182.611" width="10.8343" height="10.8343" rx="2.69636" stroke="black" stroke-width="0.5"/>
<rect x="153.895" y="182.611" width="10.8343" height="10.8343" rx="2.69636" fill="#EBEFFE"/>
<rect x="153.895" y="182.611" width="10.8343" height="10.8343" rx="2.69636" stroke="black" stroke-width="0.5"/>
<rect x="153.691" y="88.123" width="11.8574" height="34.831" rx="2.69636" fill="black" stroke="black" stroke-width="0.5"/>
<rect x="154.648" y="88.4707" width="10.8343" height="34.3695" rx="2.69636" stroke="black" stroke-width="0.5"/>
<rect x="153.691" y="159.27" width="11.8574" height="34.09" rx="2.69636" fill="black" stroke="black" stroke-width="0.5"/>
<rect x="154.648" y="159.074" width="10.8343" height="34.3695" rx="2.69636" stroke="black" stroke-width="0.5"/>
<rect x="83.6602" y="206.146" width="10.8343" height="10.8343" rx="2.69636" fill="black" stroke="black" stroke-width="0.5"/>
<rect x="83.6602" y="206.146" width="10.8343" height="10.8343" rx="2.69636" stroke="black" stroke-width="0.5"/>
<rect x="107.324" y="206.146" width="10.8343" height="10.8343" rx="2.69636" fill="black" stroke="black" stroke-width="0.5"/>
<rect x="107.324" y="206.146" width="10.8343" height="10.8343" rx="2.69636" stroke="black" stroke-width="0.5"/>
<rect x="130.986" y="206.146" width="10.8343" height="10.8343" rx="2.69636" fill="black" stroke="black" stroke-width="0.5"/>
<rect x="130.986" y="206.146" width="10.8343" height="10.8343" rx="2.69636" stroke="black" stroke-width="0.5"/>
<rect x="154.648" y="206.146" width="10.8343" height="10.8343" rx="2.69636" fill="black" stroke="black" stroke-width="0.5"/>
<rect x="154.648" y="206.146" width="10.8343" height="10.8343" rx="2.69636" stroke="black" stroke-width="0.5"/>
<rect x="82.9043" y="88.4668" width="10.8343" height="10.8343" rx="2.69636" fill="#EBEFFE"/>
<rect x="106.568" y="88.4668" width="10.8343" height="10.8343" rx="2.69636" fill="#EBEFFE"/>
<rect x="130.23" y="88.4668" width="10.8343" height="10.8343" rx="2.69636" fill="#EBEFFE"/>
<rect x="82.9043" y="112.002" width="10.8343" height="10.8343" rx="2.69636" fill="#EBEFFE"/>
<rect x="106.568" y="112.002" width="10.8343" height="10.8343" rx="2.69636" fill="#EBEFFE"/>
<rect x="130.23" y="112.002" width="10.8343" height="10.8343" rx="2.69636" fill="#EBEFFE"/>
<rect x="82.9043" y="135.537" width="10.8343" height="10.8343" rx="2.69636" fill="#EBEFFE"/>
<rect x="106.568" y="135.537" width="10.8343" height="10.8343" rx="2.69636" fill="#EBEFFE"/>
<rect x="130.23" y="135.537" width="10.8343" height="10.8343" rx="2.69636" fill="#EBEFFE"/>
<rect x="153.893" y="135.537" width="10.8343" height="10.8343" rx="2.69636" fill="#D6DEFF"/>
<rect x="82.9043" y="159.068" width="10.8343" height="10.8343" rx="2.69636" fill="#EBEFFE"/>
<rect x="106.568" y="159.068" width="10.8343" height="10.8343" rx="2.69636" fill="#EBEFFE"/>
<rect x="130.23" y="159.068" width="10.8343" height="10.8343" rx="2.69636" fill="#EBEFFE"/>
<rect x="82.9043" y="182.607" width="10.8343" height="10.8343" rx="2.69636" fill="#EBEFFE"/>
<rect x="106.568" y="182.607" width="10.8343" height="10.8343" rx="2.69636" fill="#EBEFFE"/>
<rect x="130.23" y="182.607" width="10.8343" height="10.8343" rx="2.69636" fill="#EBEFFE"/>
<rect x="153.893" y="88.4668" width="10.8343" height="34.3695" rx="2.69636" fill="#D6DEFF"/>
<rect x="153.893" y="159.068" width="10.8343" height="34.3695" rx="2.69636" fill="#D6DEFF"/>
<rect x="82.9043" y="206.143" width="10.8343" height="10.8343" rx="2.69636" fill="#EBEFFE"/>
<rect x="106.568" y="206.143" width="10.8343" height="10.8343" rx="2.69636" fill="#EBEFFE"/>
<rect x="130.23" y="206.143" width="10.8343" height="10.8343" rx="2.69636" fill="#EBEFFE"/>
<rect x="153.893" y="206.143" width="10.8343" height="10.8343" rx="2.69636" fill="#D6DEFF"/>
<rect x="82.9043" y="88.4648" width="10.8343" height="10.8343" rx="2.69636" stroke="black" stroke-width="0.5"/>
<rect x="106.568" y="88.4648" width="10.8343" height="10.8343" rx="2.69636" stroke="black" stroke-width="0.5"/>
<rect x="130.23" y="88.4668" width="10.8343" height="10.8343" rx="2.69636" stroke="black" stroke-width="0.5"/>
<rect x="82.9043" y="112.002" width="10.8343" height="10.8343" rx="2.69636" stroke="black" stroke-width="0.5"/>
<rect x="106.568" y="112.002" width="10.8343" height="10.8343" rx="2.69636" stroke="black" stroke-width="0.5"/>
<rect x="130.23" y="112.002" width="10.8343" height="10.8343" rx="2.69636" stroke="black" stroke-width="0.5"/>
<rect x="82.9043" y="135.535" width="10.8343" height="10.8343" rx="2.69636" stroke="black" stroke-width="0.5"/>
<rect x="106.568" y="135.535" width="10.8343" height="10.8343" rx="2.69636" stroke="black" stroke-width="0.5"/>
<rect x="130.23" y="135.535" width="10.8343" height="10.8343" rx="2.69636" stroke="black" stroke-width="0.5"/>
<rect x="153.893" y="135.537" width="10.8343" height="10.8343" rx="2.69636" stroke="black" stroke-width="0.5"/>
<rect x="82.9043" y="159.074" width="10.8343" height="10.8343" rx="2.69636" stroke="black" stroke-width="0.5"/>
<rect x="106.568" y="159.074" width="10.8343" height="10.8343" rx="2.69636" stroke="black" stroke-width="0.5"/>
<rect x="130.23" y="159.074" width="10.8343" height="10.8343" rx="2.69636" stroke="black" stroke-width="0.5"/>
<rect x="82.9043" y="182.605" width="10.8343" height="10.8343" rx="2.69636" stroke="black" stroke-width="0.5"/>
<rect x="106.568" y="182.605" width="10.8343" height="10.8343" rx="2.69636" stroke="black" stroke-width="0.5"/>
<rect x="130.23" y="182.605" width="10.8343" height="10.8343" rx="2.69636" stroke="black" stroke-width="0.5"/>
<rect x="153.893" y="88.4668" width="10.8343" height="34.3695" rx="2.69636" stroke="black" stroke-width="0.5"/>
<rect x="153.893" y="159.072" width="10.8343" height="34.3695" rx="2.69636" stroke="black" stroke-width="0.5"/>
<rect x="82.9043" y="206.143" width="10.8343" height="10.8343" rx="2.69636" stroke="black" stroke-width="0.5"/>
<rect x="106.568" y="206.143" width="10.8343" height="10.8343" rx="2.69636" stroke="black" stroke-width="0.5"/>
<rect x="130.23" y="206.143" width="10.8343" height="10.8343" rx="2.69636" stroke="black" stroke-width="0.5"/>
<rect x="153.943" y="206.143" width="10.8343" height="10.8343" rx="2.69636" stroke="black" stroke-width="0.5"/>
<path d="M100.354 59.9824H107.629" stroke="black" stroke-width="0.5" stroke-linecap="round" stroke-linejoin="round"/>
<path d="M103.99 63.6211V56.3453" stroke="black" stroke-width="0.5" stroke-linecap="round" stroke-linejoin="round"/>
<path d="M136.115 62.5527L141.26 57.408" stroke="black" stroke-width="0.5" stroke-linecap="round" stroke-linejoin="round"/>
<path d="M141.262 62.5527L136.117 57.408" stroke="black" stroke-width="0.5" stroke-linecap="round" stroke-linejoin="round"/>
<path d="M91.9004 52.2324C93.2153 52.2324 94.2812 53.2984 94.2812 54.6133L94.2812 65.3583C94.2812 66.6732 93.2153 67.7391 91.9004 67.7391L81.1554 67.7391C79.8405 67.7391 78.7745 66.6732 78.7745 65.3583L78.7745 54.6133C78.7745 53.2984 79.8405 52.2324 81.1554 52.2324L91.9004 52.2324Z" fill="white" stroke="black" stroke-width="0.5"/>
<path d="M86.8978 60.1049C86.8978 58.4941 85.9532 57.4899 84.6507 57.4899C83.3481 57.4899 82.4035 58.4941 82.4035 60.1049C82.4035 61.7157 83.3481 62.72 84.6507 62.72C84.9838 62.72 85.292 62.6554 85.5679 62.5311L86.0129 63.1277H86.689L86.0253 62.2452C86.5672 61.8002 86.8978 61.0595 86.8978 60.1049ZM84.4518 61.0595L85.2075 62.0488C85.0335 62.111 84.847 62.1433 84.6507 62.1433C83.7259 62.1433 83.0001 61.4274 83.0001 60.1049C83.0001 58.7825 83.7259 58.0666 84.6507 58.0666C85.5754 58.0666 86.3012 58.7825 86.3012 60.1049C86.3012 60.873 86.0576 61.4348 85.6698 61.7729L85.1279 61.0595H84.4518ZM90.271 57.5595H89.6546L88.3818 58.4047V59.0311L89.6247 58.2058H89.6546V62.6504H90.271V57.5595Z" fill="#09101D"/>
<path d="M126.826 52.2324C128.141 52.2324 129.207 53.2984 129.207 54.6133L129.207 65.3583C129.207 66.6732 128.141 67.7391 126.826 67.7391L116.081 67.7391C114.766 67.7391 113.7 66.6732 113.7 65.3583L113.7 54.6133C113.7 53.2984 114.766 52.2324 116.081 52.2324L126.826 52.2324Z" fill="white" stroke="black" stroke-width="0.5"/>
<path d="M121.822 60.1049C121.822 58.4941 120.877 57.4899 119.574 57.4899C118.272 57.4899 117.327 58.4941 117.327 60.1049C117.327 61.7157 118.272 62.72 119.574 62.72C119.908 62.72 120.216 62.6554 120.492 62.5311L120.937 63.1277H121.613L120.949 62.2452C121.491 61.8002 121.822 61.0595 121.822 60.1049ZM119.376 61.0595L120.131 62.0488C119.957 62.111 119.771 62.1433 119.574 62.1433C118.65 62.1433 117.924 61.4274 117.924 60.1049C117.924 58.7825 118.65 58.0666 119.574 58.0666C120.499 58.0666 121.225 58.7825 121.225 60.1049C121.225 60.873 120.981 61.4348 120.594 61.7729L120.052 61.0595H119.376ZM122.918 62.6504H126.13V62.1035H123.763V62.0637L124.907 60.8407C125.782 59.9036 126.04 59.4661 126.04 58.9018C126.04 58.1163 125.404 57.4899 124.509 57.4899C123.616 57.4899 122.938 58.0964 122.938 58.9913H123.524C123.524 58.4121 123.9 58.0268 124.489 58.0268C125.041 58.0268 125.463 58.3649 125.463 58.9018C125.463 59.3716 125.187 59.7196 124.598 60.3635L122.918 62.2029V62.6504Z" fill="#09101D"/>
<path d="M154.196 61.8026H148.012L152.741 54.8906V65.0767" stroke="black" stroke-width="0.5" stroke-linecap="round" stroke-linejoin="round"/>
<path d="M208.231 29.0024L198.206 40.3662C197.998 40.6005 197.934 40.9265 198.036 41.2207C198.139 41.5149 198.393 41.7323 198.703 41.7907L213.673 44.6885C213.982 44.7467 214.299 44.6386 214.505 44.4046C214.712 44.1707 214.777 43.8461 214.676 43.5521L209.744 29.3027C209.645 29.0018 209.39 28.7767 209.076 28.7144C208.763 28.6521 208.439 28.7623 208.231 29.0024Z" fill="#ECC953"/>
<path d="M61.5549 163.848V153.266C61.5553 152.498 61.1472 151.789 60.4845 151.405L51.3499 146.112C50.686 145.728 49.8689 145.728 49.205 146.112L40.0704 151.405C39.4077 151.789 38.9996 152.498 39 153.266V163.848C38.9982 164.617 39.4065 165.328 40.0704 165.713L49.205 171.002C49.8689 171.385 50.686 171.385 51.3499 171.002L60.4845 165.713C61.1484 165.328 61.5567 164.617 61.5549 163.848Z" fill="#FB5D64"/>
<ellipse cx="215.086" cy="172.218" rx="8.36714" ry="8.00335" fill="#46DBC9"/>
<path d="M91.5194 7.0294C92.6402 5.90859 94.4574 5.90859 95.5782 7.0294L103.825 15.2766C104.946 16.3974 104.946 18.2146 103.825 19.3354L95.5782 27.5825C94.4574 28.7033 92.6402 28.7033 91.5194 27.5825L83.2723 19.3354C82.1515 18.2146 82.1515 16.3974 83.2723 15.2766L91.5194 7.0294Z" fill="#1B3C87"/>
</svg>
