<svg width="361" height="352" viewBox="0 0 361 352" fill="none" xmlns="http://www.w3.org/2000/svg">
<ellipse cx="289.329" cy="345.347" rx="43.3287" ry="4.57358" fill="#EBEFFE"/>
<path d="M233.191 345.921H46.877L109.463 52.248H170.605L233.191 345.921Z" fill="#F4F6F9"/>
<ellipse cx="189.139" cy="137.703" rx="8.90646" ry="8.90646" fill="#FB5D64"/>
<path d="M91.6997 123.71C92.3251 123.085 93.339 123.085 93.9644 123.71L102.995 132.741C103.62 133.366 103.62 134.38 102.995 135.006L93.9644 144.036C93.339 144.662 92.3251 144.662 91.6997 144.036L82.6691 135.006C82.0438 134.38 82.0438 133.366 82.6691 132.741L91.6997 123.71Z" fill="#1B3C87"/>
<path d="M46.877 345.921L109.463 52.248H170.605L233.191 345.921" stroke="black" stroke-width="0.181975"/>
<path d="M262.793 144.433L232.011 135.175C231.125 134.908 230.605 133.993 230.826 133.095C231.91 128.719 235.694 116.568 245.452 110.743C246.135 110.341 247.003 110.454 247.561 111.017L282.705 146.407C283.207 146.916 283.347 147.68 283.057 148.333C282.708 149.109 281.847 149.517 281.025 149.296L267.189 145.574" fill="#EBEFFE"/>
<path d="M288.072 159.785C288.297 160.161 288.46 160.571 288.554 160.998C288.732 161.624 288.876 162.264 289.035 162.895C289.329 164.248 289.579 165.61 289.974 166.939C290.01 167.072 290.147 167.151 290.28 167.115C290.413 167.079 290.491 166.942 290.455 166.809C290.056 165.456 289.801 164.065 289.492 162.688C289.353 162.048 289.208 161.407 289.011 160.762C288.916 160.329 288.754 159.913 288.53 159.53C288.356 159.275 287.937 159.53 288.116 159.771L288.072 159.785Z" fill="black"/>
<path d="M289.271 159.333C283.21 161.687 283.629 156.184 283.975 153.748C283.975 153.575 284.033 153.406 284.062 153.233C283.604 152.922 283.458 152.313 283.725 151.827C283.912 151.54 284.082 151.243 284.235 150.937C284.477 150.536 284.672 150.11 284.818 149.666C285.502 147.649 286.705 144.721 287.567 142.854" stroke="black" stroke-width="0.727902"/>
<path d="M287.209 155.409C286.854 155.092 286.412 154.887 285.941 154.821C285.877 154.815 285.814 154.835 285.765 154.876C285.716 154.918 285.686 154.976 285.681 155.04C285.675 155.172 285.773 155.286 285.905 155.299L285.981 155.313L286.014 155.307C285.991 155.311 285.977 155.314 286.014 155.307L286.154 155.342C286.251 155.368 286.345 155.404 286.436 155.448L286.459 155.443C286.488 155.437 286.459 155.443 286.459 155.443L286.524 155.474L286.653 155.551L286.773 155.635L286.832 155.682L286.855 155.677C286.897 155.724 286.956 155.753 287.019 155.757C287.081 155.771 287.146 155.758 287.198 155.721C287.296 155.633 287.305 155.482 287.218 155.383L287.209 155.409Z" fill="black"/>
<path d="M292.252 150.759C291.948 150.644 291.684 151.029 291.554 151.241C291.388 151.516 291.293 151.829 291.279 152.151C291.287 152.178 291.312 152.196 291.339 152.196C291.367 152.196 291.392 152.178 291.4 152.151C291.414 151.872 291.491 151.601 291.626 151.356C291.69 151.236 291.769 151.124 291.862 151.024C291.948 150.923 292.078 150.817 292.218 150.87C292.358 150.923 292.324 150.784 292.252 150.755V150.759Z" fill="black"/>
<path d="M291.928 151.561C291.76 151.467 291.552 151.482 291.399 151.6C291.383 151.625 291.386 151.657 291.407 151.678C291.428 151.699 291.461 151.703 291.486 151.686C291.509 151.664 291.537 151.648 291.567 151.638H291.62H291.669C291.738 151.634 291.808 151.653 291.866 151.691C291.894 151.701 291.926 151.69 291.941 151.664C291.956 151.638 291.951 151.605 291.928 151.585V151.561Z" fill="black"/>
<path d="M296.711 158.23C297.134 160.456 297.727 162.647 298.483 164.783C298.589 165.071 299.056 164.946 298.964 164.657C298.207 162.521 297.616 160.328 297.197 158.1C297.135 157.797 296.668 157.927 296.716 158.23H296.711Z" fill="black"/>
<path d="M286.711 150.08V150.152V150.09C286.72 150.147 286.72 150.206 286.711 150.263V150.196C286.707 150.242 286.696 150.288 286.677 150.33C286.67 150.362 286.67 150.395 286.677 150.427C286.682 150.459 286.691 150.49 286.706 150.518C286.775 150.633 286.922 150.671 287.038 150.605L287.086 150.566C287.114 150.536 287.136 150.5 287.149 150.46C287.178 150.378 287.192 150.292 287.192 150.205C287.196 150.119 287.188 150.034 287.168 149.95C287.144 149.855 287.064 149.784 286.966 149.772C286.869 149.759 286.773 149.807 286.725 149.892C286.696 149.95 286.687 150.017 286.701 150.08H286.711Z" fill="black"/>
<path d="M287.626 148.122C287.471 148.013 287.298 147.932 287.115 147.881C287.052 147.868 286.986 147.876 286.928 147.905C286.871 147.937 286.831 147.991 286.815 148.054C286.8 148.117 286.811 148.183 286.846 148.238C286.878 148.29 286.928 148.329 286.985 148.348C287.048 148.364 287.109 148.385 287.168 148.411L287.111 148.387C287.207 148.427 287.299 148.477 287.385 148.536C287.439 148.571 287.506 148.582 287.568 148.565C287.627 148.545 287.678 148.506 287.712 148.454C287.736 148.394 287.736 148.327 287.712 148.267V148.209C287.691 148.173 287.661 148.143 287.626 148.122Z" fill="black"/>
<path d="M285.54 147.472C287.254 147.472 290.018 147.337 291.886 146.422C291.432 147.557 291.121 148.744 290.961 149.956C290.932 150.082 290.997 150.211 291.116 150.261C291.236 150.311 291.373 150.267 291.443 150.158C291.598 149.933 291.845 149.787 292.117 149.759C292.389 149.731 292.66 149.824 292.858 150.014C293.672 150.688 293.306 151.916 292.56 152.806C291.949 153.578 291.768 154.606 292.078 155.541C293.287 159.46 297.128 161.799 297.658 166.031C297.894 167.957 297.658 169.883 297.47 171.808C296.835 178.625 305.139 180.214 306.82 175.342C307.146 174.474 308.044 173.963 308.957 174.124C310.132 174.331 311.643 174.071 312.76 172.044C313.829 170.118 313.343 168.27 312.597 166.917C312.07 165.971 312.357 164.78 313.256 164.178C313.583 163.965 313.884 163.715 314.152 163.431C314.978 162.482 315.361 161.226 315.205 159.977C315.049 158.728 314.368 157.605 313.333 156.889C311.379 155.584 308.842 155.353 306.593 154.934C304.254 154.496 303.705 152.527 302.906 150.553C302.408 149.107 301.689 147.748 300.773 146.524C300.256 145.889 299.634 145.348 298.934 144.925C298.452 144.641 296.599 144.295 296.377 143.962C296.377 143.962 292.848 138.782 287.307 142.518C285.68 143.611 284.818 144.579 284.37 145.363C284.123 145.791 284.118 146.317 284.358 146.749C284.598 147.181 285.047 147.455 285.54 147.472Z" fill="black"/>
<path d="M289.839 165.592C289.839 165.592 286.411 163.387 281.394 164.745C276.378 166.103 264.116 172.588 264.116 172.588C264.116 172.588 264.347 171.225 263.827 164.572C263.399 159.146 264.246 149.06 264.246 149.06C264.246 149.06 268.208 146.335 267.173 143.928C266.138 141.521 263.283 140.216 263.461 142.002C263.548 142.878 264.665 143.726 264.665 143.726" stroke="black" stroke-width="0.727902"/>
<path d="M262.793 144.433L232.011 135.175C231.125 134.908 230.605 133.993 230.826 133.095C231.91 128.719 235.694 116.568 245.452 110.743C246.135 110.341 247.003 110.454 247.561 111.017L282.705 146.407C283.207 146.916 283.347 147.68 283.057 148.333C282.708 149.109 281.847 149.517 281.025 149.296L267.189 145.574" stroke="black" stroke-width="0.727902"/>
<path d="M245.451 115.586C244.666 118.754 241.927 127.549 234.859 131.767" stroke="black" stroke-width="0.727902"/>
<path d="M242.789 119.65C240.662 121.534 239.043 123.923 238.081 126.597C237.484 128.272 236.92 129.899 236.742 130.448C237.479 129.866 240.863 126.115 241.489 125.441L243.338 121.59C243.911 120.336 244.409 119.05 244.83 117.738C244.104 118.325 243.422 118.963 242.789 119.65Z" fill="black"/>
<path d="M255.211 142.154C255.211 142.154 255.692 143.7 256.997 147.257C256.997 147.257 248.331 173.216 254.152 182.469C259.972 191.722 282.33 179.672 282.33 179.672" stroke="black" stroke-width="0.727902"/>
<path d="M283.232 175.701C283.232 175.701 280.377 179.909 284.849 188.56C286.126 190.985 286.652 193.735 286.361 196.46C286.301 197.117 286.161 197.764 285.942 198.386C285.162 200.374 307.929 202.782 315.208 194.207L315.165 194.082C313.924 190.573 313.364 186.859 313.514 183.139L313.571 181.695" stroke="black" stroke-width="0.727902"/>
<path d="M307.85 169.315C307.85 169.315 312.028 158.286 322.384 171.303C332.74 184.321 334.771 187.094 334.771 193.993C334.771 199.544 333.404 209.881 332.845 213.732C332.732 214.48 332.904 215.243 333.327 215.869C333.857 216.739 334.136 217.739 334.131 218.758C334.29 221.738 333.977 223.933 334.757 224.718" stroke="black" stroke-width="0.727902"/>
<path d="M312.02 180.191L322.13 190.003C322.624 190.482 322.924 191.126 322.972 191.813C323.126 193.994 323.54 199.198 324.262 204.114C324.84 208.071 325.418 211.942 325.779 214.334C326.02 215.919 325.869 217.539 325.341 219.052C324.859 220.444 324.272 222.11 323.945 223.01" stroke="black" stroke-width="0.727902"/>
<path d="M263.453 176.508C263.872 174.692 264.111 172.839 264.166 170.977" stroke="black" stroke-width="0.727902"/>
<path d="M325.98 223.59C326.101 224.928 326.294 226.258 326.558 227.576C326.616 227.879 327.083 227.749 327.04 227.446C326.789 226.172 326.602 224.887 326.481 223.594C326.452 223.286 325.971 223.286 326 223.594L325.98 223.59Z" fill="black"/>
<path d="M328.686 224.696L329.119 226.001C329.142 226.087 329.209 226.154 329.295 226.177C329.382 226.2 329.473 226.175 329.536 226.112C329.599 226.049 329.623 225.957 329.6 225.871L329.172 224.571C329.134 224.443 329.002 224.369 328.873 224.403C328.746 224.438 328.671 224.569 328.705 224.696H328.686Z" fill="black"/>
<path d="M330.969 224.327C331.02 224.734 331.14 225.13 331.325 225.497C331.394 225.609 331.539 225.645 331.652 225.578C331.766 225.511 331.805 225.365 331.739 225.251L331.681 225.131C331.67 225.109 331.66 225.087 331.652 225.063C331.652 225.063 331.59 224.9 331.561 224.813C331.532 224.726 331.513 224.644 331.494 224.558C331.474 224.471 331.494 224.471 331.469 224.428C331.445 224.384 331.469 224.389 331.469 224.37V224.327C331.469 224.356 331.469 224.36 331.469 224.327C331.468 224.264 331.444 224.205 331.402 224.158C331.356 224.113 331.294 224.087 331.229 224.086C331.113 224.086 330.974 224.192 330.988 224.327H330.969Z" fill="black"/>
<path d="M272.43 168.436C273.646 173.029 275.015 177.577 276.537 182.08C276.633 182.369 277.1 182.244 277.018 181.95C275.503 177.457 274.134 172.91 272.911 168.311C272.877 168.178 272.741 168.098 272.608 168.133C272.475 168.168 272.395 168.303 272.43 168.436Z" fill="black"/>
<path d="M318.047 185.716C320.338 183.246 322.668 180.762 324.353 177.825C324.827 176.994 325.245 176.132 325.605 175.245C325.721 174.961 325.258 174.835 325.124 175.119C323.506 179.101 320.569 182.269 317.69 185.374C317.479 185.6 317.816 185.942 318.027 185.716H318.047Z" fill="black"/>
<path d="M288.377 165.139C288.29 166.42 287.982 167.686 288.218 168.991C288.415 170.006 288.867 170.953 289.532 171.745C290.892 173.387 293.037 174.16 295.131 173.762C296.324 173.544 297.423 172.972 298.285 172.12C298.506 171.899 298.164 171.557 297.948 171.778C296.545 173.205 294.473 173.748 292.551 173.193C290.629 172.639 289.165 171.075 288.738 169.121C288.43 167.802 288.772 166.478 288.858 165.159C288.882 164.846 288.401 164.851 288.377 165.159V165.139Z" fill="black"/>
<ellipse cx="307.333" cy="243.664" rx="11.9058" ry="11.9058" stroke="black" stroke-width="1.4558"/>
<path d="M315.748 235.244L322.194 228.803" stroke="black" stroke-width="1.4558"/>
<path d="M325.951 224.498L326.12 225.427L322.471 229.076L321.922 228.528L325.951 224.498Z" fill="black" stroke="black" stroke-width="1.4558"/>
<path d="M316.5 341.5L315.5 337.5L329.5 338L330.5 344.5L329.5 345.5H316C315.667 345.5 314.9 345.3 314.5 344.5C314.1 343.7 315.666 342.167 316.5 341.5Z" fill="#F4F6F9"/>
<path d="M253.498 340.5L253.998 336L269 337.5L266 345.5H253.998C252.998 345.667 250.798 345.8 249.998 345C249.198 344.2 251.998 341.667 253.498 340.5Z" fill="#F4F6F9"/>
<path d="M312.982 196.211L315.764 201.603C315.764 201.603 319.722 209.056 319.24 215.954C318.894 221.072 319.062 242.996 319.168 253.987C319.211 257.815 319.895 261.608 321.19 265.21C324.174 273.708 326.05 282.556 326.775 291.534C328.219 308.683 328.826 336.168 330.299 344.01C330.377 344.436 330.26 344.874 329.98 345.204C329.7 345.534 329.287 345.721 328.854 345.714H315.625C315.027 345.713 314.492 345.344 314.279 344.786C314.066 344.228 314.218 343.596 314.662 343.196L316 341.988C316.443 341.59 316.596 340.961 316.385 340.404C313.189 332.071 289.757 268.811 295.434 220.648" stroke="black" stroke-width="0.727902"/>
<path d="M288.361 199.623C288.365 202.331 287.714 205 286.465 207.403C280.991 217.951 264.8 254.833 253.477 340.085C253.434 340.419 253.276 340.727 253.029 340.957L250.584 343.239C250.15 343.64 250.005 344.265 250.217 344.816C250.429 345.368 250.956 345.734 251.547 345.742H265.258C265.895 345.741 266.457 345.322 266.639 344.712C268.7 337.924 281.896 301.479 287.437 288.433C291.491 278.891 291.573 267.12 291.423 262.498C291.377 261.108 291.576 259.721 292.011 258.401L294.938 249.437" stroke="black" stroke-width="0.727902"/>
<path d="M309.876 205.689C310.881 206.912 311.928 208.095 313.02 209.237C313.073 209.295 313.159 209.209 313.106 209.156C312.015 208.01 310.966 206.827 309.958 205.607C309.91 205.545 309.828 205.607 309.876 205.689Z" fill="black"/>
<path d="M288.318 208.598C288.978 207.641 289.714 206.739 290.519 205.902C290.533 205.887 290.539 205.866 290.534 205.846C290.528 205.826 290.513 205.81 290.493 205.805C290.473 205.799 290.451 205.805 290.437 205.82C289.621 206.66 288.879 207.568 288.217 208.535C288.169 208.602 288.275 208.66 288.318 208.598Z" fill="black"/>
<path d="M277.071 257.147C277.883 257.435 278.738 257.581 279.599 257.58C279.626 257.572 279.644 257.548 279.644 257.52C279.644 257.492 279.626 257.467 279.599 257.46C278.749 257.46 277.906 257.315 277.105 257.031C277.033 257.031 276.999 257.123 277.071 257.147Z" fill="black"/>
<path d="M276.874 259.244H278.756C278.783 259.237 278.801 259.212 278.801 259.184C278.801 259.156 278.783 259.132 278.756 259.124H276.874C276.847 259.132 276.828 259.156 276.828 259.184C276.828 259.212 276.847 259.237 276.874 259.244Z" fill="black"/>
<path d="M305.11 260.082H306.554C306.581 260.074 306.6 260.05 306.6 260.022C306.6 259.994 306.581 259.969 306.554 259.962H305.11C305.083 259.969 305.064 259.994 305.064 260.022C305.064 260.05 305.083 260.074 305.11 260.082Z" fill="black"/>
<path d="M305.543 262.167C306.083 262.09 306.594 261.874 307.026 261.541C307.089 261.498 307.026 261.392 306.968 261.44C306.547 261.763 306.049 261.972 305.524 262.047C305.452 262.047 305.481 262.177 305.558 262.167H305.543Z" fill="black"/>
<path d="M253.876 335.863C257.828 335.874 261.766 336.334 265.613 337.235C266.696 337.485 267.77 337.779 268.839 338.102C268.871 338.11 268.903 338.09 268.911 338.058C268.919 338.026 268.9 337.994 268.868 337.986C265.095 336.84 261.204 336.128 257.27 335.863C256.137 335.786 255.014 335.746 253.9 335.743C253.875 335.735 253.847 335.745 253.832 335.767C253.816 335.788 253.816 335.817 253.832 335.839C253.847 335.861 253.875 335.87 253.9 335.863H253.876Z" fill="black"/>
<path d="M315.307 337.756C316.381 337.347 317.551 337.395 318.677 337.41C319.884 337.41 321.091 337.448 322.298 337.525C324.705 337.646 327.078 337.862 329.452 338.161C329.471 338.161 329.49 338.153 329.502 338.138C329.514 338.123 329.519 338.103 329.514 338.084C329.51 338.065 329.5 338.04 329.452 338.04C327.041 337.739 324.616 337.525 322.177 337.4C320.974 337.338 319.77 337.304 318.557 337.289C317.449 337.199 316.334 337.316 315.269 337.636C315.196 337.665 315.23 337.78 315.302 337.756H315.307Z" fill="black"/>
<path d="M293.537 190.852C291.543 189.374 289.881 187.493 288.66 185.33C288.073 184.291 287.433 182.822 288.266 181.729C288.965 180.944 290.065 180.651 291.063 180.983C292.372 181.368 293.287 182.543 294.009 183.636C294.02 183.662 294.049 183.677 294.077 183.67C294.105 183.662 294.123 183.636 294.12 183.607C294.165 182.305 294.815 181.098 295.877 180.343C297.062 179.662 298.56 179.894 299.483 180.901C300.605 182.004 300.793 183.679 300.446 185.157C300.026 186.634 299.31 188.01 298.342 189.201C297.883 189.902 297.345 190.548 296.739 191.127C296.06 191.7 295.097 192.032 294.269 191.575C294.241 191.564 294.209 191.576 294.194 191.602C294.179 191.628 294.184 191.661 294.207 191.681C295.651 192.489 297.033 191.137 297.846 190.053C298.891 188.662 299.989 187.218 300.475 185.523C300.898 184.031 300.836 182.293 299.806 181.055C298.97 179.969 297.531 179.542 296.238 179.996C294.837 180.579 294.091 182.148 293.995 183.588L294.105 183.559C293.427 182.524 292.613 181.479 291.443 180.978C290.499 180.556 289.402 180.661 288.555 181.253C287.592 182.004 287.64 183.294 288.073 184.344C288.6 185.563 289.302 186.698 290.158 187.714C291.123 188.931 292.245 190.016 293.494 190.939C293.557 190.987 293.614 190.881 293.557 190.838L293.537 190.852Z" fill="black"/>
<path d="M293.845 191.354L293.96 191.156C293.971 191.145 293.977 191.131 293.977 191.115C293.977 191.1 293.971 191.085 293.96 191.074C293.937 191.054 293.902 191.054 293.878 191.074L293.758 191.272C293.748 191.3 293.759 191.332 293.785 191.347C293.811 191.362 293.844 191.357 293.864 191.334L293.845 191.354Z" fill="black"/>
<path d="M294.564 190.106C292.835 188.702 291.368 187.004 290.231 185.089C289.952 184.608 289.634 183.919 290.115 183.457C290.597 182.995 291.425 183.63 291.863 183.914C292.822 184.539 293.698 185.281 294.472 186.124C294.488 186.138 294.51 186.143 294.531 186.137C294.551 186.131 294.567 186.116 294.573 186.095C294.849 185.205 295.248 184.358 295.758 183.577C296.287 182.836 297.236 182.201 298.04 182.966C298.844 183.732 298.608 184.767 298.28 185.628C297.963 186.474 297.551 187.282 297.053 188.036C296.502 188.873 295.856 189.644 295.127 190.332C295.069 190.385 295.156 190.472 295.209 190.419C296.741 189.026 297.889 187.262 298.54 185.296C298.795 184.449 298.8 183.447 298.059 182.826C297.418 182.273 296.615 182.485 296.051 183.033C295.233 183.833 294.833 185.012 294.453 186.066L294.554 186.038C293.878 185.305 293.126 184.647 292.311 184.073C291.908 183.772 291.477 183.509 291.025 183.289C290.725 183.11 290.349 183.123 290.062 183.322C289.374 183.866 289.889 184.805 290.236 185.373C291.362 187.204 292.789 188.832 294.458 190.188C294.515 190.236 294.602 190.149 294.544 190.101L294.564 190.106Z" fill="black"/>
<path d="M294.768 185.167C295.081 185.417 295.004 185.792 294.889 186.129C294.773 186.466 294.547 186.871 294.436 187.261C294.307 187.579 294.347 187.941 294.542 188.224C294.73 188.455 294.879 188.301 294.999 188.103L295.591 187.116L296.944 184.883C296.983 184.815 296.877 184.753 296.838 184.82L295.736 186.649L295.168 187.564L294.908 187.997C294.86 188.079 294.797 188.253 294.653 188.161C294.613 188.125 294.582 188.081 294.561 188.031C294.444 187.695 294.473 187.324 294.643 187.01C294.8 186.672 294.938 186.325 295.057 185.971C295.184 185.66 295.101 185.303 294.85 185.08C294.792 185.032 294.706 185.118 294.763 185.167H294.768Z" fill="black"/>
<path d="M297.096 184.479C297.123 184.471 297.141 184.446 297.141 184.418C297.141 184.391 297.123 184.366 297.096 184.358C297.07 184.351 297.043 184.361 297.028 184.382C297.012 184.404 297.012 184.433 297.028 184.455C297.043 184.476 297.07 184.486 297.096 184.479Z" fill="black"/>
<path d="M277.598 181.637C277.718 181.517 280.371 177.304 282.845 176.51C282.555 177.015 282.38 177.58 282.335 178.161C282.364 178.878 282.335 179.692 281.512 180.087" fill="black"/>
<path d="M312.409 180.564C312.409 180.564 311.928 182.909 313.372 184.324C313.372 184.324 313.531 182.485 313.536 182.442C313.476 182.048 313.354 181.666 313.175 181.311" fill="black"/>
<path d="M287.809 204.184C287.809 204.184 311.192 208.733 317.118 204.665L314.229 198.662C314.229 198.662 313.19 195.701 312.02 196.799C310.85 197.896 304.798 200.405 296.884 200.275L291.703 200.092L289.364 199.803C289.364 199.803 288.097 199.143 288.314 200.766" fill="black"/>
<path d="M294.957 225.551C294.957 225.551 286.912 243.292 291.621 260.021L293.922 252.598C294.589 250.863 294.916 249.016 294.885 247.157C294.726 244.408 294.957 225.551 294.957 225.551V225.551Z" fill="black"/>
<path d="M165.79 108.364H186.12C186.253 108.364 186.361 108.256 186.361 108.124C186.361 107.991 186.253 107.883 186.12 107.883H165.79C165.657 107.883 165.549 107.991 165.549 108.124C165.549 108.256 165.657 108.364 165.79 108.364Z" fill="black"/>
<path d="M186.699 107.748C185.404 106.087 183.959 104.257 183.839 102.043C183.757 100.252 184.682 98.3308 186.636 98.143C187.524 98.0086 188.413 98.3798 188.942 99.1059L189.356 98.8603C187.199 95.914 189.154 91.557 192.245 90.1946C194.288 89.3738 196.562 89.3395 198.629 90.0983C200.747 90.8559 202.652 92.1145 204.179 93.7668C205.942 95.699 207.517 97.7947 208.883 100.025C208.949 100.121 209.074 100.158 209.181 100.112C209.288 100.067 209.349 99.952 209.326 99.8376C209.205 98.9375 209.572 98.0409 210.289 97.4835C211 96.8706 211.949 96.6092 212.874 96.7709C214.882 97.1272 216.244 98.9277 216.884 100.738C217.268 101.917 217.55 103.126 217.727 104.353C217.775 104.642 218.17 104.536 218.208 104.286C218.324 103.212 219.571 102.77 220.51 102.842C221.809 102.928 222.859 104.002 223.793 104.801C225.738 106.492 228.191 107.487 230.764 107.627C232.202 107.7 233.64 107.496 235.001 107.025C235.289 106.919 235.164 106.457 234.871 106.544C232.256 107.444 229.399 107.324 226.869 106.207C226.267 105.939 225.69 105.617 225.146 105.244C224.549 104.83 224.014 104.339 223.461 103.872C222.532 103.082 221.448 102.288 220.173 102.346C219.032 102.399 217.857 103.058 217.727 104.272L218.208 104.209C217.809 101.889 217.342 99.3707 215.565 97.6664C214.828 96.9257 213.876 96.4356 212.845 96.2654C211.85 96.1258 210.842 96.4105 210.067 97.0502C209.174 97.7233 208.722 98.833 208.893 99.9387L209.336 99.751C206.731 95.784 203.871 91.5089 199.226 89.7613C197.086 88.89 194.706 88.8131 192.514 89.5447C190.746 90.2162 189.324 91.5739 188.571 93.3095C187.753 95.1678 187.71 97.4016 188.947 99.0866C189.125 99.3321 189.534 99.1107 189.361 98.8411C188.355 97.2572 185.962 97.2813 184.653 98.4656C182.996 99.9724 183.131 102.553 183.964 104.435C184.609 105.737 185.418 106.95 186.371 108.046C186.564 108.287 186.901 107.945 186.708 107.704L186.699 107.748Z" fill="black"/>
<path d="M14.7407 58.2764H31.74C31.873 58.2764 31.9807 58.1686 31.9807 58.0356C31.9807 57.9027 31.873 57.7949 31.74 57.7949H14.7407C14.6078 57.7949 14.5 57.9027 14.5 58.0356C14.5 58.1686 14.6078 58.2764 14.7407 58.2764Z" fill="black"/>
<path d="M32.2537 57.6879C31.1705 56.3254 29.9669 54.7993 29.8707 52.994C29.7936 51.5063 30.5447 49.8791 32.1815 49.7299C32.9093 49.6217 33.6363 49.9304 34.0639 50.529L34.4828 50.2883C32.687 47.8282 34.3191 44.2127 36.8899 43.0669C38.5864 42.3934 40.4714 42.3677 42.1856 42.9946C43.9562 43.6252 45.5483 44.674 46.8266 46.0517C48.2963 47.667 49.61 49.4176 50.7503 51.2801C50.8129 51.3795 50.9383 51.4192 51.0467 51.3739C51.1552 51.3286 51.2151 51.2116 51.1884 51.0971C50.8947 49.4891 52.6953 48.3193 54.1251 48.5889C55.7957 48.897 56.903 50.399 57.4374 51.9107C57.7489 52.8833 57.9792 53.8801 58.1258 54.8908C58.174 55.1796 58.5687 55.0737 58.6072 54.8282C58.7083 53.9279 59.7964 53.5765 60.5715 53.6583C61.6499 53.7739 62.4972 54.679 63.2867 55.3433C64.9054 56.7289 66.9362 57.5413 69.0639 57.6542C70.2793 57.7185 71.4956 57.5469 72.6457 57.1487C72.9394 57.0476 72.8143 56.5806 72.5206 56.6673C70.3155 57.4241 67.9046 57.3105 65.7806 56.3495C64.7414 55.8203 63.7806 55.1495 62.9257 54.3564C62.1506 53.7113 61.2455 53.0806 60.1911 53.1528C59.2283 53.2154 58.2654 53.7787 58.1547 54.8089L58.6361 54.7464C58.2991 52.7869 57.9044 50.6638 56.3975 49.2388C55.1169 48.0208 53.1719 47.5634 51.7228 48.7574C50.9903 49.3267 50.6221 50.2471 50.7599 51.1645L51.198 50.9816C49.0123 47.6453 46.61 44.0586 42.7104 42.5999C40.918 41.8752 38.9258 41.8138 37.0921 42.4266C35.5979 42.9954 34.3977 44.1451 33.7654 45.6136C33.0051 47.174 33.1279 49.0204 34.088 50.4664C34.2661 50.712 34.6753 50.4905 34.5068 50.2257C33.6547 48.897 31.676 48.8922 30.5495 49.8647C29.1052 51.1067 29.2111 53.331 29.914 54.9245C30.4565 56.0202 31.1359 57.0426 31.936 57.9671C32.1286 58.2078 32.4656 57.866 32.2778 57.6253L32.2537 57.6879Z" fill="black"/>
<path d="M209.956 48.8701H227.985C228.118 48.8701 228.226 48.7623 228.226 48.6294C228.226 48.4964 228.118 48.3887 227.985 48.3887H209.956C209.823 48.3887 209.715 48.4964 209.715 48.6294C209.715 48.7623 209.823 48.8701 209.956 48.8701Z" fill="black"/>
<path d="M227.734 48.5526C226.789 47.3209 226.743 45.6216 227.619 44.3401C228.062 43.7514 228.733 43.3775 229.466 43.3105C230.2 43.2436 230.928 43.4899 231.47 43.9886C231.532 44.0475 231.619 44.0701 231.702 44.0486C231.784 44.027 231.85 43.9642 231.874 43.8827C232.072 42.8236 232.269 41.5093 233.121 40.7534C233.766 40.1853 234.879 40.1612 235.283 41.0134C235.398 41.2589 235.803 41.0856 235.721 40.8256C234.758 37.5952 234.248 32.8483 237.705 30.86C238.314 30.4797 239.031 30.3105 239.746 30.3786C240.597 30.5455 241.367 30.995 241.931 31.6544C243.221 33.0073 244.351 34.503 245.302 36.1124C246.415 37.9539 247.327 39.9102 248.022 41.9474C248.103 42.1929 248.503 42.1688 248.503 41.8848C248.397 40.3683 249.735 39.2754 251.18 39.2321C252.951 39.1791 254.068 40.8401 254.694 42.3036C255.098 43.3219 255.404 44.3761 255.609 45.4522C255.672 45.7314 256.066 45.6447 256.09 45.3896C256.173 44.3944 256.851 43.5488 257.804 43.252C258.751 42.9025 259.81 43.3161 260.269 44.2149C260.597 44.7878 260.789 45.4185 261.083 46.0058C261.365 46.5937 261.803 47.0931 262.349 47.4501C263.495 48.1771 264.973 48.2637 266.287 48.413C268.205 48.6058 270.133 48.6701 272.059 48.6055C272.368 48.6055 272.368 48.1241 272.059 48.1241C270.258 48.1763 268.456 48.1152 266.663 47.9412C265.842 47.8796 265.025 47.7719 264.217 47.6186C263.538 47.5062 262.897 47.2339 262.344 46.8242C261.232 45.9192 261.213 44.316 260.231 43.3194C259.517 42.6525 258.48 42.4642 257.578 42.838C256.488 43.2386 255.734 44.241 255.652 45.3992L256.134 45.3318C255.71 43.3387 255.132 41.076 253.548 39.6606C252.942 39.0865 252.14 38.7646 251.305 38.7603C250.514 38.7666 249.748 39.0378 249.129 39.5306C248.408 40.0955 248.015 40.9811 248.079 41.8944L248.561 41.8318C247.295 37.9872 245.224 34.4568 242.485 31.4762C241.884 30.7567 241.083 30.2308 240.184 29.9646C239.461 29.8118 238.708 29.8909 238.032 30.1908C236.464 30.9214 235.311 32.3209 234.893 33.9989C234.257 36.2809 234.657 38.7266 235.326 40.9508L235.764 40.763C235.283 39.7617 233.998 39.6317 233.126 40.1949C231.985 40.9363 231.682 42.5154 231.48 43.7479L231.879 43.642C230.885 42.7093 229.397 42.5373 228.216 43.2183C227.038 43.9925 226.41 45.375 226.603 46.7713C226.666 47.5473 226.963 48.2858 227.455 48.8896C227.652 49.1255 227.994 48.7837 227.797 48.5478L227.734 48.5526Z" fill="black"/>
<path d="M46.4184 171.335H59.9563C60.0892 171.335 60.197 171.227 60.197 171.094C60.197 170.961 60.0892 170.854 59.9563 170.854H46.4184C46.2855 170.854 46.1777 170.961 46.1777 171.094C46.1777 171.227 46.2855 171.335 46.4184 171.335Z" fill="black"/>
<path d="M59.8116 170.99C59.1348 170.099 59.0924 168.878 59.7057 167.942C60.0273 167.505 60.5186 167.224 61.0585 167.168C61.5984 167.112 62.1369 167.287 62.5413 167.649C62.6019 167.708 62.6892 167.731 62.7712 167.709C62.8531 167.687 62.9175 167.624 62.9409 167.543C63.0853 166.768 63.2249 165.81 63.8363 165.246C64.0412 165.014 64.3452 164.895 64.6533 164.925C64.9614 164.956 65.2361 165.133 65.3914 165.4C65.454 165.5 65.5793 165.54 65.6878 165.494C65.7963 165.449 65.8561 165.332 65.8295 165.218C65.1121 162.81 64.7222 159.281 67.2738 157.799C67.7435 157.512 68.2975 157.394 68.8432 157.466C69.4832 157.627 70.0542 157.99 70.4705 158.502C71.4015 159.496 72.2216 160.589 72.9161 161.761C73.7445 163.128 74.4225 164.581 74.9381 166.094C75.02 166.334 75.4196 166.315 75.4196 166.026C75.3233 164.582 77.0083 163.687 78.2504 164.269C78.964 164.676 79.519 165.312 79.8247 166.074C80.2004 166.921 80.4736 167.81 80.6383 168.722C80.7009 169.002 81.0956 168.915 81.1197 168.66C81.1845 167.924 81.6954 167.304 82.4051 167.1C83.1354 166.851 83.9325 167.22 84.2153 167.938C84.4464 168.385 84.5956 168.872 84.8412 169.314C85.0729 169.714 85.4048 170.046 85.804 170.277C86.6754 170.792 87.7683 170.865 88.7552 170.966C90.1784 171.113 91.6097 171.166 93.0399 171.125C93.348 171.125 93.3528 170.643 93.0399 170.643C91.6695 170.681 90.298 170.634 88.9333 170.504C87.8838 170.398 86.5262 170.364 85.7077 169.613C84.8893 168.862 84.9182 167.687 84.119 166.975C83.5469 166.501 82.756 166.393 82.0777 166.696C81.2591 167.011 80.6962 167.77 80.6335 168.645L81.1149 168.583C80.7923 167.071 80.3542 165.352 79.1506 164.288C78.195 163.425 76.7525 163.386 75.7517 164.197C75.202 164.633 74.9015 165.312 74.9478 166.012L75.4292 165.949C74.4723 163.012 72.8832 160.32 70.7738 158.063C70.3342 157.559 69.7595 157.192 69.1176 157.004C68.5467 156.879 67.9507 156.942 67.4182 157.182C66.2347 157.739 65.3659 158.801 65.0544 160.071C64.5729 161.795 64.8714 163.648 65.3769 165.333L65.815 165.15C65.6217 164.802 65.2907 164.551 64.9031 164.46C64.5156 164.368 64.1073 164.444 63.7786 164.669C62.8831 165.222 62.6617 166.44 62.4883 167.389L62.8879 167.283C62.397 166.834 61.7425 166.609 61.0796 166.66C60.4166 166.711 59.8044 167.034 59.3879 167.552C58.5802 168.685 58.6175 170.215 59.4794 171.308C59.6768 171.548 60.0186 171.207 59.8212 170.966L59.8116 170.99Z" fill="black"/>
<path d="M33.4829 115.282H42.5868C42.7197 115.282 42.8275 115.174 42.8275 115.041C42.8275 114.909 42.7197 114.801 42.5868 114.801H33.4829C33.35 114.801 33.2422 114.909 33.2422 115.041C33.2422 115.174 33.35 115.282 33.4829 115.282Z" fill="black"/>
<path d="M42.3681 114.632C41.4739 113.978 41.0683 112.845 41.344 111.771C41.6196 110.698 42.521 109.9 43.62 109.758C44.719 109.615 45.7943 110.155 46.3351 111.123C46.4699 111.354 46.8743 111.2 46.778 110.94C46.2633 109.401 46.7676 107.706 48.0393 106.698C49.3957 105.668 51.2969 105.766 52.5407 106.93C53.2649 107.534 53.7244 108.398 53.8213 109.337C53.8239 109.458 53.9148 109.559 54.0351 109.575C54.1555 109.59 54.2692 109.516 54.3027 109.399C54.7505 107.955 55.4534 106.164 57.2587 106.227C59.0641 106.289 60.2291 107.82 61.0428 109.264C61.4857 110.064 61.8804 110.892 62.3811 111.672C62.8144 112.336 63.4162 113.063 64.2443 113.217C64.6229 113.273 65.0094 113.205 65.3467 113.024C65.5567 112.9 65.7838 112.808 66.0207 112.75C66.3009 112.709 66.5866 112.729 66.8584 112.808C67.8598 113.048 68.8371 113.385 69.8433 113.607C72.0962 114.098 74.3981 114.329 76.7037 114.295C76.8366 114.295 76.9444 114.188 76.9444 114.055C76.9444 113.922 76.8366 113.814 76.7037 113.814C74.5571 113.845 72.4134 113.643 70.3103 113.212C69.256 112.996 68.2353 112.692 67.2051 112.399C66.7402 112.24 66.2412 112.21 65.7608 112.312C65.3275 112.432 64.9568 112.793 64.485 112.76C63.5221 112.716 62.9011 111.633 62.4774 110.911C61.996 110.093 61.6012 109.231 61.1005 108.427C60.2484 107.055 58.886 105.774 57.1672 105.769C55.1693 105.769 54.3412 107.671 53.8309 109.298L54.3124 109.361C54.0989 107.438 52.6373 105.89 50.7305 105.567C48.8794 105.312 47.0972 106.368 46.4313 108.114C46.0203 109.056 45.9807 110.119 46.3206 111.089L46.7635 110.906C45.9686 109.65 44.445 109.064 43.0132 109.462C41.5652 109.919 40.6676 111.365 40.8997 112.866C40.9803 113.695 41.3894 114.458 42.0359 114.984C42.2766 115.172 42.6232 114.835 42.3777 114.647L42.3681 114.632Z" fill="black"/>
<path d="M192.379 172.366H201.483C201.616 172.366 201.724 172.258 201.724 172.125C201.724 171.993 201.616 171.885 201.483 171.885H192.379C192.246 171.885 192.139 171.993 192.139 172.125C192.139 172.258 192.246 172.366 192.379 172.366Z" fill="black"/>
<path d="M201.29 171.717C200.396 171.062 199.991 169.929 200.266 168.856C200.542 167.782 201.443 166.985 202.542 166.842C203.641 166.699 204.717 167.24 205.257 168.207C205.392 168.438 205.797 168.284 205.695 168.024C205.182 166.485 205.688 164.789 206.962 163.783C208.318 162.753 210.219 162.851 211.463 164.014C212.187 164.619 212.647 165.483 212.744 166.421C212.726 166.554 212.82 166.676 212.953 166.693C213.086 166.711 213.208 166.617 213.225 166.484C213.678 165.04 214.38 163.249 216.181 163.311C217.982 163.374 219.18 164.914 219.975 166.339C220.418 167.139 220.808 167.967 221.308 168.747C221.746 169.411 222.348 170.138 223.176 170.287C223.553 170.346 223.938 170.28 224.274 170.099C224.485 169.974 224.714 169.882 224.953 169.825C225.231 169.783 225.515 169.803 225.786 169.883C226.792 170.123 227.764 170.46 228.775 170.682C231.016 171.17 233.304 171.401 235.597 171.37C235.73 171.37 235.838 171.263 235.838 171.13C235.838 170.997 235.73 170.889 235.597 170.889C233.453 170.915 231.313 170.708 229.213 170.273C228.159 170.056 227.138 169.753 226.108 169.459C225.643 169.301 225.144 169.271 224.664 169.372C224.231 169.493 223.86 169.854 223.388 169.82C222.425 169.777 221.799 168.694 221.38 167.971C220.899 167.153 220.504 166.291 220.004 165.487C219.151 164.115 217.789 162.835 216.07 162.83C214.072 162.83 213.244 164.731 212.734 166.359L213.215 166.421C213.002 164.499 211.54 162.951 209.634 162.628C207.782 162.373 206 163.429 205.334 165.174C204.923 166.117 204.884 167.179 205.224 168.15L205.662 167.967C204.867 166.713 203.347 166.127 201.916 166.522C200.466 166.978 199.566 168.424 199.798 169.926C199.882 170.756 200.293 171.518 200.939 172.044C201.18 172.232 201.521 171.895 201.281 171.707L201.29 171.717Z" fill="black"/>
<ellipse cx="117.482" cy="53.8029" rx="8.23246" ry="7.33218" fill="black" stroke="black" stroke-width="0.727902"/>
<ellipse cx="140.008" cy="55.1365" rx="9.73452" ry="8.66575" fill="black" stroke="black" stroke-width="0.727902"/>
<ellipse cx="162.535" cy="53.8029" rx="8.23246" ry="7.33218" fill="black" stroke="black" stroke-width="0.727902"/>
<path d="M109.896 32.6158C109.896 17.6337 123.377 5.48242 140.01 5.48242C156.643 5.48242 170.123 17.6337 170.123 32.6158" fill="#EBEFFE"/>
<path d="M145.489 19.2381C145.489 22.844 143.033 27.4513 140.01 27.4513C136.987 27.4513 134.531 22.844 134.531 19.2381C134.531 15.6322 136.987 14.4238 140.01 14.4238C143.033 14.4238 145.489 15.6467 145.489 19.2381Z" fill="#D6DEFF"/>
<path d="M134.531 34.2952C134.531 30.6893 136.987 26.082 140.01 26.082C143.033 26.082 145.489 30.6893 145.489 34.2952C145.489 37.9011 143.033 39.1529 140.01 39.1529C136.987 39.1529 134.531 37.906 134.531 34.2952Z" fill="#D6DEFF"/>
<path d="M109.896 32.6158C109.896 17.6337 123.377 5.48242 140.01 5.48242C156.643 5.48242 170.123 17.6337 170.123 32.6158" stroke="black" stroke-width="0.727902"/>
<path d="M89.6602 44.2371C89.6602 48.3438 92.9387 52.1567 98.5329 55.31C100.47 56.3888 102.651 56.9524 104.869 56.9469H175.157C177.373 56.9525 179.553 56.3888 181.488 55.31C187.082 52.1663 190.361 48.3534 190.361 44.2371C190.361 40.1209 187.082 36.3128 181.488 33.1642C179.553 32.0855 177.373 31.5218 175.157 31.5274H104.869C102.651 31.5219 100.47 32.0855 98.5329 33.1642C92.9387 36.3128 89.6602 40.1257 89.6602 44.2371H89.6602Z" fill="#D6DEFF"/>
<path d="M104.87 31.5332C102.652 31.5277 100.471 32.0913 98.534 33.1701C95.2891 34.9947 92.829 37.0456 91.3125 39.2506H188.691C187.194 37.0456 184.734 34.9947 181.47 33.1701C179.535 32.0913 177.355 31.5277 175.139 31.5332H104.87Z" fill="#EBEFFE"/>
<path fill-rule="evenodd" clip-rule="evenodd" d="M89.6602 44.2371C89.6602 48.3437 92.9387 52.1567 98.5329 55.31C100.47 56.3888 102.651 56.9524 104.869 56.9469H175.157C177.373 56.9525 179.553 56.3888 181.488 55.31C187.082 52.1663 190.361 48.3534 190.361 44.2371C190.361 40.1209 187.082 36.3128 181.488 33.1642C179.553 32.0855 177.373 31.5218 175.157 31.5274H104.869C102.651 31.5219 100.47 32.0855 98.5329 33.1642C92.9387 36.3128 89.6602 40.1257 89.6602 44.2371H89.6602Z" stroke="black" stroke-width="0.727902"/>
<path d="M96.6797 43.2734H98.6054V45.1992H96.6797V43.2734Z" fill="#EBEFFE"/>
<path d="M104.381 43.2734H106.307V45.1992H104.381V43.2734Z" fill="#EBEFFE"/>
<path d="M112.086 43.2734H114.012V45.1992H112.086V43.2734Z" fill="#EBEFFE"/>
<path d="M119.789 43.2734H121.715V45.1992H119.789V43.2734Z" fill="#EBEFFE"/>
<path d="M127.492 43.2734H129.418V45.1992H127.492V43.2734Z" fill="#EBEFFE"/>
<path d="M135.193 43.2734H137.119V45.1992H135.193V43.2734Z" fill="#EBEFFE"/>
<path d="M142.896 43.2734H144.822V45.1992H142.896V43.2734Z" fill="#EBEFFE"/>
<path d="M150.6 43.2734H152.525V45.1992H150.6V43.2734Z" fill="#EBEFFE"/>
<path d="M158.303 43.2734H160.228V45.1992H158.303V43.2734Z" fill="#EBEFFE"/>
<path d="M166.006 43.2734H167.932V45.1992H166.006V43.2734Z" fill="#EBEFFE"/>
<path d="M173.709 43.2734H175.635V45.1992H173.709V43.2734Z" fill="#EBEFFE"/>
<path d="M181.412 43.2734H183.338V45.1992H181.412V43.2734Z" fill="#EBEFFE"/>
<path d="M142.513 84.2934L129.033 99.7714C128.763 100.09 128.68 100.528 128.817 100.923C128.953 101.319 129.288 101.613 129.697 101.697L149.855 105.65C150.271 105.732 150.699 105.585 150.978 105.265C151.256 104.945 151.342 104.5 151.203 104.099L144.53 84.7122C144.4 84.3064 144.061 84.0021 143.643 83.9154C143.226 83.8287 142.794 83.9731 142.513 84.2934Z" fill="#46DBC9"/>
<path d="M152.603 160.83V151.914C152.601 151.267 152.257 150.67 151.698 150.344L143.995 145.886C143.433 145.564 142.742 145.564 142.18 145.886L134.477 150.344C133.919 150.67 133.575 151.267 133.572 151.914V160.83C133.572 161.477 133.917 162.076 134.477 162.399L142.18 166.857C142.741 167.185 143.434 167.185 143.995 166.857L151.698 162.399C152.259 162.076 152.604 161.477 152.603 160.83Z" fill="#ECC953"/>
<path d="M285.924 125.435C286.489 127.939 286.954 130.46 287.32 132.999C287.32 133.076 287.45 133.042 287.435 132.965C287.069 130.426 286.604 127.907 286.039 125.406C286.031 125.375 285.999 125.355 285.967 125.363C285.935 125.371 285.916 125.403 285.924 125.435Z" fill="black"/>
<path d="M295.893 124.189C295.477 127.566 294.834 130.912 293.967 134.202C293.967 134.275 294.063 134.308 294.082 134.236C294.95 130.934 295.593 127.577 296.008 124.189C296.008 124.112 295.897 124.112 295.888 124.189H295.893Z" fill="black"/>
<path d="M305.92 127.938L301.587 137.379C301.553 137.447 301.654 137.509 301.688 137.442L306.021 127.996C306.055 127.929 305.949 127.866 305.915 127.938H305.92Z" fill="black"/>
<path d="M77.3408 107.451C79.5265 103.407 81.672 99.3369 83.7775 95.2415C85.883 91.1461 87.9435 87.0331 89.9591 82.9024C91.092 80.5819 92.2154 78.2534 93.3291 75.9169C93.3628 75.8447 93.2617 75.7821 93.228 75.8543C91.2605 80.0267 89.2482 84.1638 87.1908 88.2656C85.1335 92.3674 83.0313 96.4627 80.8841 100.552C79.6805 102.84 78.4641 105.12 77.2349 107.393C77.1963 107.46 77.3023 107.518 77.3408 107.451Z" fill="black"/>
<path d="M81.4823 80.0937L87.192 72.1453C87.2402 72.0827 87.1343 72.0249 87.0909 72.0875L81.3715 80.0359C81.3282 80.0985 81.4341 80.1563 81.4775 80.0937H81.4823Z" fill="black"/>
<path d="M183.531 70.749L187.295 78.7456C187.329 78.8178 187.43 78.7456 187.396 78.6878L183.636 70.6864C183.603 70.6142 183.502 70.6864 183.531 70.749Z" fill="black"/>
<path d="M189.129 69.3746L194.251 77.4048C194.295 77.4722 194.401 77.4048 194.357 77.3471L189.254 69.3072C189.211 69.2446 189.11 69.3072 189.148 69.3698L189.129 69.3746Z" fill="black"/>
<path d="M337.988 181.261C340.069 185.355 341.156 189.883 341.161 194.476C341.168 194.503 341.193 194.521 341.221 194.521C341.249 194.521 341.273 194.503 341.281 194.476C341.273 189.869 340.181 185.329 338.094 181.222C338.074 181.202 338.044 181.197 338.019 181.211C337.994 181.224 337.982 181.253 337.988 181.28V181.261Z" fill="black"/>
<path d="M344.563 182.683C345.41 185.452 346.017 188.288 346.378 191.161C346.378 191.238 346.508 191.238 346.499 191.161C346.134 188.278 345.525 185.43 344.679 182.65C344.679 182.577 344.539 182.611 344.563 182.683Z" fill="black"/>
<path d="M129.591 200.804C126.467 199.297 125.167 195.113 126.703 192.032C127.074 191.262 127.666 190.618 128.402 190.183C128.502 190.111 128.531 189.975 128.469 189.868C128.407 189.761 128.274 189.719 128.162 189.769C124.979 191.589 124.975 196.432 126.891 199.148C127.517 200.033 128.356 200.745 129.331 201.218C129.611 201.353 129.856 200.939 129.577 200.804H129.591Z" fill="black"/>
<path d="M142.3 189.602C143.902 190.009 145.103 191.338 145.347 192.972C145.641 194.734 145.253 196.541 144.264 198.027C143.693 198.87 143.014 199.636 142.247 200.304C142.016 200.511 142.357 200.853 142.588 200.641C144.033 199.332 145.275 197.753 145.723 195.827C146.122 194.113 145.983 192.139 144.885 190.7C144.274 189.905 143.406 189.347 142.43 189.121C142.126 189.049 141.996 189.516 142.3 189.602Z" fill="black"/>
<path d="M128.453 189.59C128.295 188.935 128.232 188.26 128.266 187.587C128.278 187.264 128.315 186.942 128.376 186.624C128.425 186.398 128.497 186.104 128.776 186.08C129.059 186.093 129.331 186.192 129.556 186.364C129.797 186.509 130.029 186.67 130.249 186.846C130.703 187.216 131.102 187.649 131.433 188.131C131.607 188.382 132.026 188.131 131.848 187.886C131.248 186.978 130.417 186.247 129.44 185.767C128.959 185.551 128.396 185.503 128.083 185.999C127.961 186.224 127.886 186.471 127.861 186.726C127.812 187.02 127.78 187.318 127.765 187.616C127.739 188.322 127.81 189.029 127.977 189.715C128.049 190.014 128.511 189.889 128.458 189.585L128.453 189.59Z" fill="black"/>
<path d="M131.911 188.167C132.754 187.783 133.448 187.134 133.885 186.318C134.035 186.048 133.616 185.803 133.471 186.077C133.074 186.821 132.438 187.409 131.666 187.748C131.552 187.816 131.513 187.964 131.579 188.08C131.65 188.192 131.795 188.23 131.911 188.167Z" fill="black"/>
<path d="M135.147 187.472C135.451 186.956 135.698 186.409 135.883 185.84C135.906 185.754 135.882 185.662 135.819 185.599C135.756 185.536 135.664 185.511 135.578 185.534C135.492 185.557 135.425 185.624 135.402 185.71C135.23 186.24 134.998 186.749 134.708 187.226C134.645 187.342 134.683 187.488 134.795 187.558C134.911 187.622 135.057 187.584 135.127 187.472H135.147Z" fill="black"/>
<path d="M137.26 187.68C137.588 187.081 137.811 186.429 137.92 185.755C137.954 185.622 137.875 185.486 137.742 185.451C137.609 185.417 137.473 185.497 137.438 185.63C137.339 186.268 137.133 186.885 136.827 187.454C136.683 187.729 137.097 187.969 137.241 187.695L137.26 187.68Z" fill="black"/>
<path d="M139.869 187.381C140.11 187.045 140.426 186.769 140.793 186.577C140.976 186.482 141.17 186.407 141.371 186.356C141.505 186.322 141.823 186.216 141.944 186.327C142.064 186.438 142.011 186.495 142.03 186.568C142.049 186.64 142.093 186.808 142.117 186.934C142.171 187.196 142.208 187.461 142.228 187.728C142.263 188.246 142.24 188.766 142.16 189.278C142.112 189.581 142.574 189.711 142.642 189.408C142.747 188.772 142.767 188.124 142.699 187.482C142.666 187.173 142.613 186.866 142.541 186.563C142.516 186.296 142.382 186.052 142.17 185.889C141.915 185.795 141.635 185.795 141.38 185.889C141.13 185.94 140.887 186.024 140.658 186.139C140.18 186.373 139.771 186.726 139.469 187.165C139.291 187.42 139.71 187.646 139.883 187.405L139.869 187.381Z" fill="black"/>
<path d="M129.26 200.89C127.67 203.855 126.555 207.052 125.957 210.364C125.821 211.14 125.728 211.923 125.678 212.709C125.635 213.45 125.591 214.293 126.049 214.933C126.411 215.508 127.139 215.733 127.762 215.462C128.383 215.164 128.725 214.5 128.98 213.888C129.881 211.962 130.728 210.037 131.537 208.063C131.652 207.774 131.19 207.649 131.055 207.933C130.414 209.538 129.725 211.125 128.99 212.694C128.739 213.403 128.396 214.077 127.969 214.697C127.8 214.93 127.542 215.083 127.257 215.121C126.894 215.114 126.562 214.911 126.39 214.591C126.01 213.97 126.126 213.118 126.179 212.425C126.237 211.678 126.337 210.936 126.477 210.2C126.759 208.687 127.158 207.198 127.671 205.747C128.224 204.159 128.895 202.614 129.679 201.125C129.823 200.851 129.404 200.61 129.26 200.885V200.89Z" fill="black"/>
<path d="M137.408 204.156C136.098 207.279 135.191 210.557 134.707 213.909C134.539 214.64 134.675 215.408 135.083 216.037C135.435 216.548 136.075 216.777 136.672 216.605C137.3 216.36 137.848 215.943 138.251 215.402C138.642 214.921 138.975 214.396 139.242 213.837C139.907 212.489 140.326 211.03 141.072 209.726C141.14 209.61 141.101 209.461 140.985 209.393C140.869 209.326 140.721 209.364 140.653 209.48C139.498 211.507 139.132 214.179 137.249 215.739C136.724 216.167 136.05 216.427 135.531 215.845C135.011 215.262 135.102 214.458 135.213 213.765C135.447 212.236 135.769 210.722 136.176 209.23C136.635 207.554 137.194 205.908 137.851 204.3C137.971 204.011 137.504 203.886 137.37 204.17L137.408 204.156Z" fill="black"/>
<path d="M131.16 208.295C133.206 213.342 133.847 218.849 133.013 224.231C132.81 225.559 132.522 226.873 132.151 228.164C131.719 229.435 131.397 230.742 131.189 232.068C131.068 233.19 131.145 234.567 131.92 235.438C132.207 235.808 132.658 236.01 133.124 235.978C133.666 235.843 134.123 235.479 134.376 234.981C135.189 233.773 135.584 232.353 136.032 230.98C136.537 229.44 137.216 227.967 137.755 226.441L137.524 226.619C139.32 226.73 141.12 226.483 142.82 225.892L142.512 225.661C142.573 227.349 142.874 229.021 143.407 230.624C143.812 231.871 144.259 233.234 145.184 234.201C145.551 234.622 146.071 234.879 146.628 234.914C147.196 234.909 147.714 234.588 147.971 234.081C148.727 232.69 148.236 231.043 148.101 229.565C147.937 227.817 148.482 226.195 148.876 224.496C149.258 222.855 149.433 221.173 149.396 219.489C149.309 216.203 148.622 212.961 147.369 209.923C146.026 206.62 144.192 203.553 142.618 200.361C142.483 200.082 142.069 200.328 142.204 200.602C143.523 203.284 145.02 205.869 146.267 208.584C147.582 211.4 148.429 214.412 148.775 217.5C148.95 219.1 148.95 220.715 148.775 222.315C148.583 223.952 148.058 225.507 147.755 227.129C147.604 227.878 147.549 228.643 147.591 229.406C147.644 230.152 147.788 230.884 147.856 231.626C147.942 232.617 147.803 234.962 146.219 234.403C145.597 234.102 145.103 233.59 144.823 232.959C144.478 232.31 144.194 231.629 143.975 230.927C143.39 229.254 143.054 227.504 142.979 225.733C142.978 225.658 142.943 225.588 142.884 225.543C142.825 225.497 142.748 225.482 142.675 225.502C141.022 226.075 139.271 226.316 137.524 226.209C137.416 226.212 137.323 226.284 137.293 226.388C136.841 227.663 136.292 228.905 135.825 230.176C135.358 231.447 135.083 232.622 134.539 233.778C134.309 234.352 133.973 234.878 133.548 235.328C133.066 235.751 132.546 235.554 132.2 235.097C131.473 234.134 131.554 232.661 131.752 231.544C131.978 230.278 132.426 229.069 132.758 227.832C133.089 226.602 133.345 225.353 133.523 224.091C133.882 221.571 133.935 219.017 133.682 216.485C133.4 213.644 132.708 210.86 131.627 208.218C131.506 207.934 131.044 208.06 131.145 208.344L131.16 208.295Z" fill="black"/>
<path d="M149.417 220.871C149.607 220.479 149.9 220.146 150.264 219.908C150.65 219.627 151.084 219.42 151.545 219.297C152.439 219.082 153.361 219.529 153.745 220.365C154.578 222.113 153.177 223.774 151.651 224.477C151.199 224.688 150.705 224.797 150.206 224.795C149.709 224.775 149.21 224.785 148.714 224.823C148.411 224.857 148.411 225.339 148.714 225.305C149.234 225.266 149.757 225.257 150.278 225.276C150.79 225.267 151.294 225.156 151.761 224.949C152.736 224.555 153.551 223.847 154.077 222.936C154.536 222.087 154.575 221.074 154.183 220.192C153.782 219.269 152.848 218.693 151.843 218.748C151.235 218.811 150.654 219.028 150.153 219.378C149.66 219.665 149.256 220.083 148.988 220.587C148.853 220.861 149.267 221.107 149.407 220.828L149.417 220.871Z" fill="black"/>
<path d="M132.123 191.561C132.917 191.371 133.752 191.438 134.506 191.753C134.635 191.787 134.767 191.713 134.804 191.585C134.836 191.456 134.762 191.326 134.636 191.286C133.796 190.949 132.872 190.884 131.993 191.099C131.694 191.171 131.819 191.633 132.123 191.58V191.561Z" fill="black"/>
<path d="M138.998 191.715C139.541 191.285 140.242 191.109 140.924 191.233C141.051 191.264 141.18 191.19 141.217 191.065C141.251 190.936 141.177 190.804 141.049 190.766C140.241 190.593 139.398 190.78 138.738 191.277C138.624 191.343 138.585 191.489 138.651 191.604C138.718 191.718 138.864 191.756 138.979 191.691L138.998 191.715Z" fill="black"/>
<path d="M133.669 194.627C134.877 195.002 136.336 195.108 137.256 194.054H136.914C137.383 194.545 138.031 194.825 138.711 194.831C139.39 194.836 140.043 194.566 140.52 194.083C140.741 193.861 140.399 193.519 140.183 193.741C139.797 194.136 139.266 194.356 138.713 194.351C138.16 194.346 137.634 194.115 137.256 193.712C137.16 193.619 137.009 193.619 136.914 193.712C136.11 194.617 134.849 194.487 133.799 194.164C133.501 194.073 133.375 194.535 133.669 194.646V194.627Z" fill="black"/>
<path d="M130.385 194.28C130.518 194.28 130.626 194.172 130.626 194.04C130.626 193.907 130.518 193.799 130.385 193.799C130.252 193.799 130.145 193.907 130.145 194.04C130.145 194.172 130.252 194.28 130.385 194.28Z" fill="black"/>
<path d="M131.69 193.601C131.823 193.601 131.931 193.493 131.931 193.36C131.931 193.227 131.823 193.119 131.69 193.119C131.557 193.119 131.449 193.227 131.449 193.36C131.449 193.493 131.557 193.601 131.69 193.601Z" fill="black"/>
<path d="M131.69 195.27C131.823 195.27 131.931 195.163 131.931 195.03C131.931 194.897 131.823 194.789 131.69 194.789C131.557 194.789 131.449 194.897 131.449 195.03C131.449 195.163 131.557 195.27 131.69 195.27Z" fill="black"/>
<path d="M142.411 193.288C142.544 193.288 142.651 193.18 142.651 193.047C142.651 192.914 142.544 192.807 142.411 192.807C142.278 192.807 142.17 192.914 142.17 193.047C142.17 193.18 142.278 193.288 142.411 193.288Z" fill="black"/>
<path d="M143.561 193.968C143.694 193.968 143.802 193.86 143.802 193.727C143.802 193.594 143.694 193.486 143.561 193.486C143.428 193.486 143.32 193.594 143.32 193.727C143.32 193.86 143.428 193.968 143.561 193.968Z" fill="black"/>
<path d="M142.411 194.905C142.544 194.905 142.651 194.797 142.651 194.665C142.651 194.532 142.544 194.424 142.411 194.424C142.278 194.424 142.17 194.532 142.17 194.665C142.17 194.797 142.278 194.905 142.411 194.905Z" fill="black"/>
<path d="M132.618 200.771C131.867 200.737 131.506 201.565 131.588 202.215C131.676 202.944 132.208 203.541 132.921 203.713C133.631 203.877 134.367 203.58 134.763 202.968C135.159 202.357 135.129 201.563 134.688 200.983L134.414 201.334C137.155 201.761 139.958 201.539 142.598 200.684C142.892 200.588 142.766 200.121 142.473 200.203C139.917 201.039 137.201 201.264 134.544 200.858C134.361 200.829 134.13 201.021 134.269 201.214C134.574 201.6 134.626 202.129 134.402 202.567C134.179 203.006 133.721 203.274 133.229 203.255C132.73 203.225 132.297 202.899 132.132 202.427C131.987 202.037 132.035 201.224 132.613 201.252C132.921 201.252 132.921 200.771 132.613 200.771H132.618Z" fill="black"/>
<path d="M130.279 200.684C130.206 200.713 130.13 200.736 130.053 200.751H129.99C129.937 200.751 130.038 200.751 129.99 200.751H129.673C129.711 200.751 129.711 200.751 129.673 200.751C129.596 200.737 129.52 200.718 129.446 200.693C129.318 200.662 129.187 200.736 129.148 200.862C129.116 200.99 129.19 201.121 129.316 201.16C129.668 201.276 130.05 201.266 130.395 201.131C130.455 201.114 130.506 201.074 130.539 201.021C130.573 200.966 130.582 200.899 130.563 200.838C130.547 200.776 130.507 200.723 130.452 200.691C130.397 200.66 130.331 200.652 130.27 200.669L130.279 200.684Z" fill="black"/>
<path d="M136.071 225.974C136.292 226.21 136.585 226.368 136.904 226.422L138.026 226.682C138.112 226.705 138.204 226.68 138.267 226.618C138.33 226.555 138.355 226.463 138.332 226.377C138.309 226.291 138.242 226.223 138.156 226.2C137.8 226.118 137.443 226.041 137.087 225.955C136.961 225.928 136.837 225.891 136.716 225.844C136.595 225.797 136.489 225.719 136.408 225.618C136.364 225.572 136.303 225.547 136.24 225.547C136.176 225.547 136.116 225.572 136.071 225.618C135.979 225.713 135.979 225.864 136.071 225.959V225.974Z" fill="black"/>
<ellipse cx="140.034" cy="341.347" rx="43.3287" ry="4.57358" fill="#EBEFFE"/>
<path d="M117.155 155.246L112.067 187.352L106.973 219.459L104.123 237.46C104.123 237.532 104.224 237.566 104.239 237.489L109.337 205.382L114.416 173.295L117.271 155.294C117.271 155.217 117.17 155.188 117.155 155.26V155.246Z" fill="black"/>
<path d="M119.616 125.82C119.643 125.813 119.661 125.788 119.661 125.76C119.661 125.732 119.643 125.708 119.616 125.7C119.589 125.708 119.57 125.732 119.57 125.76C119.57 125.788 119.589 125.813 119.616 125.82Z" fill="black"/>
<path d="M120.136 128.874L119.496 132.634C119.496 132.711 119.602 132.744 119.612 132.667L120.252 128.907C120.252 128.83 120.151 128.797 120.136 128.874Z" fill="black"/>
<path d="M138.705 84.3403L138.118 99.0336L137.535 113.722L137.203 121.998C137.203 122.075 137.319 122.075 137.323 121.998L137.911 107.305L138.493 92.6161L138.826 84.3403C138.818 84.3134 138.793 84.2949 138.765 84.2949C138.737 84.2949 138.713 84.3134 138.705 84.3403Z" fill="black"/>
<path d="M162.217 134.545C162.082 138.117 162.294 141.693 162.848 145.224C162.848 145.301 162.973 145.272 162.963 145.195C162.411 141.673 162.201 138.107 162.337 134.545C162.33 134.519 162.305 134.5 162.277 134.5C162.249 134.5 162.225 134.519 162.217 134.545Z" fill="black"/>
<path d="M170.203 155.886C170.482 159.984 170.828 164.075 171.238 168.158C171.649 172.24 172.131 176.302 172.683 180.343C173.004 182.644 173.336 184.94 173.679 187.232C173.679 187.309 173.809 187.275 173.795 187.203C173.153 183.13 172.593 179.048 172.115 174.955C171.636 170.863 171.216 166.8 170.853 162.766C170.657 160.474 170.481 158.181 170.324 155.886C170.324 155.809 170.198 155.809 170.203 155.886Z" fill="black"/>
<path d="M342.209 25.0947C342.342 25.0947 342.45 24.9869 342.45 24.854C342.45 24.7211 342.342 24.6133 342.209 24.6133C342.077 24.6133 341.969 24.7211 341.969 24.854C341.969 24.9869 342.077 25.0947 342.209 25.0947Z" fill="black"/>
</svg>
